<svg width="30" height="32" viewBox="0 0 30 32" fill="none" xmlns="http://www.w3.org/2000/svg">
<g clip-path="url(#clip0_994_26)">
<rect x="12" y="31" width="6" height="6" transform="rotate(-90 12 31)" fill="white"/>
<rect x="18" y="25" width="6" height="6" transform="rotate(-90 18 25)" fill="white"/>
<rect x="24" y="19" width="6" height="6" transform="rotate(-90 24 19)" fill="white"/>
<rect x="12" y="19" width="6" height="6" transform="rotate(-90 12 19)" fill="white"/>
<rect x="6" y="19" width="6" height="6" transform="rotate(-90 6 19)" fill="white"/>
<rect y="19" width="6" height="6" transform="rotate(-90 0 19)" fill="white"/>
<rect x="18" y="13" width="6" height="6" transform="rotate(-90 18 13)" fill="white"/>
<rect x="12" y="7" width="6" height="6" transform="rotate(-90 12 7)" fill="white"/>
</g>
<defs>
<clipPath id="clip0_994_26">
<rect width="32" height="30" fill="white" transform="translate(0 32) rotate(-90)"/>
</clipPath>
</defs>
</svg>
