<svg width="150" height="80" viewBox="0 0 150 80" fill="none" xmlns="http://www.w3.org/2000/svg">
<path d="M88.4111 2.02441L128.706 25.9999L128.5 77.4999" stroke="white" stroke-width="1.5" stroke-linecap="square"/>
<path fill-rule="evenodd" clip-rule="evenodd" d="M60.1841 35.9268L30.665 42.6305V44.7341L60.1841 39.0761V35.9268Z" fill="white"/>
<path fill-rule="evenodd" clip-rule="evenodd" d="M56.5103 45.29H54.4463V75H56.5103V45.29ZM56.5103 79H54.4463V79.0031H56.5103V79ZM54 79V75H28V79H54Z" fill="white"/>
<path fill-rule="evenodd" clip-rule="evenodd" d="M60.1841 35.9268L30.665 42.6305V43.0113L60.1841 36.4708V35.9268Z" fill="white"/>
<path fill-rule="evenodd" clip-rule="evenodd" d="M31.0461 42.6797V44.6697L30.665 44.7396V42.7396L31.0461 42.6797Z" fill="white"/>
<path d="M149 77H88V79H149V77Z" fill="white"/>
<path fill-rule="evenodd" clip-rule="evenodd" d="M32.773 79V45.29L30.938 45.1899L30.665 44.74L32.773 44.27V22L7 33V79H32.773ZM34.618 22V43.98L60.184 39.08V35.92L61.262 36.1801V18L40.121 25L34.618 22ZM61.262 44.74V42.4399L40.2002 46.0365V75H34.618V79H43.456V47.64L61.262 44.74ZM13.366 50.14L16.593 49.5L16.627 65.5L13.4 65.8199L13.366 50.14ZM23.509 48.1899L27.221 47.49V64.4L23.509 64.77V48.1899ZM88.143 79V1L63.233 11V79H88.143ZM70.449 38.85L75.056 37.97L75.106 59.72L70.498 60.16L70.449 38.85Z" fill="white"/>
</svg>
