<svg width="250" height="200" viewBox="0 0 250 200" fill="none" xmlns="http://www.w3.org/2000/svg">
<path opacity="0.5" d="M67.6516 174.4C56.0516 174.4 45.7182 171.533 36.6516 165.8C27.5849 160.067 20.4516 151.8 15.2516 141C10.1849 130.067 7.65156 117.067 7.65156 102C7.65156 86.9333 10.1849 74 15.2516 63.2C20.4516 52.2667 27.5849 43.9333 36.6516 38.2C45.7182 32.4667 56.0516 29.6 67.6516 29.6C79.2516 29.6 89.5849 32.4667 98.6516 38.2C107.718 43.9333 114.785 52.2667 119.852 63.2C125.052 74 127.652 86.9333 127.652 102C127.652 117.067 125.052 130.067 119.852 141C114.785 151.8 107.718 160.067 98.6516 165.8C89.5849 171.533 79.2516 174.4 67.6516 174.4ZM67.6516 147C76.1849 147 82.8516 143.333 87.6516 136C92.5849 128.667 95.0516 117.333 95.0516 102C95.0516 86.6667 92.5849 75.3333 87.6516 68C82.8516 60.6667 76.1849 57 67.6516 57C59.2516 57 52.5849 60.6667 47.6516 68C42.8516 75.3333 40.4516 86.6667 40.4516 102C40.4516 117.333 42.8516 128.667 47.6516 136C52.5849 143.333 59.2516 147 67.6516 147ZM206.841 89C219.107 91 228.507 95.6 235.041 102.8C241.574 109.867 244.841 118.667 244.841 129.2C244.841 137.333 242.707 144.867 238.441 151.8C234.174 158.6 227.641 164.067 218.841 168.2C210.174 172.333 199.507 174.4 186.841 174.4C176.974 174.4 167.241 173.133 157.641 170.6C148.174 167.933 140.107 164.2 133.441 159.4L146.041 134.6C151.374 138.6 157.507 141.733 164.441 144C171.507 146.133 178.707 147.2 186.041 147.2C194.174 147.2 200.574 145.667 205.241 142.6C209.907 139.4 212.241 134.933 212.241 129.2C212.241 117.733 203.507 112 186.041 112H171.241V90.6L200.041 58H140.441V32H238.441V53L206.841 89Z" fill="#D2BEEC"/>
</svg>
