<svg width="184" height="144" viewBox="0 0 184 144" fill="none" xmlns="http://www.w3.org/2000/svg">
<g clip-path="url(#clip0_810_11)">
<path d="M21.12 125.928C21.12 126.36 20.88 126.6 20.448 126.6H16.224C15.792 126.6 15.552 126.36 15.552 125.928V113.448C13.44 114.264 11.328 114.984 9.408 115.56C9.312 115.608 9.264 115.608 9.168 115.608C8.88 115.608 8.688 115.368 8.64 115.032L7.872 110.136V109.992C7.872 109.656 8.064 109.464 8.4 109.368C10.608 108.792 13.104 108.024 15.552 107.208V97.464H13.536C13.296 99.576 12.96 101.592 12.528 103.272C12.432 103.704 12.096 103.848 11.664 103.704L8.064 102.408C7.68 102.264 7.536 102.024 7.632 101.592C8.688 97.608 9.024 92.808 9.024 88.584V86.952C9.024 86.52 9.312 86.28 9.744 86.328L13.488 86.664C13.92 86.712 14.112 86.904 14.112 87.336C14.112 88.728 14.112 90.312 14.016 91.944H15.552V83.496C15.552 83.064 15.792 82.824 16.224 82.824H20.448C20.88 82.824 21.12 83.064 21.12 83.496V91.944H24.096C24.528 91.944 24.768 92.184 24.768 92.616V96.456C24.864 96.36 25.008 96.312 25.2 96.312H34.704V92.136H26.496C26.064 92.136 25.824 91.896 25.824 91.464V87.336C25.824 86.904 26.064 86.664 26.496 86.664H34.704V83.496C34.704 83.064 34.944 82.824 35.376 82.824H40.08C40.512 82.824 40.752 83.064 40.752 83.496V86.664H49.872C50.304 86.664 50.544 86.904 50.544 87.336V91.464C50.544 91.896 50.304 92.136 49.872 92.136H40.752V96.312H51.408C51.84 96.312 52.08 96.552 52.08 96.984V101.112C52.08 101.544 51.84 101.784 51.408 101.784H47.664V105.672H51.072C51.504 105.672 51.744 105.912 51.744 106.344V110.568C51.744 111 51.504 111.24 51.072 111.24H47.664V119.352C47.664 124.248 46.944 126.6 38.976 126.6H37.536C37.152 126.6 36.864 126.408 36.72 126.024L35.136 121.704C35.088 121.608 35.088 121.512 35.088 121.416C35.088 121.08 35.328 120.888 35.76 120.936C36.24 120.936 36.672 120.984 37.104 120.984C41.184 120.984 41.712 119.928 41.712 118.248V111.24H26.064C25.632 111.24 25.392 111 25.392 110.568V106.344C25.392 105.912 25.632 105.672 26.064 105.672H41.712V101.784H25.2C24.768 101.784 24.528 101.544 24.528 101.112V97.32C24.432 97.416 24.288 97.464 24.096 97.464H21.12V105.432C22.128 105.048 23.088 104.616 23.904 104.232C24.048 104.184 24.144 104.136 24.288 104.136C24.528 104.136 24.672 104.328 24.672 104.712V109.224C24.672 109.608 24.528 109.896 24.192 110.04C23.28 110.472 22.272 110.952 21.12 111.432V125.928ZM32.496 121.512C31.248 119.16 29.232 116.328 27.264 114.552C27.12 114.408 27.024 114.264 27.024 114.12C27.024 113.928 27.168 113.784 27.408 113.64L31.344 111.672C31.488 111.576 31.632 111.576 31.776 111.576C31.968 111.576 32.16 111.624 32.304 111.768C34.224 113.448 36.576 116.184 37.872 118.536C37.92 118.68 37.968 118.776 37.968 118.92C37.968 119.112 37.824 119.304 37.584 119.448L33.408 121.8C33.264 121.848 33.168 121.896 33.024 121.896C32.832 121.896 32.64 121.752 32.496 121.512ZM69.648 115.08C69.168 115.08 68.928 114.84 68.928 114.36V111.24C68.928 110.76 69.168 110.52 69.648 110.52H73.68V106.872H68.784C68.304 106.872 68.064 106.632 68.064 106.152V102.6C68.064 102.12 68.304 101.88 68.784 101.88H82.656L82.56 101.736C82.464 101.592 82.416 101.4 82.416 101.256C82.416 101.064 82.464 100.92 82.56 100.728C82.896 100.152 83.184 99.576 83.52 98.952H68.496C67.584 100.488 66.624 102.024 65.712 103.368V125.88C65.712 126.36 65.472 126.6 64.992 126.6H60.72C60.24 126.6 60 126.36 60 125.88V110.088C59.376 110.808 58.704 111.432 58.032 112.056C57.888 112.2 57.696 112.296 57.552 112.296C57.36 112.296 57.168 112.152 57.072 111.816L55.488 107.112C55.44 106.968 55.392 106.872 55.392 106.728C55.392 106.536 55.488 106.344 55.728 106.152C59.04 103.512 62.208 99.24 64.128 95.544C64.272 95.256 64.464 95.112 64.656 95.112C64.8 95.112 64.944 95.16 65.088 95.256L67.776 96.648V86.136C67.776 85.656 68.016 85.416 68.496 85.416H71.376C71.856 85.416 72.096 85.656 72.096 86.136V93.864H73.872V83.688C73.872 83.208 74.112 82.968 74.592 82.968H77.808C78.288 82.968 78.528 83.208 78.528 83.688V93.864H80.352V86.088C80.352 85.608 80.592 85.368 81.072 85.368H83.904C84.384 85.368 84.624 85.608 84.624 86.088V96.456C86.208 92.472 87.36 87.72 87.888 83.592C87.936 83.112 88.224 82.92 88.704 82.968L92.736 83.544C93.216 83.592 93.408 83.88 93.312 84.36C92.976 85.992 92.592 87.72 92.112 89.448H99.264C99.744 89.448 99.984 89.688 99.984 90.168V94.248C99.984 94.728 99.744 94.968 99.264 94.968H98.592C98.4 102.168 97.632 109.224 95.088 114.744C96.576 117.144 98.304 119.16 100.128 120.696C100.32 120.888 100.464 121.08 100.464 121.272C100.464 121.416 100.416 121.56 100.32 121.704L97.968 125.688C97.824 125.928 97.632 126.072 97.44 126.072C97.248 126.072 97.104 125.976 96.96 125.832C95.28 124.104 93.648 121.992 92.352 119.64C91.008 121.944 89.328 124.056 87.312 125.928C87.168 126.072 86.976 126.168 86.832 126.168C86.64 126.168 86.448 126.024 86.304 125.784L84.48 123.048C84.384 123.096 84.288 123.144 84.192 123.144C79.296 124.008 73.152 124.776 68.64 125.064H68.544C68.16 125.064 67.968 124.776 67.872 124.392L67.248 120.504V120.312C67.248 119.928 67.44 119.688 67.872 119.688C69.696 119.592 71.664 119.496 73.68 119.304V115.08H69.648ZM58.896 97.608C58.752 97.752 58.608 97.8 58.464 97.8C58.224 97.8 58.032 97.656 57.888 97.368L55.872 93.336C55.824 93.192 55.776 93.096 55.776 92.952C55.776 92.712 55.872 92.52 56.112 92.328C58.848 90.12 61.392 86.712 62.88 83.448C63.024 83.16 63.216 83.016 63.456 83.016C63.552 83.016 63.696 83.064 63.84 83.112L67.296 84.792C67.584 84.936 67.728 85.128 67.728 85.416C67.728 85.512 67.68 85.656 67.632 85.8C65.712 90.12 62.208 94.968 58.896 97.608ZM90.72 94.968C90.72 99.336 91.248 104.664 92.352 108.888C93.36 104.952 93.792 100.104 93.936 94.968H90.72ZM79.152 118.68C80.88 118.44 82.56 118.2 84.096 117.912H84.336C84.672 117.912 84.864 118.104 84.864 118.536V120.12C86.784 118.536 88.464 116.712 89.712 114.552C88.368 111.144 87.408 106.92 86.976 102.792C86.688 103.56 86.352 104.328 86.016 105.048C85.92 105.288 85.728 105.432 85.536 105.432C85.392 105.432 85.2 105.288 85.008 105.096L84.24 104.04V106.152C84.24 106.632 84 106.872 83.52 106.872H79.152V110.52H83.136C83.616 110.52 83.856 110.76 83.856 111.24V114.36C83.856 114.84 83.616 115.08 83.136 115.08H79.152V118.68Z" fill="#414141"/>
<path d="M101.188 67.6843L101.174 67.5362L95.7802 65.4356C92.6904 64.0182 89.6868 62.563 86.6832 61.1078C83.7038 59.5906 80.7589 57.8012 77.7866 55.7155C77.1534 54.0408 77.0026 52.4112 77.2479 50.8644C77.5173 49.2556 78.145 47.6435 79.0554 45.8558L79.1657 45.756L81.1455 40.6717L81.8973 39.1079C80.8871 40.7852 79.8769 42.4626 78.8288 44.0539C76.5741 47.4602 74.061 50.9801 71.3377 54.4896L66.2671 52.6579L66.2507 50.8664C68.8154 47.5808 71.1699 44.2847 73.3006 40.8301C75.4933 37.3996 77.5 33.8967 79.3827 30.3455L79.4623 29.5911L79.4003 29.5669L78.7692 30.8207L73.8227 29.0373C73.4304 28.0277 73.4238 27.3111 73.6789 26.8392C73.9582 26.3053 74.1273 25.8713 74.1481 25.451L76.5142 19.3746L76.4385 19.2023L78.9254 12.816L80.1183 10.8527L81.0346 11.0667L81.3277 10.681L83.2465 11.0712L87.7646 7.90357C89.4601 6.85008 91.1282 5.5003 92.8929 3.90249L97.9014 5.71002L97.8317 7.53941C96.3013 9.08564 94.6574 10.3734 92.9377 11.4889C91.1802 12.5183 90.0636 13.3687 89.488 13.93C90.4559 14.3784 91.9577 15.106 94.0312 16.199C96.0806 17.3541 98.4263 18.4817 101.058 19.7921L100.764 21.4629L100.471 21.8486L98.3663 29.4548L99.0313 29.2139L105.17 31.6042L109.934 33.6734L110.91 29.6981C110.463 29.3809 109.681 29.005 108.627 28.5946C107.535 28.098 106.133 27.4807 104.569 26.7289L104.687 24.7755C106.441 24.6729 107.801 24.8458 108.769 25.2941C109.823 25.7046 110.729 26.1287 111.659 26.4909L111.883 26.6495L114.578 17.3451C115.825 17.2595 116.828 17.4357 117.572 17.7254C118.292 18.0771 119.222 18.4393 120.338 18.8739C120.013 21.1752 119.512 23.1938 118.985 24.9162C118.433 26.7006 118.001 28.175 117.605 29.3772L122.282 31.4843L122.13 33.7099C120.483 33.3543 119.195 32.9954 118.327 32.6574L116.9 32.1021L115.813 36.1773L117.736 36.9257L117.908 36.85L124.48 39.4093L124.713 41.9279C122.212 41.3824 120.156 40.7958 118.582 40.2542C117.007 39.7126 115.829 39.2539 115.023 38.94L114.999 39.002L114.412 41.0585C115.803 43.1711 117.208 45.4318 118.454 47.9164C119.7 50.4009 121.598 52.4965 124.257 54.1031L124.101 55.9704C122.606 55.9594 121.517 55.8211 120.797 55.4693C120.115 55.2038 119.457 54.8762 118.775 54.6106C116.839 53.714 115.369 52.3559 114.363 50.5364C113.472 48.9753 112.956 47.9174 112.666 47.3763C112.176 49.1849 111.724 51.0795 111.248 53.0362C110.713 55.3271 109.968 57.6075 109.074 59.9016L107.447 62.9809L102.438 61.1734C102.218 60.088 102.236 59.3094 102.453 58.7514C102.732 58.2175 102.95 57.6595 103.119 57.2254L104.208 54.7936L106.931 44.5005C106.342 44.9136 105.667 45.3646 104.991 45.8157C103.592 46.8417 101.917 47.4749 99.9188 47.8392L95.5786 46.1491L95.4244 44.1611C98.2086 43.246 100.607 42.0377 102.744 40.5848C104.818 39.1077 106.883 37.8408 108.998 36.8082L109.119 36.4982L97.8417 31.5355L96.6098 35.9827L95.4964 37.1915L90.6119 35.4322C90.1257 36.314 89.6533 37.3439 88.9981 38.6597C88.5498 39.6276 88.1876 40.5577 87.7393 41.5256L90.8972 36.9L96.0676 38.842L95.9255 40.8574L92.1332 46.3784C93.122 46.4064 93.9385 46.5101 94.5344 46.8136C95.2784 47.1033 96.1223 47.5033 97.1764 47.9138C97.1824 49.9155 97.1368 51.6829 97.0775 53.3021C97.0182 54.9213 96.8865 56.7266 96.8064 58.7661C95.4351 58.8034 94.3465 58.6651 93.6025 58.3754C92.8826 58.0236 92.0145 57.6856 91.0845 57.3234C90.8266 56.152 90.7443 55.263 90.8376 54.6567C90.893 53.9643 90.9139 53.544 91.0105 53.2959L87.6727 51.782C86.6428 51.3095 85.451 50.7027 84.2455 49.9476L83.1936 52.4656L83.4196 55.5526C85.7686 57.0386 88.4139 58.4971 91.2693 59.966C94.1489 61.373 97.0285 62.7799 99.9943 64.149L105.885 66.4427L107.535 67.1566C108.833 67.3053 110.304 67.3783 111.837 67.4754C113.408 67.6587 115.193 68.2108 117.29 69.2418L117.458 71.3779C115.643 71.4564 114.296 71.4317 113.269 71.3175C112.304 71.2275 111.254 71.1754 110.117 71.1611L101.188 67.6843ZM83.5523 28.2561L83.6006 28.1321L85.012 23.0407L82.5149 21.5685L80.4626 26.8388L83.5523 28.2561ZM90.5952 49.7782C90.8432 49.8748 90.943 49.985 91.067 50.0333L91.2921 47.6218L90.0234 49.4127C89.8374 49.3403 89.9993 49.4747 90.5952 49.7782ZM89.2632 31.194L91.1991 32.0906L92.6346 26.9372C92.0902 26.868 91.7182 26.7232 91.4082 26.6025C90.9983 26.3715 90.7503 26.2749 90.6263 26.2266L89.2632 31.194ZM91.6854 23.1401L93.3145 24.2743L94.5222 19.8891L92.8964 19.1132L92.5343 20.0432L91.6854 23.1401ZM84.8656 19.1992C85.5613 19.6129 85.9092 19.8198 85.9712 19.8439L87.1855 16.1753L85.0017 15.1821L83.5739 18.482C83.6359 18.5062 84.1078 18.7613 84.8656 19.1992ZM129.924 77.8743C129.683 77.2093 129.58 76.7407 129.676 76.4927L130.111 75.3766L139.582 59.8566C142.661 54.7004 145.395 49.6957 148.005 44.6427C146.194 43.7944 144.764 42.8808 142.863 41.712C140.962 40.5432 138.64 39.3536 136.418 38.2743L136.709 36.2451C138.07 36.418 139.568 36.7873 140.622 37.1978L143.846 38.4533L149.485 41.5771L157.077 27.3965L162.334 29.3006C162.537 29.8795 162.616 30.4101 162.519 30.6581L162.085 31.7742L155.457 44.7598C158.509 46.091 161.313 47.3256 164.723 48.6535C168.171 50.0676 171.757 51.6781 175.012 53.5882L174.608 55.3589L167.38 70.2529C164.966 75.1682 162.046 80.1004 158.692 84.8637L153.311 82.9113L153.395 81.2301C156.404 76.6182 159.142 71.9718 161.532 67.1186C163.921 62.2653 166.142 57.8461 168.263 53.3165L154.047 47.281C151.402 52.6062 148.534 57.7728 145.382 63.1149L135.056 79.7301L129.924 77.8743Z" fill="#414141"/>
<g clip-path="url(#clip1_810_11)">
<path fill-rule="evenodd" clip-rule="evenodd" d="M5.70237 100.996C4.60946 101.085 3.67903 99.6825 3.63028 97.875C3.57746 96.0624 4.42261 94.523 5.51552 94.4389C18.6629 93.5457 32.2897 93.0675 46.4569 93.0045C60.2503 92.9467 74.5515 93.4563 89.4378 94.1131C91.2702 94.1971 93.1106 94.2602 94.9633 94.318C99.213 94.4388 103.512 94.5073 107.859 94.6544C108.879 94.728 109.671 96.1622 109.626 97.8488C109.581 99.5406 108.72 100.854 107.7 100.781C102.536 100.224 97.4457 99.6194 92.4118 99.2832C80.1258 98.4688 68.2256 98.4585 56.6911 98.5373C38.8755 98.6581 21.9213 99.5511 5.70237 100.996Z" fill="#414141"/>
<path fill-rule="evenodd" clip-rule="evenodd" d="M5.67376 118.998C4.58087 119.055 3.66269 117.768 3.62613 116.124C3.58956 114.479 4.44672 113.102 5.5396 113.045C5.5396 113.045 57.474 111.033 87.2907 109.551C89.4602 109.441 91.516 109.336 93.4214 109.203C102.071 108.593 107.714 108.002 107.714 108.002C108.734 107.949 109.591 109.15 109.624 110.685C109.66 112.215 108.86 113.502 107.84 113.555C107.84 113.555 102.181 113.54 93.5271 113.822C91.6176 113.884 89.5659 113.988 87.3963 114.103C57.5797 115.68 5.67376 118.998 5.67376 118.998Z" fill="#414141"/>
</g>
<path fill-rule="evenodd" clip-rule="evenodd" d="M50.907 33.7935L56.8479 58.7454L52.7541 59.8898L45.625 36.7201L46.2191 34.9378L50.907 33.7935ZM181.625 96.5L178.655 97.0941L155.7 98.2726L155.27 95.0771L155.485 93.5295L181.41 91.163L181.625 96.5Z" fill="#414141"/>
</g>
<defs>
<clipPath id="clip0_810_11">
<rect width="184" height="144" fill="white"/>
</clipPath>
<clipPath id="clip1_810_11">
<rect width="119" height="28" fill="white" transform="translate(3.625 93)"/>
</clipPath>
</defs>
</svg>
