<svg width="250" height="200" viewBox="0 0 250 200" fill="none" xmlns="http://www.w3.org/2000/svg">
<path opacity="0.5" d="M67.2609 174.4C55.6609 174.4 45.3276 171.533 36.2609 165.8C27.1943 160.067 20.0609 151.8 14.8609 141C9.79427 130.067 7.26094 117.067 7.26094 102C7.26094 86.9333 9.79427 74 14.8609 63.2C20.0609 52.2667 27.1943 43.9333 36.2609 38.2C45.3276 32.4667 55.6609 29.6 67.2609 29.6C78.8609 29.6 89.1943 32.4667 98.2609 38.2C107.328 43.9333 114.394 52.2667 119.461 63.2C124.661 74 127.261 86.9333 127.261 102C127.261 117.067 124.661 130.067 119.461 141C114.394 151.8 107.328 160.067 98.2609 165.8C89.1943 171.533 78.8609 174.4 67.2609 174.4ZM67.2609 147C75.7943 147 82.4609 143.333 87.2609 136C92.1943 128.667 94.6609 117.333 94.6609 102C94.6609 86.6667 92.1943 75.3333 87.2609 68C82.4609 60.6667 75.7943 57 67.2609 57C58.8609 57 52.1943 60.6667 47.2609 68C42.4609 75.3333 40.0609 86.6667 40.0609 102C40.0609 117.333 42.4609 128.667 47.2609 136C52.1943 143.333 58.8609 147 67.2609 147ZM246.431 145.6V172H140.631V151L194.631 100C200.365 94.5333 204.231 89.8667 206.231 86C208.231 82 209.231 78.0667 209.231 74.2C209.231 68.6 207.298 64.3333 203.431 61.4C199.698 58.3333 194.165 56.8 186.831 56.8C180.698 56.8 175.165 58 170.231 60.4C165.298 62.6667 161.165 66.1333 157.831 70.8L134.231 55.6C139.698 47.4667 147.231 41.1333 156.831 36.6C166.431 31.9333 177.431 29.6 189.831 29.6C200.231 29.6 209.298 31.3333 217.031 34.8C224.898 38.1333 230.965 42.9333 235.231 49.2C239.631 55.3333 241.831 62.6 241.831 71C241.831 78.6 240.231 85.7333 237.031 92.4C233.831 99.0667 227.631 106.667 218.431 115.2L186.231 145.6H246.431Z" fill="#A4EAB4"/>
</svg>
