<svg width="250" height="200" viewBox="0 0 250 200" fill="none" xmlns="http://www.w3.org/2000/svg">
<path opacity="0.5" d="M82.7375 174.4C71.2708 174.4 61.0042 171.6 51.9375 166C42.8708 160.267 35.7375 152 30.5375 141.2C25.3375 130.4 22.7375 117.333 22.7375 102C22.7375 86.6667 25.3375 73.6 30.5375 62.8C35.7375 52 42.8708 43.8 51.9375 38.2C61.0042 32.4667 71.2708 29.6 82.7375 29.6C94.3375 29.6 104.604 32.4667 113.538 38.2C122.604 43.8 129.738 52 134.938 62.8C140.138 73.6 142.738 86.6667 142.738 102C142.738 117.333 140.138 130.4 134.938 141.2C129.738 152 122.604 160.267 113.538 166C104.604 171.6 94.3375 174.4 82.7375 174.4ZM82.7375 147C88.2042 147 92.9375 145.467 96.9375 142.4C101.071 139.333 104.271 134.467 106.538 127.8C108.938 121.133 110.138 112.533 110.138 102C110.138 91.4667 108.938 82.8667 106.538 76.2C104.271 69.5333 101.071 64.6667 96.9375 61.6C92.9375 58.5333 88.2042 57 82.7375 57C77.4042 57 72.6708 58.5333 68.5375 61.6C64.5375 64.6667 61.3375 69.5333 58.9375 76.2C56.6708 82.8667 55.5375 91.4667 55.5375 102C55.5375 112.533 56.6708 121.133 58.9375 127.8C61.3375 134.467 64.5375 139.333 68.5375 142.4C72.6708 145.467 77.4042 147 82.7375 147ZM188.08 172V44L202.08 58H160.08V32H220.48V172H188.08Z" fill="#F8B7B7"/>
</svg>
