<svg width="48" height="48" viewBox="0 0 48 48" fill="none" xmlns="http://www.w3.org/2000/svg">
<path d="M11.1768 15.6152C14.689 15.0267 16.6595 15.0352 20.1768 15.6152" stroke="white" stroke-width="2" stroke-linecap="round"/>
<path fill-rule="evenodd" clip-rule="evenodd" d="M40.9652 37.0573C35.1538 35.9111 31.3524 35.9393 25.1768 37.1112C24.8503 37.1732 24.5172 37.2384 24.1768 37.3067C23.8364 37.2384 23.5032 37.1732 23.1768 37.1112C17.0011 35.9393 13.1997 35.9111 7.38833 37.0573C6.76387 37.1804 6.17676 36.7067 6.17676 36.0702V11.112C6.17676 10.6419 6.50563 10.2342 6.96593 10.1385C13.4224 8.79649 17.3304 8.86576 24.1768 10.3067C31.0231 8.86576 34.9311 8.79649 41.3876 10.1385C41.8479 10.2342 42.1768 10.6419 42.1768 11.112V36.0702C42.1768 36.7067 41.5896 37.1804 40.9652 37.0573ZM8.17676 11.9344C13.6815 10.8589 17.2252 10.9297 23.1768 12.142V35.0765C17.4107 34.0091 13.5263 33.9234 8.17676 34.8743V11.9344ZM25.1768 12.142V35.0765C30.9428 34.0091 34.8272 33.9234 40.1768 34.8743V11.9344C34.672 10.8589 31.1283 10.9297 25.1768 12.142Z" fill="white"/>
</svg>
