<svg width="24" height="24" viewBox="0 0 24 24" fill="none" xmlns="http://www.w3.org/2000/svg">
<path d="M11.5644 2.77279C11.7557 2.43347 12.2443 2.43347 12.4356 2.77279L15.0617 7.43195C15.133 7.55854 15.2559 7.64783 15.3984 7.67657L20.641 8.73438C21.0228 8.81142 21.1738 9.27614 20.9102 9.56289L17.2906 13.5002C17.1922 13.6072 17.1453 13.7517 17.162 13.896L17.776 19.2089C17.8207 19.5959 17.4254 19.8831 17.0712 19.721L12.2081 17.4952C12.076 17.4348 11.924 17.4348 11.7919 17.4952L6.92877 19.721C6.57459 19.8831 6.17927 19.5959 6.22399 19.2089L6.83802 13.896C6.85471 13.7517 6.80777 13.6072 6.70942 13.5002L3.0898 9.56289C2.82619 9.27614 2.97718 8.81142 3.359 8.73438L8.60164 7.67657C8.74408 7.64783 8.86697 7.55854 8.93832 7.43195L11.5644 2.77279Z" fill="#ECB800"/>
</svg>
