<svg width="24" height="24" viewBox="0 0 24 24" fill="none" xmlns="http://www.w3.org/2000/svg">
<path d="M6.46326 17.9641C3.5 19.0039 0.99916 16.5 0.99916 16.5C0.99916 16.5 2.73121 15.5 4.46326 14.5C5.41985 13.9477 6.64303 14.2755 7.19531 15.2321C7.7476 16.1886 7.50553 17.5984 6.46326 17.9641Z" fill="#3A8D13"/>
<path fill-rule="evenodd" clip-rule="evenodd" d="M13.1847 13.3572C13.2239 13.033 13.4615 12.7991 14.2203 12.8325C17.5477 12.9789 21.9051 13.8793 21.3878 17.3764C20.7243 21.8623 12.0076 21.8572 7.07541 20.9757C6.53174 20.8785 6.11395 20.3978 6.2176 19.8029C6.3124 19.2588 6.88281 19.0138 7.62786 19.137C10.6167 19.6309 18.6329 19.9998 19.4719 17.1274C20.2473 14.4725 15.111 14.2375 13.947 14.0443C13.3871 13.9514 13.1427 13.7044 13.1847 13.3572Z" fill="#3A8D13"/>
<path d="M17.4482 2.8282C17.8543 2.44678 18.49 2.45677 18.884 2.85077V2.85077C19.2781 3.24487 19.2879 3.88072 18.9063 4.28686L9.65593 14.1302C9.09395 14.7283 8.14872 14.7429 7.56844 14.1627V14.1627C6.98802 13.5822 7.00288 12.6367 7.60126 12.0748L17.4482 2.8282Z" fill="#3A8D13"/>
</svg>
