<svg width="16" height="16" viewBox="0 0 16 16" fill="none" xmlns="http://www.w3.org/2000/svg">
<g clip-path="url(#clip0_552_7130)">
<g clip-path="url(#clip1_552_7130)">
<path d="M13.4365 12.3633C13.4317 12.3681 13.3718 12.428 12.8555 12.9443L10.1818 10.2707L10.7628 9.68965C11.0173 9.43516 11.4301 9.43516 11.6847 9.6898L13.4365 11.4416C13.6911 11.6962 13.691 12.1088 13.4365 12.3633Z" fill="#757575"/>
<path d="M5.19381 10.7075C2.70084 8.21451 1.21947 4.78232 2.33943 3.66236C2.39664 3.60515 2.44875 3.55304 2.49991 3.50188L5.186 6.18797C5.04211 6.41539 5.04959 6.71386 5.22024 6.93424C5.22024 6.93424 5.72128 7.69438 6.9641 8.93719C8.20691 10.18 8.96704 10.681 8.96704 10.681C9.18742 10.8517 9.4859 10.8592 9.71331 10.7153L12.3994 13.4014C12.3482 13.4525 12.2961 13.5046 12.2389 13.5619C11.119 14.6818 7.68676 13.2004 5.19381 10.7075Z" fill="#757575"/>
<path d="M6.2109 5.13773L5.62988 5.71875L2.95623 3.04509C3.47255 2.52877 3.53247 2.46885 3.53724 2.46408C3.79173 2.20959 4.2043 2.2094 4.45896 2.46406L6.21074 4.21584C6.4654 4.47051 6.46538 4.88325 6.2109 5.13773Z" fill="#757575"/>
</g>
</g>
<defs>
<clipPath id="clip0_552_7130">
<rect width="16" height="16" fill="white"/>
</clipPath>
<clipPath id="clip1_552_7130">
<rect width="14" height="14" fill="white" transform="matrix(0.707107 -0.707107 -0.707107 -0.707107 7 18.8008)"/>
</clipPath>
</defs>
</svg>
