<svg width="32" height="32" viewBox="0 0 32 32" fill="none" xmlns="http://www.w3.org/2000/svg">
<path fill-rule="evenodd" clip-rule="evenodd" d="M15.9999 21.5714C15.9999 21.5714 23.4284 16 23.4284 10.4286C23.4284 6.32588 20.1025 3 15.9999 3C11.8972 3 8.57129 6.32588 8.57129 10.4286C8.57129 16 15.9999 21.5714 15.9999 21.5714ZM15.9994 14.1424C18.0508 14.1424 19.7137 12.4795 19.7137 10.4282C19.7137 8.37681 18.0508 6.71387 15.9994 6.71387C13.9481 6.71387 12.2852 8.37681 12.2852 10.4282C12.2852 12.4795 13.9481 14.1424 15.9994 14.1424Z" fill="#F7701B"/>
<path fill-rule="evenodd" clip-rule="evenodd" d="M20.3091 20.1789H23.6125L25.7792 26.6789H6.22081L8.38748 20.1789H11.6906C11.4298 19.9085 11.1639 19.6227 10.8975 19.3231C10.5032 18.8795 10.0924 18.3885 9.68886 17.8574H6.71429L3.77381 26.6789L3 29.0003H5.447H26.553H29L28.2262 26.6789L25.2857 17.8574H22.3109C21.9073 18.3885 21.4965 18.8795 21.1022 19.3231C20.8359 19.6227 20.5699 19.9085 20.3091 20.1789ZM17.6469 20.1789C18.3195 19.564 19.1248 18.772 19.9177 17.8574H12.082C12.8749 18.772 13.6802 19.564 14.3529 20.1789H17.6469Z" fill="#F7701B"/>
</svg>
