<svg width="48" height="48" viewBox="0 0 48 48" fill="none" xmlns="http://www.w3.org/2000/svg">
<rect x="16" y="7" width="16" height="5" rx="2.5" stroke="white" stroke-width="2"/>
<rect x="15" y="17" width="18" height="2" rx="1" fill="white"/>
<rect x="15" y="22" width="18" height="2" rx="1" fill="white"/>
<rect x="15" y="27" width="12" height="2" rx="1" fill="white"/>
<path fill-rule="evenodd" clip-rule="evenodd" d="M34 9L32.3584 9C32.1206 9 31.9208 8.83002 31.8359 8.60788C31.4779 7.67092 30.5724 7.00455 29.5107 7L34 7C36.2091 7 38 8.79086 38 11V18.5C38 18.7761 37.7761 19 37.5 19L36.5 19C36.2239 19 36 18.7761 36 18.5L36 11C36 9.89543 35.1046 9 34 9ZM36.5 35C36.2239 35 36 35.2239 36 35.5V37C36 38.1046 35.1046 39 34 39H14C12.8954 39 12 38.1046 12 37L12 11C12 9.89543 12.8954 9 14 9H15.641C15.8788 9 16.0787 8.83002 16.1636 8.60788C16.5216 7.67092 17.4271 7.00455 18.4888 7H14C11.7909 7 10 8.79086 10 11L10 37C10 39.2091 11.7909 41 14 41H34C36.2091 41 38 39.2091 38 37V35.5C38 35.2239 37.7761 35 37.5 35H36.5Z" fill="white"/>
<path d="M41.8486 19.3535C42.0439 19.1583 42.3604 19.1583 42.5557 19.3535L43.9699 20.7677C44.1652 20.963 44.1652 21.2796 43.9699 21.4748L30.6527 34.792C30.5762 34.8685 30.477 34.9181 30.3699 34.9334L28.72 35.1691C28.39 35.2163 28.1072 34.9334 28.1543 34.6035L28.39 32.9535C28.4053 32.8464 28.4549 32.7472 28.5314 32.6707L41.8486 19.3535Z" fill="white"/>
</svg>
