<svg width="32" height="32" viewBox="0 0 32 32" fill="none" xmlns="http://www.w3.org/2000/svg">
<path d="M8.50613 7.75595C8.62052 7.24122 9.07706 6.875 9.60434 6.875H22.3957C22.9229 6.875 23.3795 7.24122 23.4939 7.75595L24.9092 14.125H7.09079L8.50613 7.75595Z" stroke="#F7701B" stroke-width="1.75"/>
<path fill-rule="evenodd" clip-rule="evenodd" d="M6 15C4.89543 15 4 15.8954 4 17V23C4 24.1046 4.89543 25 6 25H26C27.1046 25 28 24.1046 28 23V17C28 15.8954 27.1046 15 26 15H6ZM23.5 20C24.3284 20 25 19.3284 25 18.5C25 17.6716 24.3284 17 23.5 17C22.6716 17 22 17.6716 22 18.5C22 19.3284 22.6716 20 23.5 20ZM10 18.5C10 19.3284 9.32843 20 8.5 20C7.67157 20 7 19.3284 7 18.5C7 17.6716 7.67157 17 8.5 17C9.32843 17 10 17.6716 10 18.5ZM13 20C12.4477 20 12 20.4477 12 21V22C12 22.5523 12.4477 23 13 23H19C19.5523 23 20 22.5523 20 22V21C20 20.4477 19.5523 20 19 20H13Z" fill="#F7701B"/>
<rect x="23" y="22" width="3" height="5" rx="1" fill="#F7701B"/>
<rect x="6" y="22" width="3" height="5" rx="1" fill="#F7701B"/>
</svg>
