<svg width="16" height="16" viewBox="0 0 16 16" fill="none" xmlns="http://www.w3.org/2000/svg">
<path fill-rule="evenodd" clip-rule="evenodd" d="M8 11C8 11 12 8 12 5C12 2.79086 10.2091 1 8 1C5.79086 1 4 2.79086 4 5C4 8 8 11 8 11ZM8 7C9.10457 7 10 6.10457 10 5C10 3.89543 9.10457 3 8 3C6.89543 3 6 3.89543 6 5C6 6.10457 6.89543 7 8 7Z" fill="#757575"/>
<path fill-rule="evenodd" clip-rule="evenodd" d="M10.3205 10.25H12.0991L13.2657 13.75H2.73428L3.90095 10.25H5.67948C5.5391 10.1045 5.39596 9.95065 5.25259 9.78936C5.04023 9.55046 4.81897 9.28602 4.60166 9H3L1.41667 13.75L1 15H2.31762H13.6824H15L14.5833 13.75L13 9H11.3983C11.181 9.28602 10.9598 9.55046 10.7474 9.78936C10.604 9.95065 10.4609 10.1045 10.3205 10.25ZM8.88701 10.25C9.24919 9.91889 9.68281 9.49246 10.1097 9H5.89026C6.31719 9.49246 6.75081 9.91889 7.11299 10.25H8.88701Z" fill="#757575"/>
</svg>
