<svg width="32" height="32" viewBox="0 0 32 32" fill="none" xmlns="http://www.w3.org/2000/svg">
<path d="M26.873 24.7266C26.8634 24.7362 26.7436 24.856 25.7109 25.8887L20.3636 20.5413L21.5256 19.3793C22.0346 18.8703 22.8601 18.8703 23.3694 19.3796L26.873 22.8832C27.3823 23.3925 27.3819 24.2177 26.873 24.7266Z" fill="#F7701B"/>
<path d="M10.3866 21.415C5.4007 16.429 2.43796 9.56465 4.67788 7.32473C4.7923 7.21031 4.89652 7.10609 4.99884 7.00377L10.371 12.3759C10.0832 12.8308 10.0982 13.4277 10.4395 13.8685C10.4395 13.8685 11.4416 15.3888 13.9272 17.8744C16.4128 20.36 17.9331 21.3621 17.9331 21.3621C18.3739 21.7034 18.9708 21.7184 19.4257 21.4306L24.7978 26.8028C24.6955 26.9051 24.5913 27.0093 24.4769 27.1237C22.237 29.3636 15.3725 26.4009 10.3866 21.415Z" fill="#F7701B"/>
<path d="M12.4208 10.2755L11.2588 11.4375L5.91148 6.09019C6.94412 5.05755 7.06395 4.93771 7.07351 4.92816C7.58248 4.41918 8.40762 4.4188 8.91694 4.92812L12.4205 8.43169C12.9298 8.94101 12.9298 9.7665 12.4208 10.2755Z" fill="#F7701B"/>
</svg>
