<svg width="24" height="24" viewBox="0 0 24 24" fill="none" xmlns="http://www.w3.org/2000/svg">
<path d="M11.5644 3.77279C11.7557 3.43347 12.2443 3.43347 12.4356 3.77279L15.0617 8.43196C15.133 8.55854 15.2559 8.64783 15.3984 8.67657L20.641 9.73438C21.0228 9.81142 21.1738 10.2761 20.9102 10.5629L17.2906 14.5002C17.1922 14.6072 17.1453 14.7517 17.162 14.896L17.776 20.2089C17.8207 20.5959 17.4254 20.8831 17.0712 20.721L12.2081 18.4952C12.076 18.4348 11.924 18.4348 11.7919 18.4952L6.92877 20.721C6.57459 20.8831 6.17927 20.5959 6.22399 20.2089L6.83802 14.896C6.85471 14.7517 6.80776 14.6072 6.70942 14.5002L3.0898 10.5629C2.82619 10.2761 2.97718 9.81142 3.359 9.73438L8.60164 8.67657C8.74408 8.64783 8.86697 8.55854 8.93832 8.43195L11.5644 3.77279Z" fill="#ECB800"/>
</svg>
