<svg width="1720" height="1160" viewBox="0 0 1720 1160" fill="none" xmlns="http://www.w3.org/2000/svg">
<path d="M895.05 250.594C895.343 250.543 895.96 250.364 896.243 249.636C896.126 249.937 895.999 250.263 895.657 250.44C895.579 250.641 895.294 250.668 895.02 250.67L895.05 250.594Z" fill="black"/>
<path d="M895.05 250.594C895.343 250.543 895.96 250.364 896.243 249.636C896.126 249.937 895.999 250.263 895.657 250.44C895.579 250.641 895.294 250.668 895.02 250.67L895.05 250.594Z" fill="url(#paint0_linear_685_56)"/>
<path d="M896.654 247.878C897.103 246.722 898.277 246.516 899.931 247.183C905.451 249.86 910.971 252.536 916.609 254.911C948.321 268.272 977.938 275.079 1001.22 272.169C1028.9 269.184 1051.36 250.785 1060.07 228.404C1070.47 201.676 1061.08 168.893 1015.03 149.495L1015.03 149.492C1010.8 147.712 1006.57 145.931 1001.64 144.555C962.642 132.362 922.596 127.069 889.47 123.667C889.47 123.667 889.45 123.717 889.205 123.643C888.922 123.735 888.521 123.562 888.273 123.455L888.272 123.454C888.246 123.443 888.222 123.432 888.2 123.423C887.73 123.225 887.308 122.901 886.965 122.376C886.949 122.302 886.929 122.218 886.906 122.127C886.795 121.667 886.635 121.006 886.692 120.273L886.711 120.224L889.273 84.114L889.332 83.9638C889.263 83.4378 889.439 82.9855 889.605 82.5585C889.83 81.9807 890.26 81.5779 890.642 81.3001C891.023 81.0222 891.815 81.0921 892.323 81.1895C892.558 81.2885 892.569 81.2625 892.569 81.2625C932.135 87.0854 976.173 95.4666 1021.16 110.559C1025.97 112.237 1030.44 114.118 1034.9 115.998C1069.9 130.744 1090.99 151.734 1100.96 174.589C1110.74 197.245 1109.91 221.889 1101.3 244.019C1087.26 280.091 1053.15 309.454 1012.95 314.388C975.416 318.806 932.57 306.66 897.216 291.415C895.337 290.623 894.758 289.298 894.689 287.368C894.689 287.368 896.206 251.841 896.273 249.559L896.654 247.878Z" fill="black"/>
<path d="M896.654 247.878C897.103 246.722 898.277 246.516 899.931 247.183C905.451 249.86 910.971 252.536 916.609 254.911C948.321 268.272 977.938 275.079 1001.22 272.169C1028.9 269.184 1051.36 250.785 1060.07 228.404C1070.47 201.676 1061.08 168.893 1015.03 149.495L1015.03 149.492C1010.8 147.712 1006.57 145.931 1001.64 144.555C962.642 132.362 922.596 127.069 889.47 123.667C889.47 123.667 889.45 123.717 889.205 123.643C888.922 123.735 888.521 123.562 888.273 123.455L888.272 123.454C888.246 123.443 888.222 123.432 888.2 123.423C887.73 123.225 887.308 122.901 886.965 122.376C886.949 122.302 886.929 122.218 886.906 122.127C886.795 121.667 886.635 121.006 886.692 120.273L886.711 120.224L889.273 84.114L889.332 83.9638C889.263 83.4378 889.439 82.9855 889.605 82.5585C889.83 81.9807 890.26 81.5779 890.642 81.3001C891.023 81.0222 891.815 81.0921 892.323 81.1895C892.558 81.2885 892.569 81.2625 892.569 81.2625C932.135 87.0854 976.173 95.4666 1021.16 110.559C1025.97 112.237 1030.44 114.118 1034.9 115.998C1069.9 130.744 1090.99 151.734 1100.96 174.589C1110.74 197.245 1109.91 221.889 1101.3 244.019C1087.26 280.091 1053.15 309.454 1012.95 314.388C975.416 318.806 932.57 306.66 897.216 291.415C895.337 290.623 894.758 289.298 894.689 287.368C894.689 287.368 896.206 251.841 896.273 249.559L896.654 247.878Z" fill="url(#paint1_linear_685_56)"/>
<path fill-rule="evenodd" clip-rule="evenodd" d="M1417.97 348.858L1407.97 348.535C1407.6 348.599 1407.24 348.661 1406.81 348.478C1405.79 348.05 1405.35 347.002 1405.5 345.765C1405.85 339.211 1405.62 331.115 1404.89 323.454L1394.48 350.206L1420.89 361.331C1422.48 362.003 1422.99 363.298 1422.34 364.97L1415.33 382.99C1414.68 384.662 1413.45 385.224 1411.85 384.552L1385.45 373.427L1368.11 419.31C1377.4 431.442 1385.76 445.991 1390.7 456.723C1391.14 457.771 1391.07 458.389 1390.78 459.132C1390.56 459.689 1390.2 460.186 1389.55 460.56L1371.95 472.387C1371.22 472.947 1370.35 473.013 1369.77 472.769C1369.19 472.524 1368.68 472.094 1368.39 471.106C1365.41 462.281 1361.34 453.647 1356.69 445.633C1349.88 455.308 1341.41 460.602 1331.11 461.454C1323.65 461.984 1315.67 460.785 1308.56 457.79C1299.13 453.817 1291.07 446.747 1286.78 436.939C1283.07 428.241 1283.13 418.536 1286.39 410.177C1290 400.888 1297.38 393.189 1307.53 390.112C1317.02 386.977 1326.52 388.169 1335.37 391.897C1340.31 393.976 1344.95 396.797 1349.23 400.115L1362.82 363.892L1314.29 343.661C1312.69 342.989 1312.18 341.693 1312.83 340.021L1319.91 321.815C1320.56 320.143 1321.8 319.582 1323.39 320.254L1371.56 340.548L1382.11 312.127C1382.76 310.455 1383.99 309.893 1385.59 310.565L1404.16 318.39C1403.87 317.405 1403.65 316.236 1403.43 315.067L1403.43 315.065L1403.43 315.055L1403.43 315.049C1403.35 314.372 1403.28 313.694 1403.5 313.139C1403.79 312.396 1404.66 311.897 1405.82 311.953L1414.74 312.468C1414.87 312.467 1415 312.462 1415.12 312.457C1415.43 312.444 1415.68 312.434 1415.89 312.523C1416.77 312.89 1417.35 313.568 1417.57 314.741C1420.19 324.928 1421.65 336.355 1420.87 346.187C1420.87 346.619 1420.73 346.991 1420.65 347.177C1420.22 348.291 1419.5 348.851 1417.97 348.858ZM1313.65 412.151C1310.39 413.588 1308.14 416.317 1306.99 419.29C1305.83 422.262 1305.76 425.477 1306.93 428.129C1308.6 432.077 1311.87 434.966 1315.49 436.494C1318.97 437.961 1322.89 438.314 1326.8 437.368C1333.18 435.731 1337.45 430.396 1340.64 423.52C1336.06 418.349 1331.27 414.601 1326.77 412.706C1321.98 410.689 1317.64 410.586 1313.65 412.151Z" fill="black"/>
<path fill-rule="evenodd" clip-rule="evenodd" d="M1417.97 348.858L1407.97 348.535C1407.6 348.599 1407.24 348.661 1406.81 348.478C1405.79 348.05 1405.35 347.002 1405.5 345.765C1405.85 339.211 1405.62 331.115 1404.89 323.454L1394.48 350.206L1420.89 361.331C1422.48 362.003 1422.99 363.298 1422.34 364.97L1415.33 382.99C1414.68 384.662 1413.45 385.224 1411.85 384.552L1385.45 373.427L1368.11 419.31C1377.4 431.442 1385.76 445.991 1390.7 456.723C1391.14 457.771 1391.07 458.389 1390.78 459.132C1390.56 459.689 1390.2 460.186 1389.55 460.56L1371.95 472.387C1371.22 472.947 1370.35 473.013 1369.77 472.769C1369.19 472.524 1368.68 472.094 1368.39 471.106C1365.41 462.281 1361.34 453.647 1356.69 445.633C1349.88 455.308 1341.41 460.602 1331.11 461.454C1323.65 461.984 1315.67 460.785 1308.56 457.79C1299.13 453.817 1291.07 446.747 1286.78 436.939C1283.07 428.241 1283.13 418.536 1286.39 410.177C1290 400.888 1297.38 393.189 1307.53 390.112C1317.02 386.977 1326.52 388.169 1335.37 391.897C1340.31 393.976 1344.95 396.797 1349.23 400.115L1362.82 363.892L1314.29 343.661C1312.69 342.989 1312.18 341.693 1312.83 340.021L1319.91 321.815C1320.56 320.143 1321.8 319.582 1323.39 320.254L1371.56 340.548L1382.11 312.127C1382.76 310.455 1383.99 309.893 1385.59 310.565L1404.16 318.39C1403.87 317.405 1403.65 316.236 1403.43 315.067L1403.43 315.065L1403.43 315.055L1403.43 315.049C1403.35 314.372 1403.28 313.694 1403.5 313.139C1403.79 312.396 1404.66 311.897 1405.82 311.953L1414.74 312.468C1414.87 312.467 1415 312.462 1415.12 312.457C1415.43 312.444 1415.68 312.434 1415.89 312.523C1416.77 312.89 1417.35 313.568 1417.57 314.741C1420.19 324.928 1421.65 336.355 1420.87 346.187C1420.87 346.619 1420.73 346.991 1420.65 347.177C1420.22 348.291 1419.5 348.851 1417.97 348.858ZM1313.65 412.151C1310.39 413.588 1308.14 416.317 1306.99 419.29C1305.83 422.262 1305.76 425.477 1306.93 428.129C1308.6 432.077 1311.87 434.966 1315.49 436.494C1318.97 437.961 1322.89 438.314 1326.8 437.368C1333.18 435.731 1337.45 430.396 1340.64 423.52C1336.06 418.349 1331.27 414.601 1326.77 412.706C1321.98 410.689 1317.64 410.586 1313.65 412.151Z" fill="url(#paint2_linear_685_56)"/>
<path d="M1237.17 422.524C1240.7 405.633 1247.42 385.328 1255.66 364.15C1267.58 333.497 1282.69 301.594 1296.66 276.989C1297.45 275.379 1298.76 275.064 1300.21 275.675L1319.65 285.163C1321.25 285.835 1321.68 287.318 1320.6 288.806C1306.49 311.186 1291.23 342.596 1279.59 372.505C1271.36 393.683 1264.86 414.297 1261.91 430.567L1261.76 431.371L1261.69 431.557C1261.26 432.671 1260.1 433.047 1258.65 432.436L1238.92 425.854L1238.77 425.792C1237.32 425.181 1236.74 424.071 1237.17 422.524Z" fill="black"/>
<path d="M1237.17 422.524C1240.7 405.633 1247.42 385.328 1255.66 364.15C1267.58 333.497 1282.69 301.594 1296.66 276.989C1297.45 275.379 1298.76 275.064 1300.21 275.675L1319.65 285.163C1321.25 285.835 1321.68 287.318 1320.6 288.806C1306.49 311.186 1291.23 342.596 1279.59 372.505C1271.36 393.683 1264.86 414.297 1261.91 430.567L1261.76 431.371L1261.69 431.557C1261.26 432.671 1260.1 433.047 1258.65 432.436L1238.92 425.854L1238.77 425.792C1237.32 425.181 1236.74 424.071 1237.17 422.524Z" fill="url(#paint3_linear_685_56)"/>
<path d="M1424.67 316.006C1424.6 315.326 1424.67 314.707 1424.89 314.15C1425.18 313.407 1425.9 312.847 1427.21 312.965L1435.69 313.296C1435.89 313.314 1436.07 313.321 1436.23 313.326C1436.58 313.339 1436.84 313.348 1437.14 313.474C1438.01 313.841 1438.45 314.457 1438.67 315.63C1441.21 324.272 1442.97 336.254 1442.84 346.145V346.146C1442.84 346.578 1442.84 347.011 1442.69 347.382C1442.33 348.311 1441.32 348.748 1440.08 348.877L1430.52 348.738C1430.41 348.738 1430.31 348.741 1430.22 348.744C1429.85 348.755 1429.55 348.765 1429.21 348.619C1428.19 348.192 1427.76 347.144 1427.9 345.907C1428.04 336.882 1427.15 325.266 1424.67 316.006Z" fill="black"/>
<path d="M1424.67 316.006C1424.6 315.326 1424.67 314.707 1424.89 314.15C1425.18 313.407 1425.9 312.847 1427.21 312.965L1435.69 313.296C1435.89 313.314 1436.07 313.321 1436.23 313.326C1436.58 313.339 1436.84 313.348 1437.14 313.474C1438.01 313.841 1438.45 314.457 1438.67 315.63C1441.21 324.272 1442.97 336.254 1442.84 346.145V346.146C1442.84 346.578 1442.84 347.011 1442.69 347.382C1442.33 348.311 1441.32 348.748 1440.08 348.877L1430.52 348.738C1430.41 348.738 1430.31 348.741 1430.22 348.744C1429.85 348.755 1429.55 348.765 1429.21 348.619C1428.19 348.192 1427.76 347.144 1427.9 345.907C1428.04 336.882 1427.15 325.266 1424.67 316.006Z" fill="url(#paint4_linear_685_56)"/>
<path d="M1512.66 460.44C1512.36 460.314 1511.9 460.285 1511.54 460.318L1505.26 460.337C1504.33 460.342 1503.65 460.877 1503.39 461.559C1503.2 462.049 1503.1 462.592 1503.41 463.292C1505.03 469.581 1506.16 478.627 1505.94 485.478C1505.99 486.829 1506.42 487.518 1507.22 487.855C1507.52 487.981 1507.88 487.958 1508.24 487.925L1515.17 488.041L1515.18 488.019C1516.27 487.908 1516.93 487.405 1517.24 486.595C1517.37 486.275 1517.49 485.956 1517.52 485.594C1517.67 478.616 1516.29 468.433 1514.1 462.104C1513.74 461.233 1513.26 460.693 1512.66 460.44Z" fill="black"/>
<path d="M1512.66 460.44C1512.36 460.314 1511.9 460.285 1511.54 460.318L1505.26 460.337C1504.33 460.342 1503.65 460.877 1503.39 461.559C1503.2 462.049 1503.1 462.592 1503.41 463.292C1505.03 469.581 1506.16 478.627 1505.94 485.478C1505.99 486.829 1506.42 487.518 1507.22 487.855C1507.52 487.981 1507.88 487.958 1508.24 487.925L1515.17 488.041L1515.18 488.019C1516.27 487.908 1516.93 487.405 1517.24 486.595C1517.37 486.275 1517.49 485.956 1517.52 485.594C1517.67 478.616 1516.29 468.433 1514.1 462.104C1513.74 461.233 1513.26 460.693 1512.66 460.44Z" fill="url(#paint5_linear_685_56)"/>
<path fill-rule="evenodd" clip-rule="evenodd" d="M1428.3 400.318L1428.2 400.573L1423.18 414.382C1422.86 415.182 1422.85 415.82 1423.01 416.308C1423.27 416.839 1423.69 417.241 1424.39 417.535C1438.37 423.138 1457.37 430.452 1473.25 436.557C1471.55 436.746 1469.81 437.02 1468.03 437.422C1451.13 441.426 1437.21 453.011 1431.58 467.471C1423.7 487.739 1432.1 513.641 1471.2 531.166C1471.9 531.46 1472.46 531.5 1472.99 531.328C1473.52 531.165 1474.02 530.791 1474.39 530.13L1474.4 530.108L1482.46 516.541C1482.98 515.804 1483.02 515.113 1482.88 514.571C1482.64 513.998 1482.23 513.554 1481.43 513.217C1467.55 507.369 1458.61 500.476 1453.79 493.446C1448.94 486.481 1448.2 479.433 1450.65 473.124C1455.32 461.115 1471.15 451.809 1492.57 450.825C1501.29 450.209 1509.57 452.233 1518.21 456.022C1518.91 456.316 1519.5 456.302 1519.94 456.045C1520.49 455.83 1520.91 455.36 1521.2 454.625L1526.42 441.198C1526.73 440.389 1526.75 439.75 1526.49 439.22C1526.33 438.731 1525.9 438.34 1525.2 438.045C1499.04 427.617 1456.05 409.653 1431.08 399.135C1430.48 398.882 1429.91 398.853 1429.49 399.047C1428.96 399.219 1428.56 399.646 1428.3 400.318ZM1428.51 401.264C1428.51 401.264 1428.22 401.106 1428.21 400.84C1428.15 400.989 1428.31 401.18 1428.51 401.264Z" fill="black"/>
<path fill-rule="evenodd" clip-rule="evenodd" d="M1428.3 400.318L1428.2 400.573L1423.18 414.382C1422.86 415.182 1422.85 415.82 1423.01 416.308C1423.27 416.839 1423.69 417.241 1424.39 417.535C1438.37 423.138 1457.37 430.452 1473.25 436.557C1471.55 436.746 1469.81 437.02 1468.03 437.422C1451.13 441.426 1437.21 453.011 1431.58 467.471C1423.7 487.739 1432.1 513.641 1471.2 531.166C1471.9 531.46 1472.46 531.5 1472.99 531.328C1473.52 531.165 1474.02 530.791 1474.39 530.13L1474.4 530.108L1482.46 516.541C1482.98 515.804 1483.02 515.113 1482.88 514.571C1482.64 513.998 1482.23 513.554 1481.43 513.217C1467.55 507.369 1458.61 500.476 1453.79 493.446C1448.94 486.481 1448.2 479.433 1450.65 473.124C1455.32 461.115 1471.15 451.809 1492.57 450.825C1501.29 450.209 1509.57 452.233 1518.21 456.022C1518.91 456.316 1519.5 456.302 1519.94 456.045C1520.49 455.83 1520.91 455.36 1521.2 454.625L1526.42 441.198C1526.73 440.389 1526.75 439.75 1526.49 439.22C1526.33 438.731 1525.9 438.34 1525.2 438.045C1499.04 427.617 1456.05 409.653 1431.08 399.135C1430.48 398.882 1429.91 398.853 1429.49 399.047C1428.96 399.219 1428.56 399.646 1428.3 400.318ZM1428.51 401.264C1428.51 401.264 1428.22 401.106 1428.21 400.84C1428.15 400.989 1428.31 401.18 1428.51 401.264Z" fill="url(#paint6_linear_685_56)"/>
<path d="M1486.4 462.809L1486.39 462.83C1488.06 469.885 1488.85 478.315 1488.48 485.528C1488.4 486.646 1488.86 487.558 1489.66 487.895C1489.78 487.947 1489.96 487.958 1490.22 487.974C1490.38 487.983 1490.56 487.995 1490.77 488.018L1497.9 487.909C1498.93 487.958 1499.69 487.497 1500.08 486.506C1500.2 486.197 1500.22 485.849 1500.25 485.49L1500.25 485.452C1500.36 478.315 1499.26 468.29 1497.27 461.758C1497.02 460.908 1496.54 460.347 1495.94 460.094C1495.54 459.926 1495.24 459.81 1494.78 459.791L1488.44 459.949C1487.41 459.911 1486.63 460.414 1486.37 461.086C1486.18 461.576 1486.19 462.15 1486.4 462.809Z" fill="black"/>
<path d="M1486.4 462.809L1486.39 462.83C1488.06 469.885 1488.85 478.315 1488.48 485.528C1488.4 486.646 1488.86 487.558 1489.66 487.895C1489.78 487.947 1489.96 487.958 1490.22 487.974C1490.38 487.983 1490.56 487.995 1490.77 488.018L1497.9 487.909C1498.93 487.958 1499.69 487.497 1500.08 486.506C1500.2 486.197 1500.22 485.849 1500.25 485.49L1500.25 485.452C1500.36 478.315 1499.26 468.29 1497.27 461.758C1497.02 460.908 1496.54 460.347 1495.94 460.094C1495.54 459.926 1495.24 459.81 1494.78 459.791L1488.44 459.949C1487.41 459.911 1486.63 460.414 1486.37 461.086C1486.18 461.576 1486.19 462.15 1486.4 462.809Z" fill="url(#paint7_linear_685_56)"/>
<path d="M1182.41 411.035C1183.24 411.388 1184.36 411.525 1185.34 410.986L1212.39 400.478L1212.4 400.443C1213.83 399.778 1214.5 399.061 1214.82 398.241C1215.25 397.117 1215.25 396.12 1214.58 394.842C1195.41 356.101 1165.29 313.994 1149.06 291.691L1149.07 291.672C1146.98 289.047 1146.26 286.878 1146.92 285.183C1147.66 283.275 1149.73 281.984 1152.9 281.328C1161.69 279.086 1173.75 276.514 1187.32 273.622C1210.75 268.626 1238.68 262.672 1262.06 255.797L1262.09 255.708C1263.68 255.113 1264.35 254.398 1264.67 253.577C1265.09 252.489 1264.92 251.439 1264.58 250.319C1264.58 250.319 1264.42 250.231 1264.42 250.213L1252.19 224.152C1251.83 223.068 1250.94 222.359 1250.1 222.007C1249.27 221.655 1248.15 221.517 1247.16 222.056C1219.21 232.747 1186.64 240.363 1161.4 246.269C1151.14 248.668 1142.09 250.785 1135.04 252.711C1124.19 256.092 1116.58 262.662 1113.41 270.813C1110.15 279.179 1111.31 289.714 1117.68 300.847C1117.68 300.847 1117.84 300.917 1117.84 300.935C1122.5 308.606 1127.89 316.879 1133.61 325.653C1149.56 350.144 1168.06 378.543 1180.41 408.659C1180.77 409.744 1181.57 410.683 1182.41 411.035Z" fill="black"/>
<path d="M1182.41 411.035C1183.24 411.388 1184.36 411.525 1185.34 410.986L1212.39 400.478L1212.4 400.443C1213.83 399.778 1214.5 399.061 1214.82 398.241C1215.25 397.117 1215.25 396.12 1214.58 394.842C1195.41 356.101 1165.29 313.994 1149.06 291.691L1149.07 291.672C1146.98 289.047 1146.26 286.878 1146.92 285.183C1147.66 283.275 1149.73 281.984 1152.9 281.328C1161.69 279.086 1173.75 276.514 1187.32 273.622C1210.75 268.626 1238.68 262.672 1262.06 255.797L1262.09 255.708C1263.68 255.113 1264.35 254.398 1264.67 253.577C1265.09 252.489 1264.92 251.439 1264.58 250.319C1264.58 250.319 1264.42 250.231 1264.42 250.213L1252.19 224.152C1251.83 223.068 1250.94 222.359 1250.1 222.007C1249.27 221.655 1248.15 221.517 1247.16 222.056C1219.21 232.747 1186.64 240.363 1161.4 246.269C1151.14 248.668 1142.09 250.785 1135.04 252.711C1124.19 256.092 1116.58 262.662 1113.41 270.813C1110.15 279.179 1111.31 289.714 1117.68 300.847C1117.68 300.847 1117.84 300.917 1117.84 300.935C1122.5 308.606 1127.89 316.879 1133.61 325.653C1149.56 350.144 1168.06 378.543 1180.41 408.659C1180.77 409.744 1181.57 410.683 1182.41 411.035Z" fill="url(#paint8_linear_685_56)"/>
<path d="M861.277 477.906L861.279 477.906C861.44 477.879 861.697 477.836 861.88 477.667L861.832 477.793C861.724 477.819 861.651 477.852 861.588 477.88C861.488 477.926 861.414 477.959 861.268 477.93L861.277 477.906Z" fill="black"/>
<path d="M861.277 477.906L861.279 477.906C861.44 477.879 861.697 477.836 861.88 477.667L861.832 477.793C861.724 477.819 861.651 477.852 861.588 477.88C861.488 477.926 861.414 477.959 861.268 477.93L861.277 477.906Z" fill="url(#paint9_linear_685_56)"/>
<path d="M862.099 477.105L861.88 477.667C862.006 477.551 862.097 477.376 862.099 477.105Z" fill="black"/>
<path d="M862.099 477.105L861.88 477.667C862.006 477.551 862.097 477.376 862.099 477.105Z" fill="url(#paint10_linear_685_56)"/>
<path d="M862.478 475.475C862.925 474.327 864.269 474.146 865.8 474.791C870.945 477.279 876.089 479.766 881.34 481.979C910.88 494.424 938.434 500.853 960.041 498.338C985.502 495.737 1006.24 479.099 1014.17 458.699C1023.63 434.374 1014.68 404.372 972.007 386.395L972.001 386.393C968.064 384.734 964.126 383.075 959.538 381.783C923.242 370.337 886.219 365.342 855.216 361.895L855.189 361.963C854.68 361.962 854.245 361.779 854.026 361.687C853.588 361.502 853.202 361.18 852.889 360.675C852.585 360.146 852.583 359.503 852.659 358.654L852.677 358.608L854.84 325.547C854.849 325.524 854.801 325.483 854.753 325.443C854.705 325.403 854.657 325.362 854.666 325.339L855.156 324.077C855.38 323.504 855.576 322.999 856.157 322.817C856.527 322.519 857.044 322.496 857.745 322.658L857.964 322.75C894.764 328.318 935.716 336.304 977.594 350.422C982.078 351.991 986.237 353.743 990.395 355.494C1023 369.231 1042.71 388.619 1052.11 409.621C1061.53 430.577 1060.88 453.192 1053 473.455C1040.16 506.477 1008.62 533.201 971.079 537.39C936.228 541.215 896.344 529.833 863.41 515.637C861.659 514.899 860.921 513.521 860.872 511.684C860.872 511.684 862.131 478.987 862.117 477.059L862.478 475.475Z" fill="black"/>
<path d="M862.478 475.475C862.925 474.327 864.269 474.146 865.8 474.791C870.945 477.279 876.089 479.766 881.34 481.979C910.88 494.424 938.434 500.853 960.041 498.338C985.502 495.737 1006.24 479.099 1014.17 458.699C1023.63 434.374 1014.68 404.372 972.007 386.395L972.001 386.393C968.064 384.734 964.126 383.075 959.538 381.783C923.242 370.337 886.219 365.342 855.216 361.895L855.189 361.963C854.68 361.962 854.245 361.779 854.026 361.687C853.588 361.502 853.202 361.18 852.889 360.675C852.585 360.146 852.583 359.503 852.659 358.654L852.677 358.608L854.84 325.547C854.849 325.524 854.801 325.483 854.753 325.443C854.705 325.403 854.657 325.362 854.666 325.339L855.156 324.077C855.38 323.504 855.576 322.999 856.157 322.817C856.527 322.519 857.044 322.496 857.745 322.658L857.964 322.75C894.764 328.318 935.716 336.304 977.594 350.422C982.078 351.991 986.237 353.743 990.395 355.494C1023 369.231 1042.71 388.619 1052.11 409.621C1061.53 430.577 1060.88 453.192 1053 473.455C1040.16 506.477 1008.62 533.201 971.079 537.39C936.228 541.215 896.344 529.833 863.41 515.637C861.659 514.899 860.921 513.521 860.872 511.684C860.872 511.684 862.131 478.987 862.117 477.059L862.478 475.475Z" fill="url(#paint11_linear_685_56)"/>
<path d="M1140.21 628.298L1140.21 628.279L1167.09 617.701C1167.26 617.771 1167.27 617.754 1167.27 617.754C1168.69 617.106 1169.17 616.374 1169.48 615.571C1169.9 614.483 1169.89 613.521 1169.2 612.278C1150.2 573.608 1120.08 531.483 1103.69 509.11C1101.61 506.449 1100.91 504.244 1101.59 502.514C1102.34 500.569 1104.41 499.242 1107.6 498.551C1116.14 496.414 1127.67 493.954 1140.64 491.186L1140.64 491.186L1140.65 491.185L1140.65 491.185L1140.65 491.185L1140.65 491.184C1164.37 486.124 1192.9 480.037 1216.76 473.02C1216.94 473.055 1216.95 473.036 1216.95 473.019C1218.37 472.389 1219.03 471.692 1219.33 470.907C1219.74 469.854 1219.73 468.894 1219.2 467.757L1219.21 467.721L1206.97 441.659C1206.44 440.522 1205.55 439.814 1204.88 439.532C1204.21 439.25 1203.1 439.113 1201.96 439.546C1174.38 450.188 1142.1 457.759 1116.97 463.654L1116.96 463.654C1106.43 466.126 1097.15 468.303 1089.99 470.288C1078.98 473.58 1071.56 480.167 1068.4 488.283C1065.16 496.613 1066.34 507.095 1072.71 518.21L1072.71 518.229C1077.29 525.715 1082.53 533.759 1088.08 542.274C1104.16 566.936 1122.81 595.545 1135.28 625.953C1135.81 627.108 1136.62 628.011 1137.29 628.293C1137.96 628.575 1139.07 628.731 1140.21 628.298Z" fill="black"/>
<path d="M1140.21 628.298L1140.21 628.279L1167.09 617.701C1167.26 617.771 1167.27 617.754 1167.27 617.754C1168.69 617.106 1169.17 616.374 1169.48 615.571C1169.9 614.483 1169.89 613.521 1169.2 612.278C1150.2 573.608 1120.08 531.483 1103.69 509.11C1101.61 506.449 1100.91 504.244 1101.59 502.514C1102.34 500.569 1104.41 499.242 1107.6 498.551C1116.14 496.414 1127.67 493.954 1140.64 491.186L1140.64 491.186L1140.65 491.185L1140.65 491.185L1140.65 491.185L1140.65 491.184C1164.37 486.124 1192.9 480.037 1216.76 473.02C1216.94 473.055 1216.95 473.036 1216.95 473.019C1218.37 472.389 1219.03 471.692 1219.33 470.907C1219.74 469.854 1219.73 468.894 1219.2 467.757L1219.21 467.721L1206.97 441.659C1206.44 440.522 1205.55 439.814 1204.88 439.532C1204.21 439.25 1203.1 439.113 1201.96 439.546C1174.38 450.188 1142.1 457.759 1116.97 463.654L1116.96 463.654C1106.43 466.126 1097.15 468.303 1089.99 470.288C1078.98 473.58 1071.56 480.167 1068.4 488.283C1065.16 496.613 1066.34 507.095 1072.71 518.21L1072.71 518.229C1077.29 525.715 1082.53 533.759 1088.08 542.274C1104.16 566.936 1122.81 595.545 1135.28 625.953C1135.81 627.108 1136.62 628.011 1137.29 628.293C1137.96 628.575 1139.07 628.731 1140.21 628.298Z" fill="url(#paint12_linear_685_56)"/>
<path d="M1207.26 645.588C1216.35 651.962 1226.83 657.535 1237.7 662.115C1259.44 671.274 1283.19 676.191 1300.88 672.998C1324.78 669.181 1340.05 655.48 1346.47 638.977C1352.35 623.866 1350.46 606.41 1339.89 592.699C1332.97 583.536 1322.95 576.305 1311.31 571.399C1303.39 568.062 1294.69 565.788 1285.3 564.84C1290.99 563.291 1296.75 561.669 1302.58 560.026L1302.6 560.023C1318.3 555.599 1334.54 551.025 1351.39 547.328C1352.79 546.991 1353.64 546.193 1354.18 544.801L1360.76 527.9C1361.46 526.11 1360.91 524.724 1359.36 524.07C1343.03 517.423 1327.41 510.839 1311.63 504.19L1311.62 504.188L1311.6 504.18L1257.1 481.22C1255.4 480.5 1254.15 480.903 1253.38 482.891L1245.34 503.57C1244.64 505.359 1245.19 506.747 1246.89 507.466C1261.84 513.592 1277.59 519.679 1293.51 525.834C1299.18 528.025 1304.87 530.224 1310.56 532.438C1303.1 534.579 1295.58 536.783 1287.84 539.054C1262.02 546.631 1233.66 554.95 1196.29 564.136C1195.13 564.339 1194.35 564.938 1194.05 565.734C1193.81 566.33 1193.74 566.993 1194.13 567.851L1200.36 590.38C1200.52 591.372 1201.14 592.097 1201.92 592.424C1202.54 592.686 1203.08 592.683 1203.93 592.348C1209.99 590.52 1215.63 588.926 1220.84 587.456L1220.85 587.454L1220.85 587.454C1224.45 586.438 1227.84 585.481 1231.01 584.547C1256.14 578.937 1276.32 581.885 1290.76 587.97C1302.72 593.007 1310.64 600.047 1314.38 606.248C1319.28 613.635 1319.75 621.24 1317.28 627.603C1314.18 635.556 1306.51 641.811 1296.96 644.04C1283.78 646.814 1267.63 643.716 1251.48 636.912C1238.91 631.613 1226.4 624.262 1215.45 615.713C1213.74 614.53 1212.5 614.933 1211.88 616.524L1211.65 617.121L1205.7 641.692C1205.55 643.479 1205.86 644.536 1207.26 645.588Z" fill="black"/>
<path d="M1207.26 645.588C1216.35 651.962 1226.83 657.535 1237.7 662.115C1259.44 671.274 1283.19 676.191 1300.88 672.998C1324.78 669.181 1340.05 655.48 1346.47 638.977C1352.35 623.866 1350.46 606.41 1339.89 592.699C1332.97 583.536 1322.95 576.305 1311.31 571.399C1303.39 568.062 1294.69 565.788 1285.3 564.84C1290.99 563.291 1296.75 561.669 1302.58 560.026L1302.6 560.023C1318.3 555.599 1334.54 551.025 1351.39 547.328C1352.79 546.991 1353.64 546.193 1354.18 544.801L1360.76 527.9C1361.46 526.11 1360.91 524.724 1359.36 524.07C1343.03 517.423 1327.41 510.839 1311.63 504.19L1311.62 504.188L1311.6 504.18L1257.1 481.22C1255.4 480.5 1254.15 480.903 1253.38 482.891L1245.34 503.57C1244.64 505.359 1245.19 506.747 1246.89 507.466C1261.84 513.592 1277.59 519.679 1293.51 525.834C1299.18 528.025 1304.87 530.224 1310.56 532.438C1303.1 534.579 1295.58 536.783 1287.84 539.054C1262.02 546.631 1233.66 554.95 1196.29 564.136C1195.13 564.339 1194.35 564.938 1194.05 565.734C1193.81 566.33 1193.74 566.993 1194.13 567.851L1200.36 590.38C1200.52 591.372 1201.14 592.097 1201.92 592.424C1202.54 592.686 1203.08 592.683 1203.93 592.348C1209.99 590.52 1215.63 588.926 1220.84 587.456L1220.85 587.454L1220.85 587.454C1224.45 586.438 1227.84 585.481 1231.01 584.547C1256.14 578.937 1276.32 581.885 1290.76 587.97C1302.72 593.007 1310.64 600.047 1314.38 606.248C1319.28 613.635 1319.75 621.24 1317.28 627.603C1314.18 635.556 1306.51 641.811 1296.96 644.04C1283.78 646.814 1267.63 643.716 1251.48 636.912C1238.91 631.613 1226.4 624.262 1215.45 615.713C1213.74 614.53 1212.5 614.933 1211.88 616.524L1211.65 617.121L1205.7 641.692C1205.55 643.479 1205.86 644.536 1207.26 645.588Z" fill="url(#paint13_linear_685_56)"/>
<path d="M1371.63 722.574L1371.32 722.443C1369.92 721.854 1369.22 720.865 1369.29 719.277L1368.33 694.804C1368.35 694.626 1368.37 694.462 1368.38 694.31C1368.42 693.898 1368.45 693.572 1368.56 693.281C1369.03 692.089 1370.11 691.62 1371.51 692.209C1394.49 700.04 1418.71 706.54 1439.97 703.463C1455.02 701.01 1468.2 690.363 1473.07 677.837C1478.02 665.111 1474.35 650.376 1455.87 641.201L1450.05 638.517C1433.28 631.451 1408.75 625.745 1379.96 623.565C1379.57 623.633 1379.26 623.503 1378.8 623.307C1377.71 622.849 1377.16 621.924 1377.4 620.402L1380.16 597.036L1380.55 596.042C1381.01 594.849 1382.02 594.117 1383.34 594.442C1413.37 598.534 1439.77 605.024 1459.64 613.399L1465.77 616.214C1501.8 633.245 1509.37 662.582 1499.62 687.635C1491.19 709.308 1469.57 727.735 1442.33 731.767C1423.17 734.569 1398.02 731.38 1371.63 722.574Z" fill="black"/>
<path d="M1371.63 722.574L1371.32 722.443C1369.92 721.854 1369.22 720.865 1369.29 719.277L1368.33 694.804C1368.35 694.626 1368.37 694.462 1368.38 694.31C1368.42 693.898 1368.45 693.572 1368.56 693.281C1369.03 692.089 1370.11 691.62 1371.51 692.209C1394.49 700.04 1418.71 706.54 1439.97 703.463C1455.02 701.01 1468.2 690.363 1473.07 677.837C1478.02 665.111 1474.35 650.376 1455.87 641.201L1450.05 638.517C1433.28 631.451 1408.75 625.745 1379.96 623.565C1379.57 623.633 1379.26 623.503 1378.8 623.307C1377.71 622.849 1377.16 621.924 1377.4 620.402L1380.16 597.036L1380.55 596.042C1381.01 594.849 1382.02 594.117 1383.34 594.442C1413.37 598.534 1439.77 605.024 1459.64 613.399L1465.77 616.214C1501.8 633.245 1509.37 662.582 1499.62 687.635C1491.19 709.308 1469.57 727.735 1442.33 731.767C1423.17 734.569 1398.02 731.38 1371.63 722.574Z" fill="url(#paint14_linear_685_56)"/>
<path d="M1414.89 569.07L1426.67 551.351C1427.44 549.826 1428.84 549.488 1430.39 550.142C1456.32 563.383 1487.93 581.097 1510.92 597.726C1512.48 598.843 1512.48 600.232 1511.63 601.956L1500.01 620.204C1499 621.863 1497.45 622.134 1496.13 620.884C1470.81 600.958 1441.38 585.088 1415.99 573.233C1414.2 572.25 1413.73 570.664 1414.89 569.07Z" fill="black"/>
<path d="M1414.89 569.07L1426.67 551.351C1427.44 549.826 1428.84 549.488 1430.39 550.142C1456.32 563.383 1487.93 581.097 1510.92 597.726C1512.48 598.843 1512.48 600.232 1511.63 601.956L1500.01 620.204C1499 621.863 1497.45 622.134 1496.13 620.884C1470.81 600.958 1441.38 585.088 1415.99 573.233C1414.2 572.25 1413.73 570.664 1414.89 569.07Z" fill="url(#paint15_linear_685_56)"/>
<path d="M1491.09 718.442L1507.17 735.647C1508.53 737.103 1509.89 737.254 1511.43 735.647L1593.9 653.186C1595.14 651.901 1595.32 650.144 1593.96 648.688L1574.54 627.91C1573.43 626.719 1571.52 626.626 1570.28 627.911L1491.15 713.945C1489.6 715.551 1489.73 716.987 1491.09 718.442Z" fill="black"/>
<path d="M1491.09 718.442L1507.17 735.647C1508.53 737.103 1509.89 737.254 1511.43 735.647L1593.9 653.186C1595.14 651.901 1595.32 650.144 1593.96 648.688L1574.54 627.91C1573.43 626.719 1571.52 626.626 1570.28 627.911L1491.15 713.945C1489.6 715.551 1489.73 716.987 1491.09 718.442Z" fill="url(#paint16_linear_685_56)"/>
<path d="M1460.62 740.242C1452.9 748.275 1453.04 760.146 1460.46 768.087C1467.88 776.027 1479 776.198 1486.71 768.166C1494.43 760.133 1494.27 748.556 1486.85 740.616C1479.43 732.675 1468.33 732.21 1460.62 740.242Z" fill="black"/>
<path d="M1460.62 740.242C1452.9 748.275 1453.04 760.146 1460.46 768.087C1467.88 776.027 1479 776.198 1486.71 768.166C1494.43 760.133 1494.27 748.556 1486.85 740.616C1479.43 732.675 1468.33 732.21 1460.62 740.242Z" fill="url(#paint17_linear_685_56)"/>
<path d="M1585.68 783.36L1561.55 773.297C1559.12 772.282 1558.18 770.639 1559.14 767.914L1606.56 623.916C1607.33 621.736 1609.45 620.745 1611.44 621.576L1641.54 634.13C1643.97 635.145 1644.72 637.335 1643.96 639.516L1590.78 781.114C1589.82 783.839 1588.11 784.375 1585.68 783.36Z" fill="black"/>
<path d="M1585.68 783.36L1561.55 773.297C1559.12 772.282 1558.18 770.639 1559.14 767.914L1606.56 623.916C1607.33 621.736 1609.45 620.745 1611.44 621.576L1641.54 634.13C1643.97 635.145 1644.72 637.335 1643.96 639.516L1590.78 781.114C1589.82 783.839 1588.11 784.375 1585.68 783.36Z" fill="url(#paint18_linear_685_56)"/>
<path d="M1552.49 840.103C1539.21 834.565 1532.71 820.599 1537.51 806.973C1542.31 793.347 1555.63 787.965 1568.9 793.503C1582.18 799.042 1589 812.824 1584.2 826.45C1579.4 840.076 1565.77 845.642 1552.49 840.103Z" fill="black"/>
<path d="M1552.49 840.103C1539.21 834.565 1532.71 820.599 1537.51 806.973C1542.31 793.347 1555.63 787.965 1568.9 793.503C1582.18 799.042 1589 812.824 1584.2 826.45C1579.4 840.076 1565.77 845.642 1552.49 840.103Z" fill="url(#paint19_linear_685_56)"/>
<defs>
<linearGradient id="paint0_linear_685_56" x1="789.121" y1="-549.851" x2="607.72" y2="592.081" gradientUnits="userSpaceOnUse">
<stop stop-color="#F7C71B"/>
<stop offset="1" stop-color="#FF680A"/>
</linearGradient>
<linearGradient id="paint1_linear_685_56" x1="789.121" y1="-549.851" x2="607.72" y2="592.081" gradientUnits="userSpaceOnUse">
<stop stop-color="#F7C71B"/>
<stop offset="1" stop-color="#FF680A"/>
</linearGradient>
<linearGradient id="paint2_linear_685_56" x1="789.121" y1="-549.851" x2="607.72" y2="592.081" gradientUnits="userSpaceOnUse">
<stop stop-color="#F7C71B"/>
<stop offset="1" stop-color="#FF680A"/>
</linearGradient>
<linearGradient id="paint3_linear_685_56" x1="789.121" y1="-549.851" x2="607.72" y2="592.081" gradientUnits="userSpaceOnUse">
<stop stop-color="#F7C71B"/>
<stop offset="1" stop-color="#FF680A"/>
</linearGradient>
<linearGradient id="paint4_linear_685_56" x1="789.121" y1="-549.851" x2="607.72" y2="592.081" gradientUnits="userSpaceOnUse">
<stop stop-color="#F7C71B"/>
<stop offset="1" stop-color="#FF680A"/>
</linearGradient>
<linearGradient id="paint5_linear_685_56" x1="789.121" y1="-549.851" x2="607.72" y2="592.081" gradientUnits="userSpaceOnUse">
<stop stop-color="#F7C71B"/>
<stop offset="1" stop-color="#FF680A"/>
</linearGradient>
<linearGradient id="paint6_linear_685_56" x1="789.121" y1="-549.851" x2="607.72" y2="592.081" gradientUnits="userSpaceOnUse">
<stop stop-color="#F7C71B"/>
<stop offset="1" stop-color="#FF680A"/>
</linearGradient>
<linearGradient id="paint7_linear_685_56" x1="789.121" y1="-549.851" x2="607.72" y2="592.081" gradientUnits="userSpaceOnUse">
<stop stop-color="#F7C71B"/>
<stop offset="1" stop-color="#FF680A"/>
</linearGradient>
<linearGradient id="paint8_linear_685_56" x1="789.121" y1="-549.851" x2="607.72" y2="592.081" gradientUnits="userSpaceOnUse">
<stop stop-color="#F7C71B"/>
<stop offset="1" stop-color="#FF680A"/>
</linearGradient>
<linearGradient id="paint9_linear_685_56" x1="789.121" y1="-549.851" x2="607.72" y2="592.081" gradientUnits="userSpaceOnUse">
<stop stop-color="#F7C71B"/>
<stop offset="1" stop-color="#FF680A"/>
</linearGradient>
<linearGradient id="paint10_linear_685_56" x1="789.121" y1="-549.851" x2="607.72" y2="592.081" gradientUnits="userSpaceOnUse">
<stop stop-color="#F7C71B"/>
<stop offset="1" stop-color="#FF680A"/>
</linearGradient>
<linearGradient id="paint11_linear_685_56" x1="789.121" y1="-549.851" x2="607.72" y2="592.081" gradientUnits="userSpaceOnUse">
<stop stop-color="#F7C71B"/>
<stop offset="1" stop-color="#FF680A"/>
</linearGradient>
<linearGradient id="paint12_linear_685_56" x1="789.121" y1="-549.851" x2="607.72" y2="592.081" gradientUnits="userSpaceOnUse">
<stop stop-color="#F7C71B"/>
<stop offset="1" stop-color="#FF680A"/>
</linearGradient>
<linearGradient id="paint13_linear_685_56" x1="789.121" y1="-549.851" x2="607.72" y2="592.081" gradientUnits="userSpaceOnUse">
<stop stop-color="#F7C71B"/>
<stop offset="1" stop-color="#FF680A"/>
</linearGradient>
<linearGradient id="paint14_linear_685_56" x1="789.121" y1="-549.851" x2="607.72" y2="592.081" gradientUnits="userSpaceOnUse">
<stop stop-color="#F7C71B"/>
<stop offset="1" stop-color="#FF680A"/>
</linearGradient>
<linearGradient id="paint15_linear_685_56" x1="789.121" y1="-549.851" x2="607.72" y2="592.081" gradientUnits="userSpaceOnUse">
<stop stop-color="#F7C71B"/>
<stop offset="1" stop-color="#FF680A"/>
</linearGradient>
<linearGradient id="paint16_linear_685_56" x1="789.121" y1="-549.851" x2="607.72" y2="592.081" gradientUnits="userSpaceOnUse">
<stop stop-color="#F7C71B"/>
<stop offset="1" stop-color="#FF680A"/>
</linearGradient>
<linearGradient id="paint17_linear_685_56" x1="789.121" y1="-549.851" x2="607.72" y2="592.081" gradientUnits="userSpaceOnUse">
<stop stop-color="#F7C71B"/>
<stop offset="1" stop-color="#FF680A"/>
</linearGradient>
<linearGradient id="paint18_linear_685_56" x1="789.121" y1="-549.851" x2="607.72" y2="592.081" gradientUnits="userSpaceOnUse">
<stop stop-color="#F7C71B"/>
<stop offset="1" stop-color="#FF680A"/>
</linearGradient>
<linearGradient id="paint19_linear_685_56" x1="789.121" y1="-549.851" x2="607.72" y2="592.081" gradientUnits="userSpaceOnUse">
<stop stop-color="#F7C71B"/>
<stop offset="1" stop-color="#FF680A"/>
</linearGradient>
</defs>
</svg>
