<svg width="1560" height="1169" viewBox="0 0 1560 1169" fill="none" xmlns="http://www.w3.org/2000/svg">
<path d="M1327.98 290.366C1328.01 290.538 1328.04 290.711 1328.08 290.886L1312.13 284.167C1311.07 283.72 1309.92 283.604 1308.87 284.08C1307.83 284.55 1307.14 285.476 1306.73 286.545L1306.72 286.555L1306.72 286.566L1296.7 313.558L1249.94 293.856C1248.87 293.409 1247.73 293.293 1246.68 293.768C1245.63 294.238 1244.95 295.163 1244.53 296.233L1237.45 314.439C1237.03 315.508 1236.91 316.67 1237.34 317.761C1237.78 318.866 1238.68 319.612 1239.74 320.059L1239.75 320.061L1286.9 339.719L1274.53 372.721C1270.6 369.846 1266.38 367.379 1261.92 365.499C1252.82 361.666 1242.95 360.403 1233.06 363.665C1222.46 366.887 1214.76 374.934 1211 384.594C1207.61 393.306 1207.55 403.43 1211.42 412.519L1211.43 412.526L1211.43 412.533C1215.9 422.761 1224.29 430.088 1234.02 434.188C1241.35 437.279 1249.56 438.51 1257.24 437.965L1257.25 437.964L1257.26 437.963C1267.37 437.127 1275.76 432.185 1282.55 423.373C1286.67 430.732 1290.28 438.567 1292.98 446.547C1293.18 447.209 1293.48 447.771 1293.89 448.229C1294.31 448.696 1294.78 448.98 1295.23 449.166C1296.32 449.628 1297.72 449.457 1298.82 448.633L1316.34 436.856C1317.29 436.301 1317.84 435.537 1318.16 434.714C1318.34 434.25 1318.5 433.712 1318.5 433.071C1318.5 432.432 1318.34 431.808 1318.07 431.155L1318.06 431.128L1318.05 431.101C1313.15 420.478 1304.96 406.172 1295.8 394.081L1312.3 350.413L1337.31 360.95C1338.37 361.397 1339.52 361.512 1340.57 361.037C1341.61 360.568 1342.3 359.642 1342.72 358.572L1349.73 340.552C1350.14 339.483 1350.27 338.321 1349.83 337.23C1349.39 336.125 1348.49 335.38 1347.43 334.932L1322.41 324.39L1329.91 305.112C1330.22 310.588 1330.26 315.992 1330.02 320.608C1329.84 322.262 1330.43 324.105 1332.26 324.876C1333.03 325.2 1333.7 325.12 1334.1 325.053L1343.95 325.372L1343.98 325.373L1344.01 325.373C1344.94 325.368 1345.81 325.196 1346.54 324.71C1347.3 324.214 1347.75 323.504 1348.03 322.759L1348.04 322.74C1348.12 322.539 1348.34 321.978 1348.35 321.286C1349.15 311.265 1347.65 299.702 1345.01 289.431C1344.87 288.674 1344.58 287.985 1344.13 287.404C1343.66 286.803 1343.08 286.394 1342.44 286.125C1342.01 285.944 1341.6 285.933 1341.36 285.934C1341.24 285.935 1341.12 285.94 1341.03 285.944L1341 285.945C1340.91 285.949 1340.82 285.952 1340.74 285.953L1331.87 285.441L1331.87 285.441L1331.86 285.44C1330.3 285.365 1328.71 286.032 1328.12 287.556C1327.76 288.469 1327.87 289.489 1327.94 290.082C1327.94 290.12 1327.95 290.156 1327.95 290.191L1327.96 290.25L1327.97 290.309L1327.98 290.366ZM1164.37 402.251L1164.42 402.274L1164.48 402.292L1184.16 408.858C1185.09 409.238 1186.08 409.371 1186.99 409.098C1187.97 408.806 1188.7 408.098 1189.07 407.139L1189.14 406.953L1189.2 406.816L1189.22 406.671L1189.37 405.871C1189.37 405.87 1189.37 405.87 1189.37 405.869C1192.29 389.736 1198.75 369.224 1206.98 348.088C1218.58 318.261 1233.79 286.96 1247.83 264.682C1248.53 263.69 1248.88 262.497 1248.56 261.304C1248.24 260.103 1247.33 259.255 1246.23 258.783L1226.83 249.311L1226.79 249.293L1226.75 249.277C1225.8 248.877 1224.73 248.711 1223.7 249.059C1222.65 249.409 1221.87 250.199 1221.35 251.246C1207.35 275.914 1192.22 307.867 1180.28 338.567C1172.03 359.757 1165.29 380.133 1161.73 397.134C1161.45 398.15 1161.46 399.208 1161.94 400.172C1162.43 401.145 1163.27 401.789 1164.23 402.19L1164.37 402.251ZM1234.29 402.552L1234.28 402.543L1234.28 402.534C1233.31 400.325 1233.33 397.541 1234.37 394.872C1235.4 392.218 1237.39 389.818 1240.24 388.554C1243.82 387.157 1247.76 387.222 1252.23 389.104C1256.23 390.791 1260.59 394.098 1264.86 398.761C1261.81 405.016 1257.9 409.487 1252.42 410.897C1248.81 411.767 1245.22 411.437 1242.04 410.096C1238.72 408.699 1235.78 406.075 1234.29 402.552ZM1349.2 291.142L1349.21 291.261L1349.24 291.377C1351.66 300.429 1352.54 311.855 1352.42 320.783C1352.25 322.427 1352.85 324.251 1354.66 325.017C1355.35 325.307 1356.07 325.273 1356.41 325.257C1356.46 325.255 1356.51 325.252 1356.54 325.252L1366.09 325.392L1366.18 325.393L1366.27 325.384C1367.62 325.241 1369.4 324.707 1370.07 322.964C1370.33 322.318 1370.32 321.625 1370.32 321.242C1370.32 321.222 1370.32 321.203 1370.32 321.184C1370.45 311.165 1368.69 299.073 1366.11 290.294C1365.97 289.613 1365.75 288.954 1365.35 288.38C1364.9 287.757 1364.33 287.348 1363.68 287.076C1363.25 286.894 1362.87 286.846 1362.56 286.827C1362.45 286.82 1362.34 286.816 1362.24 286.812C1362.21 286.811 1362.18 286.81 1362.16 286.809C1362.04 286.804 1361.92 286.799 1361.79 286.787L1361.75 286.784L1361.72 286.782L1353.27 286.453C1352.4 286.381 1351.6 286.522 1350.92 286.911C1350.22 287.31 1349.76 287.911 1349.51 288.568C1349.19 289.38 1349.1 290.25 1349.2 291.142Z" stroke="white" stroke-width="3"/>
<path d="M1393.55 410.973C1376.3 415.098 1362.01 426.953 1356.2 441.889C1352.1 452.415 1352.24 464.431 1358.47 476.052C1364.68 487.643 1376.87 498.697 1396.62 507.55L1396.64 507.557L1396.65 507.564C1397.59 507.96 1398.52 508.075 1399.46 507.775C1400.36 507.494 1401.14 506.861 1401.68 505.905L1401.73 505.812L1401.73 505.806L1409.71 492.389C1410.46 491.293 1410.56 490.16 1410.32 489.218L1410.29 489.104L1410.24 488.996C1409.83 488.014 1409.11 487.294 1407.98 486.819C1394.24 481.033 1385.59 474.291 1381 467.595L1381 467.587C1376.42 461.007 1375.78 454.499 1378.03 448.707C1382.4 437.482 1397.51 428.31 1418.67 427.338L1418.68 427.337L1418.7 427.336C1427.12 426.742 1435.16 428.687 1443.65 432.411L1443.66 432.415L1443.67 432.42C1444.63 432.823 1445.67 432.907 1446.6 432.421C1447.58 432.001 1448.2 431.171 1448.58 430.207L1453.8 416.781C1454.19 415.78 1454.33 414.697 1453.86 413.664C1453.49 412.634 1452.62 412.015 1451.75 411.647L1451.73 411.641L1451.72 411.636C1425.57 401.214 1382.59 383.255 1357.63 372.737C1356.81 372.393 1355.83 372.255 1354.94 372.628C1353.93 372.985 1353.28 373.798 1352.92 374.735L1352.82 374.991L1352.81 375.006L1352.8 375.022L1347.79 388.816C1347.39 389.841 1347.3 390.847 1347.6 391.758L1347.63 391.862L1347.68 391.96C1348.13 392.878 1348.86 393.518 1349.85 393.933L1349.86 393.938L1349.87 393.943C1362.36 398.95 1378.86 405.321 1393.55 410.973ZM1441.5 436.626L1441.49 436.583L1441.47 436.541C1441.01 435.423 1440.28 434.498 1439.2 434.042C1438.61 433.794 1437.92 433.768 1437.45 433.804L1431.22 433.823L1431.22 433.823C1429.69 433.83 1428.49 434.729 1428.01 435.976C1427.73 436.694 1427.55 437.633 1428 438.759C1429.58 444.913 1430.67 453.746 1430.45 460.397L1430.45 460.454L1430.45 460.512C1430.49 461.321 1430.64 462.101 1431.01 462.777C1431.42 463.494 1432 463.968 1432.68 464.253C1433.32 464.523 1433.99 464.472 1434.33 464.44L1441.18 464.555L1442.18 464.571L1442.27 464.346C1442.66 464.228 1443.03 464.055 1443.36 463.819C1443.96 463.397 1444.37 462.827 1444.63 462.177C1444.63 462.163 1444.64 462.148 1444.64 462.133C1444.76 461.835 1444.96 461.328 1445 460.728L1445 460.693L1445 460.659C1445.16 453.527 1443.76 443.156 1441.5 436.626ZM1410.99 435.503C1410.71 436.216 1410.69 436.96 1410.84 437.682L1410.83 437.69L1410.95 438.158C1412.58 445.066 1413.36 453.341 1413 460.402C1412.89 461.95 1413.53 463.626 1415.11 464.293C1415.32 464.381 1415.52 464.419 1415.65 464.439C1415.78 464.459 1415.91 464.469 1416.01 464.476C1416.07 464.48 1416.13 464.484 1416.18 464.487C1416.33 464.496 1416.47 464.504 1416.64 464.523L1416.73 464.533L1416.82 464.532L1423.91 464.424C1424.65 464.451 1425.38 464.3 1426.03 463.887C1426.7 463.462 1427.17 462.829 1427.46 462.088C1427.66 461.56 1427.7 460.998 1427.73 460.673C1427.73 460.647 1427.73 460.623 1427.73 460.6L1427.74 460.553L1427.74 460.505C1427.84 453.254 1426.73 443.065 1424.69 436.34C1424.33 435.15 1423.59 434.163 1422.48 433.696C1422.04 433.512 1421.54 433.308 1420.81 433.278L1420.76 433.276L1420.71 433.277L1414.41 433.434C1412.93 433.397 1411.52 434.133 1410.99 435.503Z" stroke="white" stroke-width="3"/>
<path d="M1132.4 621.8L1132.42 621.815L1132.44 621.83C1141.63 628.277 1152.21 633.9 1163.16 638.513C1185.01 647.721 1209.07 652.751 1227.16 649.492C1251.51 645.596 1267.23 631.581 1273.85 614.559C1279.91 598.982 1277.97 580.951 1267.06 566.784C1259.94 557.365 1249.69 549.987 1237.85 545C1231.9 542.494 1225.53 540.579 1218.76 539.361C1222.17 538.412 1225.6 537.446 1229.05 536.473C1244.75 532.052 1260.92 527.496 1277.73 523.809L1277.75 523.806L1277.76 523.802C1278.66 523.586 1279.45 523.203 1280.11 522.597C1280.77 521.995 1281.23 521.238 1281.57 520.383L1288.14 503.482C1288.58 502.353 1288.7 501.155 1288.29 500.045C1287.86 498.911 1286.98 498.125 1285.9 497.671L1285.89 497.668L1285.88 497.664C1269.56 491.018 1253.93 484.433 1238.14 477.78L1238 477.72L1183.65 454.822C1182.61 454.384 1181.43 454.167 1180.31 454.637C1179.18 455.108 1178.46 456.119 1178 457.309L1169.95 477.987C1169.52 479.116 1169.39 480.33 1169.84 481.464C1170.3 482.613 1171.23 483.393 1172.35 483.864L1172.36 483.867L1172.36 483.87C1187.32 490.002 1203.09 496.096 1219.02 502.254C1223.29 503.902 1227.57 505.555 1231.84 507.214C1225.78 508.969 1219.66 510.764 1213.39 512.602C1187.58 520.174 1159.27 528.479 1121.96 537.652C1120.46 537.928 1119.2 538.77 1118.66 540.151C1118.32 541.041 1118.2 542.1 1118.73 543.342L1124.91 565.688C1125.18 567.174 1126.15 568.305 1127.37 568.822C1127.84 569.02 1128.35 569.141 1128.91 569.123C1129.44 569.107 1129.94 568.975 1130.43 568.784C1136.47 566.962 1142.06 565.385 1147.23 563.925C1150.82 562.914 1154.2 561.958 1157.4 561.016C1182.24 555.481 1202.09 558.416 1216.22 564.367C1227.96 569.315 1235.59 576.17 1239.11 582.021L1239.13 582.051L1239.15 582.079C1243.78 589.056 1244.18 596.133 1241.89 602.021C1239 609.445 1231.77 615.418 1222.62 617.559C1209.84 620.242 1194.03 617.257 1178.03 610.514C1165.57 605.267 1153.18 597.984 1142.34 589.517L1142.3 589.49L1142.27 589.465C1141.24 588.755 1140.06 588.309 1138.87 588.608C1137.65 588.916 1136.91 589.893 1136.5 590.941L1136.27 591.538L1136.23 591.632L1136.21 591.73L1130.26 616.302L1130.23 616.415L1130.22 616.531C1130.14 617.517 1130.16 618.498 1130.52 619.435C1130.88 620.406 1131.54 621.153 1132.4 621.8Z" stroke="white" stroke-width="3"/>
<path d="M1297.08 698.972L1297.14 698.994L1297.19 699.012C1323.72 707.865 1349.11 711.112 1368.57 708.266L1368.57 708.265C1396.31 704.159 1418.38 685.396 1427 663.217C1432 650.383 1432.58 636.371 1427.23 623.355C1421.88 610.332 1410.66 598.485 1392.38 589.842L1392.37 589.839L1392.36 589.835L1386.23 587.02L1386.21 587.01L1386.19 587.001C1366.16 578.565 1339.66 572.053 1309.57 567.95C1308.58 567.727 1307.63 567.881 1306.84 568.371C1306.04 568.861 1305.49 569.626 1305.16 570.46L1304.78 571.454L1304.71 571.633L1304.68 571.825L1301.92 595.168C1301.78 596.133 1301.86 597.085 1302.28 597.928C1302.73 598.798 1303.45 599.366 1304.25 599.705C1304.28 599.715 1304.3 599.727 1304.33 599.738C1304.7 599.896 1305.3 600.152 1306.02 600.087C1334.63 602.265 1358.93 607.934 1375.48 614.905L1381.26 617.569C1390.24 622.029 1395.46 627.752 1397.89 633.743C1400.32 639.74 1400.05 646.193 1397.69 652.254C1393.02 664.252 1380.3 674.584 1365.72 676.965C1344.86 679.981 1320.96 673.61 1298 665.789C1297.06 665.406 1296.06 665.305 1295.14 665.658C1294.19 666.021 1293.54 666.786 1293.18 667.699C1293.03 668.078 1292.98 668.446 1292.94 668.737C1292.93 668.883 1292.91 669.036 1292.9 669.172C1292.89 669.313 1292.87 669.451 1292.86 669.597L1292.84 669.715L1292.85 669.834L1293.81 694.244C1293.77 695.259 1293.98 696.223 1294.52 697.058C1295.08 697.904 1295.88 698.466 1296.77 698.841L1297.08 698.972ZM1341.3 549.562L1341.34 549.587L1341.39 549.608C1366.71 561.431 1396 577.231 1421.19 597.036C1422.1 597.88 1423.26 598.339 1424.47 598.128C1425.67 597.918 1426.62 597.101 1427.27 596.034L1438.88 577.798L1438.92 577.731L1438.96 577.659C1439.43 576.689 1439.79 575.59 1439.65 574.451C1439.5 573.226 1438.8 572.244 1437.76 571.495C1414.68 554.798 1382.99 537.044 1357.03 523.791L1356.98 523.766L1356.93 523.744C1355.93 523.323 1354.84 523.16 1353.79 523.476C1352.74 523.793 1351.93 524.532 1351.39 525.551L1339.68 543.179C1338.91 544.236 1338.56 545.488 1338.9 546.757C1339.24 548.007 1340.17 548.941 1341.3 549.562Z" stroke="white" stroke-width="3"/>
<path d="M1520.91 629.304L1520.92 629.293L1520.93 629.282C1521.75 628.424 1522.31 627.311 1522.36 626.063C1522.41 624.794 1521.92 623.591 1521 622.606L1501.58 601.828C1499.92 600.048 1497.08 599.917 1495.26 601.815L1495.25 601.827L1495.23 601.839L1416.11 687.861C1415.19 688.821 1414.56 689.955 1414.57 691.269C1414.59 692.573 1415.24 693.657 1416.05 694.524L1432.13 711.729C1432.94 712.596 1433.96 713.302 1435.19 713.335C1436.44 713.368 1437.52 712.71 1438.44 711.754L1520.91 629.304ZM1385.59 714.146C1377.29 722.79 1377.44 735.636 1385.42 744.168C1393.4 752.714 1405.45 752.891 1413.74 744.262C1422.04 735.615 1421.86 723.063 1413.88 714.534C1405.93 706.019 1393.91 705.486 1385.59 714.146Z" stroke="white" stroke-width="3"/>
<path d="M1571.33 615.122L1571.34 615.107L1571.34 615.093C1571.83 613.712 1571.87 612.207 1571.29 610.827C1570.71 609.431 1569.57 608.354 1568.04 607.715L1537.94 595.161C1535.12 593.986 1532.2 595.441 1531.18 598.338L1531.17 598.353L1531.17 598.367L1483.75 742.352C1483.2 743.925 1483.09 745.48 1483.76 746.88C1484.42 748.262 1485.67 749.133 1487.06 749.712L1511.18 759.775C1512.56 760.353 1514.03 760.612 1515.37 760.065C1516.73 759.511 1517.6 758.277 1518.16 756.707L1571.33 615.122ZM1462.13 781.395C1457.04 795.829 1463.98 810.671 1477.99 816.518C1491.99 822.357 1506.49 816.479 1511.58 802.028C1516.68 787.555 1509.38 772.918 1495.4 767.088C1481.41 761.251 1467.22 766.94 1462.13 781.395Z" stroke="white" stroke-width="3"/>
<mask id="path-7-outside-1_685_2" maskUnits="userSpaceOnUse" x="656.604" y="31.8013" width="598.154" height="585.462" fill="black">
<rect fill="white" x="656.604" y="31.8013" width="598.154" height="585.462"/>
<path fill-rule="evenodd" clip-rule="evenodd" d="M822.243 224.636C821.96 225.364 821.343 225.542 821.049 225.594L821.02 225.669C821.294 225.668 821.579 225.641 821.657 225.44C821.999 225.262 822.126 224.937 822.243 224.636ZM825.931 222.183C824.276 221.516 823.103 221.722 822.653 222.878L822.273 224.559C822.206 226.84 820.688 262.368 820.688 262.368C820.758 264.298 821.337 265.623 823.216 266.415C858.569 281.66 901.416 293.806 938.95 289.388C979.146 284.454 1013.26 255.091 1027.3 219.019C1035.9 196.889 1036.74 172.244 1026.96 149.589C1016.99 126.733 995.9 105.744 960.899 90.9978C956.436 89.1174 951.971 87.2368 947.155 85.5589C902.173 70.4664 858.134 62.0852 818.568 56.2623C818.568 56.2623 818.558 56.2883 818.323 56.1893C817.814 56.0919 817.023 56.0221 816.641 56.2999C816.26 56.5777 815.829 56.9805 815.605 57.5583C815.438 57.9853 815.263 58.4376 815.332 58.9636L815.273 59.1139L812.71 95.224L812.691 95.2731C812.635 96.0056 812.795 96.6664 812.906 97.1269L812.906 97.127C812.928 97.2182 812.948 97.3016 812.965 97.3761C813.307 97.9006 813.73 98.2248 814.2 98.4228C814.222 98.4322 814.246 98.4427 814.272 98.4539L814.273 98.4543C814.521 98.5616 814.922 98.7352 815.205 98.643C815.45 98.7169 815.47 98.667 815.47 98.667C848.595 102.069 888.641 107.362 927.643 119.555C932.573 120.93 936.801 122.712 941.027 124.492L941.034 124.495C987.075 143.893 996.466 176.676 986.069 203.403C977.362 225.785 954.897 244.183 927.215 247.168C903.937 250.079 874.321 243.272 842.609 229.911C836.971 227.536 831.451 224.86 825.931 222.183ZM1108.41 386.035C1109.24 386.387 1110.36 386.524 1111.34 385.986L1138.39 375.478L1138.4 375.443C1139.83 374.777 1140.5 374.061 1140.81 373.241C1141.25 372.117 1141.25 371.12 1140.58 369.842C1121.41 331.101 1091.29 288.994 1075.06 266.69L1075.07 266.672C1072.98 264.047 1072.26 261.877 1072.92 260.183C1073.66 258.274 1075.72 256.983 1078.9 256.327C1087.69 254.085 1099.75 251.514 1113.32 248.621L1113.32 248.621L1113.32 248.621C1136.75 243.626 1164.68 237.672 1188.06 230.797L1188.09 230.707C1189.68 230.112 1190.35 229.397 1190.67 228.577C1191.09 227.489 1190.92 226.439 1190.58 225.319C1190.58 225.319 1190.42 225.23 1190.42 225.213L1178.19 199.152C1177.83 198.068 1176.94 197.359 1176.1 197.007C1175.27 196.654 1174.15 196.517 1173.16 197.056C1145.21 207.747 1112.64 215.363 1087.39 221.269C1077.14 223.668 1068.09 225.785 1061.04 227.711C1050.19 231.092 1042.58 237.662 1039.41 245.813C1036.15 254.179 1037.31 264.714 1043.68 275.847C1043.68 275.847 1043.84 275.917 1043.84 275.935C1048.5 283.606 1053.89 291.879 1059.61 300.653L1059.61 300.654C1075.56 325.144 1094.06 353.543 1106.41 383.659C1106.77 384.743 1107.57 385.683 1108.41 386.035ZM787.277 452.906L787.278 452.906C787.44 452.879 787.697 452.836 787.88 452.667L787.831 452.792C787.724 452.819 787.651 452.852 787.588 452.88C787.487 452.925 787.414 452.959 787.268 452.93L787.277 452.906ZM788.099 452.105L787.88 452.667C788.006 452.551 788.097 452.375 788.099 452.105ZM788.478 450.474C788.924 449.327 790.268 449.145 791.8 449.791C796.944 452.279 802.088 454.766 807.34 456.979C836.88 469.424 864.434 475.852 886.041 473.338C911.502 470.737 932.236 454.099 940.172 433.699C949.634 409.374 940.676 379.372 898.007 361.395L898.001 361.392C894.064 359.734 890.126 358.075 885.538 356.782C849.242 345.336 812.219 340.341 781.215 336.894L781.189 336.963C780.68 336.962 780.244 336.779 780.025 336.686L780.025 336.686C779.587 336.502 779.201 336.18 778.889 335.675C778.585 335.146 778.583 334.503 778.658 333.654L778.676 333.608L780.84 300.546C780.848 300.523 780.8 300.483 780.752 300.443C780.704 300.402 780.656 300.362 780.665 300.339L781.156 299.077C781.379 298.504 781.576 297.999 782.156 297.816C782.527 297.518 783.044 297.496 783.745 297.657L783.964 297.75C820.763 303.318 861.716 311.304 903.594 325.422C908.078 326.991 912.237 328.742 916.395 330.494C948.998 344.23 968.706 363.619 978.11 384.621C987.53 405.576 986.883 428.192 979.001 448.455C966.155 481.477 934.618 508.2 897.079 512.389C862.228 516.215 822.344 504.833 789.41 490.637C787.659 489.899 786.921 488.52 786.872 486.683C786.872 486.683 788.13 453.987 788.117 452.058L788.478 450.474ZM1066.21 603.298L1066.21 603.279L1093.09 592.701C1093.26 592.771 1093.27 592.754 1093.27 592.754C1094.69 592.106 1095.17 591.374 1095.48 590.571C1095.9 589.483 1095.89 588.521 1095.2 587.278C1076.2 548.608 1046.08 506.483 1029.69 484.109C1027.61 481.449 1026.91 479.244 1027.59 477.514C1028.34 475.569 1030.41 474.242 1033.6 473.55C1042.14 471.414 1053.67 468.953 1066.65 466.185C1090.36 461.125 1118.9 455.038 1142.76 448.02C1142.94 448.055 1142.95 448.036 1142.95 448.018C1144.37 447.389 1145.03 446.691 1145.33 445.907C1145.74 444.854 1145.73 443.893 1145.2 442.757L1145.21 442.721L1132.97 416.659C1132.44 415.522 1131.55 414.814 1130.88 414.532C1130.21 414.25 1129.1 414.113 1127.96 414.546C1100.37 425.188 1068.1 432.759 1042.96 438.654C1032.43 441.126 1023.15 443.303 1015.99 445.288C1004.98 448.58 997.558 455.167 994.401 463.283C991.161 471.613 992.338 482.095 998.715 493.21L998.707 493.229C1003.29 500.715 1008.53 508.759 1014.08 517.274C1030.16 541.936 1048.81 570.544 1061.28 600.953C1061.81 602.107 1062.62 603.011 1063.29 603.293C1063.96 603.574 1065.07 603.73 1066.21 603.298Z"/>
</mask>
<path d="M821.049 225.594L820.529 222.64L818.865 222.933L818.253 224.507L821.049 225.594ZM821.02 225.669L818.224 224.582L816.625 228.694L821.037 228.669L821.02 225.669ZM821.657 225.44L820.277 222.776L819.271 223.297L818.861 224.352L821.657 225.44ZM822.653 222.878L819.857 221.79L819.777 221.998L819.727 222.216L822.653 222.878ZM825.931 222.183L827.239 219.484L827.148 219.439L827.054 219.401L825.931 222.183ZM822.273 224.559L819.347 223.897L819.283 224.18L819.274 224.471L822.273 224.559ZM820.688 262.368L817.691 262.24L817.686 262.358L817.69 262.476L820.688 262.368ZM823.216 266.415L824.404 263.66L824.392 263.655L824.381 263.65L823.216 266.415ZM938.95 289.388L939.301 292.367L939.308 292.366L939.316 292.365L938.95 289.388ZM1027.3 219.019L1030.09 220.107L1030.09 220.107L1027.3 219.019ZM1026.96 149.589L1029.72 148.4L1029.71 148.389L1026.96 149.589ZM960.899 90.9978L959.735 93.7625L959.735 93.7625L960.899 90.9978ZM947.155 85.5589L948.143 82.7259L948.126 82.7202L948.11 82.7147L947.155 85.5589ZM818.568 56.2623L819.005 53.2943L816.661 52.9493L815.782 55.1499L818.568 56.2623ZM818.323 56.1893L819.488 53.4247L819.197 53.3022L818.887 53.2429L818.323 56.1893ZM815.605 57.5583L812.809 56.4707L812.809 56.4707L815.605 57.5583ZM815.332 58.9636L818.127 60.0512L818.406 59.3358L818.306 58.5746L815.332 58.9636ZM815.273 59.1139L812.477 58.0263L812.313 58.449L812.281 58.9015L815.273 59.1139ZM812.71 95.224L815.506 96.3116L815.671 95.8888L815.703 95.4364L812.71 95.224ZM812.691 95.2731L809.895 94.1855L809.735 94.599L809.7 95.0413L812.691 95.2731ZM812.906 97.1269L815.828 96.4452L815.825 96.433L815.822 96.4209L812.906 97.1269ZM812.906 97.127L809.985 97.8087L809.987 97.8209L809.99 97.8331L812.906 97.127ZM812.965 97.3761L810.033 98.0142L810.151 98.5545L810.453 99.0173L812.965 97.3761ZM814.2 98.4228L813.035 101.187L813.035 101.187L814.2 98.4228ZM814.272 98.4539L813.081 101.207L813.085 101.209L814.272 98.4539ZM814.273 98.4543L815.464 95.7011L815.46 95.6992L814.273 98.4543ZM815.205 98.643L816.072 95.771L815.171 95.499L814.276 95.7906L815.205 98.643ZM815.47 98.667L815.776 95.6827L813.513 95.4503L812.679 97.5664L815.47 98.667ZM927.643 119.555L926.748 122.418L926.792 122.432L926.837 122.444L927.643 119.555ZM941.027 124.492L942.192 121.728L942.191 121.727L941.027 124.492ZM941.034 124.495L939.868 127.259L939.869 127.26L941.034 124.495ZM986.069 203.403L983.273 202.316L983.273 202.316L986.069 203.403ZM927.215 247.168L926.894 244.186L926.869 244.188L926.843 244.192L927.215 247.168ZM842.609 229.911L841.444 232.676L841.444 232.676L842.609 229.911ZM1111.34 385.986L1110.26 383.189L1110.08 383.259L1109.91 383.352L1111.34 385.986ZM1108.41 386.035L1109.57 383.271L1109.57 383.271L1108.41 386.035ZM1138.39 375.478L1139.48 378.274L1140.71 377.796L1141.19 376.564L1138.39 375.478ZM1138.4 375.443L1137.13 372.724L1136.04 373.234L1135.61 374.356L1138.4 375.443ZM1140.81 373.241L1138.02 372.153L1138.02 372.153L1140.81 373.241ZM1140.58 369.842L1137.89 371.172L1137.91 371.203L1137.92 371.234L1140.58 369.842ZM1075.06 266.69L1072.27 265.604L1071.67 267.131L1072.64 268.455L1075.06 266.69ZM1075.07 266.672L1077.87 267.759L1078.49 266.151L1077.42 264.802L1075.07 266.672ZM1072.92 260.183L1070.13 259.095L1070.13 259.095L1072.92 260.183ZM1078.9 256.327L1079.51 259.265L1079.57 259.251L1079.64 259.234L1078.9 256.327ZM1113.32 248.621L1112.86 245.658L1112.78 245.67L1112.7 245.687L1113.32 248.621ZM1113.32 248.621L1113.79 251.585L1113.87 251.572L1113.95 251.555L1113.32 248.621ZM1113.32 248.621L1112.7 245.687L1112.7 245.687L1113.32 248.621ZM1188.06 230.797L1188.9 233.675L1190.32 233.259L1190.85 231.884L1188.06 230.797ZM1188.09 230.707L1187.04 227.897L1185.78 228.367L1185.29 229.62L1188.09 230.707ZM1190.67 228.577L1187.87 227.489L1187.87 227.489L1190.67 228.577ZM1190.58 225.319L1193.44 224.442L1193.09 223.281L1192.03 222.693L1190.58 225.319ZM1190.42 225.213L1193.22 226.298L1193.68 225.1L1193.14 223.937L1190.42 225.213ZM1178.19 199.152L1175.34 200.089L1175.39 200.262L1175.47 200.427L1178.19 199.152ZM1173.16 197.056L1174.23 199.858L1174.42 199.786L1174.6 199.69L1173.16 197.056ZM1087.39 221.269L1086.71 218.348L1086.71 218.348L1087.39 221.269ZM1061.04 227.711L1060.25 224.817L1060.2 224.831L1060.15 224.847L1061.04 227.711ZM1039.41 245.813L1036.61 244.726L1036.61 244.726L1039.41 245.813ZM1043.68 275.847L1041.07 277.337L1041.58 278.222L1042.52 278.615L1043.68 275.847ZM1043.84 275.935L1041.04 274.85L1040.51 276.229L1041.27 277.493L1043.84 275.935ZM1059.61 300.653L1062.18 299.104L1062.15 299.059L1062.12 299.016L1059.61 300.653ZM1059.61 300.654L1057.04 302.203L1057.06 302.248L1057.09 302.291L1059.61 300.654ZM1106.41 383.659L1109.26 382.722L1109.23 382.62L1109.19 382.521L1106.41 383.659ZM787.278 452.906L787.681 455.879L787.727 455.873L787.773 455.865L787.278 452.906ZM787.277 452.906L786.875 449.933L785.123 450.171L784.481 451.818L787.277 452.906ZM787.831 452.792L788.54 455.707L790.06 455.338L790.627 453.88L787.831 452.792ZM787.588 452.88L788.824 455.613L788.824 455.613L787.588 452.88ZM787.268 452.93L784.472 451.842L783.171 455.185L786.692 455.874L787.268 452.93ZM788.099 452.105L791.099 452.124L785.303 451.017L788.099 452.105ZM791.8 449.791L793.106 447.09L793.036 447.056L792.965 447.026L791.8 449.791ZM788.478 450.474L785.682 449.387L785.602 449.592L785.553 449.807L788.478 450.474ZM807.34 456.979L806.175 459.743L806.175 459.743L807.34 456.979ZM886.041 473.338L885.736 470.353L885.715 470.355L885.694 470.358L886.041 473.338ZM940.172 433.699L942.968 434.786L942.968 434.786L940.172 433.699ZM898.007 361.395L899.172 358.63L899.169 358.629L898.007 361.395ZM898.001 361.392L896.836 364.157L896.838 364.158L898.001 361.392ZM885.538 356.782L884.636 359.643L884.68 359.657L884.725 359.67L885.538 356.782ZM781.215 336.894L781.547 333.913L779.256 333.658L778.42 335.807L781.215 336.894ZM781.189 336.963L781.184 339.963L783.239 339.966L783.984 338.051L781.189 336.963ZM780.025 336.686L781.19 333.922L781.17 333.913L781.151 333.906L780.025 336.686ZM780.025 336.686L778.86 339.451L778.88 339.459L778.899 339.467L780.025 336.686ZM778.889 335.675L776.288 337.169L776.312 337.211L776.337 337.252L778.889 335.675ZM778.658 333.654L775.862 332.566L775.708 332.963L775.67 333.387L778.658 333.654ZM778.676 333.608L781.472 334.695L781.64 334.265L781.67 333.803L778.676 333.608ZM780.84 300.546L778.044 299.459L777.876 299.89L777.846 300.35L780.84 300.546ZM780.752 300.443L782.681 298.145L782.681 298.145L780.752 300.443ZM780.665 300.339L783.461 301.427L783.461 301.427L780.665 300.339ZM781.156 299.077L778.36 297.99L778.36 297.99L781.156 299.077ZM782.156 297.816L783.057 300.678L783.596 300.508L784.036 300.154L782.156 297.816ZM783.745 297.657L784.91 294.893L784.671 294.792L784.419 294.734L783.745 297.657ZM783.964 297.75L782.799 300.514L783.144 300.66L783.515 300.716L783.964 297.75ZM903.594 325.422L904.585 322.59L904.569 322.585L904.553 322.579L903.594 325.422ZM916.395 330.494L915.23 333.259L915.23 333.259L916.395 330.494ZM978.11 384.621L975.371 385.847L975.373 385.851L978.11 384.621ZM979.001 448.455L976.205 447.367L976.205 447.367L979.001 448.455ZM897.079 512.389L897.407 515.372L897.412 515.371L897.079 512.389ZM789.41 490.637L790.597 487.882L790.586 487.877L790.574 487.872L789.41 490.637ZM786.872 486.683L783.874 486.568L783.87 486.666L783.873 486.764L786.872 486.683ZM788.117 452.058L785.192 451.391L785.114 451.731L785.117 452.08L788.117 452.058ZM1066.21 603.279L1065.12 600.488L1063.89 600.968L1063.42 602.192L1066.21 603.279ZM1066.21 603.298L1067.27 606.103L1068.52 605.629L1069 604.385L1066.21 603.298ZM1093.09 592.701L1094.26 589.936L1093.13 589.462L1091.99 589.909L1093.09 592.701ZM1093.27 592.754L1092.02 590.025L1090.93 590.524L1090.48 591.642L1093.27 592.754ZM1095.48 590.571L1098.27 591.659L1098.27 591.659L1095.48 590.571ZM1095.2 587.278L1092.51 588.601L1092.54 588.663L1092.57 588.724L1095.2 587.278ZM1029.69 484.109L1032.11 482.336L1032.08 482.299L1032.05 482.263L1029.69 484.109ZM1027.59 477.514L1024.79 476.426L1024.79 476.426L1027.59 477.514ZM1033.6 473.55L1034.24 476.482L1034.28 476.472L1034.33 476.461L1033.6 473.55ZM1066.65 466.185L1067.27 469.119L1067.27 469.119L1066.65 466.185ZM1142.76 448.02L1143.32 445.074L1142.61 444.936L1141.91 445.142L1142.76 448.02ZM1142.95 448.018L1141.73 445.278L1140.6 445.782L1140.16 446.933L1142.95 448.018ZM1145.33 445.907L1148.13 446.994L1148.13 446.994L1145.33 445.907ZM1145.2 442.757L1142.4 441.671L1141.94 442.865L1142.48 444.025L1145.2 442.757ZM1145.21 442.721L1148.01 443.806L1148.47 442.609L1147.93 441.446L1145.21 442.721ZM1132.97 416.659L1130.25 417.927L1130.26 417.934L1132.97 416.659ZM1130.88 414.532L1132.05 411.767L1132.05 411.767L1130.88 414.532ZM1127.96 414.546L1126.89 411.74L1126.89 411.744L1126.88 411.747L1127.96 414.546ZM1042.96 438.654L1043.65 441.575L1043.65 441.575L1042.96 438.654ZM1015.99 445.288L1015.19 442.397L1015.16 442.405L1015.13 442.414L1015.99 445.288ZM994.401 463.283L997.197 464.371L997.197 464.371L994.401 463.283ZM998.715 493.21L1001.51 494.297L1002.03 492.961L1001.32 491.717L998.715 493.21ZM998.707 493.229L995.911 492.142L995.373 493.526L996.148 494.794L998.707 493.229ZM1014.08 517.274L1016.59 515.635L1016.59 515.635L1014.08 517.274ZM1061.28 600.953L1058.51 602.091L1058.53 602.141L1058.55 602.191L1061.28 600.953ZM1063.29 603.293L1062.13 606.057L1062.13 606.057L1063.29 603.293ZM821.57 228.549C822.261 228.427 824.189 227.908 825.039 225.723L819.447 223.548C819.562 223.252 819.791 222.993 820.055 222.828C820.276 222.689 820.463 222.651 820.529 222.64L821.57 228.549ZM823.816 226.757L823.845 226.682L818.253 224.507L818.224 224.582L823.816 226.757ZM818.861 224.352C819.313 223.191 820.295 222.826 820.606 222.739C820.906 222.656 821.114 222.669 821.004 222.669L821.037 228.669C821.2 228.668 821.687 228.667 822.217 228.519C822.759 228.368 823.923 227.89 824.453 226.527L818.861 224.352ZM819.447 223.548C819.414 223.634 819.41 223.643 819.41 223.642C819.414 223.634 819.442 223.571 819.498 223.482C819.627 223.278 819.876 222.984 820.277 222.776L823.037 228.104C824.521 227.334 824.976 225.887 825.039 225.723L819.447 223.548ZM825.449 223.965C825.41 224.066 825.305 224.267 825.08 224.461C824.851 224.658 824.609 224.752 824.436 224.787C824.281 224.818 824.223 224.796 824.306 224.809C824.386 224.822 824.551 224.861 824.808 224.965L827.054 219.401C825.975 218.966 824.624 218.627 823.245 218.906C821.638 219.232 820.434 220.308 819.857 221.79L825.449 223.965ZM825.199 225.221L825.579 223.54L819.727 222.216L819.347 223.897L825.199 225.221ZM820.688 262.368C823.686 262.496 823.686 262.496 823.686 262.495C823.686 262.495 823.686 262.495 823.686 262.494C823.686 262.493 823.686 262.492 823.686 262.489C823.686 262.485 823.686 262.479 823.687 262.47C823.687 262.453 823.688 262.427 823.69 262.394C823.693 262.327 823.697 262.227 823.703 262.096C823.714 261.835 823.73 261.453 823.751 260.965C823.792 259.989 823.852 258.592 823.924 256.909C824.067 253.542 824.259 249.03 824.453 244.446C824.84 235.299 825.237 225.814 825.272 224.647L819.274 224.471C819.241 225.586 818.847 235.005 818.458 244.192C818.264 248.775 818.072 253.287 817.929 256.653C817.857 258.336 817.798 259.733 817.756 260.709C817.735 261.197 817.719 261.58 817.708 261.84C817.702 261.971 817.698 262.071 817.695 262.138C817.694 262.171 817.693 262.197 817.692 262.214C817.692 262.223 817.691 262.229 817.691 262.233C817.691 262.235 817.691 262.237 817.691 262.238C817.691 262.239 817.691 262.239 817.691 262.239C817.691 262.24 817.691 262.24 820.688 262.368ZM824.381 263.65C824.136 263.547 824.012 263.459 823.956 263.413C823.906 263.372 823.886 263.343 823.87 263.316C823.829 263.244 823.712 262.986 823.686 262.26L817.69 262.476C817.734 263.679 817.941 265.049 818.676 266.32C819.45 267.658 820.627 268.579 822.051 269.179L824.381 263.65ZM938.6 286.408C901.848 290.734 859.588 278.833 824.404 263.66L822.028 269.169C857.551 284.488 900.984 296.877 939.301 292.367L938.6 286.408ZM1024.5 217.931C1010.83 253.073 977.582 281.623 938.585 286.41L939.316 292.365C980.71 287.285 1015.7 257.108 1030.09 220.107L1024.5 217.931ZM1024.21 150.777C1033.64 172.618 1032.86 196.438 1024.5 217.931L1030.09 220.107C1038.95 197.339 1039.85 171.87 1029.72 148.4L1024.21 150.777ZM959.735 93.7625C994.189 108.278 1014.61 128.786 1024.21 150.789L1029.71 148.389C1019.37 124.681 997.612 103.21 962.064 88.2332L959.735 93.7625ZM946.168 88.3918C950.88 90.0337 955.26 91.8775 959.735 93.7625L962.064 88.2332C957.612 86.3574 953.062 84.44 948.143 82.7259L946.168 88.3918ZM818.132 59.2304C857.61 65.0404 901.455 73.3898 946.201 88.4031L948.11 82.7147C902.891 67.543 858.658 59.1301 819.005 53.2943L818.132 59.2304ZM817.158 58.954C817.324 59.0236 817.629 59.1468 817.991 59.2134C818.148 59.2424 818.585 59.3151 819.127 59.2114C819.421 59.1551 819.847 59.0279 820.282 58.7254C820.503 58.5715 820.717 58.3779 820.908 58.1407C821.002 58.0232 821.087 57.899 821.162 57.7693C821.2 57.7047 821.235 57.6392 821.267 57.5732C821.283 57.5402 821.298 57.5072 821.313 57.4741C821.32 57.4575 821.327 57.441 821.334 57.4244C821.338 57.4162 821.343 57.4038 821.345 57.3996C821.35 57.3872 821.355 57.3748 818.568 56.2623C815.782 55.1499 815.787 55.1375 815.792 55.1251C815.794 55.1209 815.799 55.1085 815.803 55.1003C815.81 55.0837 815.817 55.0672 815.824 55.0506C815.839 55.0175 815.854 54.9845 815.87 54.9515C815.902 54.8855 815.937 54.8201 815.974 54.7555C816.05 54.6259 816.135 54.5018 816.229 54.3845C816.419 54.1477 816.633 53.9545 816.853 53.8011C817.286 53.4997 817.71 53.3737 817.999 53.3183C818.532 53.2164 818.951 53.2894 819.077 53.3125C819.375 53.3674 819.558 53.454 819.488 53.4247L817.158 58.954ZM818.408 58.7249C818.071 58.9704 817.773 59.0508 817.661 59.0764C817.537 59.1049 817.469 59.1037 817.484 59.1035C817.521 59.1029 817.629 59.1109 817.759 59.1358L818.887 53.2429C818.509 53.1703 817.967 53.0947 817.385 53.1043C816.935 53.1117 815.847 53.1671 814.875 53.8748L818.408 58.7249ZM818.4 58.6459C818.362 58.7451 818.318 58.7972 818.313 58.8028C818.31 58.8053 818.316 58.7989 818.332 58.7842C818.349 58.7696 818.373 58.7498 818.408 58.7249L814.875 53.8748C814.283 54.3065 813.332 55.1262 812.809 56.4707L818.4 58.6459ZM818.306 58.5746C818.318 58.6635 818.318 58.7442 818.313 58.8105C818.308 58.8748 818.299 58.9165 818.296 58.9282C818.294 58.9379 818.296 58.9248 818.314 58.8755C818.322 58.8514 818.333 58.8218 818.348 58.783C818.363 58.7428 818.379 58.701 818.4 58.6459L812.809 56.4707C812.674 56.8178 812.175 57.9597 812.357 59.3526L818.306 58.5746ZM818.069 60.2015L818.127 60.0512L812.536 57.876L812.477 58.0263L818.069 60.2015ZM815.703 95.4364L818.266 59.3262L812.281 58.9015L809.718 95.0116L815.703 95.4364ZM815.487 96.3606L815.506 96.3116L809.915 94.1364L809.895 94.1855L815.487 96.3606ZM815.822 96.4209C815.765 96.1845 815.727 96.0246 815.703 95.8598C815.679 95.7024 815.676 95.5882 815.682 95.5048L809.7 95.0413C809.603 96.3036 809.883 97.3895 809.99 97.8329L815.822 96.4209ZM815.828 96.4454L815.828 96.4452L809.985 97.8085L809.985 97.8087L815.828 96.4454ZM815.896 96.7379C815.871 96.6226 815.842 96.5028 815.822 96.421L809.99 97.8331C810.015 97.9336 810.026 97.9806 810.033 98.0142L815.896 96.7379ZM815.364 95.6581C815.369 95.6602 815.381 95.6655 815.397 95.6752C815.413 95.685 815.43 95.6969 815.447 95.7104C815.463 95.7238 815.474 95.7353 815.48 95.7423C815.486 95.7491 815.484 95.7479 815.476 95.7349L810.453 99.0173C811.133 100.057 812.03 100.764 813.035 101.187L815.364 95.6581ZM815.463 95.7006C815.441 95.6907 815.402 95.6742 815.364 95.6581L813.035 101.187C813.041 101.19 813.052 101.195 813.081 101.207L815.463 95.7006ZM815.46 95.6992L815.459 95.6988L813.085 101.209L813.086 101.21L815.46 95.6992ZM814.276 95.7906C814.66 95.6653 814.98 95.6622 815.159 95.6732C815.341 95.6843 815.466 95.7158 815.513 95.7285C815.585 95.7481 815.613 95.7654 815.464 95.7011L813.082 101.208C813.181 101.251 813.534 101.408 813.939 101.519C814.274 101.609 815.145 101.818 816.134 101.496L814.276 95.7906ZM815.47 98.667C812.679 97.5664 812.681 97.5599 812.684 97.5535C812.685 97.5513 812.687 97.5448 812.689 97.5405C812.693 97.5319 812.696 97.5232 812.7 97.5145C812.707 97.4972 812.714 97.4799 812.722 97.4625C812.737 97.4277 812.753 97.3928 812.77 97.358C812.804 97.2882 812.841 97.2185 812.882 97.1494C812.963 97.0106 813.057 96.8766 813.163 96.7495C813.377 96.4918 813.623 96.2851 813.878 96.1261C814.38 95.8143 814.858 95.7224 815.156 95.6952C815.696 95.6458 816.071 95.7706 816.072 95.771L814.338 101.515C814.584 101.589 815.091 101.726 815.702 101.67C816.036 101.64 816.534 101.54 817.047 101.221C817.308 101.059 817.557 100.849 817.774 100.588C817.881 100.46 817.975 100.325 818.057 100.186C818.098 100.116 818.135 100.046 818.169 99.9763C818.186 99.9413 818.202 99.9064 818.217 99.8716C818.225 99.8542 818.232 99.8368 818.239 99.8194C818.243 99.8108 818.246 99.8021 818.25 99.7935C818.252 99.7891 818.254 99.7826 818.255 99.7805C818.258 99.774 818.26 99.7675 815.47 98.667ZM928.538 116.691C889.241 104.406 848.951 99.0897 815.776 95.6827L815.163 101.651C848.239 105.048 888.042 110.318 926.748 122.418L928.538 116.691ZM942.191 121.727C937.98 119.953 933.588 118.099 928.45 116.665L926.837 122.444C931.558 123.762 935.621 125.47 939.862 127.257L942.191 121.727ZM942.199 121.731L942.192 121.728L939.861 127.256L939.868 127.259L942.199 121.731ZM988.865 204.491C994.331 190.439 994.623 174.684 987.412 159.887C980.212 145.109 965.7 131.632 942.198 121.73L939.869 127.26C962.409 136.756 975.613 149.369 982.019 162.515C988.415 175.641 988.204 189.64 983.273 202.316L988.865 204.491ZM927.537 250.151C956.328 247.046 979.75 227.921 988.865 204.491L983.273 202.316C974.974 223.649 953.466 241.32 926.894 244.186L927.537 250.151ZM841.444 232.676C873.337 246.113 903.536 253.152 927.588 250.145L926.843 244.192C904.339 247.005 875.305 240.431 843.774 227.147L841.444 232.676ZM824.622 224.883C830.13 227.554 835.721 230.265 841.444 232.676L843.774 227.147C838.221 224.807 832.772 222.166 827.239 219.484L824.622 224.883ZM1109.91 383.352C1109.94 383.335 1109.95 383.347 1109.88 383.345C1109.81 383.344 1109.69 383.321 1109.57 383.271L1107.24 388.8C1108.6 389.374 1110.73 389.737 1112.78 388.619L1109.91 383.352ZM1137.3 372.681L1110.26 383.189L1112.43 388.782L1139.48 378.274L1137.3 372.681ZM1135.61 374.356L1135.59 374.391L1141.19 376.564L1141.2 376.53L1135.61 374.356ZM1138.02 372.153C1138.02 372.16 1138.02 372.162 1138.01 372.162C1138.01 372.162 1138.01 372.162 1138.01 372.164C1138.01 372.164 1138 372.184 1137.96 372.223C1137.87 372.306 1137.65 372.486 1137.13 372.724L1139.67 378.161C1141.55 377.286 1142.93 376.09 1143.61 374.328L1138.02 372.153ZM1137.92 371.234C1138.11 371.584 1138.12 371.733 1138.12 371.759C1138.12 371.781 1138.13 371.88 1138.02 372.153L1143.61 374.328C1143.94 373.478 1144.17 372.517 1144.11 371.44C1144.05 370.367 1143.73 369.378 1143.24 368.449L1137.92 371.234ZM1072.64 268.455C1088.87 290.773 1118.85 332.689 1137.89 371.172L1143.27 368.511C1123.97 329.512 1093.71 287.215 1077.49 264.925L1072.64 268.455ZM1072.27 265.585L1072.27 265.604L1077.86 267.777L1077.87 267.759L1072.27 265.585ZM1070.13 259.095C1068.84 262.4 1070.52 265.774 1072.72 268.541L1077.42 264.802C1075.44 262.319 1075.68 261.355 1075.72 261.271L1070.13 259.095ZM1078.29 253.39C1074.78 254.115 1071.43 255.747 1070.13 259.095L1075.72 261.271C1075.9 260.801 1076.67 259.852 1079.51 259.265L1078.29 253.39ZM1112.7 245.687C1099.15 248.575 1087.02 251.16 1078.16 253.42L1079.64 259.234C1088.36 257.011 1100.35 254.454 1113.95 251.556L1112.7 245.687ZM1112.86 245.658L1112.86 245.658L1113.79 251.585L1113.79 251.585L1112.86 245.658ZM1112.7 245.687L1112.69 245.688L1113.95 251.555L1113.95 251.555L1112.7 245.687ZM1187.21 227.919C1163.97 234.755 1136.16 240.686 1112.7 245.687L1113.95 251.555C1137.35 246.566 1165.4 240.588 1188.9 233.675L1187.21 227.919ZM1185.29 229.62L1185.26 229.71L1190.85 231.884L1190.89 231.795L1185.29 229.62ZM1187.87 227.489C1187.87 227.499 1187.87 227.487 1187.89 227.469C1187.9 227.449 1187.9 227.45 1187.88 227.471C1187.83 227.519 1187.61 227.685 1187.04 227.897L1189.14 233.518C1191.28 232.72 1192.75 231.506 1193.47 229.665L1187.87 227.489ZM1187.71 226.196C1187.99 227.13 1187.92 227.364 1187.87 227.489L1193.47 229.665C1194.26 227.613 1193.84 225.748 1193.44 224.442L1187.71 226.196ZM1187.63 224.127C1187.18 225.274 1187.58 226.226 1187.73 226.531C1187.9 226.894 1188.11 227.135 1188.2 227.23C1188.39 227.439 1188.56 227.575 1188.61 227.614C1188.75 227.719 1188.87 227.795 1188.91 227.82C1188.97 227.857 1189.02 227.887 1189.05 227.905C1189.07 227.915 1189.09 227.924 1189.1 227.93C1189.1 227.933 1189.11 227.936 1189.11 227.939C1189.12 227.94 1189.12 227.941 1189.12 227.942C1189.12 227.942 1189.12 227.943 1189.12 227.943C1189.12 227.944 1189.12 227.944 1189.12 227.944C1189.12 227.944 1189.12 227.944 1189.12 227.944C1189.12 227.944 1189.12 227.944 1189.12 227.945C1189.12 227.945 1189.12 227.945 1190.58 225.319C1192.03 222.693 1192.03 222.693 1192.03 222.694C1192.03 222.694 1192.03 222.694 1192.03 222.694C1192.03 222.694 1192.03 222.694 1192.03 222.694C1192.03 222.694 1192.03 222.694 1192.03 222.694C1192.03 222.695 1192.03 222.695 1192.03 222.696C1192.03 222.696 1192.03 222.697 1192.03 222.697C1192.04 222.699 1192.04 222.699 1192.04 222.7C1192.04 222.702 1192.05 222.703 1192.05 222.705C1192.05 222.706 1192.06 222.713 1192.08 222.725C1192.08 222.726 1192.17 222.776 1192.27 222.859C1192.31 222.887 1192.48 223.014 1192.66 223.214C1192.74 223.305 1192.95 223.543 1193.12 223.903C1193.27 224.204 1193.66 225.153 1193.22 226.298L1187.63 224.127ZM1175.47 200.427L1187.71 226.488L1193.14 223.937L1180.9 197.877L1175.47 200.427ZM1174.94 199.771C1175.06 199.822 1175.17 199.895 1175.25 199.97C1175.32 200.038 1175.33 200.079 1175.34 200.089L1181.04 198.215C1180.33 196.067 1178.64 194.819 1177.27 194.242L1174.94 199.771ZM1174.6 199.69C1174.57 199.707 1174.56 199.695 1174.62 199.697C1174.7 199.698 1174.82 199.72 1174.94 199.771L1177.27 194.242C1175.9 193.668 1173.78 193.305 1171.73 194.422L1174.6 199.69ZM1088.08 224.19C1113.29 218.293 1146.06 210.635 1174.23 199.858L1172.09 194.254C1144.36 204.86 1112 212.433 1086.71 218.348L1088.08 224.19ZM1061.83 230.605C1068.81 228.697 1077.8 226.594 1088.08 224.19L1086.71 218.348C1076.47 220.742 1067.36 222.873 1060.25 224.817L1061.83 230.605ZM1042.2 246.901C1044.97 239.797 1051.73 233.754 1061.93 230.575L1060.15 224.847C1048.65 228.43 1040.19 235.526 1036.61 244.726L1042.2 246.901ZM1046.28 274.357C1040.22 263.771 1039.37 254.195 1042.2 246.901L1036.61 244.726C1032.94 254.162 1034.39 265.657 1041.07 277.337L1046.28 274.357ZM1046.63 277.021C1047.1 275.814 1046.65 274.816 1046.45 274.452C1046.23 274.062 1045.97 273.816 1045.87 273.724C1045.65 273.519 1045.44 273.393 1045.39 273.36C1045.24 273.267 1045.1 273.202 1045.06 273.182C1045 273.151 1044.94 273.126 1044.91 273.112C1044.89 273.104 1044.87 273.097 1044.86 273.091C1044.86 273.089 1044.85 273.086 1044.85 273.085C1044.84 273.084 1044.84 273.083 1044.84 273.082C1044.84 273.081 1044.84 273.081 1044.84 273.081C1044.84 273.08 1044.84 273.08 1044.84 273.08C1044.84 273.08 1044.84 273.08 1044.84 273.08C1044.84 273.08 1044.83 273.08 1044.83 273.08C1044.83 273.08 1044.83 273.08 1043.68 275.847C1042.52 278.615 1042.52 278.615 1042.52 278.615C1042.52 278.615 1042.52 278.615 1042.52 278.615C1042.52 278.614 1042.52 278.614 1042.52 278.614C1042.52 278.614 1042.52 278.614 1042.52 278.614C1042.52 278.614 1042.52 278.613 1042.51 278.613C1042.51 278.612 1042.51 278.612 1042.51 278.611C1042.51 278.611 1042.51 278.61 1042.51 278.609C1042.5 278.608 1042.5 278.606 1042.5 278.605C1042.49 278.604 1042.48 278.598 1042.46 278.587C1042.46 278.587 1042.36 278.543 1042.24 278.468C1042.2 278.443 1042.01 278.326 1041.8 278.129C1041.7 278.04 1041.45 277.798 1041.23 277.411C1041.02 277.05 1040.57 276.054 1041.04 274.85L1046.63 277.021ZM1062.12 299.016C1056.4 290.231 1051.03 282 1046.4 274.377L1041.27 277.493C1045.97 285.212 1051.38 293.526 1057.09 302.291L1062.12 299.016ZM1062.18 299.104L1062.18 299.104L1057.04 302.203L1057.04 302.203L1062.18 299.104ZM1109.19 382.521C1096.71 352.099 1078.05 323.467 1062.12 299.016L1057.09 302.291C1073.07 326.821 1091.41 354.986 1103.64 384.797L1109.19 382.521ZM1109.57 383.271C1109.64 383.299 1109.66 383.319 1109.64 383.301C1109.62 383.286 1109.57 383.249 1109.52 383.187C1109.41 383.057 1109.32 382.887 1109.26 382.722L1103.56 384.596C1104.13 386.312 1105.44 388.039 1107.24 388.8L1109.57 383.271ZM786.876 449.933L786.875 449.933L787.68 455.879L787.681 455.879L786.876 449.933ZM785.846 450.462C786.172 450.161 786.491 450.037 786.635 449.989C786.772 449.944 786.878 449.931 786.784 449.947L787.773 455.865C787.812 455.858 788.977 455.736 789.914 454.872L785.846 450.462ZM790.627 453.88L790.676 453.755L785.084 451.579L785.035 451.705L790.627 453.88ZM788.824 455.613C788.86 455.597 788.817 455.617 788.761 455.639C788.696 455.663 788.621 455.688 788.54 455.707L787.122 449.877C786.729 449.973 786.444 450.105 786.352 450.146L788.824 455.613ZM786.692 455.874C787.099 455.954 787.565 455.974 788.066 455.868C788.292 455.82 788.476 455.757 788.603 455.707C788.715 455.664 788.814 455.618 788.824 455.613L786.352 450.146C786.251 450.192 786.502 450.066 786.824 449.998C787.226 449.913 787.583 449.935 787.844 449.986L786.692 455.874ZM784.481 451.818L784.472 451.842L790.064 454.018L790.073 453.994L784.481 451.818ZM785.303 451.017L785.084 451.579L790.676 453.755L790.895 453.192L785.303 451.017ZM789.914 454.872C790.709 454.139 791.092 453.143 791.099 452.124L785.099 452.085C785.1 451.885 785.136 451.6 785.27 451.282C785.406 450.957 785.61 450.679 785.846 450.462L789.914 454.872ZM792.965 447.026C791.872 446.566 790.536 446.26 789.185 446.511C787.682 446.789 786.318 447.752 785.682 449.387L791.274 451.562C791.204 451.741 791.063 451.962 790.831 452.145C790.608 452.322 790.397 452.388 790.279 452.41C790.17 452.43 790.144 452.414 790.223 452.426C790.299 452.438 790.438 452.472 790.635 452.555L792.965 447.026ZM808.505 454.214C803.337 452.037 798.262 449.584 793.106 447.09L790.494 452.491C795.627 454.974 800.84 457.496 806.175 459.743L808.505 454.214ZM885.694 470.358C864.85 472.784 837.869 466.586 808.505 454.214L806.175 459.743C835.891 472.263 864.018 478.921 886.388 476.317L885.694 470.358ZM937.376 432.611C929.859 451.935 910.105 467.864 885.736 470.353L886.346 476.322C912.898 473.61 934.613 456.264 942.968 434.786L937.376 432.611ZM896.842 364.16C917.708 372.951 929.967 384.524 935.955 396.508C941.93 408.465 941.832 421.158 937.376 432.611L942.968 434.786C947.975 421.915 948.128 407.445 941.322 393.826C934.53 380.233 920.975 367.817 899.172 358.63L896.842 364.16ZM896.838 364.158L896.845 364.161L899.169 358.629L899.163 358.627L896.838 364.158ZM884.725 359.67C889.108 360.905 892.885 362.492 896.836 364.157L899.165 358.628C895.244 356.975 891.144 355.245 886.351 353.895L884.725 359.67ZM780.884 339.876C811.852 343.319 848.633 348.29 884.636 359.643L886.44 353.921C849.851 342.383 812.585 337.364 781.547 333.913L780.884 339.876ZM783.984 338.051L784.011 337.982L778.42 335.807L778.393 335.875L783.984 338.051ZM778.861 339.451C779.086 339.546 780.016 339.961 781.184 339.963L781.193 333.963C781.245 333.963 781.283 333.968 781.303 333.971C781.323 333.974 781.332 333.977 781.328 333.976C781.324 333.975 781.313 333.972 781.292 333.963C781.281 333.959 781.269 333.955 781.253 333.948C781.235 333.941 781.218 333.934 781.19 333.922L778.861 339.451ZM778.899 339.467L778.9 339.467L781.151 333.906L781.15 333.905L778.899 339.467ZM776.337 337.252C776.951 338.246 777.804 339.006 778.86 339.451L781.19 333.922C781.262 333.952 781.331 333.995 781.387 334.044C781.441 334.092 781.455 334.12 781.44 334.097L776.337 337.252ZM775.67 333.387C775.597 334.202 775.464 335.735 776.288 337.169L781.49 334.18C781.546 334.278 781.581 334.37 781.601 334.44C781.62 334.506 781.621 334.539 781.62 334.523C781.618 334.504 781.615 334.45 781.618 334.344C781.621 334.237 781.63 334.102 781.646 333.92L775.67 333.387ZM775.88 332.52L775.862 332.566L781.454 334.741L781.472 334.695L775.88 332.52ZM777.846 300.35L775.683 333.412L781.67 333.803L783.833 300.742L777.846 300.35ZM778.824 302.741C778.895 302.8 778.763 302.695 778.631 302.556C778.57 302.491 778.362 302.267 778.179 301.919C778.024 301.623 777.582 300.647 778.044 299.459L783.636 301.634C784.102 300.435 783.657 299.445 783.494 299.133C783.303 298.77 783.081 298.529 783.003 298.447C782.902 298.339 782.813 298.259 782.772 298.223C782.728 298.184 782.687 298.15 782.681 298.145L778.824 302.741ZM777.869 299.251C777.403 300.451 777.848 301.44 778.011 301.752C778.202 302.116 778.424 302.356 778.501 302.439C778.603 302.547 778.692 302.627 778.733 302.663C778.777 302.702 778.818 302.736 778.824 302.741L782.681 298.145C782.61 298.085 782.742 298.19 782.873 298.33C782.934 298.395 783.143 298.618 783.325 298.967C783.481 299.263 783.923 300.239 783.461 301.427L777.869 299.251ZM778.36 297.99L777.869 299.252L783.461 301.427L783.952 300.165L778.36 297.99ZM781.255 294.955C779.091 295.637 778.476 297.693 778.36 297.99L783.952 300.165C784.013 300.007 784.039 299.943 784.06 299.895C784.079 299.855 784.062 299.901 784.005 299.984C783.944 300.075 783.83 300.219 783.648 300.362C783.461 300.511 783.255 300.616 783.057 300.678L781.255 294.955ZM784.419 294.734C783.509 294.524 781.775 294.273 780.277 295.478L784.036 300.154C783.679 300.442 783.305 300.534 783.085 300.553C782.914 300.568 782.878 300.536 783.07 300.581L784.419 294.734ZM785.129 294.985L784.91 294.893L782.58 300.422L782.799 300.514L785.129 294.985ZM904.553 322.579C862.444 308.383 821.301 300.365 784.413 294.783L783.515 300.716C820.226 306.271 860.989 314.225 902.636 328.265L904.553 322.579ZM917.559 327.729C913.413 325.982 909.17 324.194 904.585 322.59L902.604 328.254C906.985 329.787 911.062 331.503 915.23 333.259L917.559 327.729ZM980.848 383.395C971.067 361.551 950.697 341.691 917.559 327.729L915.23 333.259C947.299 346.77 966.345 365.687 975.371 385.847L980.848 383.395ZM981.796 449.543C989.933 428.626 990.636 405.168 980.846 383.391L975.373 385.851C984.425 405.985 983.832 427.759 976.205 447.367L981.796 449.543ZM897.412 515.371C936.146 511.049 968.578 483.522 981.796 449.543L976.205 447.367C963.732 479.431 933.091 505.352 896.746 509.408L897.412 515.371ZM788.222 493.391C821.322 507.659 861.784 519.282 897.407 515.372L896.752 509.407C862.673 513.149 823.365 502.006 790.597 487.882L788.222 493.391ZM783.873 486.764C783.907 488.054 784.19 489.411 784.947 490.643C785.722 491.905 786.864 492.819 788.245 493.401L790.574 487.872C790.205 487.716 790.102 487.572 790.059 487.502C789.996 487.4 789.885 487.15 789.87 486.603L783.873 486.764ZM785.117 452.08C785.123 452.956 784.817 461.498 784.501 469.983C784.345 474.189 784.188 478.336 784.07 481.43C784.011 482.978 783.962 484.262 783.928 485.16C783.911 485.609 783.897 485.961 783.888 486.201C783.883 486.321 783.88 486.412 783.877 486.474C783.876 486.505 783.875 486.529 783.875 486.544C783.874 486.552 783.874 486.558 783.874 486.562C783.874 486.564 783.874 486.566 783.874 486.567C783.874 486.567 783.874 486.567 783.874 486.568C783.874 486.568 783.874 486.568 786.872 486.683C789.869 486.799 789.869 486.799 789.869 486.799C789.869 486.798 789.869 486.798 789.869 486.797C789.869 486.796 789.869 486.795 789.87 486.793C789.87 486.789 789.87 486.783 789.87 486.775C789.871 486.759 789.872 486.736 789.873 486.705C789.875 486.643 789.879 486.551 789.883 486.431C789.893 486.191 789.906 485.839 789.923 485.39C789.958 484.492 790.007 483.207 790.066 481.659C790.184 478.563 790.341 474.415 790.497 470.206C790.808 461.861 791.124 453.09 791.117 452.037L785.117 452.08ZM785.553 449.807L785.192 451.391L791.042 452.725L791.403 451.142L785.553 449.807ZM1063.42 602.192L1063.41 602.211L1069 604.385L1069.01 604.366L1063.42 602.192ZM1091.99 589.909L1065.12 600.488L1067.31 606.071L1094.19 595.492L1091.99 589.909ZM1093.27 592.754C1090.48 591.642 1090.48 591.629 1090.49 591.616C1090.49 591.611 1090.5 591.598 1090.5 591.589C1090.51 591.572 1090.52 591.554 1090.52 591.536C1090.54 591.501 1090.56 591.466 1090.57 591.431C1090.61 591.361 1090.65 591.291 1090.69 591.223C1090.77 591.086 1090.86 590.956 1090.96 590.834C1091.17 590.588 1091.39 590.393 1091.63 590.242C1092.07 589.949 1092.51 589.839 1092.78 589.794C1093.3 589.71 1093.71 589.787 1093.82 589.81C1093.99 589.844 1094.11 589.884 1094.16 589.901C1094.22 589.921 1094.25 589.935 1094.26 589.936L1091.93 595.465C1092.06 595.519 1092.33 595.631 1092.66 595.697C1092.8 595.725 1093.22 595.801 1093.74 595.717C1094.02 595.672 1094.46 595.56 1094.91 595.266C1095.14 595.116 1095.37 594.92 1095.57 594.674C1095.67 594.552 1095.76 594.422 1095.85 594.285C1095.89 594.216 1095.92 594.147 1095.96 594.077C1095.98 594.042 1095.99 594.007 1096.01 593.971C1096.02 593.954 1096.02 593.936 1096.03 593.918C1096.03 593.91 1096.04 593.896 1096.04 593.892C1096.05 593.879 1096.05 593.866 1093.27 592.754ZM1092.68 589.484C1092.64 589.586 1092.62 589.634 1092.61 589.655C1092.6 589.671 1092.59 589.677 1092.58 589.685C1092.58 589.694 1092.46 589.826 1092.02 590.025L1094.51 595.483C1095.5 595.034 1096.33 594.476 1096.99 593.757C1097.67 593.026 1098.03 592.275 1098.27 591.659L1092.68 589.484ZM1092.57 588.724C1092.67 588.897 1092.71 589.015 1092.74 589.086C1092.76 589.153 1092.76 589.184 1092.76 589.189C1092.76 589.193 1092.76 589.206 1092.76 589.241C1092.75 589.28 1092.73 589.356 1092.68 589.484L1098.27 591.659C1098.6 590.813 1098.82 589.853 1098.75 588.776C1098.67 587.708 1098.33 586.734 1097.83 585.832L1092.57 588.724ZM1027.27 485.883C1043.67 508.262 1073.63 550.195 1092.51 588.601L1097.89 585.955C1078.76 547.02 1048.5 504.705 1032.11 482.336L1027.27 485.883ZM1024.79 476.426C1023.5 479.735 1025.12 483.131 1027.32 485.956L1032.05 482.263C1030.1 479.766 1030.32 478.752 1030.38 478.601L1024.79 476.426ZM1032.97 470.619C1029.43 471.387 1026.1 473.069 1024.79 476.426L1030.38 478.601C1030.59 478.069 1031.4 477.097 1034.24 476.482L1032.97 470.619ZM1066.02 463.251C1053.07 466.015 1041.47 468.488 1032.87 470.64L1034.33 476.461C1042.8 474.34 1054.28 471.892 1067.27 469.119L1066.02 463.251ZM1141.91 445.142C1118.18 452.121 1089.76 458.186 1066.02 463.251L1067.27 469.119C1090.96 464.065 1119.62 457.954 1143.61 450.898L1141.91 445.142ZM1140.16 446.933C1140.16 446.933 1140.16 446.933 1140.16 446.933C1140.16 446.933 1140.16 446.933 1140.16 446.933C1140.16 446.932 1140.16 446.932 1140.16 446.931C1140.16 446.93 1140.16 446.929 1140.16 446.927C1140.16 446.922 1140.16 446.916 1140.17 446.907C1140.17 446.891 1140.18 446.864 1140.2 446.831C1140.23 446.766 1140.27 446.663 1140.34 446.543C1140.49 446.283 1140.71 445.982 1141.04 445.711C1141.69 445.181 1142.36 445.079 1142.63 445.053C1142.92 445.025 1143.13 445.048 1143.19 445.055C1143.24 445.06 1143.27 445.065 1143.29 445.068C1143.31 445.071 1143.32 445.073 1143.32 445.074L1142.19 450.966C1142.26 450.979 1142.7 451.074 1143.21 451.025C1143.51 450.996 1144.19 450.888 1144.85 450.351C1145.18 450.076 1145.41 449.771 1145.56 449.507C1145.63 449.385 1145.68 449.28 1145.71 449.212C1145.72 449.178 1145.73 449.15 1145.74 449.133C1145.74 449.124 1145.75 449.117 1145.75 449.112C1145.75 449.108 1145.75 449.104 1145.75 449.104L1140.16 446.933ZM1142.54 444.819C1142.55 444.78 1142.57 444.771 1142.52 444.818C1142.45 444.888 1142.23 445.056 1141.73 445.278L1144.18 450.758C1146.04 449.926 1147.44 448.751 1148.13 446.994L1142.54 444.819ZM1142.48 444.025C1142.61 444.303 1142.62 444.433 1142.62 444.473C1142.62 444.508 1142.62 444.603 1142.54 444.819L1148.13 446.994C1148.84 445.164 1148.78 443.352 1147.91 441.488L1142.48 444.025ZM1142.41 441.635L1142.4 441.671L1147.99 443.842L1148.01 443.806L1142.41 441.635ZM1130.26 417.934L1142.49 443.996L1147.93 441.446L1135.69 415.384L1130.26 417.934ZM1129.72 417.297C1129.69 417.285 1129.78 417.322 1129.91 417.45C1130.04 417.567 1130.16 417.727 1130.25 417.927L1135.69 415.39C1134.83 413.553 1133.37 412.327 1132.05 411.767L1129.72 417.297ZM1129.02 417.351C1129.19 417.287 1129.36 417.265 1129.5 417.269C1129.67 417.274 1129.75 417.309 1129.72 417.297L1132.05 411.767C1130.72 411.208 1128.8 411.016 1126.89 411.74L1129.02 417.351ZM1043.65 441.575C1068.74 435.69 1101.23 428.075 1129.04 417.344L1126.88 411.747C1099.52 422.302 1067.45 429.829 1042.28 435.734L1043.65 441.575ZM1016.8 448.179C1023.88 446.213 1033.09 444.052 1043.65 441.575L1042.28 435.734C1031.76 438.2 1022.41 440.392 1015.19 442.397L1016.8 448.179ZM997.197 464.371C999.953 457.285 1006.54 451.246 1016.85 448.162L1015.13 442.414C1003.43 445.915 995.163 453.049 991.605 462.195L997.197 464.371ZM1001.32 491.717C995.25 481.143 994.376 471.623 997.197 464.371L991.605 462.195C987.945 471.603 989.425 483.047 996.112 494.703L1001.32 491.717ZM1001.5 494.315L1001.51 494.297L995.918 492.123L995.911 492.142L1001.5 494.315ZM1016.59 515.635C1011.04 507.111 1005.82 499.105 1001.27 491.664L996.148 494.794C1000.75 502.324 1006.02 510.406 1011.57 518.912L1016.59 515.635ZM1064.06 599.814C1051.46 569.1 1032.65 540.259 1016.59 515.635L1011.57 518.912C1027.67 543.614 1046.16 571.988 1058.51 602.091L1064.06 599.814ZM1064.46 600.528C1064.6 600.59 1064.66 600.642 1064.64 600.624C1064.62 600.611 1064.57 600.567 1064.49 600.48C1064.34 600.303 1064.16 600.036 1064.01 599.714L1058.55 602.191C1058.93 603.024 1059.42 603.787 1059.97 604.42C1060.49 605.014 1061.21 605.673 1062.13 606.057L1064.46 600.528ZM1065.14 600.493C1064.99 600.551 1064.83 600.571 1064.69 600.566C1064.54 600.559 1064.45 600.525 1064.46 600.528L1062.13 606.057C1063.42 606.601 1065.32 606.841 1067.27 606.103L1065.14 600.493Z" fill="black" mask="url(#path-7-outside-1_685_2)"/>
<path d="M821.049 225.594L820.529 222.64L818.865 222.933L818.253 224.507L821.049 225.594ZM821.02 225.669L818.224 224.582L816.625 228.694L821.037 228.669L821.02 225.669ZM821.657 225.44L820.277 222.776L819.271 223.297L818.861 224.352L821.657 225.44ZM822.653 222.878L819.857 221.79L819.777 221.998L819.727 222.216L822.653 222.878ZM825.931 222.183L827.239 219.484L827.148 219.439L827.054 219.401L825.931 222.183ZM822.273 224.559L819.347 223.897L819.283 224.18L819.274 224.471L822.273 224.559ZM820.688 262.368L817.691 262.24L817.686 262.358L817.69 262.476L820.688 262.368ZM823.216 266.415L824.404 263.66L824.392 263.655L824.381 263.65L823.216 266.415ZM938.95 289.388L939.301 292.367L939.308 292.366L939.316 292.365L938.95 289.388ZM1027.3 219.019L1030.09 220.107L1030.09 220.107L1027.3 219.019ZM1026.96 149.589L1029.72 148.4L1029.71 148.389L1026.96 149.589ZM960.899 90.9978L959.735 93.7625L959.735 93.7625L960.899 90.9978ZM947.155 85.5589L948.143 82.7259L948.126 82.7202L948.11 82.7147L947.155 85.5589ZM818.568 56.2623L819.005 53.2943L816.661 52.9493L815.782 55.1499L818.568 56.2623ZM818.323 56.1893L819.488 53.4247L819.197 53.3022L818.887 53.2429L818.323 56.1893ZM815.605 57.5583L812.809 56.4707L812.809 56.4707L815.605 57.5583ZM815.332 58.9636L818.127 60.0512L818.406 59.3358L818.306 58.5746L815.332 58.9636ZM815.273 59.1139L812.477 58.0263L812.313 58.449L812.281 58.9015L815.273 59.1139ZM812.71 95.224L815.506 96.3116L815.671 95.8888L815.703 95.4364L812.71 95.224ZM812.691 95.2731L809.895 94.1855L809.735 94.599L809.7 95.0413L812.691 95.2731ZM812.906 97.1269L815.828 96.4452L815.825 96.433L815.822 96.4209L812.906 97.1269ZM812.906 97.127L809.985 97.8087L809.987 97.8209L809.99 97.8331L812.906 97.127ZM812.965 97.3761L810.033 98.0142L810.151 98.5545L810.453 99.0173L812.965 97.3761ZM814.2 98.4228L813.035 101.187L813.035 101.187L814.2 98.4228ZM814.272 98.4539L813.081 101.207L813.085 101.209L814.272 98.4539ZM814.273 98.4543L815.464 95.7011L815.46 95.6992L814.273 98.4543ZM815.205 98.643L816.072 95.771L815.171 95.499L814.276 95.7906L815.205 98.643ZM815.47 98.667L815.776 95.6827L813.513 95.4503L812.679 97.5664L815.47 98.667ZM927.643 119.555L926.748 122.418L926.792 122.432L926.837 122.444L927.643 119.555ZM941.027 124.492L942.192 121.728L942.191 121.727L941.027 124.492ZM941.034 124.495L939.868 127.259L939.869 127.26L941.034 124.495ZM986.069 203.403L983.273 202.316L983.273 202.316L986.069 203.403ZM927.215 247.168L926.894 244.186L926.869 244.188L926.843 244.192L927.215 247.168ZM842.609 229.911L841.444 232.676L841.444 232.676L842.609 229.911ZM1111.34 385.986L1110.26 383.189L1110.08 383.259L1109.91 383.352L1111.34 385.986ZM1108.41 386.035L1109.57 383.271L1109.57 383.271L1108.41 386.035ZM1138.39 375.478L1139.48 378.274L1140.71 377.796L1141.19 376.564L1138.39 375.478ZM1138.4 375.443L1137.13 372.724L1136.04 373.234L1135.61 374.356L1138.4 375.443ZM1140.81 373.241L1138.02 372.153L1138.02 372.153L1140.81 373.241ZM1140.58 369.842L1137.89 371.172L1137.91 371.203L1137.92 371.234L1140.58 369.842ZM1075.06 266.69L1072.27 265.604L1071.67 267.131L1072.64 268.455L1075.06 266.69ZM1075.07 266.672L1077.87 267.759L1078.49 266.151L1077.42 264.802L1075.07 266.672ZM1072.92 260.183L1070.13 259.095L1070.13 259.095L1072.92 260.183ZM1078.9 256.327L1079.51 259.265L1079.57 259.251L1079.64 259.234L1078.9 256.327ZM1113.32 248.621L1112.86 245.658L1112.78 245.67L1112.7 245.687L1113.32 248.621ZM1113.32 248.621L1113.79 251.585L1113.87 251.572L1113.95 251.555L1113.32 248.621ZM1113.32 248.621L1112.7 245.687L1112.7 245.687L1113.32 248.621ZM1188.06 230.797L1188.9 233.675L1190.32 233.259L1190.85 231.884L1188.06 230.797ZM1188.09 230.707L1187.04 227.897L1185.78 228.367L1185.29 229.62L1188.09 230.707ZM1190.67 228.577L1187.87 227.489L1187.87 227.489L1190.67 228.577ZM1190.58 225.319L1193.44 224.442L1193.09 223.281L1192.03 222.693L1190.58 225.319ZM1190.42 225.213L1193.22 226.298L1193.68 225.1L1193.14 223.937L1190.42 225.213ZM1178.19 199.152L1175.34 200.089L1175.39 200.262L1175.47 200.427L1178.19 199.152ZM1173.16 197.056L1174.23 199.858L1174.42 199.786L1174.6 199.69L1173.16 197.056ZM1087.39 221.269L1086.71 218.348L1086.71 218.348L1087.39 221.269ZM1061.04 227.711L1060.25 224.817L1060.2 224.831L1060.15 224.847L1061.04 227.711ZM1039.41 245.813L1036.61 244.726L1036.61 244.726L1039.41 245.813ZM1043.68 275.847L1041.07 277.337L1041.58 278.222L1042.52 278.615L1043.68 275.847ZM1043.84 275.935L1041.04 274.85L1040.51 276.229L1041.27 277.493L1043.84 275.935ZM1059.61 300.653L1062.18 299.104L1062.15 299.059L1062.12 299.016L1059.61 300.653ZM1059.61 300.654L1057.04 302.203L1057.06 302.248L1057.09 302.291L1059.61 300.654ZM1106.41 383.659L1109.26 382.722L1109.23 382.62L1109.19 382.521L1106.41 383.659ZM787.278 452.906L787.681 455.879L787.727 455.873L787.773 455.865L787.278 452.906ZM787.277 452.906L786.875 449.933L785.123 450.171L784.481 451.818L787.277 452.906ZM787.831 452.792L788.54 455.707L790.06 455.338L790.627 453.88L787.831 452.792ZM787.588 452.88L788.824 455.613L788.824 455.613L787.588 452.88ZM787.268 452.93L784.472 451.842L783.171 455.185L786.692 455.874L787.268 452.93ZM788.099 452.105L791.099 452.124L785.303 451.017L788.099 452.105ZM791.8 449.791L793.106 447.09L793.036 447.056L792.965 447.026L791.8 449.791ZM788.478 450.474L785.682 449.387L785.602 449.592L785.553 449.807L788.478 450.474ZM807.34 456.979L806.175 459.743L806.175 459.743L807.34 456.979ZM886.041 473.338L885.736 470.353L885.715 470.355L885.694 470.358L886.041 473.338ZM940.172 433.699L942.968 434.786L942.968 434.786L940.172 433.699ZM898.007 361.395L899.172 358.63L899.169 358.629L898.007 361.395ZM898.001 361.392L896.836 364.157L896.838 364.158L898.001 361.392ZM885.538 356.782L884.636 359.643L884.68 359.657L884.725 359.67L885.538 356.782ZM781.215 336.894L781.547 333.913L779.256 333.658L778.42 335.807L781.215 336.894ZM781.189 336.963L781.184 339.963L783.239 339.966L783.984 338.051L781.189 336.963ZM780.025 336.686L781.19 333.922L781.17 333.913L781.151 333.906L780.025 336.686ZM780.025 336.686L778.86 339.451L778.88 339.459L778.899 339.467L780.025 336.686ZM778.889 335.675L776.288 337.169L776.312 337.211L776.337 337.252L778.889 335.675ZM778.658 333.654L775.862 332.566L775.708 332.963L775.67 333.387L778.658 333.654ZM778.676 333.608L781.472 334.695L781.64 334.265L781.67 333.803L778.676 333.608ZM780.84 300.546L778.044 299.459L777.876 299.89L777.846 300.35L780.84 300.546ZM780.752 300.443L782.681 298.145L782.681 298.145L780.752 300.443ZM780.665 300.339L783.461 301.427L783.461 301.427L780.665 300.339ZM781.156 299.077L778.36 297.99L778.36 297.99L781.156 299.077ZM782.156 297.816L783.057 300.678L783.596 300.508L784.036 300.154L782.156 297.816ZM783.745 297.657L784.91 294.893L784.671 294.792L784.419 294.734L783.745 297.657ZM783.964 297.75L782.799 300.514L783.144 300.66L783.515 300.716L783.964 297.75ZM903.594 325.422L904.585 322.59L904.569 322.585L904.553 322.579L903.594 325.422ZM916.395 330.494L915.23 333.259L915.23 333.259L916.395 330.494ZM978.11 384.621L975.371 385.847L975.373 385.851L978.11 384.621ZM979.001 448.455L976.205 447.367L976.205 447.367L979.001 448.455ZM897.079 512.389L897.407 515.372L897.412 515.371L897.079 512.389ZM789.41 490.637L790.597 487.882L790.586 487.877L790.574 487.872L789.41 490.637ZM786.872 486.683L783.874 486.568L783.87 486.666L783.873 486.764L786.872 486.683ZM788.117 452.058L785.192 451.391L785.114 451.731L785.117 452.08L788.117 452.058ZM1066.21 603.279L1065.12 600.488L1063.89 600.968L1063.42 602.192L1066.21 603.279ZM1066.21 603.298L1067.27 606.103L1068.52 605.629L1069 604.385L1066.21 603.298ZM1093.09 592.701L1094.26 589.936L1093.13 589.462L1091.99 589.909L1093.09 592.701ZM1093.27 592.754L1092.02 590.025L1090.93 590.524L1090.48 591.642L1093.27 592.754ZM1095.48 590.571L1098.27 591.659L1098.27 591.659L1095.48 590.571ZM1095.2 587.278L1092.51 588.601L1092.54 588.663L1092.57 588.724L1095.2 587.278ZM1029.69 484.109L1032.11 482.336L1032.08 482.299L1032.05 482.263L1029.69 484.109ZM1027.59 477.514L1024.79 476.426L1024.79 476.426L1027.59 477.514ZM1033.6 473.55L1034.24 476.482L1034.28 476.472L1034.33 476.461L1033.6 473.55ZM1066.65 466.185L1067.27 469.119L1067.27 469.119L1066.65 466.185ZM1142.76 448.02L1143.32 445.074L1142.61 444.936L1141.91 445.142L1142.76 448.02ZM1142.95 448.018L1141.73 445.278L1140.6 445.782L1140.16 446.933L1142.95 448.018ZM1145.33 445.907L1148.13 446.994L1148.13 446.994L1145.33 445.907ZM1145.2 442.757L1142.4 441.671L1141.94 442.865L1142.48 444.025L1145.2 442.757ZM1145.21 442.721L1148.01 443.806L1148.47 442.609L1147.93 441.446L1145.21 442.721ZM1132.97 416.659L1130.25 417.927L1130.26 417.934L1132.97 416.659ZM1130.88 414.532L1132.05 411.767L1132.05 411.767L1130.88 414.532ZM1127.96 414.546L1126.89 411.74L1126.89 411.744L1126.88 411.747L1127.96 414.546ZM1042.96 438.654L1043.65 441.575L1043.65 441.575L1042.96 438.654ZM1015.99 445.288L1015.19 442.397L1015.16 442.405L1015.13 442.414L1015.99 445.288ZM994.401 463.283L997.197 464.371L997.197 464.371L994.401 463.283ZM998.715 493.21L1001.51 494.297L1002.03 492.961L1001.32 491.717L998.715 493.21ZM998.707 493.229L995.911 492.142L995.373 493.526L996.148 494.794L998.707 493.229ZM1014.08 517.274L1016.59 515.635L1016.59 515.635L1014.08 517.274ZM1061.28 600.953L1058.51 602.091L1058.53 602.141L1058.55 602.191L1061.28 600.953ZM1063.29 603.293L1062.13 606.057L1062.13 606.057L1063.29 603.293ZM821.57 228.549C822.261 228.427 824.189 227.908 825.039 225.723L819.447 223.548C819.562 223.252 819.791 222.993 820.055 222.828C820.276 222.689 820.463 222.651 820.529 222.64L821.57 228.549ZM823.816 226.757L823.845 226.682L818.253 224.507L818.224 224.582L823.816 226.757ZM818.861 224.352C819.313 223.191 820.295 222.826 820.606 222.739C820.906 222.656 821.114 222.669 821.004 222.669L821.037 228.669C821.2 228.668 821.687 228.667 822.217 228.519C822.759 228.368 823.923 227.89 824.453 226.527L818.861 224.352ZM819.447 223.548C819.414 223.634 819.41 223.643 819.41 223.642C819.414 223.634 819.442 223.571 819.498 223.482C819.627 223.278 819.876 222.984 820.277 222.776L823.037 228.104C824.521 227.334 824.976 225.887 825.039 225.723L819.447 223.548ZM825.449 223.965C825.41 224.066 825.305 224.267 825.08 224.461C824.851 224.658 824.609 224.752 824.436 224.787C824.281 224.818 824.223 224.796 824.306 224.809C824.386 224.822 824.551 224.861 824.808 224.965L827.054 219.401C825.975 218.966 824.624 218.627 823.245 218.906C821.638 219.232 820.434 220.308 819.857 221.79L825.449 223.965ZM825.199 225.221L825.579 223.54L819.727 222.216L819.347 223.897L825.199 225.221ZM820.688 262.368C823.686 262.496 823.686 262.496 823.686 262.495C823.686 262.495 823.686 262.495 823.686 262.494C823.686 262.493 823.686 262.492 823.686 262.489C823.686 262.485 823.686 262.479 823.687 262.47C823.687 262.453 823.688 262.427 823.69 262.394C823.693 262.327 823.697 262.227 823.703 262.096C823.714 261.835 823.73 261.453 823.751 260.965C823.792 259.989 823.852 258.592 823.924 256.909C824.067 253.542 824.259 249.03 824.453 244.446C824.84 235.299 825.237 225.814 825.272 224.647L819.274 224.471C819.241 225.586 818.847 235.005 818.458 244.192C818.264 248.775 818.072 253.287 817.929 256.653C817.857 258.336 817.798 259.733 817.756 260.709C817.735 261.197 817.719 261.58 817.708 261.84C817.702 261.971 817.698 262.071 817.695 262.138C817.694 262.171 817.693 262.197 817.692 262.214C817.692 262.223 817.691 262.229 817.691 262.233C817.691 262.235 817.691 262.237 817.691 262.238C817.691 262.239 817.691 262.239 817.691 262.239C817.691 262.24 817.691 262.24 820.688 262.368ZM824.381 263.65C824.136 263.547 824.012 263.459 823.956 263.413C823.906 263.372 823.886 263.343 823.87 263.316C823.829 263.244 823.712 262.986 823.686 262.26L817.69 262.476C817.734 263.679 817.941 265.049 818.676 266.32C819.45 267.658 820.627 268.579 822.051 269.179L824.381 263.65ZM938.6 286.408C901.848 290.734 859.588 278.833 824.404 263.66L822.028 269.169C857.551 284.488 900.984 296.877 939.301 292.367L938.6 286.408ZM1024.5 217.931C1010.83 253.073 977.582 281.623 938.585 286.41L939.316 292.365C980.71 287.285 1015.7 257.108 1030.09 220.107L1024.5 217.931ZM1024.21 150.777C1033.64 172.618 1032.86 196.438 1024.5 217.931L1030.09 220.107C1038.95 197.339 1039.85 171.87 1029.72 148.4L1024.21 150.777ZM959.735 93.7625C994.189 108.278 1014.61 128.786 1024.21 150.789L1029.71 148.389C1019.37 124.681 997.612 103.21 962.064 88.2332L959.735 93.7625ZM946.168 88.3918C950.88 90.0337 955.26 91.8775 959.735 93.7625L962.064 88.2332C957.612 86.3574 953.062 84.44 948.143 82.7259L946.168 88.3918ZM818.132 59.2304C857.61 65.0404 901.455 73.3898 946.201 88.4031L948.11 82.7147C902.891 67.543 858.658 59.1301 819.005 53.2943L818.132 59.2304ZM817.158 58.954C817.324 59.0236 817.629 59.1468 817.991 59.2134C818.148 59.2424 818.585 59.3151 819.127 59.2114C819.421 59.1551 819.847 59.0279 820.282 58.7254C820.503 58.5715 820.717 58.3779 820.908 58.1407C821.002 58.0232 821.087 57.899 821.162 57.7693C821.2 57.7047 821.235 57.6392 821.267 57.5732C821.283 57.5402 821.298 57.5072 821.313 57.4741C821.32 57.4575 821.327 57.441 821.334 57.4244C821.338 57.4162 821.343 57.4038 821.345 57.3996C821.35 57.3872 821.355 57.3748 818.568 56.2623C815.782 55.1499 815.787 55.1375 815.792 55.1251C815.794 55.1209 815.799 55.1085 815.803 55.1003C815.81 55.0837 815.817 55.0672 815.824 55.0506C815.839 55.0175 815.854 54.9845 815.87 54.9515C815.902 54.8855 815.937 54.8201 815.974 54.7555C816.05 54.6259 816.135 54.5018 816.229 54.3845C816.419 54.1477 816.633 53.9545 816.853 53.8011C817.286 53.4997 817.71 53.3737 817.999 53.3183C818.532 53.2164 818.951 53.2894 819.077 53.3125C819.375 53.3674 819.558 53.454 819.488 53.4247L817.158 58.954ZM818.408 58.7249C818.071 58.9704 817.773 59.0508 817.661 59.0764C817.537 59.1049 817.469 59.1037 817.484 59.1035C817.521 59.1029 817.629 59.1109 817.759 59.1358L818.887 53.2429C818.509 53.1703 817.967 53.0947 817.385 53.1043C816.935 53.1117 815.847 53.1671 814.875 53.8748L818.408 58.7249ZM818.4 58.6459C818.362 58.7451 818.318 58.7972 818.313 58.8028C818.31 58.8053 818.316 58.7989 818.332 58.7842C818.349 58.7696 818.373 58.7498 818.408 58.7249L814.875 53.8748C814.283 54.3065 813.332 55.1262 812.809 56.4707L818.4 58.6459ZM818.306 58.5746C818.318 58.6635 818.318 58.7442 818.313 58.8105C818.308 58.8748 818.299 58.9165 818.296 58.9282C818.294 58.9379 818.296 58.9248 818.314 58.8755C818.322 58.8514 818.333 58.8218 818.348 58.783C818.363 58.7428 818.379 58.701 818.4 58.6459L812.809 56.4707C812.674 56.8178 812.175 57.9597 812.357 59.3526L818.306 58.5746ZM818.069 60.2015L818.127 60.0512L812.536 57.876L812.477 58.0263L818.069 60.2015ZM815.703 95.4364L818.266 59.3262L812.281 58.9015L809.718 95.0116L815.703 95.4364ZM815.487 96.3606L815.506 96.3116L809.915 94.1364L809.895 94.1855L815.487 96.3606ZM815.822 96.4209C815.765 96.1845 815.727 96.0246 815.703 95.8598C815.679 95.7024 815.676 95.5882 815.682 95.5048L809.7 95.0413C809.603 96.3036 809.883 97.3895 809.99 97.8329L815.822 96.4209ZM815.828 96.4454L815.828 96.4452L809.985 97.8085L809.985 97.8087L815.828 96.4454ZM815.896 96.7379C815.871 96.6226 815.842 96.5028 815.822 96.421L809.99 97.8331C810.015 97.9336 810.026 97.9806 810.033 98.0142L815.896 96.7379ZM815.364 95.6581C815.369 95.6602 815.381 95.6655 815.397 95.6752C815.413 95.685 815.43 95.6969 815.447 95.7104C815.463 95.7238 815.474 95.7353 815.48 95.7423C815.486 95.7491 815.484 95.7479 815.476 95.7349L810.453 99.0173C811.133 100.057 812.03 100.764 813.035 101.187L815.364 95.6581ZM815.463 95.7006C815.441 95.6907 815.402 95.6742 815.364 95.6581L813.035 101.187C813.041 101.19 813.052 101.195 813.081 101.207L815.463 95.7006ZM815.46 95.6992L815.459 95.6988L813.085 101.209L813.086 101.21L815.46 95.6992ZM814.276 95.7906C814.66 95.6653 814.98 95.6622 815.159 95.6732C815.341 95.6843 815.466 95.7158 815.513 95.7285C815.585 95.7481 815.613 95.7654 815.464 95.7011L813.082 101.208C813.181 101.251 813.534 101.408 813.939 101.519C814.274 101.609 815.145 101.818 816.134 101.496L814.276 95.7906ZM815.47 98.667C812.679 97.5664 812.681 97.5599 812.684 97.5535C812.685 97.5513 812.687 97.5448 812.689 97.5405C812.693 97.5319 812.696 97.5232 812.7 97.5145C812.707 97.4972 812.714 97.4799 812.722 97.4625C812.737 97.4277 812.753 97.3928 812.77 97.358C812.804 97.2882 812.841 97.2185 812.882 97.1494C812.963 97.0106 813.057 96.8766 813.163 96.7495C813.377 96.4918 813.623 96.2851 813.878 96.1261C814.38 95.8143 814.858 95.7224 815.156 95.6952C815.696 95.6458 816.071 95.7706 816.072 95.771L814.338 101.515C814.584 101.589 815.091 101.726 815.702 101.67C816.036 101.64 816.534 101.54 817.047 101.221C817.308 101.059 817.557 100.849 817.774 100.588C817.881 100.46 817.975 100.325 818.057 100.186C818.098 100.116 818.135 100.046 818.169 99.9763C818.186 99.9413 818.202 99.9064 818.217 99.8716C818.225 99.8542 818.232 99.8368 818.239 99.8194C818.243 99.8108 818.246 99.8021 818.25 99.7935C818.252 99.7891 818.254 99.7826 818.255 99.7805C818.258 99.774 818.26 99.7675 815.47 98.667ZM928.538 116.691C889.241 104.406 848.951 99.0897 815.776 95.6827L815.163 101.651C848.239 105.048 888.042 110.318 926.748 122.418L928.538 116.691ZM942.191 121.727C937.98 119.953 933.588 118.099 928.45 116.665L926.837 122.444C931.558 123.762 935.621 125.47 939.862 127.257L942.191 121.727ZM942.199 121.731L942.192 121.728L939.861 127.256L939.868 127.259L942.199 121.731ZM988.865 204.491C994.331 190.439 994.623 174.684 987.412 159.887C980.212 145.109 965.7 131.632 942.198 121.73L939.869 127.26C962.409 136.756 975.613 149.369 982.019 162.515C988.415 175.641 988.204 189.64 983.273 202.316L988.865 204.491ZM927.537 250.151C956.328 247.046 979.75 227.921 988.865 204.491L983.273 202.316C974.974 223.649 953.466 241.32 926.894 244.186L927.537 250.151ZM841.444 232.676C873.337 246.113 903.536 253.152 927.588 250.145L926.843 244.192C904.339 247.005 875.305 240.431 843.774 227.147L841.444 232.676ZM824.622 224.883C830.13 227.554 835.721 230.265 841.444 232.676L843.774 227.147C838.221 224.807 832.772 222.166 827.239 219.484L824.622 224.883ZM1109.91 383.352C1109.94 383.335 1109.95 383.347 1109.88 383.345C1109.81 383.344 1109.69 383.321 1109.57 383.271L1107.24 388.8C1108.6 389.374 1110.73 389.737 1112.78 388.619L1109.91 383.352ZM1137.3 372.681L1110.26 383.189L1112.43 388.782L1139.48 378.274L1137.3 372.681ZM1135.61 374.356L1135.59 374.391L1141.19 376.564L1141.2 376.53L1135.61 374.356ZM1138.02 372.153C1138.02 372.16 1138.02 372.162 1138.01 372.162C1138.01 372.162 1138.01 372.162 1138.01 372.164C1138.01 372.164 1138 372.184 1137.96 372.223C1137.87 372.306 1137.65 372.486 1137.13 372.724L1139.67 378.161C1141.55 377.286 1142.93 376.09 1143.61 374.328L1138.02 372.153ZM1137.92 371.234C1138.11 371.584 1138.12 371.733 1138.12 371.759C1138.12 371.781 1138.13 371.88 1138.02 372.153L1143.61 374.328C1143.94 373.478 1144.17 372.517 1144.11 371.44C1144.05 370.367 1143.73 369.378 1143.24 368.449L1137.92 371.234ZM1072.64 268.455C1088.87 290.773 1118.85 332.689 1137.89 371.172L1143.27 368.511C1123.97 329.512 1093.71 287.215 1077.49 264.925L1072.64 268.455ZM1072.27 265.585L1072.27 265.604L1077.86 267.777L1077.87 267.759L1072.27 265.585ZM1070.13 259.095C1068.84 262.4 1070.52 265.774 1072.72 268.541L1077.42 264.802C1075.44 262.319 1075.68 261.355 1075.72 261.271L1070.13 259.095ZM1078.29 253.39C1074.78 254.115 1071.43 255.747 1070.13 259.095L1075.72 261.271C1075.9 260.801 1076.67 259.852 1079.51 259.265L1078.29 253.39ZM1112.7 245.687C1099.15 248.575 1087.02 251.16 1078.16 253.42L1079.64 259.234C1088.36 257.011 1100.35 254.454 1113.95 251.556L1112.7 245.687ZM1112.86 245.658L1112.86 245.658L1113.79 251.585L1113.79 251.585L1112.86 245.658ZM1112.7 245.687L1112.69 245.688L1113.95 251.555L1113.95 251.555L1112.7 245.687ZM1187.21 227.919C1163.97 234.755 1136.16 240.686 1112.7 245.687L1113.95 251.555C1137.35 246.566 1165.4 240.588 1188.9 233.675L1187.21 227.919ZM1185.29 229.62L1185.26 229.71L1190.85 231.884L1190.89 231.795L1185.29 229.62ZM1187.87 227.489C1187.87 227.499 1187.87 227.487 1187.89 227.469C1187.9 227.449 1187.9 227.45 1187.88 227.471C1187.83 227.519 1187.61 227.685 1187.04 227.897L1189.14 233.518C1191.28 232.72 1192.75 231.506 1193.47 229.665L1187.87 227.489ZM1187.71 226.196C1187.99 227.13 1187.92 227.364 1187.87 227.489L1193.47 229.665C1194.26 227.613 1193.84 225.748 1193.44 224.442L1187.71 226.196ZM1187.63 224.127C1187.18 225.274 1187.58 226.226 1187.73 226.531C1187.9 226.894 1188.11 227.135 1188.2 227.23C1188.39 227.439 1188.56 227.575 1188.61 227.614C1188.75 227.719 1188.87 227.795 1188.91 227.82C1188.97 227.857 1189.02 227.887 1189.05 227.905C1189.07 227.915 1189.09 227.924 1189.1 227.93C1189.1 227.933 1189.11 227.936 1189.11 227.939C1189.12 227.94 1189.12 227.941 1189.12 227.942C1189.12 227.942 1189.12 227.943 1189.12 227.943C1189.12 227.944 1189.12 227.944 1189.12 227.944C1189.12 227.944 1189.12 227.944 1189.12 227.944C1189.12 227.944 1189.12 227.944 1189.12 227.945C1189.12 227.945 1189.12 227.945 1190.58 225.319C1192.03 222.693 1192.03 222.693 1192.03 222.694C1192.03 222.694 1192.03 222.694 1192.03 222.694C1192.03 222.694 1192.03 222.694 1192.03 222.694C1192.03 222.694 1192.03 222.694 1192.03 222.694C1192.03 222.695 1192.03 222.695 1192.03 222.696C1192.03 222.696 1192.03 222.697 1192.03 222.697C1192.04 222.699 1192.04 222.699 1192.04 222.7C1192.04 222.702 1192.05 222.703 1192.05 222.705C1192.05 222.706 1192.06 222.713 1192.08 222.725C1192.08 222.726 1192.17 222.776 1192.27 222.859C1192.31 222.887 1192.48 223.014 1192.66 223.214C1192.74 223.305 1192.95 223.543 1193.12 223.903C1193.27 224.204 1193.66 225.153 1193.22 226.298L1187.63 224.127ZM1175.47 200.427L1187.71 226.488L1193.14 223.937L1180.9 197.877L1175.47 200.427ZM1174.94 199.771C1175.06 199.822 1175.17 199.895 1175.25 199.97C1175.32 200.038 1175.33 200.079 1175.34 200.089L1181.04 198.215C1180.33 196.067 1178.64 194.819 1177.27 194.242L1174.94 199.771ZM1174.6 199.69C1174.57 199.707 1174.56 199.695 1174.62 199.697C1174.7 199.698 1174.82 199.72 1174.94 199.771L1177.27 194.242C1175.9 193.668 1173.78 193.305 1171.73 194.422L1174.6 199.69ZM1088.08 224.19C1113.29 218.293 1146.06 210.635 1174.23 199.858L1172.09 194.254C1144.36 204.86 1112 212.433 1086.71 218.348L1088.08 224.19ZM1061.83 230.605C1068.81 228.697 1077.8 226.594 1088.08 224.19L1086.71 218.348C1076.47 220.742 1067.36 222.873 1060.25 224.817L1061.83 230.605ZM1042.2 246.901C1044.97 239.797 1051.73 233.754 1061.93 230.575L1060.15 224.847C1048.65 228.43 1040.19 235.526 1036.61 244.726L1042.2 246.901ZM1046.28 274.357C1040.22 263.771 1039.37 254.195 1042.2 246.901L1036.61 244.726C1032.94 254.162 1034.39 265.657 1041.07 277.337L1046.28 274.357ZM1046.63 277.021C1047.1 275.814 1046.65 274.816 1046.45 274.452C1046.23 274.062 1045.97 273.816 1045.87 273.724C1045.65 273.519 1045.44 273.393 1045.39 273.36C1045.24 273.267 1045.1 273.202 1045.06 273.182C1045 273.151 1044.94 273.126 1044.91 273.112C1044.89 273.104 1044.87 273.097 1044.86 273.091C1044.86 273.089 1044.85 273.086 1044.85 273.085C1044.84 273.084 1044.84 273.083 1044.84 273.082C1044.84 273.081 1044.84 273.081 1044.84 273.081C1044.84 273.08 1044.84 273.08 1044.84 273.08C1044.84 273.08 1044.84 273.08 1044.84 273.08C1044.84 273.08 1044.83 273.08 1044.83 273.08C1044.83 273.08 1044.83 273.08 1043.68 275.847C1042.52 278.615 1042.52 278.615 1042.52 278.615C1042.52 278.615 1042.52 278.615 1042.52 278.615C1042.52 278.614 1042.52 278.614 1042.52 278.614C1042.52 278.614 1042.52 278.614 1042.52 278.614C1042.52 278.614 1042.52 278.613 1042.51 278.613C1042.51 278.612 1042.51 278.612 1042.51 278.611C1042.51 278.611 1042.51 278.61 1042.51 278.609C1042.5 278.608 1042.5 278.606 1042.5 278.605C1042.49 278.604 1042.48 278.598 1042.46 278.587C1042.46 278.587 1042.36 278.543 1042.24 278.468C1042.2 278.443 1042.01 278.326 1041.8 278.129C1041.7 278.04 1041.45 277.798 1041.23 277.411C1041.02 277.05 1040.57 276.054 1041.04 274.85L1046.63 277.021ZM1062.12 299.016C1056.4 290.231 1051.03 282 1046.4 274.377L1041.27 277.493C1045.97 285.212 1051.38 293.526 1057.09 302.291L1062.12 299.016ZM1062.18 299.104L1062.18 299.104L1057.04 302.203L1057.04 302.203L1062.18 299.104ZM1109.19 382.521C1096.71 352.099 1078.05 323.467 1062.12 299.016L1057.09 302.291C1073.07 326.821 1091.41 354.986 1103.64 384.797L1109.19 382.521ZM1109.57 383.271C1109.64 383.299 1109.66 383.319 1109.64 383.301C1109.62 383.286 1109.57 383.249 1109.52 383.187C1109.41 383.057 1109.32 382.887 1109.26 382.722L1103.56 384.596C1104.13 386.312 1105.44 388.039 1107.24 388.8L1109.57 383.271ZM786.876 449.933L786.875 449.933L787.68 455.879L787.681 455.879L786.876 449.933ZM785.846 450.462C786.172 450.161 786.491 450.037 786.635 449.989C786.772 449.944 786.878 449.931 786.784 449.947L787.773 455.865C787.812 455.858 788.977 455.736 789.914 454.872L785.846 450.462ZM790.627 453.88L790.676 453.755L785.084 451.579L785.035 451.705L790.627 453.88ZM788.824 455.613C788.86 455.597 788.817 455.617 788.761 455.639C788.696 455.663 788.621 455.688 788.54 455.707L787.122 449.877C786.729 449.973 786.444 450.105 786.352 450.146L788.824 455.613ZM786.692 455.874C787.099 455.954 787.565 455.974 788.066 455.868C788.292 455.82 788.476 455.757 788.603 455.707C788.715 455.664 788.814 455.618 788.824 455.613L786.352 450.146C786.251 450.192 786.502 450.066 786.824 449.998C787.226 449.913 787.583 449.935 787.844 449.986L786.692 455.874ZM784.481 451.818L784.472 451.842L790.064 454.018L790.073 453.994L784.481 451.818ZM785.303 451.017L785.084 451.579L790.676 453.755L790.895 453.192L785.303 451.017ZM789.914 454.872C790.709 454.139 791.092 453.143 791.099 452.124L785.099 452.085C785.1 451.885 785.136 451.6 785.27 451.282C785.406 450.957 785.61 450.679 785.846 450.462L789.914 454.872ZM792.965 447.026C791.872 446.566 790.536 446.26 789.185 446.511C787.682 446.789 786.318 447.752 785.682 449.387L791.274 451.562C791.204 451.741 791.063 451.962 790.831 452.145C790.608 452.322 790.397 452.388 790.279 452.41C790.17 452.43 790.144 452.414 790.223 452.426C790.299 452.438 790.438 452.472 790.635 452.555L792.965 447.026ZM808.505 454.214C803.337 452.037 798.262 449.584 793.106 447.09L790.494 452.491C795.627 454.974 800.84 457.496 806.175 459.743L808.505 454.214ZM885.694 470.358C864.85 472.784 837.869 466.586 808.505 454.214L806.175 459.743C835.891 472.263 864.018 478.921 886.388 476.317L885.694 470.358ZM937.376 432.611C929.859 451.935 910.105 467.864 885.736 470.353L886.346 476.322C912.898 473.61 934.613 456.264 942.968 434.786L937.376 432.611ZM896.842 364.16C917.708 372.951 929.967 384.524 935.955 396.508C941.93 408.465 941.832 421.158 937.376 432.611L942.968 434.786C947.975 421.915 948.128 407.445 941.322 393.826C934.53 380.233 920.975 367.817 899.172 358.63L896.842 364.16ZM896.838 364.158L896.845 364.161L899.169 358.629L899.163 358.627L896.838 364.158ZM884.725 359.67C889.108 360.905 892.885 362.492 896.836 364.157L899.165 358.628C895.244 356.975 891.144 355.245 886.351 353.895L884.725 359.67ZM780.884 339.876C811.852 343.319 848.633 348.29 884.636 359.643L886.44 353.921C849.851 342.383 812.585 337.364 781.547 333.913L780.884 339.876ZM783.984 338.051L784.011 337.982L778.42 335.807L778.393 335.875L783.984 338.051ZM778.861 339.451C779.086 339.546 780.016 339.961 781.184 339.963L781.193 333.963C781.245 333.963 781.283 333.968 781.303 333.971C781.323 333.974 781.332 333.977 781.328 333.976C781.324 333.975 781.313 333.972 781.292 333.963C781.281 333.959 781.269 333.955 781.253 333.948C781.235 333.941 781.218 333.934 781.19 333.922L778.861 339.451ZM778.899 339.467L778.9 339.467L781.151 333.906L781.15 333.905L778.899 339.467ZM776.337 337.252C776.951 338.246 777.804 339.006 778.86 339.451L781.19 333.922C781.262 333.952 781.331 333.995 781.387 334.044C781.441 334.092 781.455 334.12 781.44 334.097L776.337 337.252ZM775.67 333.387C775.597 334.202 775.464 335.735 776.288 337.169L781.49 334.18C781.546 334.278 781.581 334.37 781.601 334.44C781.62 334.506 781.621 334.539 781.62 334.523C781.618 334.504 781.615 334.45 781.618 334.344C781.621 334.237 781.63 334.102 781.646 333.92L775.67 333.387ZM775.88 332.52L775.862 332.566L781.454 334.741L781.472 334.695L775.88 332.52ZM777.846 300.35L775.683 333.412L781.67 333.803L783.833 300.742L777.846 300.35ZM778.824 302.741C778.895 302.8 778.763 302.695 778.631 302.556C778.57 302.491 778.362 302.267 778.179 301.919C778.024 301.623 777.582 300.647 778.044 299.459L783.636 301.634C784.102 300.435 783.657 299.445 783.494 299.133C783.303 298.77 783.081 298.529 783.003 298.447C782.902 298.339 782.813 298.259 782.772 298.223C782.728 298.184 782.687 298.15 782.681 298.145L778.824 302.741ZM777.869 299.251C777.403 300.451 777.848 301.44 778.011 301.752C778.202 302.116 778.424 302.356 778.501 302.439C778.603 302.547 778.692 302.627 778.733 302.663C778.777 302.702 778.818 302.736 778.824 302.741L782.681 298.145C782.61 298.085 782.742 298.19 782.873 298.33C782.934 298.395 783.143 298.618 783.325 298.967C783.481 299.263 783.923 300.239 783.461 301.427L777.869 299.251ZM778.36 297.99L777.869 299.252L783.461 301.427L783.952 300.165L778.36 297.99ZM781.255 294.955C779.091 295.637 778.476 297.693 778.36 297.99L783.952 300.165C784.013 300.007 784.039 299.943 784.06 299.895C784.079 299.855 784.062 299.901 784.005 299.984C783.944 300.075 783.83 300.219 783.648 300.362C783.461 300.511 783.255 300.616 783.057 300.678L781.255 294.955ZM784.419 294.734C783.509 294.524 781.775 294.273 780.277 295.478L784.036 300.154C783.679 300.442 783.305 300.534 783.085 300.553C782.914 300.568 782.878 300.536 783.07 300.581L784.419 294.734ZM785.129 294.985L784.91 294.893L782.58 300.422L782.799 300.514L785.129 294.985ZM904.553 322.579C862.444 308.383 821.301 300.365 784.413 294.783L783.515 300.716C820.226 306.271 860.989 314.225 902.636 328.265L904.553 322.579ZM917.559 327.729C913.413 325.982 909.17 324.194 904.585 322.59L902.604 328.254C906.985 329.787 911.062 331.503 915.23 333.259L917.559 327.729ZM980.848 383.395C971.067 361.551 950.697 341.691 917.559 327.729L915.23 333.259C947.299 346.77 966.345 365.687 975.371 385.847L980.848 383.395ZM981.796 449.543C989.933 428.626 990.636 405.168 980.846 383.391L975.373 385.851C984.425 405.985 983.832 427.759 976.205 447.367L981.796 449.543ZM897.412 515.371C936.146 511.049 968.578 483.522 981.796 449.543L976.205 447.367C963.732 479.431 933.091 505.352 896.746 509.408L897.412 515.371ZM788.222 493.391C821.322 507.659 861.784 519.282 897.407 515.372L896.752 509.407C862.673 513.149 823.365 502.006 790.597 487.882L788.222 493.391ZM783.873 486.764C783.907 488.054 784.19 489.411 784.947 490.643C785.722 491.905 786.864 492.819 788.245 493.401L790.574 487.872C790.205 487.716 790.102 487.572 790.059 487.502C789.996 487.4 789.885 487.15 789.87 486.603L783.873 486.764ZM785.117 452.08C785.123 452.956 784.817 461.498 784.501 469.983C784.345 474.189 784.188 478.336 784.07 481.43C784.011 482.978 783.962 484.262 783.928 485.16C783.911 485.609 783.897 485.961 783.888 486.201C783.883 486.321 783.88 486.412 783.877 486.474C783.876 486.505 783.875 486.529 783.875 486.544C783.874 486.552 783.874 486.558 783.874 486.562C783.874 486.564 783.874 486.566 783.874 486.567C783.874 486.567 783.874 486.567 783.874 486.568C783.874 486.568 783.874 486.568 786.872 486.683C789.869 486.799 789.869 486.799 789.869 486.799C789.869 486.798 789.869 486.798 789.869 486.797C789.869 486.796 789.869 486.795 789.87 486.793C789.87 486.789 789.87 486.783 789.87 486.775C789.871 486.759 789.872 486.736 789.873 486.705C789.875 486.643 789.879 486.551 789.883 486.431C789.893 486.191 789.906 485.839 789.923 485.39C789.958 484.492 790.007 483.207 790.066 481.659C790.184 478.563 790.341 474.415 790.497 470.206C790.808 461.861 791.124 453.09 791.117 452.037L785.117 452.08ZM785.553 449.807L785.192 451.391L791.042 452.725L791.403 451.142L785.553 449.807ZM1063.42 602.192L1063.41 602.211L1069 604.385L1069.01 604.366L1063.42 602.192ZM1091.99 589.909L1065.12 600.488L1067.31 606.071L1094.19 595.492L1091.99 589.909ZM1093.27 592.754C1090.48 591.642 1090.48 591.629 1090.49 591.616C1090.49 591.611 1090.5 591.598 1090.5 591.589C1090.51 591.572 1090.52 591.554 1090.52 591.536C1090.54 591.501 1090.56 591.466 1090.57 591.431C1090.61 591.361 1090.65 591.291 1090.69 591.223C1090.77 591.086 1090.86 590.956 1090.96 590.834C1091.17 590.588 1091.39 590.393 1091.63 590.242C1092.07 589.949 1092.51 589.839 1092.78 589.794C1093.3 589.71 1093.71 589.787 1093.82 589.81C1093.99 589.844 1094.11 589.884 1094.16 589.901C1094.22 589.921 1094.25 589.935 1094.26 589.936L1091.93 595.465C1092.06 595.519 1092.33 595.631 1092.66 595.697C1092.8 595.725 1093.22 595.801 1093.74 595.717C1094.02 595.672 1094.46 595.56 1094.91 595.266C1095.14 595.116 1095.37 594.92 1095.57 594.674C1095.67 594.552 1095.76 594.422 1095.85 594.285C1095.89 594.216 1095.92 594.147 1095.96 594.077C1095.98 594.042 1095.99 594.007 1096.01 593.971C1096.02 593.954 1096.02 593.936 1096.03 593.918C1096.03 593.91 1096.04 593.896 1096.04 593.892C1096.05 593.879 1096.05 593.866 1093.27 592.754ZM1092.68 589.484C1092.64 589.586 1092.62 589.634 1092.61 589.655C1092.6 589.671 1092.59 589.677 1092.58 589.685C1092.58 589.694 1092.46 589.826 1092.02 590.025L1094.51 595.483C1095.5 595.034 1096.33 594.476 1096.99 593.757C1097.67 593.026 1098.03 592.275 1098.27 591.659L1092.68 589.484ZM1092.57 588.724C1092.67 588.897 1092.71 589.015 1092.74 589.086C1092.76 589.153 1092.76 589.184 1092.76 589.189C1092.76 589.193 1092.76 589.206 1092.76 589.241C1092.75 589.28 1092.73 589.356 1092.68 589.484L1098.27 591.659C1098.6 590.813 1098.82 589.853 1098.75 588.776C1098.67 587.708 1098.33 586.734 1097.83 585.832L1092.57 588.724ZM1027.27 485.883C1043.67 508.262 1073.63 550.195 1092.51 588.601L1097.89 585.955C1078.76 547.02 1048.5 504.705 1032.11 482.336L1027.27 485.883ZM1024.79 476.426C1023.5 479.735 1025.12 483.131 1027.32 485.956L1032.05 482.263C1030.1 479.766 1030.32 478.752 1030.38 478.601L1024.79 476.426ZM1032.97 470.619C1029.43 471.387 1026.1 473.069 1024.79 476.426L1030.38 478.601C1030.59 478.069 1031.4 477.097 1034.24 476.482L1032.97 470.619ZM1066.02 463.251C1053.07 466.015 1041.47 468.488 1032.87 470.64L1034.33 476.461C1042.8 474.34 1054.28 471.892 1067.27 469.119L1066.02 463.251ZM1141.91 445.142C1118.18 452.121 1089.76 458.186 1066.02 463.251L1067.27 469.119C1090.96 464.065 1119.62 457.954 1143.61 450.898L1141.91 445.142ZM1140.16 446.933C1140.16 446.933 1140.16 446.933 1140.16 446.933C1140.16 446.933 1140.16 446.933 1140.16 446.933C1140.16 446.932 1140.16 446.932 1140.16 446.931C1140.16 446.93 1140.16 446.929 1140.16 446.927C1140.16 446.922 1140.16 446.916 1140.17 446.907C1140.17 446.891 1140.18 446.864 1140.2 446.831C1140.23 446.766 1140.27 446.663 1140.34 446.543C1140.49 446.283 1140.71 445.982 1141.04 445.711C1141.69 445.181 1142.36 445.079 1142.63 445.053C1142.92 445.025 1143.13 445.048 1143.19 445.055C1143.24 445.06 1143.27 445.065 1143.29 445.068C1143.31 445.071 1143.32 445.073 1143.32 445.074L1142.19 450.966C1142.26 450.979 1142.7 451.074 1143.21 451.025C1143.51 450.996 1144.19 450.888 1144.85 450.351C1145.18 450.076 1145.41 449.771 1145.56 449.507C1145.63 449.385 1145.68 449.28 1145.71 449.212C1145.72 449.178 1145.73 449.15 1145.74 449.133C1145.74 449.124 1145.75 449.117 1145.75 449.112C1145.75 449.108 1145.75 449.104 1145.75 449.104L1140.16 446.933ZM1142.54 444.819C1142.55 444.78 1142.57 444.771 1142.52 444.818C1142.45 444.888 1142.23 445.056 1141.73 445.278L1144.18 450.758C1146.04 449.926 1147.44 448.751 1148.13 446.994L1142.54 444.819ZM1142.48 444.025C1142.61 444.303 1142.62 444.433 1142.62 444.473C1142.62 444.508 1142.62 444.603 1142.54 444.819L1148.13 446.994C1148.84 445.164 1148.78 443.352 1147.91 441.488L1142.48 444.025ZM1142.41 441.635L1142.4 441.671L1147.99 443.842L1148.01 443.806L1142.41 441.635ZM1130.26 417.934L1142.49 443.996L1147.93 441.446L1135.69 415.384L1130.26 417.934ZM1129.72 417.297C1129.69 417.285 1129.78 417.322 1129.91 417.45C1130.04 417.567 1130.16 417.727 1130.25 417.927L1135.69 415.39C1134.83 413.553 1133.37 412.327 1132.05 411.767L1129.72 417.297ZM1129.02 417.351C1129.19 417.287 1129.36 417.265 1129.5 417.269C1129.67 417.274 1129.75 417.309 1129.72 417.297L1132.05 411.767C1130.72 411.208 1128.8 411.016 1126.89 411.74L1129.02 417.351ZM1043.65 441.575C1068.74 435.69 1101.23 428.075 1129.04 417.344L1126.88 411.747C1099.52 422.302 1067.45 429.829 1042.28 435.734L1043.65 441.575ZM1016.8 448.179C1023.88 446.213 1033.09 444.052 1043.65 441.575L1042.28 435.734C1031.76 438.2 1022.41 440.392 1015.19 442.397L1016.8 448.179ZM997.197 464.371C999.953 457.285 1006.54 451.246 1016.85 448.162L1015.13 442.414C1003.43 445.915 995.163 453.049 991.605 462.195L997.197 464.371ZM1001.32 491.717C995.25 481.143 994.376 471.623 997.197 464.371L991.605 462.195C987.945 471.603 989.425 483.047 996.112 494.703L1001.32 491.717ZM1001.5 494.315L1001.51 494.297L995.918 492.123L995.911 492.142L1001.5 494.315ZM1016.59 515.635C1011.04 507.111 1005.82 499.105 1001.27 491.664L996.148 494.794C1000.75 502.324 1006.02 510.406 1011.57 518.912L1016.59 515.635ZM1064.06 599.814C1051.46 569.1 1032.65 540.259 1016.59 515.635L1011.57 518.912C1027.67 543.614 1046.16 571.988 1058.51 602.091L1064.06 599.814ZM1064.46 600.528C1064.6 600.59 1064.66 600.642 1064.64 600.624C1064.62 600.611 1064.57 600.567 1064.49 600.48C1064.34 600.303 1064.16 600.036 1064.01 599.714L1058.55 602.191C1058.93 603.024 1059.42 603.787 1059.97 604.42C1060.49 605.014 1061.21 605.673 1062.13 606.057L1064.46 600.528ZM1065.14 600.493C1064.99 600.551 1064.83 600.571 1064.69 600.566C1064.54 600.559 1064.45 600.525 1064.46 600.528L1062.13 606.057C1063.42 606.601 1065.32 606.841 1067.27 606.103L1065.14 600.493Z" fill="white" mask="url(#path-7-outside-1_685_2)"/>
</svg>
