<svg xmlns="http://www.w3.org/2000/svg" xml:space="preserve" style="fill-rule:evenodd;clip-rule:evenodd;stroke-linejoin:round;stroke-miterlimit:2" viewBox="0 0 1720 1160"><path d="M899.86 254.79a4.55 4.55 0 0 1 3.38-2.88 6.7 6.7 0 0 1 3.81.5l.1.03.09.04a346.93 346.93 0 0 0 16.53 7.67c31.53 13.28 60.57 19.86 83.07 17.04h.05c26.58-2.87 48.08-20.54 56.38-41.87 4.93-12.68 5.14-26.68-1.25-39.8-6.41-13.15-19.61-25.76-42.15-35.26h-.01c-4.24-1.79-8.3-3.5-13.02-4.81l-.05-.02-.04-.01c-38.7-12.1-77.59-16.94-111.62-20.77a6.12 6.12 0 0 1-5.42-6.7l.04-.34 2.53-35.76.01-.05c.12-1.14.41-2.88 1.7-4.16 1.48-1.47 3.41-1.58 5.01-1.34 42.53 6.25 83.9 14.24 129.11 29.42h.03c4.92 1.72 9.46 3.64 13.91 5.5l.01.01c35.55 14.98 57.31 36.45 67.65 60.16l.01.01c10.13 23.47 9.23 48.94.37 71.7-14.39 37-49.38 67.19-90.77 72.27h-.02c-38.31 4.5-81.74-7.88-117.26-23.2a6.81 6.81 0 0 1-3.36-2.85 8.16 8.16 0 0 1-.99-3.84v-.24l.2-4.85c.43-10.13.77-18.09 1.77-34.7l.03-.46.17-.44Zm119.09 67.6c40.2-4.94 74.31-34.3 88.35-70.37 8.61-22.13 9.44-46.78-.34-69.43-9.97-22.86-31.06-43.85-66.06-58.6a229.9 229.9 0 0 0-13.74-5.43c-44.99-15.1-86.16-23.06-128.6-29.3-2.39-.35-3.06.74-3.29 2.85l-2.56 36.11-.02.05a3.12 3.12 0 0 0 2.78 3.4c34.03 3.83 73.17 8.7 112.17 20.89 4.93 1.37 9.16 3.15 13.39 4.93 46.05 19.4 55.44 52.19 45.04 78.91-8.71 22.39-31.17 40.78-58.85 43.77-23.28 2.9-52.9-3.9-84.61-17.26a348.08 348.08 0 0 1-16.68-7.73c-1.65-.66-2.83-.46-3.28.7-1 16.57-1.33 24.51-1.76 34.63l-.2 4.86c.07 1.93.65 3.25 2.53 4.05 35.35 15.24 78.2 27.39 115.73 22.97Zm175-37.83h-.01c-13.59 2.9-25.58 5.45-34.3 7.68l-.07.01-.06.02c-2.84.58-3.61 1.53-3.79 2-.03.09-.28 1.05 1.7 3.53l1.07 1.35-.04.1c16.43 22.6 45.88 64 64.81 102.23.47.92.79 1.9.85 2.96a6.84 6.84 0 0 1-.5 2.89 6.57 6.57 0 0 1-2.81 3.23l-.09.24-28.13 10.92a6.43 6.43 0 0 1-5.34.08 6.96 6.96 0 0 1-3.64-4.09c-12.22-29.78-30.54-57.91-46.51-82.42l-.02-.03c-5.5-8.45-10.73-16.48-15.3-23.96l-.19-.08-.51-.88c-6.68-11.68-8.13-23.18-4.46-32.61 3.58-9.2 12.04-16.3 23.54-19.88l.05-.02.05-.01c7.1-1.94 16.19-4.07 26.41-6.46l.05-.01c25.24-5.9 57.53-13.46 85.23-24.04a6.43 6.43 0 0 1 5.33-.07 6.7 6.7 0 0 1 3.7 3.77l12.18 25.95.01.03a7.15 7.15 0 0 1 .31 5.68 6.56 6.56 0 0 1-2.15 2.75 7.52 7.52 0 0 1-2.44 1.26c-26.58 7.57-50.45 12.66-73.41 17.55l-1.52.33Zm-38.89 15.13.01-.02c-2.09-2.62-2.81-4.8-2.15-6.49.74-1.9 2.81-3.2 5.98-3.85 8.79-2.24 20.85-4.82 34.42-7.7l1.5-.33c22.97-4.9 46.76-9.96 73.24-17.5.81-.23 2.16-1.06 2.61-2.22.39-1.01.33-2.08-.25-3.37l-12.23-26.06a3.65 3.65 0 0 0-2.09-2.14 3.4 3.4 0 0 0-2.94.05c-27.95 10.69-60.52 18.3-85.77 24.2a826.12 826.12 0 0 0-26.35 6.45c-10.85 3.38-18.46 9.95-21.63 18.1-3.26 8.37-2.1 18.9 4.27 30.04l.16.08a952.68 952.68 0 0 0 15.77 24.72c15.95 24.5 34.45 52.9 46.8 83a3.98 3.98 0 0 0 2 2.39c.83.35 1.95.48 2.93-.05l27.05-10.51.01-.04c1.43-.66 2.1-1.38 2.41-2.2a3.72 3.72 0 0 0-.23-3.4c-19.17-38.74-49.29-80.85-65.52-103.15ZM873.11 480.1c5.15 2.5 10.23 4.95 15.4 7.12 29.36 12.38 56.34 18.57 77.18 16.15h.05c24.37-2.5 44.12-18.43 51.64-37.75 4.45-11.45 4.55-24.15-1.42-36.1-5.99-11.99-18.25-23.56-39.11-32.35h-.01a100.68 100.68 0 0 0-12.12-4.49l-.04-.01-.04-.02c-36.02-11.35-72.53-16.66-103.72-19.76a6.02 6.02 0 0 1-5.24-6.5l2.16-32.94a6.2 6.2 0 0 1 1.39-3.98c1.31-1.51 3.23-1.98 5.19-1.67 37.62 5.76 78.02 13.6 120.13 27.79h.02l.01.01c4.58 1.6 8.82 3.39 12.97 5.13v.01c33.15 13.96 53.52 33.82 63.3 55.66 9.79 21.78 9.08 45.24.95 66.15-13.22 33.98-45.65 61.5-84.39 65.83-35.62 3.91-76.08-7.7-109.18-21.97a6.94 6.94 0 0 1-4.36-6.64v-.2c.12-2.92.21-5.78.3-8.66.3-8.5.58-17.1 1.32-27.63l.03-.46.16-.42c.64-1.64 2-2.6 3.5-2.88a6.7 6.7 0 0 1 3.79.52l.07.03.07.03Zm103.97 65.3c37.54-4.19 69.08-30.91 81.92-63.94 7.88-20.26 8.53-42.87-.89-63.83-9.4-21-29.11-40.39-61.71-54.13-4.16-1.75-8.32-3.5-12.8-5.07-41.88-14.12-82.1-21.92-119.64-27.67-2.42-.37-3.12 1.25-3.12 2.8l-2.16 33.06a3.03 3.03 0 0 0 2.54 3.28c31.28 3.11 68.02 8.45 104.32 19.9 4.59 1.28 8.52 2.94 12.46 4.6 42.68 17.98 51.63 47.98 42.17 72.3-7.93 20.4-28.67 37.05-54.13 39.65-21.6 2.51-49.16-3.92-78.7-16.36-5.25-2.21-10.4-4.7-15.54-7.19-1.53-.64-2.88-.46-3.32.69a705.83 705.83 0 0 0-1.3 27.48l-.3 8.72c.04 1.84.78 3.22 2.53 3.96 32.93 14.2 72.82 25.58 107.67 21.75Zm201.19 79.27c-.24.62-.6 1.37-1.28 2.1a7.55 7.55 0 0 1-2.43 1.7 3.01 3.01 0 0 1-1 .28l-25.02 9.85-.02.04-1.25.47c-1.95.74-3.85.5-5.14-.04a6.07 6.07 0 0 1-2.16-1.64 9.36 9.36 0 0 1-1.42-2.23l-.02-.05-.02-.05c-12.35-30.1-30.84-58.48-46.94-83.18l-.02-.02c-5.54-8.5-10.8-16.57-15.4-24.1l-.78-1.26.04-.1c-6.09-11.2-7.33-22.17-3.8-31.23 3.55-9.15 11.82-16.28 23.52-19.79h.03l.03-.01c7.21-2 16.54-4.2 27.03-6.65l.06-.02c25.17-5.9 57.24-13.43 84.6-23.98h.01a7.09 7.09 0 0 1 5.16.02 7.33 7.33 0 0 1 3.64 3.61v.01l12.78 27.22-.07.2a6.6 6.6 0 0 1-.27 4.18c-.66 1.69-1.97 2.84-3.73 3.66-.5.28-.96.35-1.19.38h-.05c-23.88 7-52.29 13.06-75.83 18.08l-.06.01c-12.99 2.77-24.47 5.22-32.94 7.34l-.05.01-.04.01c-2.84.62-3.65 1.59-3.86 2.12-.06.15-.28 1.17 1.67 3.66l.03.04.03.04c16.38 22.35 46.62 64.64 65.76 103.56.47.88.81 1.83.88 2.88a6.65 6.65 0 0 1-.48 2.88Zm-2.79-1.09a3.53 3.53 0 0 0-.28-3.3c-19-38.66-49.12-80.79-65.51-103.16-2.08-2.66-2.78-4.87-2.1-6.6.75-1.94 2.82-3.27 6.01-3.96 8.54-2.14 20.07-4.6 33.05-7.36 23.72-5.06 52.25-11.15 76.11-18.17.18.04.19.02.19 0 1.42-.63 2.08-1.33 2.38-2.11.41-1.06.4-2.02-.13-3.15l.01-.04-12.24-26.06a4.3 4.3 0 0 0-2.09-2.13 4.07 4.07 0 0 0-2.92.02c-27.58 10.64-59.86 18.21-85 24.1-10.53 2.48-19.81 4.65-26.97 6.64-11.01 3.29-18.43 9.88-21.59 18-3.24 8.32-2.06 18.8 4.31 29.92v.02a1000.7 1000.7 0 0 0 15.37 24.04c16.08 24.67 34.73 53.27 47.2 83.68.53 1.16 1.34 2.06 2.01 2.34.67.29 1.78.44 2.92 0v-.01l26.88-10.58c.17.07.18.05.18.05 1.42-.64 1.9-1.38 2.21-2.18Zm254.36-269.17c-.03.94-.32 1.7-.41 1.92l-.01.02a5.47 5.47 0 0 1-2.05 2.65c-1.05.69-2.23.9-3.32.9h-.06l-9.77-.32c-.51.08-1.45.15-2.5-.3-2.64-1.1-3.39-3.73-3.19-5.81.14-2.49.18-5.2.15-8.05l-4.34 11.16 23.64 9.96a5.8 5.8 0 0 1 3.23 3.15c.62 1.57.4 3.15-.1 4.45l-7.01 18.02a5.72 5.72 0 0 1-2.91 3.27c-1.52.69-3.1.49-4.42-.07l-23.62-9.95-15.67 41.46a216.23 216.23 0 0 1 21.91 36.62l.02.05.03.06a5.88 5.88 0 0 1 .1 4.7 5.6 5.6 0 0 1-2.39 2.86l-17.47 11.73a5.13 5.13 0 0 1-6.88-.64 5.9 5.9 0 0 1-1.23-2.25 135.14 135.14 0 0 0-9.24-20.94c-6.75 8.02-15.03 12.6-24.92 13.42h-.03a52.8 52.8 0 0 1-23.91-3.88c-10.03-4.23-18.74-11.81-23.4-22.46v-.02l-.01-.01a38.76 38.76 0 0 1-.44-29.09c3.9-10.03 11.91-18.42 22.98-21.8 10.29-3.38 20.51-2.05 29.86 1.9a63.4 63.4 0 0 1 11.35 6.27l11.18-29.83-45.78-19.09h-.01a5.74 5.74 0 0 1-3.23-3.15 5.97 5.97 0 0 1 .1-4.45l7.08-18.21a5.74 5.74 0 0 1 2.9-3.27 5.48 5.48 0 0 1 4.43.08l45.36 19.1 9.5-25.58v-.02a5.73 5.73 0 0 1 2.91-3.27 5.45 5.45 0 0 1 4.42.08l13.73 5.78c.03-.5.13-1.05.33-1.58.9-2.3 3.22-3.14 5.17-3.04h.02l8.82.5h.2l.38-.01c.29 0 .95 0 1.66.3a5.74 5.74 0 0 1 3.48 4.4c2.66 10.36 4.18 22.06 3.38 32.28Zm-5.87 2.46c1.52 0 2.25-.57 2.68-1.68.07-.19.22-.56.22-1 .78-9.82-.68-21.25-3.3-31.44-.22-1.17-.8-1.85-1.68-2.22a1.81 1.81 0 0 0-.77-.06h-.38l-8.92-.5c-1.16-.06-2.03.44-2.32 1.18-.19.5-.16 1.08-.1 1.68l.03.23v.02c.22 1.17.44 2.33.73 3.32l-18.57-7.82c-1.6-.68-2.83-.12-3.48 1.56l-10.55 28.42-48.17-20.3c-1.59-.67-2.83-.1-3.48 1.56l-7.08 18.21c-.65 1.67-.14 2.97 1.46 3.64l48.53 20.23-13.59 36.23a60.42 60.42 0 0 0-13.86-8.22c-8.85-3.73-18.35-4.92-27.84-1.79-10.15 3.08-17.53 10.78-21.14 20.07a35.59 35.59 0 0 0 .39 26.76c4.29 9.8 12.35 16.88 21.78 20.85 7.11 3 15.08 4.2 22.55 3.66 9.34-.77 17.19-5.2 23.64-13.24.66-.82 1.31-1.68 1.94-2.58.55.96 1.1 1.92 1.63 2.9a139.5 139.5 0 0 1 10.07 22.58c.29.98.8 1.41 1.38 1.66.58.24 1.45.18 2.18-.38l17.6-11.83a2.73 2.73 0 0 0 1.23-1.43c.29-.74.36-1.36-.08-2.4a212.08 212.08 0 0 0-22.59-37.42l17.34-45.88 26.4 11.12c1.6.67 2.83.11 3.48-1.56l7.01-18.02c.65-1.67.14-2.97-1.45-3.64l-26.41-11.12 10.41-26.76c.22 2.3.39 4.62.52 6.94.3 5.43.34 10.78.09 15.37-.15 1.24.29 2.29 1.31 2.72.43.18.79.12 1.16.06l10 .32Zm-111.04 79.27c-1.17-2.65-1.1-5.87.06-8.84 1.15-2.97 3.4-5.7 6.66-7.14 3.99-1.56 8.33-1.46 13.12.56 4.5 1.9 9.29 5.64 13.86 10.81-3.18 6.88-7.45 12.21-13.83 13.85a18 18 0 0 1-11.31-.88 16 16 0 0 1-8.56-8.36Zm7.89-13.17a9.87 9.87 0 0 0-5.07 5.5 8.63 8.63 0 0 0-.12 6.48l.02.04a12.9 12.9 0 0 0 6.93 6.72 15.12 15.12 0 0 0 9.47.73c4.61-1.2 8.12-4.87 11-10.43-3.92-4.14-7.84-7.01-11.37-8.5-4.14-1.74-7.68-1.77-10.86-.54Zm-49.99 16.21-.2 1.1-.18.45a4.63 4.63 0 0 1-3.01 2.83 5.7 5.7 0 0 1-3.76-.27l-19.75-6.59-.25-.1a5.87 5.87 0 0 1-3.06-2.75 5.8 5.8 0 0 1-.34-4.09c3.59-17.11 10.37-37.56 18.61-58.76 11.97-30.75 27.12-62.76 41.15-87.5a5.57 5.57 0 0 1 3.17-2.87 5.73 5.73 0 0 1 4.08.26l.08.03 19.46 9.5a5.42 5.42 0 0 1 3.16 3.52 5.48 5.48 0 0 1-.93 4.62c-13.97 22.18-29.13 53.37-40.7 83.12-8.21 21.1-14.63 41.5-17.53 57.5Zm-3.07.2.15-.8c2.95-16.27 9.45-36.89 17.68-58.06 11.64-29.91 26.9-61.32 41.01-83.7 1.08-1.5.65-2.98-.95-3.65l-19.44-9.49c-1.45-.6-2.76-.3-3.56 1.32-13.96 24.6-29.07 56.5-40.99 87.16-8.24 21.18-14.96 41.48-18.49 58.37-.43 1.55.15 2.66 1.6 3.27l.15.06 19.73 6.59c1.45.6 2.61.23 3.04-.88l.07-.19Zm159.99-114.85-.03-.24a7.01 7.01 0 0 1 .4-3.3 4.72 4.72 0 0 1 2.05-2.4 5.43 5.43 0 0 1 3.15-.64l8.5.33h.07c.09.02.18.02.29.03h.28l.16.01a5.28 5.28 0 0 1 3.92 2.2c.56.8.85 1.65 1.01 2.44a115.71 115.71 0 0 1 4.26 31.27v.05c0 .37.01 1.35-.35 2.28-1 2.55-3.53 3.19-5.01 3.34l-.18.02-9.71-.14h-.26a8.3 8.3 0 0 1-.5 0 4.64 4.64 0 0 1-1.68-.35c-2.61-1.1-3.37-3.68-3.19-5.75.12-8.83-.76-20.07-3.12-28.92l-.06-.23Zm6.15 29.39c-.14 1.23.29 2.28 1.31 2.7.34.15.64.14 1.01.13h.29l9.57.14c1.24-.13 2.25-.57 2.61-1.5.15-.37.15-.8.15-1.24.13-9.88-1.63-21.87-4.17-30.51-.22-1.17-.66-1.79-1.53-2.16-.3-.12-.56-.13-.91-.14l-.54-.03-8.48-.34c-1.31-.11-2.03.45-2.32 1.19-.22.56-.29 1.18-.22 1.86 2.48 9.26 3.37 20.87 3.23 29.9Zm80.52 145.05c-.4.03-1.35.09-2.28-.3a4.88 4.88 0 0 1-2.41-2.15 5.84 5.84 0 0 1-.63-1.78 5.08 5.08 0 0 1-2.26 3.44 5.1 5.1 0 0 1-2.91.77l-7.24.1-.18-.01a7.04 7.04 0 0 0-.36-.03h-.12l-.09-.01c-.11-.01-.29-.02-.48-.05-.19-.03-.52-.1-.89-.25-2.37-1-3.19-3.43-3.05-5.41a82.45 82.45 0 0 0-2.02-21.8l-.22-.93.03-.07a5.3 5.3 0 0 1 .29-2.56 4.92 4.92 0 0 1 4.78-3l6.36-.16h.1c1 .05 1.71.34 2.19.54a5.5 5.5 0 0 1 3.07 3.62l.06.18.09.3.05.18a4.85 4.85 0 0 1 4.88-4.27h.01l6.18-.02a5.33 5.33 0 0 1 2.37.35 5.92 5.92 0 0 1 3.1 3.34l.03.08.03.09c2.33 6.73 3.75 17.29 3.59 24.57l-.01.07v.07a6.18 6.18 0 0 1-.45 1.85l-.02.05a5.29 5.29 0 0 1-4.64 3.3l-.09.01-6.86-.11Zm-2.48-5.48c.05 1.35.48 2.04 1.28 2.38.3.12.66.1 1.02.06l6.93.12a2.38 2.38 0 0 0 2.07-1.44c.13-.33.25-.64.28-1 .15-6.98-1.23-17.17-3.42-23.5-.36-.87-.84-1.4-1.44-1.66-.3-.13-.76-.16-1.12-.12l-6.28.02c-.93 0-1.61.54-1.87 1.22a2.1 2.1 0 0 0 .02 1.73 88.2 88.2 0 0 1 2.53 22.19Zm-8.04 2.43a2.06 2.06 0 0 0 2.18-1.4c.12-.31.14-.66.17-1.02v-.04c.11-7.13-.99-17.16-2.98-23.7-.25-.84-.73-1.4-1.33-1.66-.4-.16-.71-.28-1.16-.3l-6.34.16c-1.03-.04-1.81.46-2.07 1.14-.19.49-.18 1.06.03 1.72l-.01.02a85.04 85.04 0 0 1 2.09 22.7c-.08 1.12.38 2.03 1.18 2.37l.09.03.11.01.19.02.17.01c.16.01.34.02.55.05l7.13-.11Zm-72.48-88.47.11-.29a5.05 5.05 0 0 1 2.7-2.86 5.03 5.03 0 0 1 3.94.05c24.97 10.52 67.93 28.47 94.07 38.89h.03l.02.02a5.15 5.15 0 0 1 2.94 2.86 5.48 5.48 0 0 1-.05 4.25l-5.22 13.43a5.25 5.25 0 0 1-2.71 3c-1.4.72-2.9.54-4.13.03l-.04-.02c-8.34-3.66-16.13-5.53-24.25-4.95h-.07c-20.9.96-35.28 10-39.34 20.44-2.06 5.27-1.53 11.24 2.78 17.44h.01v.01c4.37 6.37 12.73 12.96 26.31 18.68a5.53 5.53 0 0 1 3.09 3l.09.22.06.23c.34 1.33.19 2.9-.8 4.36l-7.92 13.33-.07.12a5.34 5.34 0 0 1-3.05 2.54 5.37 5.37 0 0 1-3.81-.26l-.06-.03c-19.95-8.94-32.46-20.19-38.88-32.17-6.45-12.05-6.6-24.54-2.35-35.45 5.5-14.14 18.28-25.5 33.94-30.57a3407.91 3407.91 0 0 1-39.41-15.39h-.02l-.03-.02a5.58 5.58 0 0 1-2.95-2.72l-.09-.2-.07-.2a5.9 5.9 0 0 1 .21-3.96l5.02-13.81Zm-2.24 14.94a2.8 2.8 0 0 0-.17 1.93c.26.53.68.93 1.38 1.23a3669.73 3669.73 0 0 0 43.24 16.86l5.62 2.16a47.37 47.37 0 0 0-5.51.93l-.16.04-.1.02c-16.65 4.13-30.33 15.62-35.9 29.92-7.88 20.27.52 46.17 39.62 63.7.7.29 1.26.33 1.79.16a2.41 2.41 0 0 0 1.4-1.2l.01-.02 8.06-13.57c.52-.74.56-1.43.42-1.97a2.45 2.45 0 0 0-1.45-1.35c-13.88-5.85-22.82-12.75-27.64-19.77-4.85-6.97-5.59-14.02-3.14-20.33 4.67-12 20.5-21.31 41.92-22.3 8.72-.61 17 1.41 25.64 5.2.7.3 1.29.28 1.73.03.55-.22.97-.69 1.26-1.43l5.22-13.42c.31-.81.33-1.45.07-1.98-.16-.49-.59-.88-1.29-1.18-26.16-10.42-69.15-28.39-94.12-38.9a2 2 0 0 0-2.78 1.18l-.1.25-5.02 13.81Zm-217.65 233.63a6.83 6.83 0 0 1-2.4-3.06 8.14 8.14 0 0 1-.39-3.58l.02-.23 6.05-25 .31-.78a5 5 0 0 1 3.37-3.22c1.76-.45 3.4.25 4.59 1.08l.08.05.06.05a158.57 158.57 0 0 0 35.35 20.8c15.86 6.68 31.34 9.55 43.71 6.96 8.75-2.06 15.55-7.75 18.23-14.64 2.11-5.41 1.77-11.96-2.58-18.53l-.04-.06-.04-.06c-3.31-5.5-10.65-12.17-22.17-17.02-13.82-5.82-33.34-8.75-57.89-3.28-3.22.94-6.6 1.9-10.17 2.9h-.01l-.03.02h-.03c-5.12 1.45-10.62 3-16.62 4.81a6 6 0 0 1-1.94.42 5.06 5.06 0 0 1-2.16-.42 5.74 5.74 0 0 1-3.37-4.21l-6.14-22.2a5.57 5.57 0 0 1-.04-4.24 5.62 5.62 0 0 1 4.35-3.4c37.25-9.16 65.51-17.45 91.3-25.02h.03c4.79-1.41 9.5-2.8 14.17-4.15l-8.6-3.33a2547.29 2547.29 0 0 1-46.7-18.4h-.02a5.97 5.97 0 0 1-3.35-3.26 6.23 6.23 0 0 1 .11-4.6l8.05-20.68a5.84 5.84 0 0 1 3.1-3.5 5.7 5.7 0 0 1 4.47.2l54.49 22.95a4260.18 4260.18 0 0 0 47.73 19.88h.02l.01.01a5.75 5.75 0 0 1 3.24 3.26 6.35 6.35 0 0 1-.16 4.53l-6.57 16.9a7.2 7.2 0 0 1-1.83 2.77c-.88.8-1.9 1.28-2.99 1.55l-.06.01c-16.76 3.68-32.87 8.22-48.56 12.63l-.03.01-4.41 1.24a90.69 90.69 0 0 1 13.32 4.43c12.03 5.07 22.52 12.6 29.83 22.27a50.36 50.36 0 0 1 7.01 49.27c-6.82 17.54-22.98 31.87-47.8 35.85-18.48 3.32-42.85-1.82-64.82-11.08-11.02-4.64-21.7-10.32-31-16.84l-.04-.03-.04-.03Zm140.94-9.03a47.27 47.27 0 0 0-6.58-46.28c-6.92-9.16-16.94-16.4-28.58-21.3a88.92 88.92 0 0 0-26.01-6.56c2.44-.66 4.89-1.34 7.36-2.03 3.29-.91 6.6-1.85 9.94-2.79 15.7-4.42 31.94-9 48.79-12.7a3.73 3.73 0 0 0 2.79-2.52l6.58-16.9c.7-1.79.15-3.18-1.4-3.83a4222.38 4222.38 0 0 1-47.76-19.9l-54.5-22.95c-1.7-.72-2.95-.32-3.72 1.67l-8.04 20.68c-.7 1.79-.15 3.18 1.55 3.9 14.95 6.12 30.7 12.2 46.62 18.36a8817.46 8817.46 0 0 1 17.05 6.6 2728.28 2728.28 0 0 0-22.68 6.61l-.03.01h-.01c-25.82 7.58-54.18 15.9-91.55 25.09-1.16.2-1.94.8-2.25 1.6-.23.59-.3 1.25.09 2.11l6.23 22.53a2.6 2.6 0 0 0 1.56 2.04c.62.27 1.16.26 2.01-.07a957.8 957.8 0 0 1 16.91-4.9c3.6-1.01 7-1.97 10.17-2.9 25.13-5.61 45.31-2.66 59.75 3.42 11.96 5.04 19.88 12.08 23.62 18.28 4.9 7.38 5.37 14.99 2.9 21.35-3.1 7.96-10.77 14.21-20.32 16.44-13.18 2.77-29.33-.32-45.48-7.13a161.55 161.55 0 0 1-36.03-21.2c-1.71-1.18-2.95-.78-3.57.81l-.23.6-5.95 24.57c-.15 1.79.16 2.85 1.56 3.9 9.09 6.37 19.57 11.94 30.44 16.52 21.74 9.16 45.49 14.08 63.18 10.89 23.9-3.82 39.17-17.52 45.59-34.02Zm24.18 86.43-.42-.17a6.41 6.41 0 0 1-2.94-2.36 6.29 6.29 0 0 1-.97-3.66l-.97-24.6.03-.23.04-.39v-.04l.05-.43c.04-.33.11-.85.33-1.41a4.91 4.91 0 0 1 2.8-2.88 5.3 5.3 0 0 1 3.89.13c22.94 7.81 46.51 14.05 66.98 11.1 14.11-2.31 26.38-12.33 30.84-23.8 2.24-5.76 2.47-11.8.21-17.37-2.26-5.56-7.16-11.03-15.87-15.36l-5.73-2.65c-16.35-6.88-40.44-12.51-68.88-14.68a4.9 4.9 0 0 1-2.25-.47h-.02a5.3 5.3 0 0 1-2.8-2.53 6.1 6.1 0 0 1-.52-3.67l2.81-23.71.52-1.35a5.68 5.68 0 0 1 2.27-2.81 5.07 5.07 0 0 1 3.75-.61c30.14 4.11 56.76 10.64 76.93 19.14l.04.02 6.19 2.84.02.01c18.55 8.77 30.09 20.87 35.62 34.32 5.52 13.44 4.9 27.87-.21 41.01-8.83 22.68-31.34 41.78-59.57 45.96h-.01c-19.75 2.9-45.38-.41-72.05-9.31l-.11-.04Zm12.69-130.97c-1.32-.32-2.33.4-2.79 1.6l-.39 1-2.76 23.36c-.24 1.52.31 2.45 1.4 2.9.46.2.77.33 1.16.27 28.79 2.17 53.32 7.88 70.09 14.95l5.82 2.68c18.48 9.17 22.15 23.91 17.2 36.64-4.87 12.52-18.05 23.17-33.1 25.62-21.26 3.08-45.48-3.42-68.46-11.25-1.4-.59-2.48-.12-2.95 1.07-.11.3-.14.62-.18 1.03l-.05.5.96 24.47c-.07 1.59.63 2.57 2.03 3.16l.31.13c26.39 8.81 51.54 12 70.7 9.2 27.24-4.03 48.86-22.46 57.29-44.13 9.75-25.06 2.18-54.4-33.85-71.43l-6.13-2.81c-19.87-8.38-46.27-14.87-76.3-18.96Zm129.27.82a5.83 5.83 0 0 1 2.51 4.03c.2 1.57-.3 3-.83 4.07l-.08.14-11.68 18.37a5.68 5.68 0 0 1-3.78 2.75 5.32 5.32 0 0 1-4.5-1.43c-25.04-19.68-54.2-35.42-79.46-47.2l-.09-.05-.09-.05a6.26 6.26 0 0 1-3.14-3.76 5.7 5.7 0 0 1 .98-4.84l11.66-17.55a5.49 5.49 0 0 1 3.23-2.72 6.1 6.1 0 0 1 4.14.33l.1.04.1.05c25.98 13.26 57.75 31.06 80.93 47.82Zm-.98 6.7c.85-1.73.85-3.12-.71-4.23-22.99-16.63-54.6-34.35-80.53-47.59-1.55-.65-2.95-.31-3.72 1.21l-11.78 17.72c-1.16 1.6-.69 3.18 1.1 4.16 25.39 11.86 54.82 27.73 80.14 47.65 1.32 1.25 2.87.98 3.88-.68l11.62-18.24Zm1.83 135.9c-1.08 1.11-2.52 2.06-4.31 2.01a5.85 5.85 0 0 1-4.06-2.06l-16.08-17.2a6.44 6.44 0 0 1-1.9-4.32c-.02-1.88.9-3.4 1.96-4.51l79.14-86.04.02-.02a5.72 5.72 0 0 1 8.39.03l19.36 20.72 7.79-23.65.02-.06c1.28-3.61 5.01-5.53 8.65-4.01l30.09 12.55a7.44 7.44 0 0 1 4.11 3.97c.76 1.81.67 3.73.09 5.4l-.01.03-.02.03-53.16 141.57c-.64 1.78-1.72 3.43-3.58 4.19-1.83.75-3.72.35-5.28-.3l-24.12-10.06a7.56 7.56 0 0 1-4.11-3.62 7.34 7.34 0 0 1-.09-5.72l35.26-107.08-78.16 78.15Zm-2.03-2.21 82.28-82.27 1.08-3.3a3.46 3.46 0 0 0-.83-1.4l-19.42-20.77a2.9 2.9 0 0 0-4.26 0l-79.13 86.04c-1.55 1.6-1.42 3.04-.06 4.5l16.08 17.2c1.36 1.45 2.72 1.6 4.26 0Zm47.71 32.26c-.96 2.73-.02 4.37 2.41 5.39l24.13 10.06c2.43 1.01 4.14.48 5.1-2.25l53.18-141.6c.76-2.17.01-4.37-2.42-5.38l-30.1-12.55c-1.99-.84-4.11.15-4.88 2.34l-8.75 26.56a6.41 6.41 0 0 1-1.46 4.45l-37.21 112.98Zm-100.57-29.86c8.92-9.29 21.86-8.69 30.35.4 8.52 9.12 8.74 22.65-.16 31.9-8.86 9.23-21.83 9.05-30.38-.1-8.53-9.12-8.7-22.95.19-32.2Zm2.05 2.2c-7.72 8.02-7.58 19.9-.16 27.84 7.42 7.94 18.54 8.1 26.25.08 7.72-8.04 7.56-19.61.14-27.55-7.43-7.95-18.52-8.41-26.23-.38Zm90.87 102.68c-14.75-6.15-22.12-21.87-16.75-37.11 5.39-15.29 20.45-21.28 35.16-15.15 14.68 6.13 22.47 21.62 17.07 36.94-5.38 15.27-20.76 21.46-35.48 15.32Zm1-2.83c13.28 5.54 26.91-.02 31.71-13.65 4.8-13.63-2.02-27.4-15.3-32.95-13.27-5.54-26.59-.15-31.39 13.47-4.8 13.63 1.7 27.6 14.98 33.13Z" style="fill:#fff"/></svg>