<?xml version="1.0" encoding="UTF-8" standalone="no"?>
<!DOCTYPE svg PUBLIC "-//W3C//DTD SVG 1.1//EN" "http://www.w3.org/Graphics/SVG/1.1/DTD/svg11.dtd">
<svg width="100%" height="100%" viewBox="0 0 1720 1160" version="1.1" xmlns="http://www.w3.org/2000/svg" xmlns:xlink="http://www.w3.org/1999/xlink" xml:space="preserve" xmlns:serif="http://www.serif.com/" style="fill-rule:evenodd;clip-rule:evenodd;stroke-linejoin:round;stroke-miterlimit:2;">
    <path d="M893.858,246.79C894.434,245.309 895.638,244.232 897.245,243.907C898.624,243.627 899.975,243.966 901.054,244.402L901.148,244.44L901.24,244.484C906.772,247.166 912.221,249.807 917.774,252.147C949.305,265.431 978.339,272.006 1000.84,269.192L1000.87,269.189L1000.89,269.186C1027.47,266.321 1048.97,248.649 1057.27,227.316C1062.2,214.64 1062.41,200.641 1056.02,187.515C1049.61,174.37 1036.41,161.756 1013.87,152.26L1013.86,152.257C1009.62,150.47 1005.56,148.762 1000.84,147.445L1000.79,147.432L1000.75,147.418C962.048,135.32 923.162,130.481 889.134,126.648C885.971,126.292 883.321,123.448 883.71,119.942L883.747,119.612L886.285,83.848L886.29,83.795C886.412,82.663 886.703,80.917 887.994,79.635C889.468,78.172 891.405,78.059 893.005,78.295C935.53,84.546 976.895,92.545 1022.11,107.715L1022.13,107.72L1022.14,107.726C1027.06,109.439 1031.6,111.355 1036.05,113.229L1036.06,113.233C1071.61,128.21 1093.37,149.682 1103.71,173.389L1103.72,173.4C1113.85,196.871 1112.95,222.339 1104.09,245.107C1089.7,282.109 1054.71,312.285 1013.32,317.366L1013.3,317.368C974.987,321.877 931.559,309.491 896.038,294.174C894.62,293.574 893.448,292.654 892.676,291.32C891.942,290.049 891.734,288.679 891.69,287.476L891.686,287.358L891.691,287.24C891.763,285.548 891.831,283.945 891.896,282.393L891.896,282.387C892.322,272.261 892.657,264.302 893.659,247.697L893.687,247.228L893.858,246.79ZM1012.95,314.388C1053.15,309.454 1087.26,280.091 1101.3,244.019C1109.91,221.889 1110.74,197.245 1100.96,174.589C1090.99,151.734 1069.9,130.744 1034.9,115.998C1030.44,114.118 1025.97,112.237 1021.16,110.559C976.173,95.467 935,87.5 892.569,81.263C890.174,80.911 889.5,82 889.273,84.114L886.711,120.224L886.692,120.273C886.5,122 887.813,123.481 889.47,123.667C923.5,127.5 962.641,132.362 1001.64,144.555C1006.57,145.931 1010.8,147.712 1015.03,149.492L1015.03,149.495C1061.08,168.893 1070.47,201.676 1060.07,228.404C1051.36,250.785 1028.9,269.184 1001.22,272.169C977.938,275.079 948.321,268.272 916.609,254.911C910.971,252.536 905.451,249.86 899.931,247.183C898.277,246.516 897.103,246.723 896.654,247.878C895.653,264.455 895.32,272.392 894.894,282.513C894.828,284.067 894.761,285.672 894.688,287.368C894.758,289.298 895.337,290.623 897.216,291.415C932.57,306.661 975.416,318.806 1012.95,314.388ZM1187.95,276.556L1187.94,276.558C1174.35,279.455 1162.36,282.011 1153.64,284.235L1153.57,284.252L1153.51,284.266C1150.67,284.852 1149.9,285.802 1149.72,286.271C1149.69,286.355 1149.44,287.319 1151.42,289.803L1152.49,291.152L1152.45,291.252C1168.88,313.857 1198.33,355.251 1217.26,393.482C1217.73,394.401 1218.05,395.379 1218.11,396.44C1218.17,397.517 1217.94,398.478 1217.61,399.328C1217.07,400.715 1216.1,401.751 1214.8,402.556L1214.71,402.796L1186.58,413.724C1184.59,414.713 1182.56,414.355 1181.24,413.8C1179.48,413.057 1178.19,411.39 1177.6,409.713C1165.38,379.933 1147.06,351.798 1131.09,327.291L1131.07,327.263C1125.57,318.813 1120.34,310.782 1115.77,303.3L1115.58,303.222L1115.07,302.337C1108.39,290.657 1106.94,279.162 1110.61,269.726C1114.19,260.526 1122.65,253.43 1134.15,249.847L1134.2,249.832L1134.25,249.818C1141.35,247.877 1150.44,245.749 1160.66,243.36L1160.71,243.348C1185.95,237.444 1218.24,229.888 1245.94,219.314C1247.92,218.33 1249.95,218.688 1251.27,219.242C1252.59,219.801 1254.22,220.989 1254.97,223.015L1267.15,248.962L1267.16,248.986C1267.98,250.82 1268.22,252.735 1267.47,254.665C1266.97,255.931 1266.08,256.837 1265.32,257.417C1264.56,258.001 1263.69,258.452 1262.88,258.682C1236.3,266.25 1212.43,271.338 1189.47,276.23L1187.95,276.556ZM1149.06,291.691L1149.07,291.672C1146.98,289.047 1146.26,286.878 1146.92,285.183C1147.66,283.275 1149.73,281.984 1152.9,281.328C1161.69,279.086 1173.75,276.514 1187.32,273.621L1188.82,273.302C1211.79,268.407 1235.58,263.336 1262.06,255.797C1262.87,255.566 1264.22,254.742 1264.67,253.577C1265.06,252.566 1265,251.5 1264.42,250.213L1252.19,224.152C1251.83,223.068 1250.94,222.359 1250.1,222.007C1249.27,221.655 1248.15,221.518 1247.16,222.056C1219.21,232.747 1186.64,240.363 1161.39,246.269C1151.14,248.668 1142.09,250.785 1135.04,252.712C1124.19,256.092 1116.58,262.662 1113.41,270.813C1110.15,279.179 1111.31,289.714 1117.68,300.847C1117.68,300.847 1117.84,300.918 1117.84,300.935C1122.5,308.606 1127.89,316.879 1133.61,325.653C1149.56,350.144 1168.06,378.543 1180.41,408.659C1180.77,409.744 1181.57,410.683 1182.41,411.035C1183.24,411.388 1184.36,411.525 1185.34,410.986L1212.39,400.478L1212.4,400.443C1213.83,399.778 1214.5,399.061 1214.81,398.241C1215.25,397.117 1215.25,396.121 1214.58,394.842C1195.41,356.101 1165.29,313.994 1149.06,291.691ZM867.106,472.09C872.262,474.584 877.337,477.037 882.505,479.214C911.869,491.586 938.85,497.784 959.694,495.358L959.715,495.355L959.736,495.353C984.106,492.864 1003.86,476.935 1011.38,457.611C1015.83,446.158 1015.93,433.465 1009.96,421.508C1003.97,409.525 991.71,397.952 970.847,389.162L970.836,389.157C966.885,387.493 963.109,385.905 958.725,384.67L958.68,384.658L958.636,384.644C922.622,373.287 886.111,367.976 854.919,364.88C852.284,364.618 849.366,362.084 849.685,358.377L851.84,325.437C851.856,324.318 852.117,322.746 853.228,321.464C854.541,319.95 856.456,319.484 858.418,319.785C896.036,325.547 936.443,333.383 978.553,347.58L978.569,347.585L978.585,347.591C983.165,349.193 987.404,350.979 991.547,352.724L991.559,352.73C1024.7,366.691 1045.07,386.55 1054.85,408.393C1064.64,430.17 1063.93,453.627 1055.8,474.543C1042.58,508.522 1010.15,536.049 971.412,540.371L971.407,540.372C935.787,544.282 895.33,532.662 862.232,518.396C860.857,517.814 859.72,516.901 858.947,515.643C858.19,514.412 857.908,513.055 857.873,511.764L857.87,511.666L857.874,511.568C857.987,508.641 858.083,505.775 858.179,502.899C858.463,494.391 858.751,485.794 859.485,475.266L859.517,474.812L859.682,474.387C860.318,472.752 861.682,471.79 863.185,471.511C864.537,471.26 865.872,471.566 866.965,472.026L867.036,472.056L867.106,472.09ZM971.079,537.39C1008.62,533.201 1040.16,506.477 1053,473.455C1060.88,453.192 1061.53,430.577 1052.11,409.621C1042.71,388.619 1023,369.231 990.395,355.494C986.237,353.743 982.078,351.991 977.594,350.422C935.716,336.304 895.5,328.5 857.964,322.75C855.545,322.379 854.84,324 854.84,325.547L852.676,358.608C852.5,360.5 854.006,361.775 855.216,361.895C886.5,365 923.242,370.337 959.538,381.783C964.126,383.075 968.064,384.734 972.001,386.393L972.007,386.395C1014.68,404.372 1023.63,434.374 1014.17,458.699C1006.24,479.099 985.502,495.737 960.041,498.338C938.434,500.853 910.88,494.424 881.34,481.979C876.088,479.766 870.945,477.279 865.8,474.791C864.268,474.146 862.924,474.327 862.478,475.475C861.748,485.944 861.463,494.468 861.178,502.962C861.082,505.848 860.985,508.73 860.872,511.684C860.921,513.521 861.659,514.899 863.41,515.637C896.344,529.833 936.228,541.216 971.079,537.39ZM1172.27,616.659C1172.03,617.276 1171.67,618.027 1170.99,618.757C1170.34,619.465 1169.52,620.016 1168.56,620.462C1168.24,620.615 1167.95,620.684 1167.74,620.718C1167.68,620.728 1167.62,620.735 1167.56,620.741L1142.54,630.59L1142.52,630.629L1141.27,631.103C1139.32,631.841 1137.42,631.601 1136.13,631.058C1135.21,630.673 1134.49,630.014 1133.97,629.421C1133.42,628.787 1132.93,628.024 1132.55,627.192L1132.53,627.142L1132.51,627.091C1120.16,596.989 1101.67,568.614 1085.57,543.912L1085.55,543.889L1085.55,543.887C1080.01,535.391 1074.75,527.317 1070.15,519.794L1069.37,518.527L1069.41,518.439C1063.32,507.221 1062.08,496.263 1065.61,487.196C1069.16,478.049 1077.43,470.915 1089.13,467.414L1089.16,467.405L1089.19,467.397C1096.4,465.396 1105.73,463.209 1116.22,460.748L1116.28,460.734C1141.45,454.83 1173.52,447.302 1200.88,436.747L1200.89,436.744L1200.89,436.741C1202.8,436.016 1204.72,436.208 1206.05,436.768C1207.37,437.326 1208.83,438.551 1209.69,440.384L1209.69,440.391L1222.47,467.608L1222.4,467.803C1222.77,469.211 1222.67,470.597 1222.13,471.994C1221.47,473.679 1220.16,474.829 1218.4,475.655C1217.9,475.934 1217.44,476.003 1217.21,476.025L1217.16,476.03C1193.28,483.024 1164.87,489.086 1141.33,494.106L1141.27,494.12C1128.28,496.892 1116.8,499.34 1108.33,501.461L1108.28,501.472L1108.24,501.482C1105.4,502.098 1104.59,503.07 1104.38,503.601C1104.32,503.752 1104.1,504.766 1106.05,507.263L1106.08,507.299L1106.11,507.336C1122.49,529.694 1152.73,571.98 1171.87,610.899C1172.34,611.783 1172.68,612.734 1172.75,613.777C1172.82,614.853 1172.6,615.814 1172.27,616.659ZM1169.48,615.572C1169.9,614.484 1169.89,613.522 1169.2,612.278C1150.2,573.608 1120.08,531.484 1103.69,509.11C1101.61,506.449 1100.91,504.244 1101.59,502.514C1102.34,500.57 1104.41,499.242 1107.6,498.551C1116.14,496.414 1127.67,493.954 1140.65,491.186C1164.37,486.126 1192.9,480.038 1216.76,473.02C1216.94,473.055 1216.95,473.036 1216.95,473.019C1218.37,472.389 1219.03,471.692 1219.33,470.907C1219.74,469.854 1219.73,468.894 1219.2,467.757L1219.21,467.721L1206.97,441.659C1206.44,440.522 1205.55,439.814 1204.88,439.532C1204.21,439.251 1203.1,439.113 1201.96,439.546C1174.38,450.188 1142.1,457.76 1116.96,463.655C1106.43,466.126 1097.15,468.303 1089.99,470.288C1078.98,473.58 1071.56,480.167 1068.4,488.283C1065.16,496.613 1066.34,507.095 1072.71,518.21L1072.71,518.229C1077.28,525.713 1082.53,533.756 1088.08,542.269L1088.08,542.273C1104.16,566.936 1122.81,595.545 1135.28,625.953C1135.81,627.108 1136.62,628.012 1137.29,628.293C1137.96,628.575 1139.07,628.731 1140.21,628.298L1140.21,628.28L1167.09,617.701C1167.26,617.772 1167.27,617.754 1167.27,617.754C1168.69,617.107 1169.17,616.374 1169.48,615.572ZM1423.84,346.397C1423.81,347.344 1423.52,348.092 1423.43,348.315L1423.42,348.341C1423.05,349.274 1422.45,350.275 1421.37,350.987C1420.32,351.679 1419.14,351.882 1418.05,351.887L1417.99,351.887L1408.22,351.572C1407.71,351.648 1406.77,351.717 1405.72,351.274C1403.08,350.164 1402.33,347.54 1402.53,345.459C1402.67,342.973 1402.71,340.251 1402.68,337.409L1398.34,348.575L1421.98,358.534C1423.3,359.093 1424.57,360.092 1425.21,361.684C1425.83,363.25 1425.61,364.832 1425.11,366.135L1418.1,384.155C1417.59,385.458 1416.69,386.751 1415.19,387.424C1413.67,388.109 1412.09,387.907 1410.77,387.348L1387.15,377.399L1371.48,418.858C1380.51,430.898 1388.54,444.965 1393.39,455.48L1393.41,455.533L1393.44,455.587C1393.76,456.369 1393.98,457.2 1393.98,458.099C1393.98,459.004 1393.76,459.74 1393.54,460.296C1393.12,461.383 1392.38,462.411 1391.15,463.148L1373.68,474.883C1372.21,475.97 1370.29,476.241 1368.68,475.564C1368.09,475.314 1367.41,474.914 1366.8,474.242C1366.22,473.592 1365.82,472.823 1365.57,471.992C1363.14,464.82 1359.97,457.756 1356.33,451.049C1349.58,459.067 1341.3,463.655 1331.41,464.473L1331.39,464.474L1331.38,464.475C1323.48,465.036 1315.04,463.773 1307.47,460.586C1297.44,456.36 1288.73,448.775 1284.07,438.126L1284.07,438.113L1284.06,438.1C1280.02,428.618 1280.1,418.076 1283.62,409.012C1287.52,398.98 1295.53,390.586 1306.6,387.218C1316.89,383.83 1327.11,385.163 1336.46,389.101C1340.45,390.782 1344.24,392.916 1347.81,395.378L1358.99,365.547L1313.21,346.461L1313.2,346.457C1311.87,345.898 1310.6,344.9 1309.97,343.307C1309.34,341.742 1309.56,340.16 1310.07,338.856L1317.15,320.65C1317.66,319.347 1318.56,318.054 1320.05,317.381C1321.57,316.696 1323.15,316.9 1324.48,317.458L1369.84,336.569L1379.34,310.984L1379.34,310.962C1379.85,309.66 1380.75,308.367 1382.25,307.693C1383.77,307.007 1385.35,307.211 1386.67,307.769L1400.4,313.552C1400.43,313.052 1400.53,312.504 1400.73,311.974C1401.63,309.669 1403.95,308.833 1405.9,308.928L1405.91,308.928L1405.92,308.929L1414.74,309.438C1414.79,309.437 1414.84,309.435 1414.91,309.432L1414.94,309.431C1415.03,309.427 1415.18,309.421 1415.32,309.42C1415.61,309.418 1416.27,309.425 1416.98,309.727C1417.82,310.081 1418.64,310.639 1419.29,311.478C1419.91,312.274 1420.27,313.184 1420.46,314.117C1423.12,324.477 1424.64,336.183 1423.84,346.397ZM1417.97,348.858C1419.49,348.851 1420.22,348.291 1420.65,347.177C1420.72,346.991 1420.87,346.619 1420.87,346.187C1421.65,336.355 1420.19,324.927 1417.57,314.741C1417.35,313.568 1416.77,312.89 1415.89,312.523C1415.68,312.434 1415.43,312.444 1415.12,312.457C1415,312.462 1414.87,312.467 1414.74,312.468L1405.82,311.953C1404.66,311.897 1403.79,312.395 1403.5,313.139C1403.31,313.631 1403.34,314.219 1403.4,314.818L1403.43,315.049L1403.43,315.066C1403.65,316.235 1403.87,317.405 1404.16,318.39L1385.59,310.565C1383.99,309.893 1382.76,310.455 1382.11,312.127L1371.56,340.548L1323.39,320.254C1321.8,319.582 1320.56,320.143 1319.91,321.815L1312.83,340.021C1312.18,341.693 1312.69,342.989 1314.29,343.661L1362.82,363.891L1349.23,400.115C1348.41,399.478 1347.57,398.859 1346.73,398.26C1343.16,395.741 1339.36,393.576 1335.37,391.897C1326.52,388.169 1317.02,386.977 1307.53,390.112C1297.38,393.189 1290,400.888 1286.39,410.177C1283.13,418.536 1283.07,428.241 1286.78,436.939C1291.07,446.746 1299.13,453.817 1308.56,457.79C1315.67,460.785 1323.64,461.984 1331.11,461.454C1340.45,460.681 1348.3,456.25 1354.75,448.208C1355.41,447.388 1356.06,446.529 1356.69,445.633C1357.24,446.588 1357.79,447.552 1358.32,448.524C1362.29,455.708 1365.76,463.333 1368.39,471.106C1368.68,472.094 1369.19,472.524 1369.77,472.768C1370.35,473.013 1371.22,472.947 1371.95,472.387L1389.55,460.56C1390.2,460.186 1390.56,459.689 1390.78,459.132C1391.07,458.389 1391.14,457.771 1390.7,456.723C1385.76,445.991 1377.4,431.442 1368.11,419.309L1385.45,373.427L1411.85,384.552C1413.45,385.224 1414.68,384.662 1415.33,382.99L1422.34,364.97C1422.99,363.298 1422.48,362.003 1420.89,361.33L1394.48,350.206L1404.89,323.454C1405.11,325.744 1405.28,328.073 1405.41,330.387C1405.71,335.817 1405.75,341.17 1405.5,345.764C1405.35,347.001 1405.79,348.05 1406.81,348.478C1407.24,348.661 1407.6,348.598 1407.97,348.535L1417.97,348.858ZM1306.93,428.129C1305.76,425.477 1305.83,422.262 1306.99,419.289C1308.14,416.317 1310.39,413.587 1313.65,412.15C1317.64,410.586 1321.98,410.689 1326.77,412.706C1331.27,414.601 1336.06,418.349 1340.63,423.52C1337.45,430.396 1333.18,435.731 1326.8,437.368C1322.89,438.314 1318.97,437.961 1315.49,436.494C1311.87,434.966 1308.6,432.077 1306.93,428.129ZM1314.82,414.958C1312.39,416.048 1310.66,418.12 1309.75,420.454C1308.83,422.821 1308.86,425.174 1309.63,426.939L1309.65,426.975C1310.96,430.074 1313.57,432.432 1316.58,433.698C1319.46,434.913 1322.73,435.221 1326.05,434.425C1330.66,433.232 1334.17,429.565 1337.05,424.002C1333.13,419.864 1329.21,416.987 1325.68,415.502C1321.54,413.756 1318,413.726 1314.82,414.958ZM1264.83,431.171L1264.83,431.175L1264.63,432.262L1264.45,432.721C1263.93,434.082 1262.86,435.126 1261.44,435.552C1260.14,435.94 1258.81,435.737 1257.68,435.281L1237.93,428.694L1237.68,428.588C1236.5,428.091 1235.32,427.235 1234.62,425.836C1233.94,424.462 1233.95,423.015 1234.28,421.75C1237.87,404.639 1244.65,384.189 1252.89,362.985C1264.86,332.236 1280.01,300.23 1294.04,275.499C1294.7,274.207 1295.73,273.114 1297.21,272.62C1298.67,272.127 1300.12,272.385 1301.29,272.879L1301.37,272.911L1320.83,282.405C1322.22,283.016 1323.52,284.174 1323.99,285.929C1324.46,287.667 1323.94,289.307 1323.06,290.552C1309.09,312.729 1293.93,343.924 1282.36,373.67C1274.15,394.765 1267.73,415.174 1264.83,431.171ZM1261.76,431.371L1261.91,430.567C1264.86,414.297 1271.36,393.683 1279.59,372.505C1291.23,342.596 1306.49,311.186 1320.6,288.806C1321.68,287.318 1321.25,285.835 1319.65,285.163L1300.21,275.675C1298.76,275.063 1297.45,275.378 1296.65,276.989C1282.69,301.594 1267.58,333.497 1255.66,364.149C1247.42,385.327 1240.7,405.633 1237.17,422.524C1236.74,424.071 1237.32,425.181 1238.77,425.792L1238.92,425.853L1258.65,432.436C1260.1,433.047 1261.26,432.671 1261.69,431.557L1261.76,431.371ZM1421.75,316.516L1421.72,316.278C1421.6,315.174 1421.71,314.053 1422.12,312.985C1422.49,312.043 1423.16,311.166 1424.17,310.588C1425.14,310.031 1426.24,309.856 1427.32,309.94L1435.82,310.272L1435.89,310.279C1435.98,310.287 1436.07,310.292 1436.18,310.296L1436.25,310.298C1436.3,310.3 1436.38,310.303 1436.46,310.307C1436.51,310.309 1436.57,310.312 1436.62,310.315C1437.01,310.34 1437.58,310.405 1438.23,310.678C1439.08,311.039 1439.91,311.61 1440.54,312.51C1441.1,313.302 1441.39,314.164 1441.55,314.951C1444.16,323.867 1445.94,336.072 1445.81,346.221L1445.81,346.275C1445.81,346.644 1445.82,347.615 1445.46,348.547C1444.46,351.103 1441.93,351.735 1440.45,351.89L1440.27,351.908L1430.56,351.766C1430.51,351.767 1430.46,351.769 1430.38,351.771L1430.3,351.773C1430.25,351.775 1430.17,351.777 1430.08,351.778C1430,351.779 1429.9,351.779 1429.8,351.775C1429.34,351.76 1428.77,351.687 1428.12,351.415C1425.51,350.317 1424.75,347.737 1424.93,345.671C1425.05,336.839 1424.17,325.596 1421.81,316.748L1421.75,316.516ZM1427.9,345.907C1427.76,347.143 1428.19,348.191 1429.21,348.619C1429.55,348.765 1429.85,348.755 1430.22,348.744C1430.31,348.741 1430.41,348.738 1430.51,348.737L1440.08,348.877C1441.32,348.748 1442.33,348.311 1442.69,347.382C1442.84,347.011 1442.84,346.577 1442.84,346.145C1442.97,336.255 1441.21,324.272 1438.67,315.63C1438.45,314.457 1438.01,313.841 1437.14,313.474C1436.84,313.348 1436.58,313.339 1436.23,313.326C1436.07,313.32 1435.89,313.314 1435.69,313.296L1427.21,312.965C1425.9,312.847 1425.18,313.407 1424.89,314.15C1424.67,314.707 1424.6,315.326 1424.67,316.006C1427.15,325.266 1428.04,336.882 1427.9,345.907ZM1508.42,490.956C1508.02,490.993 1507.07,491.046 1506.14,490.651C1505.18,490.249 1504.32,489.557 1503.73,488.507C1503.41,487.931 1503.21,487.326 1503.1,486.733C1503.05,487.025 1502.97,487.351 1502.84,487.671C1502.46,488.657 1501.81,489.56 1500.84,490.177C1499.91,490.767 1498.89,490.967 1497.93,490.939L1490.69,491.049L1490.51,491.029C1490.37,491.014 1490.28,491.008 1490.15,491L1490.03,490.993L1489.94,490.987C1489.83,490.98 1489.65,490.966 1489.46,490.937C1489.27,490.908 1488.94,490.846 1488.57,490.691C1486.2,489.695 1485.38,487.262 1485.52,485.28C1485.86,478.37 1485.1,470.248 1483.5,463.486L1483.28,462.55L1483.31,462.483C1483.21,461.664 1483.27,460.789 1483.6,459.921C1484.41,457.859 1486.45,456.885 1488.38,456.919L1494.74,456.76L1494.84,456.765C1495.84,456.806 1496.55,457.098 1497.03,457.298C1498.64,457.979 1499.65,459.391 1500.1,460.923L1500.16,461.1C1500.19,461.2 1500.22,461.3 1500.25,461.402C1500.26,461.461 1500.28,461.521 1500.3,461.582C1500.37,461.139 1500.49,460.741 1500.62,460.394C1501.33,458.582 1503.06,457.318 1505.18,457.308L1505.19,457.308L1511.37,457.29C1511.96,457.25 1512.88,457.28 1513.74,457.644C1515.31,458.303 1516.27,459.613 1516.84,460.978L1516.87,461.062L1516.9,461.148C1519.23,467.88 1520.65,478.438 1520.49,485.724L1520.48,485.793L1520.48,485.862C1520.42,486.705 1520.15,487.408 1520.03,487.706L1520.01,487.759C1519.18,489.888 1517.15,490.979 1515.37,491.066L1515.28,491.07L1508.42,490.956ZM1505.94,485.478C1505.99,486.829 1506.42,487.518 1507.22,487.855C1507.52,487.981 1507.88,487.958 1508.24,487.924L1515.17,488.04C1516,488 1516.9,487.469 1517.24,486.595C1517.37,486.275 1517.49,485.956 1517.52,485.594C1517.67,478.616 1516.29,468.433 1514.1,462.104C1513.74,461.233 1513.26,460.693 1512.66,460.44C1512.36,460.314 1511.9,460.284 1511.54,460.318L1505.26,460.337C1504.33,460.342 1503.65,460.876 1503.39,461.558C1503.2,462.049 1503.1,462.591 1503.41,463.292C1505.03,469.581 1506.16,478.627 1505.94,485.478ZM1497.9,487.909C1498.93,487.957 1499.69,487.497 1500.08,486.506C1500.2,486.197 1500.22,485.848 1500.25,485.489L1500.25,485.452C1500.36,478.315 1499.26,468.289 1497.27,461.757C1497.02,460.908 1496.54,460.347 1495.94,460.094C1495.54,459.926 1495.23,459.81 1494.78,459.791L1488.44,459.948C1487.41,459.911 1486.63,460.414 1486.37,461.086C1486.18,461.576 1486.19,462.15 1486.4,462.809L1486.39,462.83C1488.06,469.885 1488.85,478.315 1488.48,485.528C1488.4,486.646 1488.86,487.558 1489.66,487.895C1489.69,487.907 1489.72,487.917 1489.75,487.926C1489.79,487.933 1489.82,487.939 1489.86,487.945C1489.92,487.952 1489.98,487.958 1490.05,487.963C1490.1,487.967 1490.16,487.97 1490.22,487.974C1490.38,487.983 1490.56,487.994 1490.77,488.018L1497.9,487.909ZM1425.42,399.439L1425.53,399.153C1426.02,397.894 1426.95,396.838 1428.23,396.292C1429.52,395.746 1430.92,395.813 1432.17,396.339C1457.14,406.858 1500.1,424.811 1526.24,435.227L1526.27,435.238L1526.29,435.249C1527.35,435.695 1528.64,436.545 1529.23,438.107C1529.9,439.637 1529.65,441.159 1529.18,442.363L1523.96,455.79C1523.49,456.992 1522.65,458.175 1521.25,458.796C1519.85,459.508 1518.35,459.334 1517.12,458.818L1517.08,458.8C1508.74,455.14 1500.95,453.274 1492.83,453.846L1492.8,453.849L1492.76,453.85C1471.86,454.81 1457.48,463.85 1453.42,474.289C1451.36,479.565 1451.89,485.534 1456.2,491.727L1456.21,491.736L1456.21,491.744C1460.58,498.106 1468.94,504.698 1482.52,510.421C1483.98,511.035 1485.02,512.031 1485.61,513.421L1485.7,513.638L1485.76,513.865C1486.1,515.203 1485.95,516.773 1484.96,518.231L1477.04,531.561L1476.97,531.68C1476.26,532.933 1475.2,533.823 1473.92,534.222C1472.58,534.65 1471.29,534.46 1470.11,533.962L1470.05,533.934C1450.1,524.991 1437.59,513.741 1431.17,501.758C1424.72,489.715 1424.57,477.224 1428.82,466.306C1434.32,452.172 1447.1,440.801 1462.76,435.739C1449.22,430.523 1434.65,424.88 1423.35,420.351L1423.33,420.341L1423.3,420.331C1422.03,419.796 1420.99,418.918 1420.35,417.612L1420.26,417.416L1420.19,417.208C1419.76,415.878 1419.92,414.505 1420.4,413.252L1425.42,399.439ZM1423.18,414.382C1422.86,415.181 1422.85,415.819 1423.01,416.308C1423.27,416.839 1423.69,417.24 1424.39,417.535C1436.75,422.491 1453.05,428.785 1467.63,434.397C1469.54,435.13 1471.41,435.851 1473.25,436.557C1471.55,436.745 1469.81,437.02 1468.03,437.421C1467.93,437.444 1467.83,437.468 1467.74,437.491L1467.58,437.529L1467.48,437.554C1450.83,441.677 1437.15,453.168 1431.58,467.471C1423.7,487.738 1432.1,513.641 1471.2,531.166C1471.9,531.46 1472.46,531.5 1472.99,531.327C1473.52,531.165 1474.02,530.791 1474.39,530.129L1474.4,530.108L1482.46,516.541C1482.98,515.804 1483.02,515.113 1482.88,514.571C1482.64,513.998 1482.23,513.553 1481.43,513.217C1467.55,507.368 1458.61,500.475 1453.79,493.446C1448.94,486.481 1448.2,479.433 1450.65,473.124C1455.32,461.115 1471.15,451.809 1492.57,450.825C1501.29,450.209 1509.57,452.233 1518.21,456.022C1518.91,456.316 1519.5,456.302 1519.94,456.045C1520.49,455.83 1520.91,455.36 1521.2,454.625L1526.42,441.198C1526.73,440.388 1526.75,439.75 1526.49,439.219C1526.33,438.731 1525.9,438.34 1525.2,438.045C1499.04,427.617 1456.05,409.653 1431.08,399.135C1429.9,398.637 1428.76,399.122 1428.3,400.318L1428.2,400.573L1423.18,414.382ZM1205.53,648.012C1204.51,647.245 1203.63,646.277 1203.13,644.954C1202.66,643.699 1202.65,642.448 1202.74,641.369L1202.76,641.137L1208.81,616.144L1209.12,615.359C1209.62,614.057 1210.65,612.603 1212.49,612.137C1214.25,611.691 1215.89,612.389 1217.08,613.218L1217.16,613.267L1217.22,613.321C1227.97,621.706 1240.24,628.921 1252.57,634.116C1268.43,640.799 1283.91,643.67 1296.28,641.079C1305.03,639.025 1311.83,633.334 1314.51,626.438C1316.62,621.026 1316.28,614.477 1311.93,607.91L1311.89,607.853L1311.85,607.795C1308.54,602.292 1301.2,595.622 1289.68,590.765C1275.86,584.946 1256.34,582.025 1231.79,587.485C1228.57,588.435 1225.19,589.388 1221.62,590.396L1221.61,590.398L1221.58,590.406L1221.56,590.413L1221.55,590.416C1216.43,591.86 1210.93,593.413 1204.93,595.223C1204.36,595.439 1203.71,595.614 1202.99,595.637C1202.17,595.662 1201.46,595.486 1200.83,595.22C1199.16,594.515 1197.85,592.984 1197.46,591.008L1191.32,568.819C1190.66,567.193 1190.82,565.748 1191.28,564.569C1192.04,562.609 1193.79,561.522 1195.63,561.17C1232.88,552.01 1261.14,543.72 1286.93,536.152L1286.96,536.145C1291.75,534.738 1296.46,533.356 1301.13,531.998C1298.26,530.888 1295.4,529.78 1292.53,528.673C1276.6,522.515 1260.81,516.411 1245.83,510.273L1245.82,510.268L1245.81,510.262C1244.42,509.68 1243.12,508.646 1242.46,507.009C1241.82,505.401 1242.04,503.767 1242.57,502.405L1250.62,481.726C1251.15,480.341 1252.08,478.917 1253.72,478.234C1255.35,477.553 1256.97,477.907 1258.19,478.424L1312.68,501.38C1328.47,508.034 1344.1,514.616 1360.41,521.26L1360.43,521.266L1360.44,521.273C1361.82,521.854 1363.07,522.915 1363.68,524.531C1364.26,526.099 1364.05,527.702 1363.52,529.064L1356.95,545.965C1356.56,546.979 1355.98,547.945 1355.12,548.734C1354.24,549.531 1353.22,550.013 1352.13,550.276L1352.07,550.29C1335.31,553.967 1319.2,558.506 1303.51,562.923L1303.48,562.932C1302.01,563.347 1300.54,563.761 1299.07,564.173C1303.71,565.33 1308.16,566.818 1312.39,568.603C1324.42,573.67 1334.91,581.194 1342.22,590.869C1353.49,605.491 1355.47,624.098 1349.23,640.141C1342.41,657.683 1326.25,672.012 1301.43,675.986C1282.95,679.312 1258.58,674.167 1236.61,664.911C1225.59,660.265 1214.91,654.593 1205.61,648.072L1205.57,648.043L1205.53,648.012ZM1346.47,638.977C1352.35,623.865 1350.46,606.409 1339.89,592.699C1332.97,583.536 1322.95,576.305 1311.31,571.398C1305.55,568.976 1299.4,567.113 1292.86,565.912C1290.39,565.459 1287.87,565.1 1285.3,564.84C1287.74,564.176 1290.19,563.498 1292.66,562.811C1295.95,561.895 1299.26,560.962 1302.6,560.023C1318.3,555.598 1334.54,551.025 1351.39,547.328C1352.79,546.991 1353.64,546.192 1354.18,544.801L1360.76,527.899C1361.46,526.11 1360.91,524.724 1359.36,524.069C1343.03,517.42 1327.39,510.831 1311.6,504.179L1257.1,481.22C1255.4,480.5 1254.15,480.903 1253.38,482.891L1245.34,503.57C1244.64,505.359 1245.19,506.747 1246.89,507.466C1261.84,513.592 1277.59,519.679 1293.51,525.834C1297.63,527.424 1301.75,529.019 1305.88,530.62C1307.44,531.225 1309,531.831 1310.56,532.438C1308.98,532.892 1307.39,533.349 1305.8,533.809C1299.91,535.513 1293.96,537.258 1287.88,539.044L1287.85,539.051L1287.84,539.054C1262.02,546.63 1233.66,554.95 1196.29,564.135C1195.13,564.339 1194.35,564.938 1194.04,565.733C1193.81,566.33 1193.74,566.993 1194.13,567.851L1200.36,590.38C1200.52,591.372 1201.14,592.097 1201.92,592.424C1202.54,592.686 1203.08,592.682 1203.93,592.348C1209.99,590.52 1215.63,588.926 1220.84,587.456C1224.44,586.439 1227.84,585.481 1231.01,584.547C1256.14,578.937 1276.32,581.885 1290.76,587.97C1302.72,593.007 1310.64,600.047 1314.38,606.248C1319.28,613.634 1319.75,621.24 1317.28,627.603C1314.18,635.556 1306.51,641.811 1296.96,644.039C1283.78,646.814 1267.63,643.716 1251.48,636.912C1238.91,631.612 1226.4,624.261 1215.45,615.713C1213.74,614.53 1212.5,614.933 1211.88,616.524L1211.65,617.121L1205.7,641.692C1205.55,643.479 1205.86,644.536 1207.26,645.588C1216.35,651.962 1226.83,657.535 1237.7,662.115C1259.44,671.274 1283.19,676.191 1300.88,672.998C1324.78,669.181 1340.05,655.48 1346.47,638.977ZM1370.65,725.414L1370.23,725.239C1369.15,724.783 1368.06,724.055 1367.29,722.882C1366.54,721.738 1366.29,720.461 1366.32,719.22L1365.35,694.626L1365.38,694.389C1365.4,694.263 1365.41,694.142 1365.42,694.001L1365.42,693.964C1365.44,693.84 1365.45,693.682 1365.47,693.53C1365.51,693.196 1365.58,692.676 1365.8,692.117C1366.28,690.888 1367.2,689.773 1368.6,689.238C1369.93,688.729 1371.3,688.893 1372.49,689.367C1395.43,697.18 1419,703.422 1439.47,700.467C1453.58,698.158 1465.85,688.142 1470.31,676.672C1472.55,670.912 1472.78,664.87 1470.52,659.298C1468.26,653.738 1463.36,648.269 1454.65,643.938L1448.92,641.293C1432.57,634.414 1408.48,628.779 1380.04,626.605C1378.99,626.661 1378.13,626.289 1377.79,626.137L1377.77,626.131C1377.75,626.12 1377.73,626.111 1377.71,626.103C1376.64,625.655 1375.61,624.864 1374.97,623.603C1374.36,622.399 1374.28,621.108 1374.45,619.936L1377.26,596.23L1377.78,594.877C1378.2,593.806 1378.93,592.758 1380.05,592.07C1381.17,591.385 1382.48,591.176 1383.8,591.457C1413.94,595.571 1440.56,602.104 1460.73,610.603L1460.77,610.621L1466.96,613.463L1466.98,613.471C1485.53,622.241 1497.07,634.342 1502.6,647.793C1508.12,661.232 1507.5,675.658 1502.39,688.8C1493.56,711.484 1471.05,730.584 1442.82,734.764L1442.81,734.765C1423.06,737.654 1397.43,734.349 1370.76,725.45L1370.65,725.414ZM1383.34,594.441C1382.02,594.117 1381.01,594.849 1380.55,596.042L1380.16,597.036L1377.4,620.402C1377.16,621.924 1377.71,622.849 1378.8,623.307C1379.26,623.503 1379.57,623.633 1379.96,623.565C1408.75,625.745 1433.28,631.451 1450.05,638.516L1455.87,641.201C1474.35,650.375 1478.02,665.111 1473.07,677.837C1468.2,690.363 1455.02,701.01 1439.97,703.463C1418.71,706.54 1394.49,700.039 1371.51,692.209C1370.11,691.62 1369.03,692.088 1368.56,693.281C1368.45,693.572 1368.42,693.898 1368.38,694.31C1368.37,694.462 1368.35,694.626 1368.33,694.804L1369.29,719.276C1369.22,720.865 1369.92,721.854 1371.32,722.443L1371.63,722.574C1398.02,731.38 1423.17,734.569 1442.33,731.766C1469.57,727.735 1491.19,709.308 1499.62,687.635C1509.37,662.582 1501.8,633.244 1465.77,616.214L1459.64,613.398C1439.77,605.024 1413.37,598.534 1383.34,594.441ZM1512.61,595.265C1513.91,596.204 1514.9,597.541 1515.12,599.288C1515.32,600.864 1514.82,602.284 1514.29,603.361L1514.21,603.505L1502.53,621.865C1501.72,623.171 1500.46,624.32 1498.75,624.62C1497.02,624.923 1495.43,624.26 1494.25,623.194C1469.21,603.507 1440.05,587.775 1414.79,575.983L1414.7,575.94L1414.61,575.892C1413.25,575.141 1411.96,573.915 1411.47,572.133C1410.98,570.319 1411.51,568.612 1412.45,567.291L1424.11,549.742C1424.81,548.465 1425.89,547.461 1427.34,547.024C1428.8,546.583 1430.25,546.831 1431.48,547.346L1431.58,547.389L1431.68,547.439C1457.66,560.704 1489.43,578.5 1512.61,595.265ZM1511.63,601.956C1512.48,600.232 1512.48,598.843 1510.92,597.726C1487.93,581.097 1456.32,563.383 1430.39,550.142C1428.84,549.488 1427.44,549.825 1426.67,551.351L1414.89,569.07C1413.73,570.663 1414.2,572.249 1415.99,573.233C1441.38,585.088 1470.81,600.958 1496.13,620.883C1497.45,622.134 1499,621.863 1500.01,620.204L1511.63,601.956ZM1513.46,737.863C1512.38,738.973 1510.94,739.922 1509.15,739.874C1507.39,739.827 1506.03,738.818 1505.09,737.81L1489.01,720.606C1488.07,719.599 1487.13,718.155 1487.11,716.288C1487.09,714.405 1488.01,712.897 1489.07,711.779L1568.21,625.742L1568.23,625.719C1570.65,623.208 1574.41,623.377 1576.62,625.746L1595.98,646.465L1603.77,622.819L1603.79,622.761C1605.07,619.147 1608.8,617.226 1612.44,618.746L1642.53,631.3C1644.38,632.072 1645.87,633.424 1646.64,635.268C1647.4,637.08 1647.31,638.998 1646.73,640.67L1646.72,640.699L1646.7,640.728L1593.54,782.3C1592.9,784.081 1591.82,785.731 1589.96,786.49C1588.13,787.237 1586.24,786.839 1584.68,786.189L1560.56,776.127C1559,775.477 1557.35,774.398 1556.45,772.512C1555.53,770.594 1555.73,768.576 1556.36,766.791L1591.62,659.705L1513.46,737.863ZM1511.43,735.647L1593.71,653.382L1594.79,650.089C1594.65,649.609 1594.38,649.134 1593.96,648.688L1574.54,627.91C1573.43,626.719 1571.52,626.626 1570.28,627.911L1491.15,713.945C1489.6,715.551 1489.73,716.987 1491.09,718.442L1507.17,735.647C1508.53,737.103 1509.89,737.254 1511.43,735.647ZM1559.14,767.914C1558.18,770.639 1559.12,772.282 1561.55,773.297L1585.68,783.36C1588.11,784.375 1589.82,783.839 1590.78,781.114L1643.96,639.515C1644.72,637.335 1643.97,635.145 1641.54,634.13L1611.44,621.576C1609.45,620.745 1607.33,621.735 1606.56,623.916L1597.81,650.481C1597.83,650.693 1597.83,650.908 1597.82,651.126C1597.76,652.612 1597.18,653.911 1596.35,654.93L1559.14,767.914ZM1458.57,738.05C1467.49,728.763 1480.43,729.363 1488.92,738.452C1497.44,747.569 1497.66,761.097 1488.76,770.357C1479.9,779.584 1466.93,779.402 1458.38,770.25C1449.85,761.126 1449.68,747.304 1458.57,738.05ZM1460.62,740.242C1452.9,748.275 1453.04,760.146 1460.46,768.087C1467.88,776.027 1479,776.198 1486.71,768.166C1494.43,760.133 1494.27,748.556 1486.85,740.615C1479.42,732.675 1468.33,732.21 1460.62,740.242ZM1551.49,842.933C1536.74,836.778 1529.37,821.06 1534.74,805.818C1540.13,790.532 1555.19,784.537 1569.9,790.673C1584.58,796.795 1592.37,812.285 1586.97,827.605C1581.59,842.881 1566.21,849.073 1551.49,842.933ZM1552.49,840.103C1565.77,845.642 1579.4,840.076 1584.2,826.45C1589,812.824 1582.18,799.042 1568.9,793.503C1555.63,787.964 1542.31,793.347 1537.51,806.973C1532.71,820.599 1539.21,834.565 1552.49,840.103Z" style="fill:white;"/>
</svg>
