<svg width="1720" height="1160" viewBox="0 0 1720 1160" fill="none" xmlns="http://www.w3.org/2000/svg">
<path d="M901.05 258.594C901.343 258.543 901.96 258.364 902.243 257.636C902.126 257.937 901.999 258.263 901.657 258.44C901.579 258.641 901.294 258.668 901.02 258.67L901.05 258.594Z" fill="black"/>
<path d="M901.05 258.594C901.343 258.543 901.96 258.364 902.243 257.636C902.126 257.937 901.999 258.263 901.657 258.44C901.579 258.641 901.294 258.668 901.02 258.67L901.05 258.594Z" fill="url(#paint0_linear_685_56)"/>
<path d="M902.654 255.878C903.103 254.722 904.277 254.516 905.931 255.183C911.451 257.86 916.971 260.536 922.609 262.911C954.321 276.272 983.938 283.079 1007.22 280.169C1034.9 277.184 1057.36 258.785 1066.07 236.404C1076.47 209.676 1067.08 176.893 1021.03 157.495L1021.03 157.492C1016.8 155.712 1012.57 153.931 1007.64 152.555C968.642 140.362 928.596 135.069 895.47 131.667C895.47 131.667 895.45 131.717 895.205 131.643C894.922 131.735 894.521 131.562 894.273 131.455L894.272 131.454C894.246 131.443 894.222 131.432 894.2 131.423C893.73 131.225 893.308 130.901 892.965 130.376C892.949 130.302 892.929 130.218 892.906 130.127C892.795 129.667 892.635 129.006 892.692 128.273L892.711 128.224L895.273 92.114L895.332 91.9638C895.263 91.4378 895.439 90.9855 895.605 90.5585C895.83 89.9807 896.26 89.5779 896.642 89.3001C897.023 89.0222 897.815 89.0921 898.323 89.1895C898.558 89.2885 898.569 89.2625 898.569 89.2625C938.135 95.0854 982.173 103.467 1027.16 118.559C1031.97 120.237 1036.44 122.118 1040.9 123.998C1075.9 138.744 1096.99 159.734 1106.96 182.589C1116.74 205.245 1115.91 229.889 1107.3 252.019C1093.26 288.091 1059.15 317.454 1018.95 322.388C981.416 326.806 938.57 314.66 903.216 299.415C901.337 298.623 900.758 297.298 900.689 295.368C900.689 295.368 902.206 259.841 902.273 257.559L902.654 255.878Z" fill="black"/>
<path d="M902.654 255.878C903.103 254.722 904.277 254.516 905.931 255.183C911.451 257.86 916.971 260.536 922.609 262.911C954.321 276.272 983.938 283.079 1007.22 280.169C1034.9 277.184 1057.36 258.785 1066.07 236.404C1076.47 209.676 1067.08 176.893 1021.03 157.495L1021.03 157.492C1016.8 155.712 1012.57 153.931 1007.64 152.555C968.642 140.362 928.596 135.069 895.47 131.667C895.47 131.667 895.45 131.717 895.205 131.643C894.922 131.735 894.521 131.562 894.273 131.455L894.272 131.454C894.246 131.443 894.222 131.432 894.2 131.423C893.73 131.225 893.308 130.901 892.965 130.376C892.949 130.302 892.929 130.218 892.906 130.127C892.795 129.667 892.635 129.006 892.692 128.273L892.711 128.224L895.273 92.114L895.332 91.9638C895.263 91.4378 895.439 90.9855 895.605 90.5585C895.83 89.9807 896.26 89.5779 896.642 89.3001C897.023 89.0222 897.815 89.0921 898.323 89.1895C898.558 89.2885 898.569 89.2625 898.569 89.2625C938.135 95.0854 982.173 103.467 1027.16 118.559C1031.97 120.237 1036.44 122.118 1040.9 123.998C1075.9 138.744 1096.99 159.734 1106.96 182.589C1116.74 205.245 1115.91 229.889 1107.3 252.019C1093.26 288.091 1059.15 317.454 1018.95 322.388C981.416 326.806 938.57 314.66 903.216 299.415C901.337 298.623 900.758 297.298 900.689 295.368C900.689 295.368 902.206 259.841 902.273 257.559L902.654 255.878Z" fill="url(#paint1_linear_685_56)"/>
<path fill-rule="evenodd" clip-rule="evenodd" d="M1423.97 356.858L1413.97 356.535C1413.6 356.599 1413.24 356.661 1412.81 356.478C1411.79 356.05 1411.35 355.002 1411.5 353.765C1411.85 347.211 1411.62 339.115 1410.89 331.454L1400.48 358.206L1426.89 369.331C1428.48 370.003 1428.99 371.298 1428.34 372.97L1421.33 390.99C1420.68 392.662 1419.45 393.224 1417.85 392.552L1391.45 381.427L1374.11 427.31C1383.4 439.442 1391.76 453.991 1396.7 464.723C1397.14 465.771 1397.07 466.389 1396.78 467.132C1396.56 467.689 1396.2 468.186 1395.55 468.56L1377.95 480.387C1377.22 480.947 1376.35 481.013 1375.77 480.769C1375.19 480.524 1374.68 480.094 1374.39 479.106C1371.41 470.281 1367.34 461.647 1362.69 453.633C1355.88 463.308 1347.41 468.602 1337.11 469.454C1329.65 469.984 1321.67 468.785 1314.56 465.79C1305.13 461.817 1297.07 454.747 1292.78 444.939C1289.07 436.241 1289.13 426.536 1292.39 418.177C1296 408.888 1303.38 401.189 1313.53 398.112C1323.02 394.977 1332.52 396.169 1341.37 399.897C1346.31 401.976 1350.95 404.797 1355.23 408.115L1368.82 371.892L1320.29 351.661C1318.69 350.989 1318.18 349.693 1318.83 348.021L1325.91 329.815C1326.56 328.143 1327.8 327.582 1329.39 328.254L1377.56 348.548L1388.11 320.127C1388.76 318.455 1389.99 317.893 1391.59 318.565L1410.16 326.39C1409.87 325.405 1409.65 324.236 1409.43 323.067L1409.43 323.065L1409.43 323.055L1409.43 323.049C1409.35 322.372 1409.28 321.694 1409.5 321.139C1409.79 320.396 1410.66 319.897 1411.82 319.953L1420.74 320.468C1420.87 320.467 1421 320.462 1421.12 320.457C1421.43 320.444 1421.68 320.434 1421.89 320.523C1422.77 320.89 1423.35 321.568 1423.57 322.741C1426.19 332.928 1427.65 344.355 1426.87 354.187C1426.87 354.619 1426.73 354.991 1426.65 355.177C1426.22 356.291 1425.5 356.851 1423.97 356.858ZM1319.65 420.151C1316.39 421.588 1314.14 424.317 1312.99 427.29C1311.83 430.262 1311.76 433.477 1312.93 436.129C1314.6 440.077 1317.87 442.966 1321.49 444.494C1324.97 445.961 1328.89 446.314 1332.8 445.368C1339.18 443.731 1343.45 438.396 1346.64 431.52C1342.06 426.349 1337.27 422.601 1332.77 420.706C1327.98 418.689 1323.64 418.586 1319.65 420.151Z" fill="black"/>
<path fill-rule="evenodd" clip-rule="evenodd" d="M1423.97 356.858L1413.97 356.535C1413.6 356.599 1413.24 356.661 1412.81 356.478C1411.79 356.05 1411.35 355.002 1411.5 353.765C1411.85 347.211 1411.62 339.115 1410.89 331.454L1400.48 358.206L1426.89 369.331C1428.48 370.003 1428.99 371.298 1428.34 372.97L1421.33 390.99C1420.68 392.662 1419.45 393.224 1417.85 392.552L1391.45 381.427L1374.11 427.31C1383.4 439.442 1391.76 453.991 1396.7 464.723C1397.14 465.771 1397.07 466.389 1396.78 467.132C1396.56 467.689 1396.2 468.186 1395.55 468.56L1377.95 480.387C1377.22 480.947 1376.35 481.013 1375.77 480.769C1375.19 480.524 1374.68 480.094 1374.39 479.106C1371.41 470.281 1367.34 461.647 1362.69 453.633C1355.88 463.308 1347.41 468.602 1337.11 469.454C1329.65 469.984 1321.67 468.785 1314.56 465.79C1305.13 461.817 1297.07 454.747 1292.78 444.939C1289.07 436.241 1289.13 426.536 1292.39 418.177C1296 408.888 1303.38 401.189 1313.53 398.112C1323.02 394.977 1332.52 396.169 1341.37 399.897C1346.31 401.976 1350.95 404.797 1355.23 408.115L1368.82 371.892L1320.29 351.661C1318.69 350.989 1318.18 349.693 1318.83 348.021L1325.91 329.815C1326.56 328.143 1327.8 327.582 1329.39 328.254L1377.56 348.548L1388.11 320.127C1388.76 318.455 1389.99 317.893 1391.59 318.565L1410.16 326.39C1409.87 325.405 1409.65 324.236 1409.43 323.067L1409.43 323.065L1409.43 323.055L1409.43 323.049C1409.35 322.372 1409.28 321.694 1409.5 321.139C1409.79 320.396 1410.66 319.897 1411.82 319.953L1420.74 320.468C1420.87 320.467 1421 320.462 1421.12 320.457C1421.43 320.444 1421.68 320.434 1421.89 320.523C1422.77 320.89 1423.35 321.568 1423.57 322.741C1426.19 332.928 1427.65 344.355 1426.87 354.187C1426.87 354.619 1426.73 354.991 1426.65 355.177C1426.22 356.291 1425.5 356.851 1423.97 356.858ZM1319.65 420.151C1316.39 421.588 1314.14 424.317 1312.99 427.29C1311.83 430.262 1311.76 433.477 1312.93 436.129C1314.6 440.077 1317.87 442.966 1321.49 444.494C1324.97 445.961 1328.89 446.314 1332.8 445.368C1339.18 443.731 1343.45 438.396 1346.64 431.52C1342.06 426.349 1337.27 422.601 1332.77 420.706C1327.98 418.689 1323.64 418.586 1319.65 420.151Z" fill="url(#paint2_linear_685_56)"/>
<path d="M1243.17 430.524C1246.7 413.633 1253.42 393.328 1261.66 372.15C1273.58 341.497 1288.69 309.594 1302.66 284.989C1303.45 283.379 1304.76 283.064 1306.21 283.675L1325.65 293.163C1327.25 293.835 1327.68 295.318 1326.6 296.806C1312.49 319.186 1297.23 350.596 1285.59 380.505C1277.36 401.683 1270.86 422.297 1267.91 438.567L1267.76 439.371L1267.69 439.557C1267.26 440.671 1266.1 441.047 1264.65 440.436L1244.92 433.854L1244.77 433.792C1243.32 433.181 1242.74 432.071 1243.17 430.524Z" fill="black"/>
<path d="M1243.17 430.524C1246.7 413.633 1253.42 393.328 1261.66 372.15C1273.58 341.497 1288.69 309.594 1302.66 284.989C1303.45 283.379 1304.76 283.064 1306.21 283.675L1325.65 293.163C1327.25 293.835 1327.68 295.318 1326.6 296.806C1312.49 319.186 1297.23 350.596 1285.59 380.505C1277.36 401.683 1270.86 422.297 1267.91 438.567L1267.76 439.371L1267.69 439.557C1267.26 440.671 1266.1 441.047 1264.65 440.436L1244.92 433.854L1244.77 433.792C1243.32 433.181 1242.74 432.071 1243.17 430.524Z" fill="url(#paint3_linear_685_56)"/>
<path d="M1430.67 324.006C1430.6 323.326 1430.67 322.707 1430.89 322.15C1431.18 321.407 1431.9 320.847 1433.21 320.965L1441.69 321.296C1441.89 321.314 1442.07 321.321 1442.23 321.326C1442.58 321.339 1442.84 321.348 1443.14 321.474C1444.01 321.841 1444.45 322.457 1444.67 323.63C1447.21 332.272 1448.97 344.254 1448.84 354.145V354.146C1448.84 354.578 1448.84 355.011 1448.69 355.382C1448.33 356.311 1447.32 356.748 1446.08 356.877L1436.52 356.738C1436.41 356.738 1436.31 356.741 1436.22 356.744C1435.85 356.755 1435.55 356.765 1435.21 356.619C1434.19 356.192 1433.76 355.144 1433.9 353.907C1434.04 344.882 1433.15 333.266 1430.67 324.006Z" fill="black"/>
<path d="M1430.67 324.006C1430.6 323.326 1430.67 322.707 1430.89 322.15C1431.18 321.407 1431.9 320.847 1433.21 320.965L1441.69 321.296C1441.89 321.314 1442.07 321.321 1442.23 321.326C1442.58 321.339 1442.84 321.348 1443.14 321.474C1444.01 321.841 1444.45 322.457 1444.67 323.63C1447.21 332.272 1448.97 344.254 1448.84 354.145V354.146C1448.84 354.578 1448.84 355.011 1448.69 355.382C1448.33 356.311 1447.32 356.748 1446.08 356.877L1436.52 356.738C1436.41 356.738 1436.31 356.741 1436.22 356.744C1435.85 356.755 1435.55 356.765 1435.21 356.619C1434.19 356.192 1433.76 355.144 1433.9 353.907C1434.04 344.882 1433.15 333.266 1430.67 324.006Z" fill="url(#paint4_linear_685_56)"/>
<path d="M1518.66 468.44C1518.36 468.314 1517.9 468.285 1517.54 468.318L1511.26 468.337C1510.33 468.342 1509.65 468.877 1509.39 469.559C1509.2 470.049 1509.1 470.592 1509.41 471.292C1511.03 477.581 1512.16 486.627 1511.94 493.478C1511.99 494.829 1512.42 495.518 1513.22 495.855C1513.52 495.981 1513.88 495.958 1514.24 495.925L1521.17 496.041L1521.18 496.019C1522.27 495.908 1522.93 495.405 1523.24 494.595C1523.37 494.275 1523.49 493.956 1523.52 493.594C1523.67 486.616 1522.29 476.433 1520.1 470.104C1519.74 469.233 1519.26 468.693 1518.66 468.44Z" fill="black"/>
<path d="M1518.66 468.44C1518.36 468.314 1517.9 468.285 1517.54 468.318L1511.26 468.337C1510.33 468.342 1509.65 468.877 1509.39 469.559C1509.2 470.049 1509.1 470.592 1509.41 471.292C1511.03 477.581 1512.16 486.627 1511.94 493.478C1511.99 494.829 1512.42 495.518 1513.22 495.855C1513.52 495.981 1513.88 495.958 1514.24 495.925L1521.17 496.041L1521.18 496.019C1522.27 495.908 1522.93 495.405 1523.24 494.595C1523.37 494.275 1523.49 493.956 1523.52 493.594C1523.67 486.616 1522.29 476.433 1520.1 470.104C1519.74 469.233 1519.26 468.693 1518.66 468.44Z" fill="url(#paint5_linear_685_56)"/>
<path fill-rule="evenodd" clip-rule="evenodd" d="M1434.3 408.318L1434.2 408.573L1429.18 422.382C1428.86 423.182 1428.85 423.82 1429.01 424.308C1429.27 424.839 1429.69 425.241 1430.39 425.535C1444.37 431.138 1463.37 438.452 1479.25 444.557C1477.55 444.746 1475.81 445.02 1474.03 445.422C1457.13 449.426 1443.21 461.011 1437.58 475.471C1429.7 495.739 1438.1 521.641 1477.2 539.166C1477.9 539.46 1478.46 539.5 1478.99 539.328C1479.52 539.165 1480.02 538.791 1480.39 538.13L1480.4 538.108L1488.46 524.541C1488.98 523.804 1489.02 523.113 1488.88 522.571C1488.64 521.998 1488.23 521.554 1487.43 521.217C1473.55 515.369 1464.61 508.476 1459.79 501.446C1454.94 494.481 1454.2 487.433 1456.65 481.124C1461.32 469.115 1477.15 459.809 1498.57 458.825C1507.29 458.209 1515.57 460.233 1524.21 464.022C1524.91 464.316 1525.5 464.302 1525.94 464.045C1526.49 463.83 1526.91 463.36 1527.2 462.625L1532.42 449.198C1532.73 448.389 1532.75 447.75 1532.49 447.22C1532.33 446.731 1531.9 446.34 1531.2 446.045C1505.04 435.617 1462.05 417.653 1437.08 407.135C1436.48 406.882 1435.91 406.853 1435.49 407.047C1434.96 407.219 1434.56 407.646 1434.3 408.318ZM1434.51 409.264C1434.51 409.264 1434.22 409.106 1434.21 408.84C1434.15 408.989 1434.31 409.18 1434.51 409.264Z" fill="black"/>
<path fill-rule="evenodd" clip-rule="evenodd" d="M1434.3 408.318L1434.2 408.573L1429.18 422.382C1428.86 423.182 1428.85 423.82 1429.01 424.308C1429.27 424.839 1429.69 425.241 1430.39 425.535C1444.37 431.138 1463.37 438.452 1479.25 444.557C1477.55 444.746 1475.81 445.02 1474.03 445.422C1457.13 449.426 1443.21 461.011 1437.58 475.471C1429.7 495.739 1438.1 521.641 1477.2 539.166C1477.9 539.46 1478.46 539.5 1478.99 539.328C1479.52 539.165 1480.02 538.791 1480.39 538.13L1480.4 538.108L1488.46 524.541C1488.98 523.804 1489.02 523.113 1488.88 522.571C1488.64 521.998 1488.23 521.554 1487.43 521.217C1473.55 515.369 1464.61 508.476 1459.79 501.446C1454.94 494.481 1454.2 487.433 1456.65 481.124C1461.32 469.115 1477.15 459.809 1498.57 458.825C1507.29 458.209 1515.57 460.233 1524.21 464.022C1524.91 464.316 1525.5 464.302 1525.94 464.045C1526.49 463.83 1526.91 463.36 1527.2 462.625L1532.42 449.198C1532.73 448.389 1532.75 447.75 1532.49 447.22C1532.33 446.731 1531.9 446.34 1531.2 446.045C1505.04 435.617 1462.05 417.653 1437.08 407.135C1436.48 406.882 1435.91 406.853 1435.49 407.047C1434.96 407.219 1434.56 407.646 1434.3 408.318ZM1434.51 409.264C1434.51 409.264 1434.22 409.106 1434.21 408.84C1434.15 408.989 1434.31 409.18 1434.51 409.264Z" fill="url(#paint6_linear_685_56)"/>
<path d="M1492.4 470.809L1492.39 470.83C1494.06 477.885 1494.85 486.315 1494.48 493.528C1494.4 494.646 1494.86 495.558 1495.66 495.895C1495.78 495.947 1495.96 495.958 1496.22 495.974C1496.38 495.983 1496.56 495.995 1496.77 496.018L1503.9 495.909C1504.93 495.958 1505.69 495.497 1506.08 494.506C1506.2 494.197 1506.22 493.849 1506.25 493.49L1506.25 493.452C1506.36 486.315 1505.26 476.29 1503.27 469.758C1503.02 468.908 1502.54 468.347 1501.94 468.094C1501.54 467.926 1501.24 467.81 1500.78 467.791L1494.44 467.949C1493.41 467.911 1492.63 468.414 1492.37 469.086C1492.18 469.576 1492.19 470.15 1492.4 470.809Z" fill="black"/>
<path d="M1492.4 470.809L1492.39 470.83C1494.06 477.885 1494.85 486.315 1494.48 493.528C1494.4 494.646 1494.86 495.558 1495.66 495.895C1495.78 495.947 1495.96 495.958 1496.22 495.974C1496.38 495.983 1496.56 495.995 1496.77 496.018L1503.9 495.909C1504.93 495.958 1505.69 495.497 1506.08 494.506C1506.2 494.197 1506.22 493.849 1506.25 493.49L1506.25 493.452C1506.36 486.315 1505.26 476.29 1503.27 469.758C1503.02 468.908 1502.54 468.347 1501.94 468.094C1501.54 467.926 1501.24 467.81 1500.78 467.791L1494.44 467.949C1493.41 467.911 1492.63 468.414 1492.37 469.086C1492.18 469.576 1492.19 470.15 1492.4 470.809Z" fill="url(#paint7_linear_685_56)"/>
<path d="M1188.41 419.035C1189.24 419.388 1190.36 419.525 1191.34 418.986L1218.39 408.478L1218.4 408.443C1219.83 407.778 1220.5 407.061 1220.82 406.241C1221.25 405.117 1221.25 404.12 1220.58 402.842C1201.41 364.101 1171.29 321.994 1155.06 299.691L1155.07 299.672C1152.98 297.047 1152.26 294.878 1152.92 293.183C1153.66 291.275 1155.73 289.984 1158.9 289.328C1167.69 287.086 1179.75 284.514 1193.32 281.622C1216.75 276.626 1244.68 270.672 1268.06 263.797L1268.09 263.708C1269.68 263.113 1270.35 262.398 1270.67 261.577C1271.09 260.489 1270.92 259.439 1270.58 258.319C1270.58 258.319 1270.42 258.231 1270.42 258.213L1258.19 232.152C1257.83 231.068 1256.94 230.359 1256.1 230.007C1255.27 229.655 1254.15 229.517 1253.16 230.056C1225.21 240.747 1192.64 248.363 1167.4 254.269C1157.14 256.668 1148.09 258.785 1141.04 260.711C1130.19 264.092 1122.58 270.662 1119.41 278.813C1116.15 287.179 1117.31 297.714 1123.68 308.847C1123.68 308.847 1123.84 308.917 1123.84 308.935C1128.5 316.606 1133.89 324.879 1139.61 333.653C1155.56 358.144 1174.06 386.543 1186.41 416.659C1186.77 417.744 1187.57 418.683 1188.41 419.035Z" fill="black"/>
<path d="M1188.41 419.035C1189.24 419.388 1190.36 419.525 1191.34 418.986L1218.39 408.478L1218.4 408.443C1219.83 407.778 1220.5 407.061 1220.82 406.241C1221.25 405.117 1221.25 404.12 1220.58 402.842C1201.41 364.101 1171.29 321.994 1155.06 299.691L1155.07 299.672C1152.98 297.047 1152.26 294.878 1152.92 293.183C1153.66 291.275 1155.73 289.984 1158.9 289.328C1167.69 287.086 1179.75 284.514 1193.32 281.622C1216.75 276.626 1244.68 270.672 1268.06 263.797L1268.09 263.708C1269.68 263.113 1270.35 262.398 1270.67 261.577C1271.09 260.489 1270.92 259.439 1270.58 258.319C1270.58 258.319 1270.42 258.231 1270.42 258.213L1258.19 232.152C1257.83 231.068 1256.94 230.359 1256.1 230.007C1255.27 229.655 1254.15 229.517 1253.16 230.056C1225.21 240.747 1192.64 248.363 1167.4 254.269C1157.14 256.668 1148.09 258.785 1141.04 260.711C1130.19 264.092 1122.58 270.662 1119.41 278.813C1116.15 287.179 1117.31 297.714 1123.68 308.847C1123.68 308.847 1123.84 308.917 1123.84 308.935C1128.5 316.606 1133.89 324.879 1139.61 333.653C1155.56 358.144 1174.06 386.543 1186.41 416.659C1186.77 417.744 1187.57 418.683 1188.41 419.035Z" fill="url(#paint8_linear_685_56)"/>
<path d="M867.277 485.906L867.279 485.906C867.44 485.879 867.697 485.836 867.88 485.667L867.832 485.793C867.724 485.819 867.651 485.852 867.588 485.88C867.488 485.926 867.414 485.959 867.268 485.93L867.277 485.906Z" fill="black"/>
<path d="M867.277 485.906L867.279 485.906C867.44 485.879 867.697 485.836 867.88 485.667L867.832 485.793C867.724 485.819 867.651 485.852 867.588 485.88C867.488 485.926 867.414 485.959 867.268 485.93L867.277 485.906Z" fill="url(#paint9_linear_685_56)"/>
<path d="M868.099 485.105L867.88 485.667C868.006 485.551 868.097 485.376 868.099 485.105Z" fill="black"/>
<path d="M868.099 485.105L867.88 485.667C868.006 485.551 868.097 485.376 868.099 485.105Z" fill="url(#paint10_linear_685_56)"/>
<path d="M868.478 483.475C868.925 482.327 870.269 482.146 871.8 482.791C876.945 485.279 882.089 487.766 887.34 489.979C916.88 502.424 944.434 508.853 966.041 506.338C991.502 503.737 1012.24 487.099 1020.17 466.699C1029.63 442.374 1020.68 412.372 978.007 394.395L978.001 394.393C974.064 392.734 970.126 391.075 965.538 389.783C929.242 378.337 892.219 373.342 861.216 369.895L861.189 369.963C860.68 369.962 860.245 369.779 860.026 369.687C859.588 369.502 859.202 369.18 858.889 368.675C858.585 368.146 858.583 367.503 858.659 366.654L858.677 366.608L860.84 333.547C860.849 333.524 860.801 333.483 860.753 333.443C860.705 333.403 860.657 333.362 860.666 333.339L861.156 332.077C861.38 331.504 861.576 330.999 862.157 330.817C862.527 330.519 863.044 330.496 863.745 330.658L863.964 330.75C900.764 336.318 941.716 344.304 983.594 358.422C988.078 359.991 992.237 361.743 996.395 363.494C1029 377.231 1048.71 396.619 1058.11 417.621C1067.53 438.577 1066.88 461.192 1059 481.455C1046.16 514.477 1014.62 541.201 977.079 545.39C942.228 549.215 902.344 537.833 869.41 523.637C867.659 522.899 866.921 521.521 866.872 519.684C866.872 519.684 868.131 486.987 868.117 485.059L868.478 483.475Z" fill="black"/>
<path d="M868.478 483.475C868.925 482.327 870.269 482.146 871.8 482.791C876.945 485.279 882.089 487.766 887.34 489.979C916.88 502.424 944.434 508.853 966.041 506.338C991.502 503.737 1012.24 487.099 1020.17 466.699C1029.63 442.374 1020.68 412.372 978.007 394.395L978.001 394.393C974.064 392.734 970.126 391.075 965.538 389.783C929.242 378.337 892.219 373.342 861.216 369.895L861.189 369.963C860.68 369.962 860.245 369.779 860.026 369.687C859.588 369.502 859.202 369.18 858.889 368.675C858.585 368.146 858.583 367.503 858.659 366.654L858.677 366.608L860.84 333.547C860.849 333.524 860.801 333.483 860.753 333.443C860.705 333.403 860.657 333.362 860.666 333.339L861.156 332.077C861.38 331.504 861.576 330.999 862.157 330.817C862.527 330.519 863.044 330.496 863.745 330.658L863.964 330.75C900.764 336.318 941.716 344.304 983.594 358.422C988.078 359.991 992.237 361.743 996.395 363.494C1029 377.231 1048.71 396.619 1058.11 417.621C1067.53 438.577 1066.88 461.192 1059 481.455C1046.16 514.477 1014.62 541.201 977.079 545.39C942.228 549.215 902.344 537.833 869.41 523.637C867.659 522.899 866.921 521.521 866.872 519.684C866.872 519.684 868.131 486.987 868.117 485.059L868.478 483.475Z" fill="url(#paint11_linear_685_56)"/>
<path d="M1146.21 636.298L1146.21 636.279L1173.09 625.701C1173.26 625.771 1173.27 625.754 1173.27 625.754C1174.69 625.106 1175.17 624.374 1175.48 623.571C1175.9 622.483 1175.89 621.521 1175.2 620.278C1156.2 581.608 1126.08 539.483 1109.69 517.11C1107.61 514.449 1106.91 512.244 1107.59 510.514C1108.34 508.569 1110.41 507.242 1113.6 506.551C1122.14 504.414 1133.67 501.954 1146.64 499.186L1146.64 499.186L1146.65 499.185L1146.65 499.185L1146.65 499.185L1146.65 499.184C1170.37 494.124 1198.9 488.037 1222.76 481.02C1222.94 481.055 1222.95 481.036 1222.95 481.019C1224.37 480.389 1225.03 479.692 1225.33 478.907C1225.74 477.854 1225.73 476.894 1225.2 475.757L1225.21 475.721L1212.97 449.659C1212.44 448.522 1211.55 447.814 1210.88 447.532C1210.21 447.25 1209.1 447.113 1207.96 447.546C1180.38 458.188 1148.1 465.759 1122.97 471.654L1122.96 471.654C1112.43 474.126 1103.15 476.303 1095.99 478.288C1084.98 481.58 1077.56 488.167 1074.4 496.283C1071.16 504.613 1072.34 515.095 1078.71 526.21L1078.71 526.229C1083.29 533.715 1088.53 541.759 1094.08 550.274C1110.16 574.936 1128.81 603.545 1141.28 633.953C1141.81 635.108 1142.62 636.011 1143.29 636.293C1143.96 636.575 1145.07 636.731 1146.21 636.298Z" fill="black"/>
<path d="M1146.21 636.298L1146.21 636.279L1173.09 625.701C1173.26 625.771 1173.27 625.754 1173.27 625.754C1174.69 625.106 1175.17 624.374 1175.48 623.571C1175.9 622.483 1175.89 621.521 1175.2 620.278C1156.2 581.608 1126.08 539.483 1109.69 517.11C1107.61 514.449 1106.91 512.244 1107.59 510.514C1108.34 508.569 1110.41 507.242 1113.6 506.551C1122.14 504.414 1133.67 501.954 1146.64 499.186L1146.64 499.186L1146.65 499.185L1146.65 499.185L1146.65 499.185L1146.65 499.184C1170.37 494.124 1198.9 488.037 1222.76 481.02C1222.94 481.055 1222.95 481.036 1222.95 481.019C1224.37 480.389 1225.03 479.692 1225.33 478.907C1225.74 477.854 1225.73 476.894 1225.2 475.757L1225.21 475.721L1212.97 449.659C1212.44 448.522 1211.55 447.814 1210.88 447.532C1210.21 447.25 1209.1 447.113 1207.96 447.546C1180.38 458.188 1148.1 465.759 1122.97 471.654L1122.96 471.654C1112.43 474.126 1103.15 476.303 1095.99 478.288C1084.98 481.58 1077.56 488.167 1074.4 496.283C1071.16 504.613 1072.34 515.095 1078.71 526.21L1078.71 526.229C1083.29 533.715 1088.53 541.759 1094.08 550.274C1110.16 574.936 1128.81 603.545 1141.28 633.953C1141.81 635.108 1142.62 636.011 1143.29 636.293C1143.96 636.575 1145.07 636.731 1146.21 636.298Z" fill="url(#paint12_linear_685_56)"/>
<path d="M1213.26 653.588C1222.35 659.962 1232.83 665.535 1243.7 670.115C1265.44 679.274 1289.19 684.191 1306.88 680.998C1330.78 677.181 1346.05 663.48 1352.47 646.977C1358.35 631.866 1356.46 614.41 1345.89 600.699C1338.97 591.536 1328.95 584.305 1317.31 579.399C1309.39 576.062 1300.69 573.788 1291.3 572.84C1296.99 571.291 1302.75 569.669 1308.58 568.026L1308.6 568.023C1324.3 563.599 1340.54 559.025 1357.39 555.328C1358.79 554.991 1359.64 554.193 1360.18 552.801L1366.76 535.9C1367.46 534.11 1366.91 532.724 1365.36 532.07C1349.03 525.423 1333.41 518.839 1317.63 512.19L1317.62 512.188L1317.6 512.18L1263.1 489.22C1261.4 488.5 1260.15 488.903 1259.38 490.891L1251.34 511.57C1250.64 513.359 1251.19 514.747 1252.89 515.466C1267.84 521.592 1283.59 527.679 1299.51 533.834C1305.18 536.025 1310.87 538.224 1316.56 540.438C1309.1 542.579 1301.58 544.783 1293.84 547.054C1268.02 554.631 1239.66 562.95 1202.29 572.136C1201.13 572.339 1200.35 572.938 1200.05 573.734C1199.81 574.33 1199.74 574.993 1200.13 575.851L1206.36 598.38C1206.52 599.372 1207.14 600.097 1207.92 600.424C1208.54 600.686 1209.08 600.683 1209.93 600.348C1215.99 598.52 1221.63 596.926 1226.84 595.456L1226.85 595.454L1226.85 595.454C1230.45 594.438 1233.84 593.481 1237.01 592.547C1262.14 586.937 1282.32 589.885 1296.76 595.97C1308.72 601.007 1316.64 608.047 1320.38 614.248C1325.28 621.635 1325.75 629.24 1323.28 635.603C1320.18 643.556 1312.51 649.811 1302.96 652.04C1289.78 654.814 1273.63 651.716 1257.48 644.912C1244.91 639.613 1232.4 632.262 1221.45 623.713C1219.74 622.53 1218.5 622.933 1217.88 624.524L1217.65 625.121L1211.7 649.692C1211.55 651.479 1211.86 652.536 1213.26 653.588Z" fill="black"/>
<path d="M1213.26 653.588C1222.35 659.962 1232.83 665.535 1243.7 670.115C1265.44 679.274 1289.19 684.191 1306.88 680.998C1330.78 677.181 1346.05 663.48 1352.47 646.977C1358.35 631.866 1356.46 614.41 1345.89 600.699C1338.97 591.536 1328.95 584.305 1317.31 579.399C1309.39 576.062 1300.69 573.788 1291.3 572.84C1296.99 571.291 1302.75 569.669 1308.58 568.026L1308.6 568.023C1324.3 563.599 1340.54 559.025 1357.39 555.328C1358.79 554.991 1359.64 554.193 1360.18 552.801L1366.76 535.9C1367.46 534.11 1366.91 532.724 1365.36 532.07C1349.03 525.423 1333.41 518.839 1317.63 512.19L1317.62 512.188L1317.6 512.18L1263.1 489.22C1261.4 488.5 1260.15 488.903 1259.38 490.891L1251.34 511.57C1250.64 513.359 1251.19 514.747 1252.89 515.466C1267.84 521.592 1283.59 527.679 1299.51 533.834C1305.18 536.025 1310.87 538.224 1316.56 540.438C1309.1 542.579 1301.58 544.783 1293.84 547.054C1268.02 554.631 1239.66 562.95 1202.29 572.136C1201.13 572.339 1200.35 572.938 1200.05 573.734C1199.81 574.33 1199.74 574.993 1200.13 575.851L1206.36 598.38C1206.52 599.372 1207.14 600.097 1207.92 600.424C1208.54 600.686 1209.08 600.683 1209.93 600.348C1215.99 598.52 1221.63 596.926 1226.84 595.456L1226.85 595.454L1226.85 595.454C1230.45 594.438 1233.84 593.481 1237.01 592.547C1262.14 586.937 1282.32 589.885 1296.76 595.97C1308.72 601.007 1316.64 608.047 1320.38 614.248C1325.28 621.635 1325.75 629.24 1323.28 635.603C1320.18 643.556 1312.51 649.811 1302.96 652.04C1289.78 654.814 1273.63 651.716 1257.48 644.912C1244.91 639.613 1232.4 632.262 1221.45 623.713C1219.74 622.53 1218.5 622.933 1217.88 624.524L1217.65 625.121L1211.7 649.692C1211.55 651.479 1211.86 652.536 1213.26 653.588Z" fill="url(#paint13_linear_685_56)"/>
<path d="M1377.63 730.574L1377.32 730.443C1375.92 729.854 1375.22 728.865 1375.29 727.277L1374.33 702.804C1374.35 702.626 1374.37 702.462 1374.38 702.31C1374.42 701.898 1374.45 701.572 1374.56 701.281C1375.03 700.089 1376.11 699.62 1377.51 700.209C1400.49 708.04 1424.71 714.54 1445.97 711.463C1461.02 709.01 1474.2 698.363 1479.07 685.837C1484.02 673.111 1480.35 658.376 1461.87 649.201L1456.05 646.517C1439.28 639.451 1414.75 633.745 1385.96 631.565C1385.57 631.633 1385.26 631.503 1384.8 631.307C1383.71 630.849 1383.16 629.924 1383.4 628.402L1386.16 605.036L1386.55 604.042C1387.01 602.849 1388.02 602.117 1389.34 602.442C1419.37 606.534 1445.77 613.024 1465.64 621.399L1471.77 624.214C1507.8 641.245 1515.37 670.582 1505.62 695.635C1497.19 717.308 1475.57 735.735 1448.33 739.767C1429.17 742.569 1404.02 739.38 1377.63 730.574Z" fill="black"/>
<path d="M1377.63 730.574L1377.32 730.443C1375.92 729.854 1375.22 728.865 1375.29 727.277L1374.33 702.804C1374.35 702.626 1374.37 702.462 1374.38 702.31C1374.42 701.898 1374.45 701.572 1374.56 701.281C1375.03 700.089 1376.11 699.62 1377.51 700.209C1400.49 708.04 1424.71 714.54 1445.97 711.463C1461.02 709.01 1474.2 698.363 1479.07 685.837C1484.02 673.111 1480.35 658.376 1461.87 649.201L1456.05 646.517C1439.28 639.451 1414.75 633.745 1385.96 631.565C1385.57 631.633 1385.26 631.503 1384.8 631.307C1383.71 630.849 1383.16 629.924 1383.4 628.402L1386.16 605.036L1386.55 604.042C1387.01 602.849 1388.02 602.117 1389.34 602.442C1419.37 606.534 1445.77 613.024 1465.64 621.399L1471.77 624.214C1507.8 641.245 1515.37 670.582 1505.62 695.635C1497.19 717.308 1475.57 735.735 1448.33 739.767C1429.17 742.569 1404.02 739.38 1377.63 730.574Z" fill="url(#paint14_linear_685_56)"/>
<path d="M1420.89 577.07L1432.67 559.351C1433.44 557.826 1434.84 557.488 1436.39 558.142C1462.32 571.383 1493.93 589.097 1516.92 605.726C1518.48 606.843 1518.48 608.232 1517.63 609.956L1506.01 628.204C1505 629.863 1503.45 630.134 1502.13 628.884C1476.81 608.958 1447.38 593.088 1421.99 581.233C1420.2 580.25 1419.73 578.664 1420.89 577.07Z" fill="black"/>
<path d="M1420.89 577.07L1432.67 559.351C1433.44 557.826 1434.84 557.488 1436.39 558.142C1462.32 571.383 1493.93 589.097 1516.92 605.726C1518.48 606.843 1518.48 608.232 1517.63 609.956L1506.01 628.204C1505 629.863 1503.45 630.134 1502.13 628.884C1476.81 608.958 1447.38 593.088 1421.99 581.233C1420.2 580.25 1419.73 578.664 1420.89 577.07Z" fill="url(#paint15_linear_685_56)"/>
<path d="M1497.09 726.442L1513.17 743.647C1514.53 745.103 1515.89 745.254 1517.43 743.647L1599.9 661.186C1601.14 659.901 1601.32 658.144 1599.96 656.688L1580.54 635.91C1579.43 634.719 1577.52 634.626 1576.28 635.911L1497.15 721.945C1495.6 723.551 1495.73 724.987 1497.09 726.442Z" fill="black"/>
<path d="M1497.09 726.442L1513.17 743.647C1514.53 745.103 1515.89 745.254 1517.43 743.647L1599.9 661.186C1601.14 659.901 1601.32 658.144 1599.96 656.688L1580.54 635.91C1579.43 634.719 1577.52 634.626 1576.28 635.911L1497.15 721.945C1495.6 723.551 1495.73 724.987 1497.09 726.442Z" fill="url(#paint16_linear_685_56)"/>
<path d="M1466.62 748.242C1458.9 756.275 1459.04 768.146 1466.46 776.087C1473.88 784.027 1485 784.198 1492.71 776.166C1500.43 768.133 1500.27 756.556 1492.85 748.616C1485.43 740.675 1474.33 740.21 1466.62 748.242Z" fill="black"/>
<path d="M1466.62 748.242C1458.9 756.275 1459.04 768.146 1466.46 776.087C1473.88 784.027 1485 784.198 1492.71 776.166C1500.43 768.133 1500.27 756.556 1492.85 748.616C1485.43 740.675 1474.33 740.21 1466.62 748.242Z" fill="url(#paint17_linear_685_56)"/>
<path d="M1591.68 791.36L1567.55 781.297C1565.12 780.282 1564.18 778.639 1565.14 775.914L1612.56 631.916C1613.33 629.736 1615.45 628.745 1617.44 629.576L1647.54 642.13C1649.97 643.145 1650.72 645.335 1649.96 647.516L1596.78 789.114C1595.82 791.839 1594.11 792.375 1591.68 791.36Z" fill="black"/>
<path d="M1591.68 791.36L1567.55 781.297C1565.12 780.282 1564.18 778.639 1565.14 775.914L1612.56 631.916C1613.33 629.736 1615.45 628.745 1617.44 629.576L1647.54 642.13C1649.97 643.145 1650.72 645.335 1649.96 647.516L1596.78 789.114C1595.82 791.839 1594.11 792.375 1591.68 791.36Z" fill="url(#paint18_linear_685_56)"/>
<path d="M1558.49 848.103C1545.21 842.565 1538.71 828.599 1543.51 814.973C1548.31 801.347 1561.63 795.965 1574.9 801.503C1588.18 807.042 1595 820.824 1590.2 834.45C1585.4 848.076 1571.77 853.642 1558.49 848.103Z" fill="black"/>
<path d="M1558.49 848.103C1545.21 842.565 1538.71 828.599 1543.51 814.973C1548.31 801.347 1561.63 795.965 1574.9 801.503C1588.18 807.042 1595 820.824 1590.2 834.45C1585.4 848.076 1571.77 853.642 1558.49 848.103Z" fill="url(#paint19_linear_685_56)"/>
<defs>
<linearGradient id="paint0_linear_685_56" x1="795.121" y1="-541.851" x2="613.72" y2="600.081" gradientUnits="userSpaceOnUse">
<stop stop-color="#F7C71B"/>
<stop offset="1" stop-color="#FF680A"/>
</linearGradient>
<linearGradient id="paint1_linear_685_56" x1="795.121" y1="-541.851" x2="613.72" y2="600.081" gradientUnits="userSpaceOnUse">
<stop stop-color="#F7C71B"/>
<stop offset="1" stop-color="#FF680A"/>
</linearGradient>
<linearGradient id="paint2_linear_685_56" x1="795.121" y1="-541.851" x2="613.72" y2="600.081" gradientUnits="userSpaceOnUse">
<stop stop-color="#F7C71B"/>
<stop offset="1" stop-color="#FF680A"/>
</linearGradient>
<linearGradient id="paint3_linear_685_56" x1="795.121" y1="-541.851" x2="613.72" y2="600.081" gradientUnits="userSpaceOnUse">
<stop stop-color="#F7C71B"/>
<stop offset="1" stop-color="#FF680A"/>
</linearGradient>
<linearGradient id="paint4_linear_685_56" x1="795.121" y1="-541.851" x2="613.72" y2="600.081" gradientUnits="userSpaceOnUse">
<stop stop-color="#F7C71B"/>
<stop offset="1" stop-color="#FF680A"/>
</linearGradient>
<linearGradient id="paint5_linear_685_56" x1="795.121" y1="-541.851" x2="613.72" y2="600.081" gradientUnits="userSpaceOnUse">
<stop stop-color="#F7C71B"/>
<stop offset="1" stop-color="#FF680A"/>
</linearGradient>
<linearGradient id="paint6_linear_685_56" x1="795.121" y1="-541.851" x2="613.72" y2="600.081" gradientUnits="userSpaceOnUse">
<stop stop-color="#F7C71B"/>
<stop offset="1" stop-color="#FF680A"/>
</linearGradient>
<linearGradient id="paint7_linear_685_56" x1="795.121" y1="-541.851" x2="613.72" y2="600.081" gradientUnits="userSpaceOnUse">
<stop stop-color="#F7C71B"/>
<stop offset="1" stop-color="#FF680A"/>
</linearGradient>
<linearGradient id="paint8_linear_685_56" x1="795.121" y1="-541.851" x2="613.72" y2="600.081" gradientUnits="userSpaceOnUse">
<stop stop-color="#F7C71B"/>
<stop offset="1" stop-color="#FF680A"/>
</linearGradient>
<linearGradient id="paint9_linear_685_56" x1="795.121" y1="-541.851" x2="613.72" y2="600.081" gradientUnits="userSpaceOnUse">
<stop stop-color="#F7C71B"/>
<stop offset="1" stop-color="#FF680A"/>
</linearGradient>
<linearGradient id="paint10_linear_685_56" x1="795.121" y1="-541.851" x2="613.72" y2="600.081" gradientUnits="userSpaceOnUse">
<stop stop-color="#F7C71B"/>
<stop offset="1" stop-color="#FF680A"/>
</linearGradient>
<linearGradient id="paint11_linear_685_56" x1="795.121" y1="-541.851" x2="613.72" y2="600.081" gradientUnits="userSpaceOnUse">
<stop stop-color="#F7C71B"/>
<stop offset="1" stop-color="#FF680A"/>
</linearGradient>
<linearGradient id="paint12_linear_685_56" x1="795.121" y1="-541.851" x2="613.72" y2="600.081" gradientUnits="userSpaceOnUse">
<stop stop-color="#F7C71B"/>
<stop offset="1" stop-color="#FF680A"/>
</linearGradient>
<linearGradient id="paint13_linear_685_56" x1="795.121" y1="-541.851" x2="613.72" y2="600.081" gradientUnits="userSpaceOnUse">
<stop stop-color="#F7C71B"/>
<stop offset="1" stop-color="#FF680A"/>
</linearGradient>
<linearGradient id="paint14_linear_685_56" x1="795.121" y1="-541.851" x2="613.72" y2="600.081" gradientUnits="userSpaceOnUse">
<stop stop-color="#F7C71B"/>
<stop offset="1" stop-color="#FF680A"/>
</linearGradient>
<linearGradient id="paint15_linear_685_56" x1="795.121" y1="-541.851" x2="613.72" y2="600.081" gradientUnits="userSpaceOnUse">
<stop stop-color="#F7C71B"/>
<stop offset="1" stop-color="#FF680A"/>
</linearGradient>
<linearGradient id="paint16_linear_685_56" x1="795.121" y1="-541.851" x2="613.72" y2="600.081" gradientUnits="userSpaceOnUse">
<stop stop-color="#F7C71B"/>
<stop offset="1" stop-color="#FF680A"/>
</linearGradient>
<linearGradient id="paint17_linear_685_56" x1="795.121" y1="-541.851" x2="613.72" y2="600.081" gradientUnits="userSpaceOnUse">
<stop stop-color="#F7C71B"/>
<stop offset="1" stop-color="#FF680A"/>
</linearGradient>
<linearGradient id="paint18_linear_685_56" x1="795.121" y1="-541.851" x2="613.72" y2="600.081" gradientUnits="userSpaceOnUse">
<stop stop-color="#F7C71B"/>
<stop offset="1" stop-color="#FF680A"/>
</linearGradient>
<linearGradient id="paint19_linear_685_56" x1="795.121" y1="-541.851" x2="613.72" y2="600.081" gradientUnits="userSpaceOnUse">
<stop stop-color="#F7C71B"/>
<stop offset="1" stop-color="#FF680A"/>
</linearGradient>
</defs>
</svg>
