<svg width="206" height="206" viewBox="0 0 206 206" fill="none" xmlns="http://www.w3.org/2000/svg">
<g opacity="0.75" clip-path="url(#clip0_925_144)">
<circle cx="3" cy="3" r="3" fill="#D9D9D9"/>
<circle cx="3" cy="23" r="3" fill="#D9D9D9"/>
<circle cx="3" cy="43" r="3" fill="#D9D9D9"/>
<circle cx="3" cy="63" r="3" fill="#D9D9D9"/>
<circle cx="3" cy="83" r="3" fill="#D9D9D9"/>
<circle cx="3" cy="103" r="3" fill="#D9D9D9"/>
<circle cx="3" cy="123" r="3" fill="#D9D9D9"/>
<circle cx="3" cy="143" r="3" fill="#D9D9D9"/>
<circle cx="3" cy="163" r="3" fill="#D9D9D9"/>
<circle opacity="0.6" cx="3" cy="183" r="3" fill="#D9D9D9"/>
<circle opacity="0.2" cx="3" cy="203" r="3" fill="#D9D9D9"/>
<circle cx="23" cy="3" r="3" fill="#D9D9D9"/>
<circle cx="23" cy="23" r="3" fill="#D9D9D9"/>
<circle cx="23" cy="43" r="3" fill="#D9D9D9"/>
<circle cx="23" cy="63" r="3" fill="#D9D9D9"/>
<circle cx="23" cy="83" r="3" fill="#D9D9D9"/>
<circle cx="23" cy="103" r="3" fill="#D9D9D9"/>
<circle cx="23" cy="123" r="3" fill="#D9D9D9"/>
<circle cx="23" cy="143" r="3" fill="#D9D9D9"/>
<circle cx="23" cy="163" r="3" fill="#D9D9D9"/>
<circle opacity="0.6" cx="23" cy="183" r="3" fill="#D9D9D9"/>
<circle opacity="0.2" cx="23" cy="203" r="3" fill="#D9D9D9"/>
<circle cx="43" cy="3" r="3" fill="#D9D9D9"/>
<circle cx="43" cy="23" r="3" fill="#D9D9D9"/>
<circle cx="43" cy="43" r="3" fill="#D9D9D9"/>
<circle cx="43" cy="63" r="3" fill="#D9D9D9"/>
<circle cx="43" cy="83" r="3" fill="#D9D9D9"/>
<circle cx="43" cy="103" r="3" fill="#D9D9D9"/>
<circle cx="43" cy="123" r="3" fill="#D9D9D9"/>
<circle cx="43" cy="143" r="3" fill="#D9D9D9"/>
<circle cx="43" cy="163" r="3" fill="#D9D9D9"/>
<circle opacity="0.6" cx="43" cy="183" r="3" fill="#D9D9D9"/>
<circle opacity="0.2" cx="43" cy="203" r="3" fill="#D9D9D9"/>
<circle cx="63" cy="3" r="3" fill="#D9D9D9"/>
<circle cx="63" cy="23" r="3" fill="#D9D9D9"/>
<circle cx="63" cy="43" r="3" fill="#D9D9D9"/>
<circle cx="63" cy="63" r="3" fill="#D9D9D9"/>
<circle cx="63" cy="83" r="3" fill="#D9D9D9"/>
<circle cx="63" cy="103" r="3" fill="#D9D9D9"/>
<circle cx="63" cy="123" r="3" fill="#D9D9D9"/>
<circle cx="63" cy="143" r="3" fill="#D9D9D9"/>
<circle cx="63" cy="163" r="3" fill="#D9D9D9"/>
<circle opacity="0.6" cx="63" cy="183" r="3" fill="#D9D9D9"/>
<circle opacity="0.2" cx="63" cy="203" r="3" fill="#D9D9D9"/>
<circle cx="83" cy="3" r="3" fill="#D9D9D9"/>
<circle cx="83" cy="23" r="3" fill="#D9D9D9"/>
<circle cx="83" cy="43" r="3" fill="#D9D9D9"/>
<circle cx="83" cy="63" r="3" fill="#D9D9D9"/>
<circle cx="83" cy="83" r="3" fill="#D9D9D9"/>
<circle cx="83" cy="103" r="3" fill="#D9D9D9"/>
<circle cx="83" cy="123" r="3" fill="#D9D9D9"/>
<circle cx="83" cy="143" r="3" fill="#D9D9D9"/>
<circle cx="83" cy="163" r="3" fill="#D9D9D9"/>
<circle opacity="0.6" cx="83" cy="183" r="3" fill="#D9D9D9"/>
<circle opacity="0.2" cx="83" cy="203" r="3" fill="#D9D9D9"/>
<circle cx="103" cy="3" r="3" fill="#D9D9D9"/>
<circle cx="103" cy="23" r="3" fill="#D9D9D9"/>
<circle cx="103" cy="43" r="3" fill="#D9D9D9"/>
<circle cx="103" cy="63" r="3" fill="#D9D9D9"/>
<circle cx="103" cy="83" r="3" fill="#D9D9D9"/>
<circle cx="103" cy="103" r="3" fill="#D9D9D9"/>
<circle cx="103" cy="123" r="3" fill="#D9D9D9"/>
<circle cx="103" cy="143" r="3" fill="#D9D9D9"/>
<circle cx="103" cy="163" r="3" fill="#D9D9D9"/>
<circle opacity="0.6" cx="103" cy="183" r="3" fill="#D9D9D9"/>
<circle opacity="0.2" cx="103" cy="203" r="3" fill="#D9D9D9"/>
<circle cx="123" cy="3" r="3" fill="#D9D9D9"/>
<circle cx="123" cy="23" r="3" fill="#D9D9D9"/>
<circle cx="123" cy="43" r="3" fill="#D9D9D9"/>
<circle cx="123" cy="63" r="3" fill="#D9D9D9"/>
<circle cx="123" cy="83" r="3" fill="#D9D9D9"/>
<circle cx="123" cy="103" r="3" fill="#D9D9D9"/>
<circle cx="123" cy="123" r="3" fill="#D9D9D9"/>
<circle cx="123" cy="143" r="3" fill="#D9D9D9"/>
<circle cx="123" cy="163" r="3" fill="#D9D9D9"/>
<circle opacity="0.6" cx="123" cy="183" r="3" fill="#D9D9D9"/>
<circle opacity="0.2" cx="123" cy="203" r="3" fill="#D9D9D9"/>
<circle cx="143" cy="3" r="3" fill="#D9D9D9"/>
<circle cx="143" cy="23" r="3" fill="#D9D9D9"/>
<circle cx="143" cy="43" r="3" fill="#D9D9D9"/>
<circle cx="143" cy="63" r="3" fill="#D9D9D9"/>
<circle cx="143" cy="83" r="3" fill="#D9D9D9"/>
<circle cx="143" cy="103" r="3" fill="#D9D9D9"/>
<circle cx="143" cy="123" r="3" fill="#D9D9D9"/>
<circle cx="143" cy="143" r="3" fill="#D9D9D9"/>
<circle cx="143" cy="163" r="3" fill="#D9D9D9"/>
<circle opacity="0.6" cx="143" cy="183" r="3" fill="#D9D9D9"/>
<circle opacity="0.2" cx="143" cy="203" r="3" fill="#D9D9D9"/>
<circle cx="163" cy="3" r="3" fill="#D9D9D9"/>
<circle cx="163" cy="23" r="3" fill="#D9D9D9"/>
<circle cx="163" cy="43" r="3" fill="#D9D9D9"/>
<circle cx="163" cy="63" r="3" fill="#D9D9D9"/>
<circle cx="163" cy="83" r="3" fill="#D9D9D9"/>
<circle cx="163" cy="103" r="3" fill="#D9D9D9"/>
<circle cx="163" cy="123" r="3" fill="#D9D9D9"/>
<circle cx="163" cy="143" r="3" fill="#D9D9D9"/>
<circle cx="163" cy="163" r="3" fill="#D9D9D9"/>
<circle opacity="0.6" cx="163" cy="183" r="3" fill="#D9D9D9"/>
<circle opacity="0.2" cx="163" cy="203" r="3" fill="#D9D9D9"/>
<circle opacity="0.6" cx="183" cy="3" r="3" fill="#D9D9D9"/>
<circle opacity="0.6" cx="183" cy="23" r="3" fill="#D9D9D9"/>
<circle opacity="0.6" cx="183" cy="43" r="3" fill="#D9D9D9"/>
<circle opacity="0.6" cx="183" cy="63" r="3" fill="#D9D9D9"/>
<circle opacity="0.6" cx="183" cy="83" r="3" fill="#D9D9D9"/>
<circle opacity="0.6" cx="183" cy="103" r="3" fill="#D9D9D9"/>
<circle opacity="0.6" cx="183" cy="123" r="3" fill="#D9D9D9"/>
<circle opacity="0.6" cx="183" cy="143" r="3" fill="#D9D9D9"/>
<circle opacity="0.6" cx="183" cy="163" r="3" fill="#D9D9D9"/>
<circle opacity="0.6" cx="183" cy="183" r="3" fill="#D9D9D9"/>
<circle opacity="0.2" cx="183" cy="203" r="3" fill="#D9D9D9"/>
<circle opacity="0.2" cx="203" cy="3" r="3" fill="#D9D9D9"/>
<circle opacity="0.2" cx="203" cy="23" r="3" fill="#D9D9D9"/>
<circle opacity="0.2" cx="203" cy="43" r="3" fill="#D9D9D9"/>
<circle opacity="0.2" cx="203" cy="63" r="3" fill="#D9D9D9"/>
<circle opacity="0.2" cx="203" cy="83" r="3" fill="#D9D9D9"/>
<circle opacity="0.2" cx="203" cy="103" r="3" fill="#D9D9D9"/>
<circle opacity="0.2" cx="203" cy="123" r="3" fill="#D9D9D9"/>
<circle opacity="0.2" cx="203" cy="143" r="3" fill="#D9D9D9"/>
<circle opacity="0.2" cx="203" cy="163" r="3" fill="#D9D9D9"/>
<circle opacity="0.2" cx="203" cy="183" r="3" fill="#D9D9D9"/>
<circle opacity="0.2" cx="203" cy="203" r="3" fill="#D9D9D9"/>
</g>
<defs>
<clipPath id="clip0_925_144">
<rect width="206" height="206" fill="white"/>
</clipPath>
</defs>
</svg>
