<svg width="168" height="70" viewBox="0 0 168 70" fill="none" xmlns="http://www.w3.org/2000/svg">
<path d="M39.4344 46.8456C38.9299 46.7585 38.4325 46.6342 37.9464 46.4736C34.1064 44.8736 30.2704 43.2736 26.4384 41.6736C26.0412 41.5448 25.6764 41.3318 25.369 41.0492C25.0616 40.7666 24.8187 40.4211 24.657 40.0361C24.4952 39.6511 24.4184 39.2358 24.4318 38.8184C24.4451 38.401 24.5483 37.9915 24.7344 37.6176C24.9504 37.1616 25.1064 36.6696 25.2864 36.2016C26.4864 33.0576 27.6864 29.9256 28.9464 26.7816C29.0611 26.5973 29.1295 26.3879 29.1457 26.1714C29.1619 25.9549 29.1254 25.7376 29.0393 25.5383C28.9531 25.339 28.82 25.1635 28.6513 25.0268C28.4826 24.8902 28.2832 24.7964 28.0704 24.7536C26.9784 24.3816 25.8384 24.1056 24.7224 23.7936L20.5584 22.6656C20.0364 22.5008 19.478 22.4902 18.9501 22.6349C18.4222 22.7796 17.9473 23.0736 17.5824 23.4816C14.9064 26.1936 12.2064 28.8936 9.51836 31.5936C9.0689 32.1194 8.46191 32.4862 7.78746 32.6397C7.11302 32.7932 6.40706 32.7251 5.77436 32.4456C4.14236 31.7616 2.54636 31.0416 0.890357 30.4416C-0.309643 29.9856 -0.153643 29.0976 0.518357 28.4976C1.19036 27.8976 2.22236 27.0936 3.08636 26.4096L15.8304 16.2576C15.9197 16.1786 16.0002 16.0901 16.0704 15.9936C15.9632 15.9412 15.8505 15.9009 15.7344 15.8736L1.81436 12.8976C1.72004 12.8904 1.62717 12.8702 1.53836 12.8376C1.44236 12.8376 1.31036 12.7056 1.31036 12.6336C1.31017 12.5811 1.32328 12.5293 1.34845 12.4831C1.37363 12.437 1.41006 12.3979 1.45436 12.3696C1.75781 12.1825 2.07017 12.0103 2.39036 11.8536L7.91036 9.26163C8.48564 8.98929 9.12983 8.89726 9.75836 8.99762C11.6184 9.27362 13.4784 9.57363 15.3384 9.77763C15.8908 9.83414 16.4479 9.73435 16.9464 9.48962C20.1464 7.76162 23.3464 5.99363 26.5464 4.18563C27.3521 3.72143 28.3026 3.57587 29.2104 3.77763C29.3546 3.83285 29.4916 3.90538 29.6184 3.99363C29.5431 4.1151 29.4546 4.2278 29.3544 4.32963L21.7944 10.2336C21.5184 10.4496 21.2184 10.6536 20.9544 10.8936C20.6557 11.1572 20.2986 11.3458 19.9125 11.4439C19.5265 11.5419 19.1226 11.5467 18.7344 11.4576C16.5384 11.1216 14.3544 10.7376 12.1584 10.4616C11.5596 10.4299 10.9622 10.5452 10.4184 10.7976C9.66624 11.1699 8.93695 11.5867 8.23436 12.0456C8.04918 12.1866 7.88015 12.3475 7.73036 12.5256C7.9309 12.627 8.13964 12.7113 8.35436 12.7776L19.6704 15.0936L23.1744 15.7656C23.321 15.7903 23.4654 15.8264 23.6064 15.8736C24.0984 16.0536 24.1944 16.3776 23.8344 16.7736C22.9584 17.7216 22.0824 18.6576 21.1944 19.5936C20.6064 20.2296 20.7264 20.7096 21.5664 20.9256C23.3064 21.3576 25.0584 21.7536 26.8104 22.1256L40.4424 25.3296C41.1153 25.4601 41.7314 25.7954 42.2064 26.2896C42.3639 26.4464 42.4877 26.6337 42.5702 26.8401C42.6528 27.0464 42.6923 27.2675 42.6864 27.4896C42.5184 30.3936 42.3864 33.2976 42.2424 36.2016C42.0984 39.1056 41.9904 42.0456 41.7984 44.9256C41.7384 46.0656 40.7904 46.8456 39.4344 46.8456Z" fill="#F7701B"/>
<path d="M60.2427 44.7216H51.5067C50.4987 44.7216 50.0787 44.0736 50.4747 43.1376C50.613 42.7828 50.8556 42.4781 51.1705 42.2639C51.4854 42.0497 51.8579 41.9359 52.2387 41.9376H61.6107C62.0282 41.949 62.438 41.8239 62.778 41.5814C63.1179 41.3388 63.3696 40.9921 63.4947 40.5936C63.5674 40.4438 63.5983 40.2772 63.5841 40.1113C63.5698 39.9454 63.511 39.7865 63.4139 39.6512C63.3168 39.516 63.185 39.4095 63.0323 39.3431C62.8797 39.2766 62.7119 39.2526 62.5467 39.2736H53.2227C52.9502 39.2835 52.6791 39.2302 52.4307 39.1176C52.2427 39.0154 52.0987 38.8479 52.0257 38.6467C51.9527 38.4455 51.9559 38.2246 52.0347 38.0256C52.6107 36.1056 53.2347 34.1856 53.7987 32.2776C53.9427 31.8996 54.2052 31.5784 54.547 31.3621C54.8888 31.1458 55.2915 31.046 55.6947 31.0776H72.9747C73.4307 31.0776 73.9107 31.0776 74.1747 31.5696C74.2797 31.7969 74.3185 32.0492 74.2866 32.2975C74.2548 32.5459 74.1536 32.7802 73.9947 32.9736C73.8006 33.2718 73.5301 33.5125 73.2115 33.6708C72.8928 33.8291 72.5376 33.8991 72.1827 33.8736H62.9547C62.564 33.8719 62.1827 33.9941 61.8658 34.2227C61.5489 34.4512 61.3125 34.7743 61.1907 35.1456C60.9267 35.9976 61.2987 36.5136 62.1867 36.5256H71.3667C72.5667 36.5256 72.8787 37.0296 72.5667 38.1336C72.0267 39.8616 71.4987 41.5896 70.9707 43.3056C70.8597 43.7226 70.6106 44.0897 70.264 44.3469C69.9175 44.6041 69.494 44.7362 69.0627 44.7216H60.2427Z" fill="#F7701B"/>
<path d="M122.006 44.7216H113.99C112.97 44.7216 112.562 44.1696 112.862 43.1976L114.914 36.5976C115.025 36.154 115.287 35.7629 115.654 35.4913C116.022 35.2198 116.473 35.0848 116.93 35.1096H125.954C126.479 35.1759 127.009 35.0369 127.434 34.7216C127.859 34.4063 128.145 33.9392 128.234 33.4176C128.342 33.0576 128.462 32.7096 128.57 32.3496C128.702 31.9525 128.954 31.6063 129.292 31.3591C129.629 31.1118 130.035 30.9757 130.454 30.9696H134.39C134.565 30.9429 134.744 30.9641 134.909 31.0308C135.073 31.0975 135.216 31.2074 135.323 31.3487C135.43 31.4901 135.497 31.6577 135.516 31.8339C135.536 32.0101 135.507 32.1883 135.434 32.3496C134.306 36.0376 133.17 39.7136 132.026 43.3776C131.895 43.7769 131.638 44.1233 131.294 44.3654C130.951 44.6075 130.538 44.7324 130.118 44.7216H122.006ZM123.374 37.8816H121.442C121.026 37.884 120.621 38.0174 120.285 38.263C119.949 38.5085 119.699 38.8538 119.57 39.2496C119.438 39.6576 119.318 40.0776 119.198 40.4496C118.934 41.3616 119.306 41.8656 120.254 41.8776C121.538 41.8776 122.834 41.8776 124.118 41.8776C124.527 41.8858 124.927 41.765 125.263 41.5324C125.6 41.2997 125.854 40.967 125.99 40.5816C126.146 40.1256 126.29 39.6696 126.422 39.2016C126.489 39.0501 126.515 38.8835 126.496 38.7187C126.478 38.554 126.416 38.3971 126.317 38.2641C126.219 38.1311 126.086 38.0267 125.934 37.9616C125.781 37.8965 125.614 37.873 125.45 37.8936L123.374 37.8816Z" fill="#F7701B"/>
<path d="M154.862 44.7216H146.87C145.778 44.7216 145.394 44.1936 145.67 43.1496C146.326 40.9896 146.99 38.8376 147.662 36.6936C147.766 36.2013 148.047 35.7644 148.452 35.4657C148.857 35.167 149.357 35.0275 149.858 35.0736H165.722C166.922 35.0736 167.258 35.6016 166.922 36.7056C166.25 38.9056 165.574 41.0936 164.894 43.2696C164.774 43.696 164.516 44.0702 164.159 44.3332C163.803 44.5962 163.369 44.7328 162.926 44.7216H154.862ZM156.362 41.9376C157.022 41.9376 157.682 41.9376 158.33 41.9376C158.768 41.9401 159.195 41.798 159.544 41.5333C159.894 41.2686 160.146 40.8962 160.262 40.4736C160.382 40.0656 160.502 39.6696 160.634 39.2736C160.715 39.1166 160.751 38.94 160.737 38.7639C160.723 38.5877 160.66 38.419 160.555 38.2767C160.45 38.1345 160.307 38.0243 160.143 37.9588C159.979 37.8932 159.8 37.8748 159.626 37.9056H155.726C155.302 37.8959 154.887 38.0257 154.545 38.2751C154.202 38.5244 153.951 38.8795 153.83 39.2856C153.686 39.7056 153.554 40.1376 153.422 40.5576C153.344 40.7162 153.311 40.8931 153.326 41.0692C153.34 41.2454 153.403 41.4141 153.507 41.5573C153.61 41.7005 153.751 41.8126 153.914 41.8818C154.077 41.9509 154.255 41.9744 154.43 41.9496C155.078 41.9616 155.726 41.9376 156.362 41.9376Z" fill="#F7701B"/>
<path d="M99.3501 44.7216H91.3701C90.2661 44.7216 89.8701 44.2056 90.1701 43.1616C90.8541 40.9536 91.5261 38.7576 92.2221 36.5616C92.3324 36.1316 92.584 35.751 92.9366 35.4812C93.2891 35.2113 93.7222 35.0678 94.1661 35.0736C95.4621 35.0736 96.7701 35.0736 98.0661 35.0736C99.0021 35.0736 99.3861 35.6376 99.1221 36.5376C98.7261 37.8696 98.3061 39.2016 97.9221 40.5456C97.6701 41.3856 98.0421 41.9256 98.9181 41.9376C100.226 41.9376 101.546 41.9376 102.854 41.9376C103.286 41.9369 103.705 41.7944 104.048 41.5321C104.39 41.2697 104.637 40.902 104.75 40.4856C105.158 39.1896 105.542 37.9056 105.95 36.6096C106.061 36.1575 106.324 35.7574 106.696 35.4775C107.068 35.1975 107.525 35.0548 107.99 35.0736H110.39C111.338 35.0736 111.746 35.6496 111.47 36.5496C110.79 38.7816 110.102 41.0136 109.406 43.2456C109.285 43.6804 109.022 44.0622 108.659 44.3298C108.296 44.5974 107.853 44.7354 107.402 44.7216H99.3501Z" fill="#F7701B"/>
<path d="M80.8219 44.7216H76.8859C75.8899 44.7216 75.4699 44.1576 75.7699 43.1856C76.1659 41.9016 76.5739 40.6176 76.9699 39.3216C77.0477 39.0527 77.0841 38.7735 77.0779 38.4936C77.0695 38.3297 77.0014 38.1745 76.8865 38.0573C76.7715 37.9402 76.6176 37.8691 76.4539 37.8576C76.3441 37.8556 76.2361 37.83 76.137 37.7826C76.038 37.7352 75.9503 37.6672 75.8798 37.583C75.8092 37.4988 75.7576 37.4005 75.7283 37.2947C75.699 37.1889 75.6927 37.0781 75.7099 36.9696C75.7261 36.5108 75.8975 36.071 76.1962 35.7222C76.4948 35.3734 76.903 35.1363 77.3539 35.0496C77.6662 35.0016 77.9573 34.8619 78.1901 34.6482C78.423 34.4346 78.5872 34.1567 78.6619 33.8496C78.8299 33.3936 78.9499 32.9256 79.1059 32.4696C79.2203 32.0336 79.4801 31.6496 79.8423 31.3813C80.2045 31.1129 80.6474 30.9761 81.0979 30.9936H84.9259C85.8619 30.9936 86.2699 31.5576 86.0059 32.4576C85.8739 32.9136 85.7179 33.3576 85.5979 33.8136C85.5369 33.9614 85.5152 34.1224 85.535 34.281C85.5549 34.4397 85.6155 34.5904 85.711 34.7186C85.8065 34.8468 85.9337 34.948 86.08 35.0123C86.2264 35.0766 86.3869 35.1019 86.5459 35.0856C87.1939 35.0856 87.8419 35.0856 88.4779 35.0856C88.6779 35.0578 88.8817 35.0885 89.0646 35.1742C89.2475 35.2598 89.4016 35.3967 89.5083 35.5681C89.615 35.7396 89.6696 35.9383 89.6657 36.1402C89.6617 36.3421 89.5992 36.5385 89.4859 36.7056C89.3449 37.0586 89.1016 37.3614 88.7873 37.5752C88.473 37.789 88.102 37.9041 87.7219 37.9056C87.0859 37.9056 86.5219 37.9056 85.8259 37.9056C85.3831 37.8957 84.9498 38.0346 84.5952 38.3C84.2406 38.5654 83.9852 38.942 83.8699 39.3696C83.6779 40.0176 83.4739 40.6536 83.2819 41.2896C83.2107 41.4463 83.1823 41.6191 83.1997 41.7903C83.2171 41.9615 83.2796 42.125 83.3809 42.2641C83.4822 42.4032 83.6186 42.513 83.7762 42.5821C83.9338 42.6513 84.1069 42.6773 84.2779 42.6576C84.7219 42.6576 85.1779 42.6576 85.6219 42.6576C86.0659 42.6576 86.5099 42.8016 86.6539 43.2936C86.7168 43.5054 86.6973 43.7332 86.5994 43.9312C86.5015 44.1293 86.3324 44.283 86.1259 44.3616C85.7593 44.5751 85.3489 44.7023 84.9259 44.7336C83.5459 44.7456 82.1899 44.7216 80.8219 44.7216Z" fill="#F7701B"/>
<path d="M76.6583 14.8416H71.9903C71.7092 14.8408 71.4298 14.7963 71.1623 14.7096C71.0734 14.6814 70.9929 14.6315 70.9279 14.5645C70.863 14.4975 70.8157 14.4154 70.7903 14.3256C70.7871 14.2309 70.81 14.1371 70.8566 14.0545C70.9032 13.972 70.9716 13.9039 71.0543 13.8576C71.4949 13.6793 71.9604 13.57 72.4343 13.5336C74.1743 13.5336 75.9263 13.5336 77.6783 13.5336C78.0935 13.509 78.5004 13.4073 78.8783 13.2336C78.9507 13.1947 79.0119 13.1379 79.056 13.0685C79.1002 12.9992 79.1257 12.9197 79.1303 12.8376C79.0991 12.7542 79.051 12.6781 78.9891 12.6141C78.9272 12.5501 78.8527 12.4996 78.7703 12.4656C78.5511 12.3871 78.3191 12.3505 78.0863 12.3576H72.7343C71.7743 12.3576 71.4383 11.8896 71.7383 10.9656L72.7823 7.71362C72.8914 7.32949 73.125 6.99252 73.4465 6.75573C73.768 6.51894 74.1592 6.39578 74.5583 6.40562H84.1583C85.0583 6.40562 85.3583 6.89763 85.1543 7.72563C84.5903 9.64563 83.9903 11.5656 83.3423 13.4856C83.2416 13.8945 82.9998 14.2547 82.6596 14.5027C82.3193 14.7508 81.9024 14.8708 81.4823 14.8416H76.6583ZM77.6183 10.5816H78.5783C78.9382 10.5694 79.2858 10.4481 79.5751 10.2338C79.8644 10.0195 80.0818 9.72228 80.1983 9.38162C80.4383 8.62562 80.1983 8.18162 79.3463 8.12162C78.7148 8.08562 78.0818 8.08562 77.4503 8.12162C77.0529 8.13334 76.6712 8.27991 76.3681 8.53724C76.065 8.79456 75.8584 9.14735 75.7823 9.53762C75.744 9.66001 75.7355 9.7898 75.7575 9.91615C75.7796 10.0425 75.8315 10.1618 75.909 10.2639C75.9865 10.3661 76.0874 10.4483 76.2031 10.5035C76.3189 10.5588 76.4461 10.5856 76.5743 10.5816C76.9223 10.6056 77.2703 10.5816 77.6183 10.5816Z" fill="#F7701B"/>
<path d="M56.2342 12.3216H51.4342C50.4982 12.3216 50.1502 11.8416 50.4382 10.9536L51.4822 7.73763C51.5829 7.32878 51.8247 6.96858 52.165 6.72052C52.5053 6.47246 52.9221 6.35245 53.3422 6.38163H58.4302C58.8619 6.41988 59.2925 6.2979 59.64 6.03896C59.9875 5.78001 60.2275 5.40222 60.3142 4.97764C60.4462 4.52164 60.5902 4.05364 60.7222 3.58564C60.8158 3.22668 61.0306 2.91112 61.3302 2.69242C61.6298 2.47372 61.9958 2.36534 62.3662 2.38564H64.2622C65.0782 2.38564 65.4622 2.86563 65.1862 3.65763C64.5462 5.68963 63.9022 7.71764 63.2542 9.74164L62.8582 11.0256C62.7547 11.4194 62.5199 11.7661 62.1926 12.0083C61.8652 12.2505 61.4651 12.3737 61.0582 12.3576L56.2342 12.3216ZM56.3182 10.5816H57.2782C57.6594 10.5752 58.0279 10.4436 58.3271 10.2073C58.6263 9.97101 58.8396 9.64297 58.9342 9.27363C59.0023 9.14054 59.033 8.9915 59.0232 8.84234C59.0134 8.69317 58.9634 8.54944 58.8785 8.4264C58.7936 8.30336 58.677 8.2056 58.541 8.14349C58.4051 8.08138 58.2548 8.05724 58.1062 8.07363C57.4582 8.07363 56.8102 8.07363 56.1742 8.07363C55.7935 8.08209 55.426 8.21434 55.1272 8.45035C54.8284 8.68635 54.6146 9.01328 54.5182 9.38163C54.4456 9.51427 54.4113 9.66448 54.4191 9.81548C54.4269 9.96649 54.4765 10.1124 54.5624 10.2368C54.6483 10.3613 54.767 10.4594 54.9054 10.5203C55.0438 10.5812 55.1964 10.6024 55.3462 10.5816H56.3182Z" fill="#F7701B"/>
<path d="M97.9703 29.2536H93.2543C92.9361 29.2506 92.6203 29.198 92.3183 29.0976C91.8863 28.9416 91.8263 28.4736 92.2343 28.2936C92.6538 28.0756 93.1176 27.9566 93.5903 27.9456C95.3783 27.9456 97.1903 27.9456 98.9423 27.9456C99.3246 27.9252 99.6994 27.8315 100.046 27.6696C100.128 27.6266 100.198 27.5631 100.248 27.4853C100.299 27.4076 100.328 27.3181 100.334 27.2256C100.334 27.0816 100.094 26.9256 99.9263 26.8656C99.6939 26.7911 99.4501 26.7586 99.2063 26.7696C97.4903 26.7696 95.7863 26.7696 94.0703 26.7696C93.0983 26.7696 92.7503 26.2896 93.0503 25.3536C93.3503 24.4176 93.7343 23.2176 94.0823 22.1496C94.1891 21.7507 94.4298 21.4006 94.7641 21.158C95.0984 20.9155 95.5059 20.7953 95.9183 20.8176H96.7463C97.5623 20.8176 97.9463 21.2976 97.6823 22.0896C97.5143 22.6656 97.3223 23.2176 97.1423 23.7936C96.9023 24.5736 97.2263 24.9936 98.0423 24.9936H99.7583C100.163 24.9999 100.559 24.8712 100.882 24.6279C101.206 24.3845 101.44 24.0404 101.546 23.6496C101.726 23.1096 101.894 22.5696 102.062 22.0296C102.187 21.6776 102.418 21.3729 102.723 21.1579C103.028 20.9429 103.393 20.8282 103.766 20.8296H105.59C106.322 20.8296 106.73 21.3216 106.514 22.0296C105.866 24.0936 105.218 26.1576 104.51 28.2096C104.386 28.5651 104.145 28.8685 103.827 29.0709C103.51 29.2733 103.133 29.363 102.758 29.3256L97.9703 29.2536Z" fill="#F7701B"/>
<path d="M159.398 26.7336H154.598C153.626 26.7336 153.29 26.2656 153.578 25.3536C153.926 24.2496 154.274 23.1576 154.634 22.0656C154.751 21.6893 154.988 21.3615 155.309 21.1319C155.629 20.9024 156.016 20.7836 156.41 20.7936H161.498C161.933 20.8434 162.372 20.7316 162.73 20.4795C163.089 20.2273 163.342 19.8523 163.442 19.4256C163.564 19.0858 163.784 18.7901 164.075 18.5763C164.365 18.3625 164.713 18.2404 165.074 18.2256H166.85C167.738 18.2256 168.122 18.6696 167.87 19.5096C167.234 21.5496 166.586 23.5896 165.89 25.6176C165.773 25.9499 165.549 26.2344 165.254 26.4273C164.96 26.6203 164.61 26.711 164.258 26.6856L159.398 26.7336ZM159.494 24.9936H160.382C160.756 24.9969 161.121 24.8828 161.427 24.6676C161.733 24.4523 161.963 24.1467 162.086 23.7936C162.35 23.0496 162.014 22.5936 161.222 22.5216H159.398C159.004 22.5194 158.62 22.6512 158.311 22.8954C158.001 23.1396 157.784 23.4817 157.694 23.8656C157.641 23.9926 157.622 24.1309 157.637 24.2675C157.652 24.4042 157.701 24.5349 157.78 24.6474C157.859 24.76 157.965 24.8507 158.088 24.9112C158.212 24.9718 158.349 25.0001 158.486 24.9936C158.822 25.0176 159.158 24.9936 159.494 24.9936Z" fill="#F7701B"/>
<path d="M55.3099 16.7616H56.1619C56.9779 16.7616 57.3619 17.1816 57.1339 17.9616C57.0019 18.5256 56.8699 19.0896 56.7499 19.6656C56.6299 20.2416 56.9179 20.7696 57.6379 20.7696H62.7619C63.8779 20.7696 64.2019 21.2136 63.8659 22.2696L62.8579 25.4136C62.7448 25.7977 62.5084 26.1338 62.1853 26.3702C61.8621 26.6065 61.4702 26.73 61.0699 26.7216H60.1819C59.3659 26.7216 58.9819 26.2176 59.2579 25.4256C59.4259 24.8736 59.6179 24.3216 59.7859 23.7696C60.0379 22.9896 59.7019 22.5696 58.8979 22.5096H57.1099C56.7298 22.5093 56.3597 22.6318 56.0548 22.8588C55.7499 23.0859 55.5265 23.4053 55.4179 23.7696L54.8779 25.4616C54.7563 25.8108 54.5295 26.1137 54.2286 26.3286C53.9278 26.5435 53.5677 26.6599 53.1979 26.6616C52.5739 26.6616 51.9379 26.6616 51.3019 26.6616C51.1499 26.6829 50.995 26.6632 50.853 26.6047C50.7111 26.5462 50.5874 26.4509 50.4945 26.3287C50.4016 26.2065 50.3429 26.0618 50.3246 25.9094C50.3062 25.757 50.3288 25.6024 50.3899 25.4616C51.1499 22.9336 51.9099 20.4096 52.6699 17.8896C52.7842 17.5452 53.0026 17.2448 53.2949 17.0298C53.5873 16.8149 53.9391 16.696 54.3019 16.6896L55.3099 16.7616Z" fill="#F7701B"/>
<path d="M111.086 26.7336H110.042C109.878 26.7452 109.713 26.7227 109.557 26.6676C109.402 26.6125 109.259 26.5259 109.139 26.4133C109.018 26.3007 108.922 26.1645 108.857 26.0131C108.791 25.8618 108.758 25.6985 108.758 25.5336C108.662 24.3336 108.59 23.1336 108.554 21.9336C108.544 21.7733 108.567 21.6126 108.624 21.4622C108.68 21.3118 108.769 21.1752 108.882 21.0615C108.996 20.9479 109.132 20.8599 109.283 20.8033C109.433 20.7468 109.594 20.723 109.754 20.7336H111.686C111.867 20.7287 112.047 20.7607 112.216 20.8276C112.384 20.8946 112.537 20.9952 112.665 21.1233C112.793 21.2513 112.893 21.4041 112.96 21.5723C113.027 21.7405 113.059 21.9206 113.054 22.1016C113.054 22.4496 113.054 22.7976 113.126 23.1336C113.184 23.2999 113.265 23.4574 113.366 23.6016C113.515 23.535 113.652 23.4459 113.774 23.3376C114.134 22.8576 114.47 22.3656 114.806 21.8856C115.037 21.5184 115.358 21.2157 115.738 21.0059C116.117 20.796 116.544 20.6858 116.978 20.6856H119.138C119.327 20.6717 119.517 20.6982 119.695 20.7635C119.873 20.8288 120.035 20.9313 120.17 21.0642C120.305 21.1971 120.411 21.3573 120.479 21.5342C120.547 21.711 120.577 21.9004 120.566 22.0896C120.576 22.4388 120.604 22.7873 120.65 23.1336C120.702 23.289 120.779 23.4349 120.878 23.5656C121.023 23.5031 121.156 23.418 121.274 23.3136C121.658 22.7976 121.97 22.2336 122.39 21.7536C122.736 21.3778 123.141 21.0615 123.59 20.8176C123.794 20.7096 124.13 20.8176 124.406 20.8176C124.418 21.0869 124.377 21.3559 124.286 21.6096C123.71 22.4856 123.086 23.3496 122.498 24.2136L121.598 25.4856C121.365 25.8311 121.051 26.1137 120.682 26.3083C120.314 26.503 119.903 26.6038 119.486 26.6016H117.59C117.412 26.6113 117.234 26.5852 117.067 26.5249C116.899 26.4645 116.745 26.3712 116.614 26.2504C116.483 26.1295 116.378 25.9836 116.305 25.8214C116.231 25.6591 116.191 25.4837 116.186 25.3056C116.186 24.7416 116.186 24.1656 116.078 23.6016C116.038 23.4424 115.969 23.2919 115.874 23.1576C115.72 23.2213 115.578 23.3106 115.454 23.4216C115.026 23.9564 114.625 24.5132 114.254 25.0896C113.971 25.6127 113.537 26.038 113.008 26.3099C112.479 26.5819 111.88 26.6877 111.29 26.6136C111.194 26.6076 111.098 26.6076 111.002 26.6136L111.086 26.7336Z" fill="#F7701B"/>
<path d="M138.35 44.7216H136.346C136.174 44.7474 135.998 44.7264 135.837 44.6608C135.675 44.5953 135.534 44.4876 135.429 44.349C135.324 44.2104 135.257 44.046 135.237 43.873C135.217 43.7 135.243 43.5248 135.314 43.3656C136.026 41.0136 136.75 38.6736 137.486 36.3456C137.624 35.9955 137.864 35.6944 138.173 35.4807C138.483 35.267 138.85 35.1503 139.226 35.1456H143.354C143.517 35.1276 143.682 35.1521 143.833 35.2167C143.983 35.2814 144.115 35.384 144.214 35.5146C144.313 35.6452 144.376 35.7992 144.398 35.9617C144.42 36.1242 144.399 36.2895 144.338 36.4416C143.642 38.8416 142.91 41.1456 142.166 43.4976C142.018 43.8554 141.766 44.1607 141.444 44.3745C141.121 44.5883 140.741 44.7008 140.354 44.6976L138.35 44.7216Z" fill="#F7701B"/>
<path d="M109.887 12.3216H105.087C104.211 12.3216 103.887 11.8416 104.103 11.0136C104.223 10.6296 104.355 10.2456 104.475 9.81362C104.585 9.40199 104.833 9.04097 105.179 8.79168C105.524 8.54239 105.945 8.42014 106.371 8.44562C108.147 8.44562 109.911 8.44562 111.687 8.44562C112.053 8.41838 112.416 8.34995 112.767 8.24163C112.812 8.22607 112.852 8.1991 112.884 8.16334C112.915 8.12759 112.937 8.08428 112.947 8.03762C112.936 7.99267 112.914 7.95128 112.882 7.91759C112.851 7.8839 112.811 7.85909 112.767 7.84562C112.469 7.76265 112.163 7.71433 111.855 7.70163C110.091 7.70163 108.255 7.70163 106.539 7.70163C106.235 7.7004 105.934 7.64345 105.651 7.53363C105.563 7.51975 105.482 7.47665 105.422 7.41127C105.361 7.3459 105.325 7.26206 105.318 7.1733C105.311 7.08454 105.334 6.99604 105.383 6.92207C105.433 6.8481 105.506 6.79298 105.591 6.76562C105.955 6.5473 106.367 6.41972 106.791 6.39363C110.103 6.39363 113.427 6.39363 116.739 6.39363C116.89 6.3748 117.043 6.39623 117.183 6.45576C117.324 6.51528 117.445 6.61079 117.537 6.73259C117.628 6.8544 117.686 6.99819 117.704 7.14939C117.722 7.3006 117.699 7.45385 117.639 7.59362C117.279 8.79362 116.895 9.99362 116.439 11.1216C116.319 11.4767 116.089 11.7844 115.783 12.0002C115.477 12.2159 115.109 12.3285 114.735 12.3216H109.887ZM109.887 10.9656V11.0376C110.511 11.0376 111.087 10.9536 111.771 10.8696C111.915 10.8696 112.047 10.6656 112.191 10.5576C112.047 10.4736 111.915 10.3056 111.771 10.3056C110.571 10.3056 109.479 10.3056 108.327 10.3056C108.171 10.3056 108.015 10.4976 107.871 10.6056C108.027 10.7136 108.195 10.8936 108.363 10.9176C108.831 10.9896 109.347 10.9656 109.851 10.9656H109.887Z" fill="#F7701B"/>
<path d="M130.79 26.7336H125.99C125.018 26.7336 124.682 26.2536 124.982 25.3416C125.33 24.2376 125.678 23.1456 126.038 22.0536C126.15 21.6832 126.379 21.359 126.69 21.1296C127.002 20.9003 127.379 20.7782 127.766 20.7816H137.546C138.35 20.7816 138.746 21.2856 138.47 22.0656L137.39 25.4256C137.273 25.8096 137.034 26.1449 136.709 26.3809C136.384 26.6169 135.991 26.7407 135.59 26.7336H130.79ZM132.59 22.5216H131.702C131.316 22.5229 130.94 22.6501 130.633 22.884C130.325 23.1179 130.103 23.4457 129.998 23.8176C129.922 23.9531 129.887 24.1074 129.896 24.2624C129.905 24.4174 129.957 24.5667 130.048 24.6927C130.139 24.8186 130.264 24.9161 130.408 24.9737C130.552 25.0313 130.71 25.0465 130.862 25.0176C131.486 25.0176 132.062 25.0176 132.722 25.0176C133.104 25.0098 133.474 24.878 133.774 24.6421C134.075 24.4062 134.291 24.079 134.39 23.7096C134.456 23.5794 134.486 23.434 134.478 23.2883C134.469 23.1426 134.423 23.0016 134.342 22.8798C134.262 22.758 134.151 22.6596 134.02 22.5946C133.889 22.5296 133.744 22.5003 133.598 22.5096L132.59 22.5216Z" fill="#F7701B"/>
<path d="M145.082 26.7336H140.282C139.334 26.7336 138.986 26.2536 139.286 25.3416L140.33 22.0896C140.434 21.7095 140.662 21.3746 140.977 21.1378C141.292 20.901 141.676 20.7757 142.07 20.7816H151.874C152.026 20.7604 152.181 20.78 152.323 20.8385C152.465 20.897 152.589 20.9923 152.682 21.1145C152.775 21.2367 152.833 21.3815 152.852 21.5339C152.87 21.6863 152.848 21.8408 152.786 21.9816C152.41 23.1816 152.01 24.3816 151.586 25.5816C151.464 25.9397 151.23 26.2492 150.919 26.465C150.608 26.6809 150.237 26.7918 149.858 26.7816L145.082 26.7336ZM146.078 24.9936H147.014C147.381 24.9904 147.737 24.8731 148.034 24.6581C148.331 24.443 148.553 24.1409 148.67 23.7936C148.737 23.6573 148.765 23.5055 148.752 23.3545C148.739 23.2035 148.685 23.0588 148.597 22.9358C148.508 22.8128 148.388 22.716 148.249 22.6558C148.11 22.5955 147.957 22.5741 147.806 22.5936H145.958C145.559 22.5982 145.172 22.7385 144.863 22.9914C144.553 23.2443 144.339 23.5949 144.254 23.9856C144.212 24.1101 144.2 24.243 144.22 24.373C144.24 24.5031 144.291 24.6264 144.368 24.7324C144.446 24.8385 144.548 24.9242 144.667 24.9822C144.785 25.0402 144.915 25.0688 145.046 25.0656C145.394 25.0176 145.742 24.9936 146.078 24.9936Z" fill="#F7701B"/>
<path d="M70.7901 26.7336H65.9901C65.0181 26.7336 64.6821 26.2536 64.9821 25.3176C65.2821 24.3816 65.6541 23.2656 65.9781 22.2336C66.0705 21.7921 66.3222 21.4001 66.6852 21.1323C67.0481 20.8644 67.497 20.7396 67.9461 20.7816H77.4141C78.3741 20.7816 78.7221 21.2376 78.4221 22.1616C78.0741 23.2776 77.7141 24.3816 77.3541 25.4856C77.2377 25.8428 77.0088 26.1527 76.7017 26.369C76.3945 26.5853 76.0256 26.6964 75.6501 26.6856L70.7901 26.7336ZM71.8341 25.0056H72.6861C73.0604 25.0107 73.4266 24.8974 73.7326 24.6819C74.0386 24.4664 74.2688 24.1597 74.3901 23.8056C74.453 23.668 74.4781 23.5162 74.4628 23.3657C74.4475 23.2152 74.3925 23.0714 74.3033 22.9493C74.2141 22.8271 74.094 22.7309 73.9553 22.6705C73.8166 22.6101 73.6643 22.5877 73.5141 22.6056H71.7381C71.345 22.6064 70.9633 22.7376 70.6527 22.9787C70.3422 23.2197 70.1204 23.557 70.0221 23.9376C69.9661 24.0661 69.9442 24.2069 69.9584 24.3464C69.9726 24.4858 70.0226 24.6193 70.1034 24.7338C70.1841 24.8484 70.2931 24.9402 70.4197 25.0004C70.5463 25.0606 70.6863 25.0872 70.8261 25.0776C71.1741 25.0176 71.5221 25.0056 71.8701 25.0056H71.8341Z" fill="#F7701B"/>
<path d="M97.5502 12.3216H95.2822C94.4182 12.3216 94.0822 11.8296 94.3222 11.0016C94.5022 10.4016 94.7182 9.80163 94.8982 9.20163C95.0782 8.60163 95.0302 8.39763 94.4182 8.00163C94.3526 7.95345 94.2975 7.89243 94.2563 7.82229C94.215 7.75215 94.1884 7.67435 94.1782 7.59363C94.1653 7.33045 94.2394 7.07034 94.3891 6.85346C94.5387 6.63659 94.7556 6.47499 95.0062 6.39363C95.2795 6.33687 95.5314 6.20437 95.7329 6.01127C95.9345 5.81817 96.0777 5.57225 96.1462 5.30163C96.2474 4.8403 96.5181 4.4338 96.9049 4.16266C97.2916 3.89152 97.766 3.77552 98.2342 3.83762C98.7502 3.83762 99.2782 3.83762 99.7942 3.83762C99.9453 3.8188 100.099 3.84023 100.239 3.89976C100.379 3.95928 100.501 4.05479 100.592 4.17659C100.684 4.2984 100.741 4.44219 100.759 4.59339C100.777 4.7446 100.755 4.89785 100.694 5.03762C100.454 5.96162 100.694 6.32163 101.702 6.33363C101.989 6.31259 102.277 6.341 102.554 6.41763C102.77 6.50163 103.046 6.70562 103.082 6.89762C103.096 7.02732 103.078 7.15846 103.03 7.27971C102.982 7.40097 102.905 7.50871 102.806 7.59363C102.399 7.81114 101.962 7.96877 101.51 8.06163C101.186 8.13363 100.814 8.06162 100.49 8.15762C100.068 8.31574 99.7072 8.6049 99.461 8.98277C99.2149 9.36065 99.0961 9.8074 99.1222 10.2576C99.1222 10.6536 99.4462 10.9056 99.8902 10.9536C100.222 10.9744 100.552 11.0266 100.874 11.1096C100.957 11.1443 101.031 11.1966 101.091 11.263C101.151 11.3293 101.196 11.4081 101.222 11.4936C101.219 11.5809 101.195 11.666 101.151 11.7414C101.107 11.8167 101.045 11.8801 100.97 11.9256C100.59 12.1006 100.185 12.2179 99.7702 12.2736C99.0382 12.3576 98.2942 12.3216 97.5502 12.3216Z" fill="#F7701B"/>
<path d="M84.3146 17.8656H85.3226C85.472 17.8485 85.6232 17.8718 85.7605 17.933C85.8978 17.9943 86.0162 18.0913 86.1032 18.2139C86.1902 18.3365 86.2428 18.4802 86.2553 18.63C86.2679 18.7798 86.24 18.9303 86.1746 19.0656C85.9226 19.9056 85.6466 20.7216 85.3826 21.5496L84.1826 25.4616C84.0738 25.8394 83.8428 26.1703 83.5258 26.4027C83.2087 26.6351 82.8235 26.7557 82.4306 26.7456C81.8186 26.7456 81.2306 26.7456 80.6066 26.7456C79.9826 26.7456 79.4666 26.2536 79.6946 25.5456C80.3746 23.3856 81.0666 21.2296 81.7706 19.0776C81.8824 18.7294 82.1018 18.4255 82.3972 18.2099C82.6926 17.9943 83.0488 17.8779 83.4146 17.8776L84.3146 17.8656Z" fill="#F7701B"/>
<path d="M120.494 12.3216C120.17 12.3216 119.846 12.3216 119.534 12.3216C118.838 12.3216 118.454 11.8176 118.658 11.1216C119.354 8.90163 120.062 6.68163 120.806 4.48563C120.914 4.15612 121.128 3.87155 121.414 3.67622C121.701 3.48088 122.044 3.38575 122.39 3.40563C123.05 3.40563 123.698 3.40563 124.358 3.40563C124.509 3.38425 124.662 3.40471 124.802 3.46475C124.941 3.5248 125.062 3.62212 125.15 3.74605C125.238 3.86999 125.29 4.01575 125.301 4.16737C125.311 4.31899 125.28 4.47061 125.21 4.60563C124.526 6.77763 123.83 8.96164 123.122 11.1336C122.998 11.479 122.773 11.7787 122.475 11.9929C122.177 12.2072 121.821 12.326 121.454 12.3336C121.142 12.3336 120.818 12.3336 120.494 12.3336V12.3216Z" fill="#F7701B"/>
<path d="M91.0105 17.8656H91.8265C92.7385 17.8656 93.0265 18.3336 92.7865 19.2096C92.2945 20.7576 91.8025 22.3056 91.2985 23.8416C91.1305 24.3576 90.9745 24.8856 90.8065 25.4016C90.7006 25.7964 90.4635 26.1434 90.1342 26.3854C89.8048 26.6275 89.4029 26.7503 88.9945 26.7336H87.2185C86.4505 26.7336 86.0185 26.2536 86.3065 25.5336C86.9865 23.3496 87.6865 21.1696 88.4065 18.9936C88.5245 18.6725 88.7364 18.3943 89.0146 18.1953C89.2928 17.9963 89.6245 17.8856 89.9665 17.8776L91.0105 17.8656Z" fill="#F7701B"/>
<path d="M88.1545 12.3216C87.8065 12.3216 87.4585 12.3216 87.1105 12.3216C86.9752 12.3342 86.8389 12.3122 86.7143 12.2577C86.5898 12.2032 86.4811 12.1181 86.3984 12.0102C86.3157 11.9023 86.2617 11.7753 86.2414 11.6409C86.2211 11.5064 86.2353 11.3691 86.2825 11.2416C86.6545 9.96963 87.0625 8.68562 87.4825 7.43762C87.5949 7.12421 87.8046 6.85497 88.081 6.66929C88.3574 6.4836 88.6859 6.39121 89.0185 6.40562C89.6665 6.40562 90.3145 6.40562 90.9505 6.40562C91.5865 6.40562 92.0785 6.90962 91.8625 7.60562C91.4905 8.80562 91.1065 10.0056 90.6625 11.2056C90.5438 11.5472 90.3242 11.8448 90.0329 12.059C89.7415 12.2733 89.392 12.3941 89.0305 12.4056L88.1545 12.3216Z" fill="#F7701B"/>
<path d="M66.8665 12.3216C66.5305 12.3216 66.1945 12.3216 65.8585 12.3216C65.708 12.343 65.5546 12.3226 65.415 12.2625C65.2753 12.2025 65.1549 12.1051 65.0669 11.9812C64.9789 11.8573 64.9268 11.7115 64.9161 11.5599C64.9054 11.4083 64.9367 11.2566 65.0065 11.1216C65.3665 9.92163 65.7505 8.72163 66.2065 7.52163C66.3185 7.18862 66.5335 6.89986 66.8204 6.69708C67.1073 6.49431 67.4512 6.38804 67.8025 6.39363C68.4505 6.39363 69.0985 6.39363 69.7345 6.39363C70.3705 6.39363 70.8625 6.88563 70.6345 7.59363C70.2745 8.79363 69.9025 9.99363 69.4345 11.1936C69.3187 11.5185 69.1058 11.7999 68.8245 11.9996C68.5433 12.1992 68.2074 12.3075 67.8625 12.3096C67.5385 12.3336 67.1905 12.3216 66.8665 12.3216Z" fill="#F7701B"/>
<path d="M141.735 33.7416H139.695C139.529 33.7592 139.361 33.7338 139.208 33.6678C139.055 33.6019 138.921 33.4976 138.82 33.365C138.718 33.2324 138.653 33.0759 138.63 32.9107C138.606 32.7455 138.626 32.5771 138.687 32.4216C138.807 32.0092 139.055 31.6459 139.397 31.3847C139.738 31.1235 140.153 30.9781 140.583 30.9696H144.483C144.695 30.9388 144.912 30.9728 145.105 31.0671C145.298 31.1613 145.458 31.3115 145.564 31.4981C145.67 31.6846 145.718 31.8989 145.7 32.1129C145.683 32.3268 145.602 32.5306 145.467 32.6976C145.301 33.0177 145.049 33.2851 144.74 33.4696C144.43 33.6541 144.075 33.7483 143.715 33.7416H141.735Z" fill="#F7701B"/>
<path d="M30.65 3.12963L28.394 2.79363C28.1538 2.73518 27.9234 2.64222 27.71 2.51763C27.266 2.25363 27.266 1.88163 27.71 1.70163C28.2497 1.49027 28.8143 1.34911 29.39 1.28163C30.598 1.10683 31.83 1.21361 32.99 1.59363C33.254 1.68963 33.458 1.97763 33.686 2.16963C33.446 2.36163 33.23 2.67363 32.954 2.74563C32.174 2.92563 31.394 3.00963 30.65 3.12963Z" fill="#F7701B"/>
<path d="M69.0387 5.56563C68.6547 5.56563 68.2707 5.56563 67.8387 5.56563C67.4067 5.56563 67.1307 5.43363 67.0227 5.03763C66.9147 4.64163 67.1787 4.36563 67.4907 4.16163C67.6284 4.05009 67.7947 3.97941 67.9707 3.95763C68.9427 3.95763 69.9147 3.88563 70.8867 3.95763C71.0166 3.99211 71.1365 4.05684 71.2366 4.14652C71.3367 4.2362 71.4142 4.34828 71.4627 4.47363C71.4678 4.60876 71.4412 4.74323 71.3849 4.8662C71.3287 4.98917 71.2443 5.09721 71.1387 5.18163C70.8126 5.3968 70.4444 5.53999 70.0587 5.60163C69.7033 5.63169 69.346 5.63169 68.9907 5.60163L69.0387 5.56563Z" fill="#F7701B"/>
<path d="M90.3619 5.56562C89.9539 5.56562 89.5339 5.56562 89.1619 5.56562C88.7899 5.56562 88.4779 5.43362 88.3819 5.04962C88.3378 4.88411 88.3562 4.70813 88.4337 4.55536C88.5112 4.40259 88.6423 4.28376 88.8019 4.22162C89.1321 4.03996 89.4952 3.92575 89.8699 3.88562C90.5493 3.84367 91.2306 3.84367 91.9099 3.88562C92.3179 3.88562 92.7379 3.98162 92.8459 4.46162C92.8813 4.66181 92.8371 4.8679 92.7228 5.036C92.6085 5.20411 92.4331 5.32094 92.2339 5.36162C91.6292 5.51048 91.0161 5.62268 90.3979 5.69762L90.3619 5.56562Z" fill="#F7701B"/>
<g clip-path="url(#clip0_552_1669)">
<rect width="166" height="16" transform="translate(1 53)" fill="#F7701B"/>
<path d="M22.112 57.726V56.2H28.944V57.726H26.354V66H24.702V57.726H22.112ZM41.2907 62.836C41.5054 63.2187 41.734 63.55 41.9767 63.83C42.2287 64.11 42.504 64.3293 42.8027 64.488C43.1107 64.6467 43.4467 64.726 43.8107 64.726C44.2587 64.726 44.6227 64.6047 44.9027 64.362C45.1827 64.1193 45.3227 63.802 45.3227 63.41C45.3227 63.0553 45.234 62.7707 45.0567 62.556C44.8887 62.332 44.646 62.1453 44.3287 61.996C44.0114 61.8373 43.6474 61.6833 43.2367 61.534C42.994 61.45 42.7234 61.338 42.4247 61.198C42.126 61.0487 41.8414 60.8667 41.5707 60.652C41.3 60.428 41.076 60.1573 40.8987 59.84C40.7214 59.5133 40.6327 59.1213 40.6327 58.664C40.6327 58.1413 40.768 57.684 41.0387 57.292C41.3094 56.8907 41.6734 56.578 42.1307 56.354C42.5974 56.13 43.1247 56.018 43.7127 56.018C44.2914 56.018 44.7954 56.1253 45.2247 56.34C45.654 56.5453 46.018 56.8067 46.3167 57.124C46.6154 57.4413 46.844 57.7727 47.0027 58.118L45.6727 58.874C45.542 58.6313 45.3834 58.4073 45.1967 58.202C45.01 57.9873 44.7907 57.8193 44.5387 57.698C44.296 57.5673 44.0114 57.502 43.6847 57.502C43.2274 57.502 42.8914 57.6093 42.6767 57.824C42.462 58.0293 42.3547 58.272 42.3547 58.552C42.3547 58.804 42.4294 59.0327 42.5787 59.238C42.7374 59.434 42.98 59.6207 43.3067 59.798C43.6334 59.9753 44.058 60.1573 44.5807 60.344C44.8794 60.4467 45.1734 60.5773 45.4627 60.736C45.7614 60.8947 46.0274 61.0907 46.2607 61.324C46.5034 61.5573 46.6994 61.8373 46.8487 62.164C46.998 62.4813 47.0727 62.8547 47.0727 63.284C47.0727 63.7413 46.9794 64.152 46.7927 64.516C46.6154 64.88 46.3727 65.188 46.0647 65.44C45.7567 65.6827 45.4067 65.8693 45.0147 66C44.632 66.14 44.2307 66.21 43.8107 66.21C43.2414 66.21 42.7094 66.098 42.2147 65.874C41.7294 65.6407 41.3 65.3327 40.9267 64.95C40.5627 64.5673 40.2734 64.152 40.0587 63.704L41.2907 62.836ZM59.1841 56.2H60.8361V62.71C60.8361 63.3073 60.9994 63.7927 61.3261 64.166C61.6528 64.5393 62.1288 64.726 62.7541 64.726C63.3888 64.726 63.8648 64.5393 64.1821 64.166C64.5088 63.7927 64.6721 63.3073 64.6721 62.71V56.2H66.3381V62.78C66.3381 63.3213 66.2494 63.8067 66.0721 64.236C65.9041 64.656 65.6568 65.0153 65.3301 65.314C65.0128 65.6127 64.6348 65.8413 64.1961 66C63.7574 66.1587 63.2768 66.238 62.7541 66.238C62.2314 66.238 61.7508 66.1587 61.3121 66C60.8734 65.8413 60.4954 65.6127 60.1781 65.314C59.8608 65.0153 59.6134 64.656 59.4361 64.236C59.2681 63.8067 59.1841 63.3213 59.1841 62.78V56.2ZM78.9416 56.2H80.6356V66H78.9416V56.2ZM84.2756 56.2H86.2776L82.1336 60.792L86.4876 66H84.4436L80.1456 60.834L84.2756 56.2ZM98.0396 56.2H99.6916V62.71C99.6916 63.3073 99.8549 63.7927 100.182 64.166C100.508 64.5393 100.984 64.726 101.61 64.726C102.244 64.726 102.72 64.5393 103.038 64.166C103.364 63.7927 103.528 63.3073 103.528 62.71V56.2H105.194V62.78C105.194 63.3213 105.105 63.8067 104.928 64.236C104.76 64.656 104.512 65.0153 104.186 65.314C103.868 65.6127 103.49 65.8413 103.052 66C102.613 66.1587 102.132 66.238 101.61 66.238C101.087 66.238 100.606 66.1587 100.168 66C99.7289 65.8413 99.3509 65.6127 99.0336 65.314C98.7162 65.0153 98.4689 64.656 98.2916 64.236C98.1236 63.8067 98.0396 63.3213 98.0396 62.78V56.2ZM119.057 60.946V60.134H120.639C120.947 60.134 121.218 60.0827 121.451 59.98C121.684 59.8773 121.866 59.7327 121.997 59.546C122.128 59.35 122.193 59.1167 122.193 58.846C122.193 58.4353 122.048 58.118 121.759 57.894C121.479 57.67 121.106 57.558 120.639 57.558H119.449V64.628H120.821C121.194 64.628 121.526 64.5673 121.815 64.446C122.104 64.3247 122.333 64.1473 122.501 63.914C122.669 63.6713 122.753 63.368 122.753 63.004C122.753 62.7333 122.706 62.5 122.613 62.304C122.52 62.108 122.384 61.9447 122.207 61.814C122.03 61.674 121.824 61.576 121.591 61.52C121.358 61.4547 121.101 61.422 120.821 61.422H119.057V60.498H120.919C121.395 60.498 121.843 60.554 122.263 60.666C122.692 60.7687 123.07 60.9273 123.397 61.142C123.724 61.3567 123.98 61.632 124.167 61.968C124.354 62.304 124.447 62.7053 124.447 63.172C124.447 63.816 124.298 64.348 123.999 64.768C123.7 65.188 123.285 65.5007 122.753 65.706C122.23 65.902 121.619 66 120.919 66H117.797V56.2H120.751C121.376 56.2 121.922 56.2887 122.389 56.466C122.856 56.6433 123.22 56.914 123.481 57.278C123.752 57.642 123.887 58.104 123.887 58.664C123.887 59.1493 123.752 59.5647 123.481 59.91C123.22 60.246 122.856 60.5027 122.389 60.68C121.922 60.8573 121.376 60.946 120.751 60.946H119.057ZM137.676 63.48L137.998 62.08H142.548L142.856 63.48H137.676ZM140.238 58.972L138.698 62.57L138.67 62.934L137.312 66H135.45L140.238 55.654L145.04 66H143.164L141.834 63.018L141.806 62.612L140.238 58.972Z" fill="white"/>
</g>
<defs>
<clipPath id="clip0_552_1669">
<rect width="166" height="16" fill="white" transform="translate(1 53)"/>
</clipPath>
</defs>
</svg>
