<svg xmlns="http://www.w3.org/2000/svg" width="168" height="70" fill="none"><path fill="#F7701B" d="M39.434 46.846a10.364 10.364 0 0 1-1.488-.372c-3.84-1.6-7.676-3.2-11.508-4.8a2.904 2.904 0 0 1-1.704-4.056c.216-.456.372-.948.552-1.416 1.2-3.144 2.4-6.276 3.66-9.42a1.345 1.345 0 0 0-.876-2.028c-1.092-.372-2.232-.648-3.348-.96l-4.164-1.128a2.844 2.844 0 0 0-2.976.816c-2.676 2.712-5.376 5.412-8.064 8.112a3.216 3.216 0 0 1-3.744.852c-1.632-.684-3.228-1.404-4.884-2.004-1.2-.456-1.044-1.344-.372-1.944.672-.6 1.704-1.404 2.568-2.088L15.83 16.258c.09-.08.17-.168.24-.264a1.598 1.598 0 0 0-.336-.12l-13.92-2.976a1.028 1.028 0 0 1-.276-.06c-.096 0-.228-.132-.228-.204a.312.312 0 0 1 .144-.264c.304-.188.616-.36.936-.516l5.52-2.592a3.156 3.156 0 0 1 1.848-.264c1.86.276 3.72.576 5.58.78a2.964 2.964 0 0 0 1.608-.288c3.2-1.728 6.4-3.496 9.6-5.304a3.72 3.72 0 0 1 2.664-.408c.145.055.282.127.408.216a1.925 1.925 0 0 1-.264.336l-7.56 5.904c-.276.216-.576.42-.84.66a2.508 2.508 0 0 1-2.22.564c-2.196-.336-4.38-.72-6.576-.996a3.672 3.672 0 0 0-1.74.336c-.752.372-1.481.789-2.184 1.248a3.159 3.159 0 0 0-.504.48c.2.101.41.185.624.252l11.316 2.316 3.504.672c.147.024.291.06.432.108.492.18.588.504.228.9-.876.948-1.752 1.884-2.64 2.82-.588.636-.468 1.116.372 1.332 1.74.432 3.492.828 5.244 1.2l13.632 3.204c.673.13 1.29.465 1.764.96a1.63 1.63 0 0 1 .48 1.2c-.168 2.904-.3 5.808-.444 8.712-.144 2.904-.252 5.844-.444 8.724-.06 1.14-1.008 1.92-2.364 1.92Zm20.809-2.124h-8.736c-1.008 0-1.428-.648-1.032-1.584a1.884 1.884 0 0 1 1.764-1.2h9.372a1.92 1.92 0 0 0 1.884-1.344.924.924 0 0 0-.948-1.32h-9.324a1.763 1.763 0 0 1-.792-.156.876.876 0 0 1-.396-1.092c.576-1.92 1.2-3.84 1.764-5.748a1.872 1.872 0 0 1 1.896-1.2h17.28c.456 0 .936 0 1.2.492a1.331 1.331 0 0 1-.18 1.404 1.992 1.992 0 0 1-1.812.9h-9.228a1.848 1.848 0 0 0-1.764 1.272c-.264.852.108 1.368.996 1.38h9.18c1.2 0 1.512.504 1.2 1.608-.54 1.728-1.068 3.456-1.596 5.172a1.908 1.908 0 0 1-1.908 1.416h-8.82Zm61.763 0h-8.016c-1.02 0-1.428-.552-1.128-1.524l2.052-6.6a1.97 1.97 0 0 1 2.016-1.488h9.024a2.052 2.052 0 0 0 2.28-1.692c.108-.36.228-.708.336-1.068a2.013 2.013 0 0 1 1.884-1.38h3.936a.987.987 0 0 1 .933.379.978.978 0 0 1 .111 1 1985.02 1985.02 0 0 1-3.408 11.029 1.953 1.953 0 0 1-1.908 1.344h-8.112Zm1.368-6.84h-1.932a1.98 1.98 0 0 0-1.872 1.368c-.132.408-.252.828-.372 1.2-.264.912.108 1.416 1.056 1.428h3.864a1.942 1.942 0 0 0 1.872-1.296c.156-.456.3-.912.432-1.38a.93.93 0 0 0-.105-.938.931.931 0 0 0-.867-.37l-2.076-.012Zm31.488 6.84h-7.992c-1.092 0-1.476-.528-1.2-1.572a760.57 760.57 0 0 1 1.992-6.456 2.053 2.053 0 0 1 2.196-1.62h15.864c1.2 0 1.536.528 1.2 1.632-.672 2.2-1.348 4.388-2.028 6.564a1.99 1.99 0 0 1-1.968 1.452h-8.064Zm1.5-2.784h1.968a1.99 1.99 0 0 0 1.932-1.464c.12-.408.24-.804.372-1.2a.948.948 0 0 0-1.008-1.368h-3.9a1.93 1.93 0 0 0-1.896 1.38c-.144.42-.276.852-.408 1.272a.972.972 0 0 0 1.008 1.392c.648.012 1.296-.012 1.932-.012ZM99.35 44.722h-7.98c-1.104 0-1.5-.516-1.2-1.56.684-2.208 1.356-4.404 2.052-6.6a1.98 1.98 0 0 1 1.944-1.488h3.9c.936 0 1.32.564 1.056 1.464-.396 1.332-.816 2.664-1.2 4.008-.252.84.12 1.38.996 1.392h3.936a1.97 1.97 0 0 0 1.896-1.452c.408-1.296.792-2.58 1.2-3.876a2.018 2.018 0 0 1 2.04-1.536h2.4c.948 0 1.356.576 1.08 1.476-.68 2.232-1.368 4.464-2.064 6.696a2.02 2.02 0 0 1-2.004 1.476H99.35Zm-18.528 0h-3.936c-.996 0-1.416-.564-1.116-1.536.396-1.284.804-2.568 1.2-3.864a2.76 2.76 0 0 0 .108-.828.672.672 0 0 0-.624-.636.767.767 0 0 1-.744-.888 2.028 2.028 0 0 1 1.644-1.92 1.595 1.595 0 0 0 1.308-1.2c.168-.456.288-.924.444-1.38a1.98 1.98 0 0 1 1.992-1.476h3.828c.936 0 1.344.564 1.08 1.464-.132.456-.288.9-.408 1.356a.925.925 0 0 0 .948 1.272h1.932a1.044 1.044 0 0 1 1.008 1.62 1.908 1.908 0 0 1-1.764 1.2h-1.896a1.98 1.98 0 0 0-1.956 1.464c-.192.648-.396 1.284-.588 1.92a.973.973 0 0 0 .996 1.368h1.344c.444 0 .888.144 1.032.636a.876.876 0 0 1-.528 1.068c-.367.213-.777.34-1.2.372-1.38.012-2.736-.012-4.104-.012Zm-4.164-29.88H71.99a2.71 2.71 0 0 1-.828-.132.564.564 0 0 1-.372-.384.516.516 0 0 1 .264-.468c.44-.179.906-.288 1.38-.324h5.244a3.347 3.347 0 0 0 1.2-.3.48.48 0 0 0 .252-.396.648.648 0 0 0-.36-.372 1.86 1.86 0 0 0-.684-.108h-5.352c-.96 0-1.296-.468-.996-1.392l1.044-3.252a1.8 1.8 0 0 1 1.776-1.308h9.6c.9 0 1.2.492.996 1.32a151.69 151.69 0 0 1-1.812 5.76 1.788 1.788 0 0 1-1.86 1.356h-4.824Zm.96-4.26h.96a1.776 1.776 0 0 0 1.62-1.2c.24-.756 0-1.2-.852-1.26a16.656 16.656 0 0 0-1.896 0 1.752 1.752 0 0 0-1.668 1.416.805.805 0 0 0 .792 1.044c.348.024.696 0 1.044 0Zm-21.384 1.74h-4.8c-.936 0-1.284-.48-.996-1.368l1.044-3.216a1.788 1.788 0 0 1 1.86-1.356h5.088a1.764 1.764 0 0 0 1.884-1.404c.132-.456.276-.924.408-1.392a1.608 1.608 0 0 1 1.644-1.2h1.896c.816 0 1.2.48.924 1.272-.64 2.032-1.284 4.06-1.932 6.084l-.396 1.284a1.788 1.788 0 0 1-1.8 1.332l-4.824-.036Zm.084-1.74h.96a1.74 1.74 0 0 0 1.656-1.308.828.828 0 0 0-.828-1.2h-1.932a1.752 1.752 0 0 0-1.656 1.308.816.816 0 0 0 .828 1.2h.972ZM97.97 29.254h-4.716a3.058 3.058 0 0 1-.936-.156c-.432-.156-.492-.624-.084-.804a3.1 3.1 0 0 1 1.356-.348h5.352c.383-.02.757-.115 1.104-.276a.536.536 0 0 0 .288-.444c0-.144-.24-.3-.408-.36a2.055 2.055 0 0 0-.72-.096H94.07c-.972 0-1.32-.48-1.02-1.416.3-.936.684-2.136 1.032-3.204a1.8 1.8 0 0 1 1.836-1.332h.828c.816 0 1.2.48.936 1.272-.168.576-.36 1.128-.54 1.704-.24.78.084 1.2.9 1.2h1.716a1.822 1.822 0 0 0 1.788-1.344c.18-.54.348-1.08.516-1.62a1.806 1.806 0 0 1 1.704-1.2h1.824c.732 0 1.14.492.924 1.2-.648 2.064-1.296 4.128-2.004 6.18a1.676 1.676 0 0 1-1.752 1.116l-4.788-.072Zm61.428-2.52h-4.8c-.972 0-1.308-.468-1.02-1.38.348-1.104.696-2.196 1.056-3.288a1.808 1.808 0 0 1 1.776-1.272h5.088a1.788 1.788 0 0 0 1.944-1.368 1.814 1.814 0 0 1 1.632-1.2h1.776c.888 0 1.272.444 1.02 1.284a226.13 226.13 0 0 1-1.98 6.108 1.605 1.605 0 0 1-1.632 1.068l-4.86.048Zm.096-1.74h.888a1.788 1.788 0 0 0 1.704-1.2c.264-.744-.072-1.2-.864-1.272h-1.824a1.739 1.739 0 0 0-1.704 1.344.813.813 0 0 0 .086.781.817.817 0 0 0 .706.347c.336.024.672 0 1.008 0ZM55.31 16.762h.852c.816 0 1.2.42.972 1.2-.132.564-.264 1.128-.384 1.704-.12.576.168 1.104.888 1.104h5.124c1.116 0 1.44.444 1.104 1.5l-1.008 3.144a1.824 1.824 0 0 1-1.788 1.308h-.888c-.816 0-1.2-.504-.924-1.296.168-.552.36-1.104.528-1.656.252-.78-.084-1.2-.888-1.26H57.11a1.765 1.765 0 0 0-1.692 1.26l-.54 1.692a1.788 1.788 0 0 1-1.68 1.2h-1.896a.864.864 0 0 1-.912-1.2c.76-2.528 1.52-5.052 2.28-7.572a1.753 1.753 0 0 1 1.632-1.2l1.008.072Zm55.776 9.972h-1.044a1.202 1.202 0 0 1-1.284-1.2c-.096-1.2-.168-2.4-.204-3.6a1.13 1.13 0 0 1 1.2-1.2h1.932a1.34 1.34 0 0 1 .979.39 1.33 1.33 0 0 1 .389.978c0 .348 0 .696.072 1.032.058.166.139.323.24.468.149-.067.286-.156.408-.264.36-.48.696-.972 1.032-1.452a2.567 2.567 0 0 1 2.172-1.2h2.16a1.334 1.334 0 0 1 1.428 1.404c.01.349.038.697.084 1.044.052.155.129.3.228.432.145-.063.278-.148.396-.252.384-.516.696-1.08 1.116-1.56a4.645 4.645 0 0 1 1.2-.936c.204-.108.54 0 .816 0 .012.269-.029.538-.12.792-.576.876-1.2 1.74-1.788 2.604l-.9 1.272a2.525 2.525 0 0 1-2.112 1.116h-1.896a1.328 1.328 0 0 1-1.285-.78 1.333 1.333 0 0 1-.119-.516c0-.564 0-1.14-.108-1.704a1.33 1.33 0 0 0-.204-.444 1.475 1.475 0 0 0-.42.264 19.958 19.958 0 0 0-1.2 1.668 2.95 2.95 0 0 1-2.964 1.524 2.306 2.306 0 0 0-.288 0l.084.12Zm27.264 17.988h-2.004a.969.969 0 0 1-.917-.373.975.975 0 0 1-.115-.983 599.552 599.552 0 0 1 2.172-7.02 1.9 1.9 0 0 1 1.74-1.2h4.128a.952.952 0 0 1 .86.369.95.95 0 0 1 .124.927c-.696 2.4-1.428 4.704-2.172 7.056a1.947 1.947 0 0 1-1.812 1.2l-2.004.024Zm-28.463-32.4h-4.8c-.876 0-1.2-.48-.984-1.308.12-.384.252-.768.372-1.2a1.846 1.846 0 0 1 1.896-1.368h5.316a4.899 4.899 0 0 0 1.08-.204.28.28 0 0 0 .18-.204.265.265 0 0 0-.18-.192 4.017 4.017 0 0 0-.912-.144h-5.316a2.482 2.482 0 0 1-.888-.168.394.394 0 0 1-.333-.36.398.398 0 0 1 .065-.252.398.398 0 0 1 .208-.156 2.65 2.65 0 0 1 1.2-.372h9.948a.862.862 0 0 1 .965.755.867.867 0 0 1-.065.445c-.36 1.2-.744 2.4-1.2 3.528a1.768 1.768 0 0 1-1.704 1.2h-4.848Zm0-1.356v.072c.624 0 1.2-.084 1.884-.168.144 0 .276-.204.42-.312-.144-.084-.276-.252-.42-.252h-3.444c-.156 0-.312.192-.456.3.156.108.324.288.492.312.468.072.984.048 1.488.048h.036Zm20.903 15.768h-4.8c-.972 0-1.308-.48-1.008-1.392.348-1.104.696-2.196 1.056-3.288a1.794 1.794 0 0 1 1.728-1.272h9.78c.804 0 1.2.504.924 1.284l-1.08 3.36a1.845 1.845 0 0 1-1.8 1.308h-4.8Zm1.8-4.212h-.888a1.775 1.775 0 0 0-1.704 1.296.812.812 0 0 0 .05.875.82.82 0 0 0 .814.325h1.86a1.761 1.761 0 0 0 1.668-1.308.83.83 0 0 0-.048-.83.822.822 0 0 0-.744-.37l-1.008.012Zm12.492 4.212h-4.8c-.948 0-1.296-.48-.996-1.392l1.044-3.252a1.779 1.779 0 0 1 1.74-1.308h9.804a.865.865 0 0 1 .912 1.2c-.376 1.2-.776 2.4-1.2 3.6a1.77 1.77 0 0 1-1.728 1.2l-4.776-.048Zm.996-1.74h.936a1.765 1.765 0 0 0 1.656-1.2.833.833 0 0 0-.073-.858.843.843 0 0 0-.791-.342h-1.848a1.763 1.763 0 0 0-1.704 1.392.822.822 0 0 0 .114.746.812.812 0 0 0 .678.334 7.59 7.59 0 0 1 1.032-.072Zm-75.288 1.74h-4.8c-.972 0-1.308-.48-1.008-1.416.3-.936.672-2.052.996-3.084a1.836 1.836 0 0 1 1.968-1.452h9.468c.96 0 1.308.456 1.008 1.38-.348 1.116-.708 2.22-1.068 3.324a1.74 1.74 0 0 1-1.704 1.2l-4.86.048Zm1.044-1.728h.852a1.775 1.775 0 0 0 1.704-1.2.85.85 0 0 0-.876-1.2h-1.776a1.776 1.776 0 0 0-1.716 1.332.816.816 0 0 0 .804 1.14 6.11 6.11 0 0 1 1.044-.072h-.036ZM97.55 12.322h-2.268c-.864 0-1.2-.492-.96-1.32.18-.6.396-1.2.576-1.8.18-.6.132-.804-.48-1.2a.599.599 0 0 1-.24-.408 1.2 1.2 0 0 1 .828-1.2 1.488 1.488 0 0 0 1.14-1.092 1.884 1.884 0 0 1 2.088-1.464h1.56a.865.865 0 0 1 .9 1.2c-.24.924 0 1.284 1.008 1.296.287-.021.575.007.852.084.216.084.492.288.528.48a.804.804 0 0 1-.276.696 4.8 4.8 0 0 1-1.296.468c-.324.072-.696 0-1.02.096a2.113 2.113 0 0 0-1.368 2.1c0 .396.324.648.768.696.332.02.662.073.984.156a.608.608 0 0 1 .348.384.527.527 0 0 1-.252.432 4.21 4.21 0 0 1-1.2.348c-.732.084-1.476.048-2.22.048Zm-13.235 5.544h1.008a.84.84 0 0 1 .852 1.2c-.252.84-.528 1.656-.792 2.484l-1.2 3.912a1.776 1.776 0 0 1-1.752 1.284h-1.824c-.624 0-1.14-.492-.912-1.2.68-2.16 1.372-4.316 2.076-6.468a1.728 1.728 0 0 1 1.644-1.2l.9-.012Zm36.179-5.544h-.96c-.696 0-1.08-.504-.876-1.2.696-2.22 1.404-4.44 2.148-6.636a1.574 1.574 0 0 1 1.584-1.08h1.968a.83.83 0 0 1 .852 1.2 684.618 684.618 0 0 1-2.088 6.528 1.81 1.81 0 0 1-1.668 1.2h-.96v-.012ZM91.01 17.866h.816c.913 0 1.2.468.96 1.344a522.677 522.677 0 0 1-1.487 4.632c-.169.516-.325 1.044-.493 1.56a1.8 1.8 0 0 1-1.811 1.332h-1.776c-.768 0-1.2-.48-.912-1.2a388.04 388.04 0 0 1 2.1-6.54 1.704 1.704 0 0 1 1.56-1.116l1.043-.012Zm-2.856-5.544h-1.043a.803.803 0 0 1-.829-1.08c.373-1.272.78-2.556 1.2-3.804a1.56 1.56 0 0 1 1.537-1.032h1.931c.636 0 1.129.504.912 1.2-.371 1.2-.755 2.4-1.2 3.6a1.788 1.788 0 0 1-1.632 1.2l-.876-.084Zm-21.287 0h-1.008a.827.827 0 0 1-.852-1.2c.36-1.2.743-2.4 1.2-3.6a1.656 1.656 0 0 1 1.596-1.128h1.931c.637 0 1.129.492.9 1.2-.36 1.2-.731 2.4-1.2 3.6a1.68 1.68 0 0 1-1.572 1.116c-.323.024-.671.012-.995.012Zm74.868 21.42h-2.04a.972.972 0 0 1-1.008-1.32 2.01 2.01 0 0 1 1.896-1.452h3.9a1.068 1.068 0 0 1 .984 1.728 1.939 1.939 0 0 1-1.752 1.044h-1.98ZM30.65 3.13l-2.256-.336a2.555 2.555 0 0 1-.684-.276c-.444-.264-.444-.636 0-.816a6.768 6.768 0 0 1 1.68-.42 7.92 7.92 0 0 1 3.6.312c.264.096.468.384.696.576-.24.192-.456.504-.732.576-.78.18-1.56.264-2.304.384Zm38.389 2.436h-1.2c-.432 0-.708-.132-.816-.528-.108-.396.156-.672.468-.876a.947.947 0 0 1 .48-.204c.972 0 1.944-.072 2.916 0a.852.852 0 0 1 .576.516.865.865 0 0 1-.324.708 2.749 2.749 0 0 1-1.08.42c-.356.03-.713.03-1.068 0l.048-.036Zm21.323 0h-1.2c-.372 0-.684-.132-.78-.516a.696.696 0 0 1 .42-.828c.33-.182.693-.296 1.068-.336a16.55 16.55 0 0 1 2.04 0c.408 0 .828.096.936.576a.78.78 0 0 1-.612.9c-.605.148-1.218.26-1.836.336l-.036-.132Z"/><g clip-path="url(#a)"><path fill="#F7701B" d="M1 53h166v16H1z"/><path fill="#fff" d="M22.112 57.726V56.2h6.832v1.526h-2.59V66h-1.652v-8.274h-2.59Zm19.179 5.11c.214.383.443.714.686.994.252.28.527.5.826.658.308.159.644.238 1.008.238.448 0 .812-.121 1.092-.364s.42-.56.42-.952c0-.355-.089-.64-.266-.854-.168-.224-.411-.41-.728-.56a10.383 10.383 0 0 0-1.092-.462 8.459 8.459 0 0 1-.812-.336 4.893 4.893 0 0 1-.854-.546 2.842 2.842 0 0 1-.672-.812c-.178-.327-.266-.719-.266-1.176 0-.523.135-.98.406-1.372.27-.401.634-.714 1.092-.938.466-.224.994-.336 1.582-.336.578 0 1.082.107 1.512.322a3.728 3.728 0 0 1 1.778 1.778l-1.33.756a3.37 3.37 0 0 0-.476-.672 2.033 2.033 0 0 0-.658-.504 1.775 1.775 0 0 0-.854-.196c-.458 0-.794.107-1.008.322a.974.974 0 0 0-.322.728c0 .252.074.48.224.686.158.196.401.383.728.56.326.177.751.36 1.274.546.298.103.592.233.882.392.298.159.564.355.798.588.242.233.438.513.588.84.149.317.224.69.224 1.12 0 .457-.094.868-.28 1.232-.178.364-.42.672-.728.924-.308.243-.658.43-1.05.56-.383.14-.784.21-1.204.21-.57 0-1.102-.112-1.596-.336a4.522 4.522 0 0 1-1.288-.924 4.838 4.838 0 0 1-.868-1.246l1.232-.868ZM59.184 56.2h1.652v6.51c0 .597.163 1.083.49 1.456.327.373.803.56 1.428.56.635 0 1.11-.187 1.428-.56.327-.373.49-.859.49-1.456V56.2h1.666v6.58a3.79 3.79 0 0 1-.266 1.456 2.89 2.89 0 0 1-.742 1.078 3.24 3.24 0 0 1-1.134.686 4.21 4.21 0 0 1-1.442.238A4.21 4.21 0 0 1 61.312 66a3.24 3.24 0 0 1-1.134-.686 3.135 3.135 0 0 1-.742-1.078 3.97 3.97 0 0 1-.252-1.456V56.2Zm19.758 0h1.694V66h-1.694v-9.8Zm5.334 0h2.002l-4.144 4.592L86.488 66h-2.044l-4.298-5.166 4.13-4.634Zm13.764 0h1.652v6.51c0 .597.163 1.083.49 1.456.326.373.802.56 1.428.56.634 0 1.11-.187 1.428-.56.326-.373.49-.859.49-1.456V56.2h1.666v6.58a3.79 3.79 0 0 1-.266 1.456c-.168.42-.416.78-.742 1.078a3.252 3.252 0 0 1-1.134.686c-.439.159-.92.238-1.442.238-.523 0-1.004-.08-1.442-.238a3.238 3.238 0 0 1-1.134-.686 3.134 3.134 0 0 1-.742-1.078 3.97 3.97 0 0 1-.252-1.456V56.2Zm21.017 4.746v-.812h1.582c.308 0 .579-.051.812-.154.233-.103.415-.247.546-.434a1.23 1.23 0 0 0 .196-.7c0-.41-.145-.728-.434-.952-.28-.224-.653-.336-1.12-.336h-1.19v7.07h1.372c.373 0 .705-.06.994-.182.289-.121.518-.299.686-.532.168-.243.252-.546.252-.91 0-.27-.047-.504-.14-.7a1.29 1.29 0 0 0-.406-.49 1.572 1.572 0 0 0-.616-.294 2.85 2.85 0 0 0-.77-.098h-1.764v-.924h1.862c.476 0 .924.056 1.344.168.429.103.807.261 1.134.476.327.215.583.49.77.826.187.336.28.737.28 1.204 0 .644-.149 1.176-.448 1.596-.299.42-.714.733-1.246.938-.523.196-1.134.294-1.834.294h-3.122v-9.8h2.954c.625 0 1.171.089 1.638.266.467.177.831.448 1.092.812.271.364.406.826.406 1.386 0 .485-.135.9-.406 1.246-.261.336-.625.593-1.092.77-.467.177-1.013.266-1.638.266h-1.694Zm18.619 2.534.322-1.4h4.55l.308 1.4h-5.18Zm2.562-4.508-1.54 3.598-.028.364L137.312 66h-1.862l4.788-10.346L145.04 66h-1.876l-1.33-2.982-.028-.406-1.568-3.64Z"/></g><defs><clipPath id="a"><path fill="#fff" d="M1 53h166v16H1z"/></clipPath></defs></svg>